<?xml version="1.0" encoding="utf-8"?>
<!-- Generator: Adobe Illustrator 25.2.0, SVG Export Plug-In . SVG Version: 6.00 Build 0)  -->
<svg version="1.1" id="Layer_1" xmlns="http://www.w3.org/2000/svg" xmlns:xlink="http://www.w3.org/1999/xlink" x="0px" y="0px"
	 viewBox="0 0 580.2 300" style="enable-background:new 0 0 580.2 300;" xml:space="preserve">
<style type="text/css">
	.st0{fill:#FFFFFF;}
	.st1{enable-background:new    ;}
</style>
<g id="Cedro">
	<path class="st0" d="M200.1,204.8c-0.2-0.9-0.9-1.6-1.8-1.9c-0.7-1.3-1.8-2.3-3.2-2.8c-7.1-6.4-16.1-9.8-24.1-14.9
		c-6.4-4.1-6.4-6.5,0.1-10.3l3.4-0.1c3.8,1.8,7.4,3.8,11.3,5.4c2,0.8,4.8,1.7,6-0.9c1.2-2.7-1.4-3.7-3.3-5
		c-4.1-2.9-8.8-5.3-11.9-9.3c-3.3-4.2-7-7.4-12.6-7.7l0,0c-0.7-0.3-1.4-0.5-2.2-0.8c-1.2-0.4-3.1,0.8-3.7-1.1
		c-0.5-1.6,1.2-2.4,2-3.6l9.6-0.3c3,0,6.1,0,9.2,0.1c2.1,0.1,4.1-0.1,4.5-2.5c0.3-2.2-1.7-2.8-3.5-3.3c-6.4-1.7-12.7-3.3-19.1-4.9
		c-4.4-1.1-4.7-1.8-1.6-5.4l3.6-0.3c3.1,2.2,6.8,1.6,10.2,2.3c1.5,0.3,3,1,3.6-1c0.5-1.7-0.4-3.4-2-4c-2.1-1.1-4.4-2-6.6-3.1
		c-11.5-5.8-19.4-16.4-30.8-22.3c-1.1-0.5-1.7-1.7-1.4-2.8c0.4-1.3,1.5-2.2,2.9-2.3c1.6-0.1,3.2,0.2,4.7,1c3.4,1.6,7,2.6,10.7,3
		c1.2,0.1,3,0.7,3.5-0.8c0.5-1.7-1.3-1.8-2.4-2.3c-3.6-1.7-6.9-3.9-9.9-6.5c-1.1-1-3.5-1.6-2.5-3.5c1-1.4,2.9-1.7,4.4-0.8
		c0.9,0.6,2.1,0.3,2.7-0.6c0.1-0.1,0.1-0.2,0.2-0.3c0.6-1.1,0.3-2.4-0.8-3c-7.7-4.6-14.5-11.1-23.9-12.2c-6.9-0.7-13-4.8-16.3-10.9
		c-1.5-2.6-2.8-5.2-4.6-8.6c-5,10.4-14.3,15.9-22.3,23.4c2.6,1.3,5.9-0.4,6.1,2.4c0.2,2.3-2.6,3-4.3,4.1c-3.3,2-6.8,3.8-10.1,5.8
		c-1,0.6-2.5,1.2-2.4,2.7c0.1,2,1.9,1.4,3,1.6c1.7,0.3,3.5,0.9,3.4,2.7c0.1,1.9-1.4,3.5-3.2,3.6c0,0,0,0-0.1,0
		c-4.9-0.1-7.2,2.9-9.3,6.6c-1.7,2.6-4.2,4.6-7,5.8c-3.2,1.5-6.3,3.2-9.3,5.1c-2.3,1.6-6.9,2.6-5.3,6.3c1.8,4.1,5.7,1.5,8.5,0.5
		c3.8-1.3,6.9-1.5,9.2,2.4l0.3,4.6c-2.5,4-5.1,8.4-9.7,9.8c-8.3,2.5-14.3,7.9-20,13.9c-1.3,1.4-4.2,2.2-2.4,4.9
		c1.5,2.1,4.3,2.7,6.5,1.4c2.9-1.4,5.7-3.1,8.3-4.9c1.8-1.5,4.5-1.4,6.2,0.3c1.7,1.6,2.3,4.1,1.3,6.3c-1,2.1-2.8,3.7-4.9,4.4
		c-4.4,2.4-8.6,5-12.6,8c-5.9,3.9-9.5,10.8-16.8,13c-2.4,0.7-1.9,2.7,0.5,3.6c1.1,1.1,2.8,1.1,4,0.2l0,0c1.9-0.4,3.8-0.7,5.6-1.2
		c8.2-2.1,15.3-6.6,22.9-10.1c3-1.4,6.4-1.8,8.1,1.4c1.7,3.3-1.2,5.2-3.7,6.8c-5.5,3.5-11.9,4.8-17.6,7.6c-1.1-0.2-2.2,0.2-2.9,1
		l0,0c-2.6,0.8-5.9-0.2-7.6,3c-1.4-0.1-1.9,0.6-1.8,1.9c0,1.2,0.9,2.1,2.1,2.2c0.1,0,0.2,0,0.3,0c2.8,1.1,5.9,1.1,8.7,0l0,0l2.5-0.2
		l0,0c3.5,0,6.9-1,10-2.8c1.6,0.2,3.1-0.6,3.8-2c2.4,0.5,4-0.9,5.7-2.1l0,0c3.1-0.7,6-1.9,8.8-3.4c8-3.1,11.6-2.2,16.5,4.6
		c-0.1,1.1,0.2,2.1,0.9,2.9c-0.2,1.9-0.5,3.9-0.7,5.8l-0.9,2l0,0l-3.6,6.6l0,0C74.1,226,67,231.9,58.6,235c-0.3-0.1-0.6-0.1-0.8,0.2
		c-2.7,0.6-5.1,1.8-7.2,3.6c-1.2,0.8-1.9,1.6-0.6,3c1.2,1.2,2.2,1,3.1-0.4c1.5-1.8,3.5-3.2,5.7-4.1l2.8-0.4l0,0
		c1.5,0.3,3,0.1,4.3-0.7l2.5-0.3l0,0c0.9-0.2,1.9-0.3,2.8-0.5c6.4-1.5,10.3-7.1,15.7-10.2l5.6-0.8c2.4,1.7,5.5,2.1,8.2,1
		c1.8-0.7,4.7-0.5,5.2,1.4c1.6,5.4,7.2,6.5,10.2,10.3c0.7,0.8,1.6,1.9,2.8,1.6c1.6-0.4,1-1.8,1-2.9c0.1-3.3,2.1-4.1,4.9-3.6
		c6.5,1.1,13.2,1.9,16.8,8.7c0.4,0.7,1,1.3,1.7,1.7c1.3,0.9,2.9,2.1,4.2,0.2c1.1-1.5,0.5-2.6-1-4c-2.4-2.3-5.5-3.5-7.9-5.8l-3.2-2.9
		l0,0c-3.3-3.1-6-6.6-8.1-10.6l-1.7-7.1l0,0c-0.1-0.6-0.1-1.1-0.2-1.7V205l0,0c0-0.9,0.1-1.8,0.1-2.7l0,0c1-4.2,0.5-9.1,5.7-11
		l3.7,0.2l0,0c4.3,2.5,8.6,5.2,13.8,5.5h6.8c9.4,0.1,19-1,27.3,4.9l2.8,2.1c1.4,1.3,3,2.3,4.8,3c1.5,0.9,2.9,1.9,4.5,2.7
		c1.3,0.8,2.9,0.8,4.1-0.2C200.9,208.2,201.9,206.5,200.1,204.8z M68.5,158.8c-2.1,0.9-4.2,1.6-6.4,2.1c-3.3,1-6.7-0.9-7.7-4.2
		c-0.1-0.4-0.2-0.9-0.2-1.3c-0.3-2.4,1.7-2.6,3.1-2.8c3.2-0.5,6.4-0.7,10.6-1c2-0.4,4,0.9,4.5,2.9C72.9,157.1,70.4,158,68.5,158.8
		L68.5,158.8z M69.6,130.4c-2.5,0.3-6.2-3.4-6.4-6.3c-0.3-1.7,0.7-3.3,2.4-3.6c0.2,0,0.4-0.1,0.5-0.1c2.5-0.3,7,3.7,7.2,6.5
		C73.4,129.2,71.6,130.1,69.6,130.4L69.6,130.4z M114.9,94.9c1.7,0,2.5,1.1,2.5,2.8c0.1,1.3-0.8,2.5-2.1,2.6c0,0-0.1,0-0.1,0
		c-1.4-0.2-2.6-1.3-2.7-2.7c-0.3-1.2,0.4-2.3,1.5-2.7C114.3,94.9,114.6,94.8,114.9,94.9L114.9,94.9z M108.5,117.3
		c-0.1,1.7-1.6,3.1-3.3,3c-0.1,0-0.1,0-0.2,0c-1.4,0-2.5-1.1-2.5-2.4c0-0.1,0-0.3,0-0.4c0-2.6,2.2-2.3,3.8-2.6
		C107.9,114.6,108.5,115.7,108.5,117.3L108.5,117.3z M88.6,103.1c0.8-0.5,1.9-1.8,3-0.7c1.1,1.1,1.3,2.7,0.5,4
		c-1.4,3.1-4.5,3.9-6.9,5.1c-2.9-0.1-3.6-1.4-2.5-3.5C84.2,105.8,86.2,104.1,88.6,103.1L88.6,103.1z M83.4,91.9
		c1.2-0.2,2.4,0.6,2.6,1.8c0.1,0.3,0.1,0.6,0,0.9c0,1.4-1.1,2.5-2.4,2.6c-1.4-0.1-2.4-1.3-2.4-2.6C81.2,93.1,81.7,92,83.4,91.9
		L83.4,91.9z M75.5,122.3c-0.1-2.1,1.4-4,3.6-4.1c0.3,0,0.6,0,0.9,0c2.7,0,4.3,1.1,4.1,3.4c-0.3,2.5-2.6,4.3-5.2,4.1
		c-1.7,0.1-3.2-1.1-3.3-2.8C75.5,122.7,75.5,122.5,75.5,122.3L75.5,122.3z M81.3,182.3c-4-0.9-3.3-4.8-3.9-6.5
		c-0.6-2.7-0.4-4.1,1.4-3.8c3.7,0.6,4.6,3.5,5.1,6.7C84.4,180.8,83.2,182.7,81.3,182.3L81.3,182.3z M87.9,146
		c-1.5-0.1-2.7-1.2-2.8-2.7c-0.2-1,0.3-1.9,1.3-2.2c0.2,0,0.4-0.1,0.6,0c1.6,0,2.3,1.4,2.9,2.5C89.9,145.2,89.2,146.1,87.9,146
		L87.9,146z M93.3,181.9c-1.9-0.8-3.1-2.7-3.1-4.8c-0.1-1,0.7-1.5,1.6-1.2c2,0.5,3.3,2.3,3.3,4.3C95.1,181,95,182.2,93.3,181.9
		L93.3,181.9z M97.2,101c0.7-4,4.4-4.3,7.4-5.1c2-0.5,3.2,0.7,3,2.7c-0.4,4.8-5.1,2.9-6.9,4.7C98.5,103.4,96.9,102.7,97.2,101
		L97.2,101z M99.9,143.8c-1.3,0.1-2.1-0.8-2.1-2.1c-0.2-1.3,0.8-2.6,2.1-2.8c1.1,0,2.1,0.9,2.1,2c0,0,0,0.1,0,0.1
		C102,142.4,101.5,143.7,99.9,143.8L99.9,143.8z M104.8,181c-1.7,0.2-3.1-1-3.3-2.7c0-0.3,0-0.7,0.1-1c0.1-2-0.3-3.8,2-3.7
		c2.3,0,4.2,1.8,4.3,4.1c0,0.1,0,0.1,0,0.2c0.2,1.5-0.9,2.9-2.5,3C105.2,181,105,181,104.8,181L104.8,181z M110.1,151.4
		c-1.9,0-3.4-1.4-3.5-3.2c-0.3-1.9-0.5-4.4,1.4-5.2c3.3-1.5,3.4,2.4,5,3.8l0.5,1.7C113.4,150.7,112.2,151.5,110.1,151.4L110.1,151.4
		z M118.8,150c-0.9,1.6-2,1.2-3.1,0.2c-0.1-0.5-0.2-1.1-0.3-1.7c1-0.5,1-2.8,2.8-1.6C119.2,147.7,119.5,149,118.8,150L118.8,150z
		 M116.8,121.1c-1.5,0.3-2.9-0.7-3.2-2.2c0-0.2-0.1-0.4,0-0.6c-0.2-2.4,1.7-3.5,3.6-3.8c1.7-0.3,1.9,1.3,2.2,2.7
		C118.6,118.5,119.2,120.8,116.8,121.1L116.8,121.1z M145,132.6c2-0.4,2.7,1.3,2.9,3.4c0.3,1.7-0.8,3.4-2.4,3.7
		c-0.3,0.1-0.6,0.1-0.9,0.1c-2.1,0.3-4-1.1-4.4-3.1c0-0.1,0-0.2,0-0.4C139.9,133.8,142,132.8,145,132.6L145,132.6z M122.2,99.2
		c-0.2-2.2,1-3.2,3-3.4s3,0.8,3.1,2.7c0.2,1.9-1.2,3.5-3.1,3.7C123.6,102.2,122.2,100.9,122.2,99.2L122.2,99.2z M131,126
		c-3.4-0.2-6.5-1-6.5-4.7c0-3.2,3.1-3.9,5.7-4c3.2-0.1,5.5,1.4,5.6,4.7C135.9,125.3,133.3,125.8,131,126L131,126z M149.1,167.8
		c-1.8,2.7-4.9,4.3-8.2,4c-1.6-0.2-4.3-0.2-4.9-2.4c-0.6-2.6,1.8-3.8,3.8-4.9c0.3-0.2,0.6-0.3,0.9-0.4c2.5-0.3,5.2-2.5,7.6,0.2
		C149.2,165.3,149.9,166.6,149.1,167.8L149.1,167.8z M158.6,176.7c-1.9-0.3-4.4-0.2-4.5-3.4c-0.1-2.7,4.2-6.3,7.6-6.3
		c2.2-0.1,4,1.5,4.2,3.7c0,0.2,0,0.4,0,0.6C166,174,162.3,176.7,158.6,176.7L158.6,176.7z"/>
</g>
<g class="st1">
	<path class="st0" d="M231.7,127.1l-7.9-10.6h29.5c4.3,0,8,0.7,11.1,2.1c3.1,1.4,5.5,3.4,7.1,5.8c1.6,2.5,2.4,5.3,2.4,8.6
		c0,3.3-0.9,6.3-2.6,8.8c-1.7,2.5-4.2,4.5-7.5,5.8c4.3,1.1,7.7,3,10.1,6c2.4,2.9,3.6,6.5,3.6,10.6c0,3.3-0.8,6.3-2.4,9
		c-1.6,2.6-4,4.7-7.1,6.2c-3.1,1.5-6.8,2.2-11.1,2.2h-33l7.9-10.6V127.1z M259.4,142.9c1.8-2.7,2.7-5.9,2.7-9.8
		c0-3.9-0.9-7.2-2.8-9.8c-1.8-2.7-4.6-4-8.2-4h-6.2v27.7h6.2C254.8,146.9,257.5,145.5,259.4,142.9z M262.8,174.7
		c1.8-2.8,2.8-6.3,2.8-10.4c0-4.1-0.9-7.6-2.8-10.5c-1.8-2.9-4.6-4.3-8.2-4.3h-9.8V179h9.8C258.2,179,261,177.5,262.8,174.7z"/>
	<path class="st0" d="M288.8,158c5.2-3.2,11.3-5.5,18.2-6.9v-2.6c0-2.2-0.2-4.3-0.7-6.4c-0.5-2.1-1.5-3.2-3.2-3.2
		c-0.8,0.2-2.5,1.6-5.1,4.1c-2.6,2.5-5.1,5.2-7.4,8.1l-5.8-12.2c1.8-0.7,4.2-1.3,7.5-1.8c3.2-0.5,6.9-0.7,10.9-0.7
		c5.9,0,9.9,1.1,12.1,3.2c2.1,2.1,3.2,5.1,3.2,9V171l6.7,10.6H307v-6.9c-1.6,2.3-3.6,4.3-6,5.8c-2.4,1.6-5,2.3-7.9,2.3
		c-2.4,0-4.5-0.6-6.4-1.8c-1.8-1.2-3.3-2.8-4.3-4.7c-1-2-1.5-4.1-1.5-6.4C281,165.2,283.6,161.2,288.8,158z M294.5,173.4
		c0.8,1.2,1.9,1.8,3.2,1.8c1.8,0,3.5-0.4,5-1.1c1.5-0.7,2.9-1.7,4.4-3v-17.2c-2.6,0.8-4.9,2.1-7,3.9c-2.1,1.8-3.7,3.6-4.9,5.6
		c-1.2,2-1.8,3.7-1.8,5.2C293.3,170.6,293.7,172.2,294.5,173.4z"/>
	<path class="st0" d="M336.5,158c5.2-3.2,11.3-5.5,18.2-6.9v-2.6c0-2.2-0.2-4.3-0.7-6.4c-0.5-2.1-1.5-3.2-3.2-3.2
		c-0.8,0.2-2.5,1.6-5.1,4.1c-2.6,2.5-5.1,5.2-7.4,8.1l-5.8-12.2c1.8-0.7,4.2-1.3,7.5-1.8c3.2-0.5,6.9-0.7,10.9-0.7
		c5.9,0,9.9,1.1,12.1,3.2c2.1,2.1,3.2,5.1,3.2,9V171l6.7,10.6h-18.1v-6.9c-1.6,2.3-3.6,4.3-6,5.8c-2.4,1.6-5,2.3-7.9,2.3
		c-2.4,0-4.5-0.6-6.4-1.8c-1.8-1.2-3.3-2.8-4.3-4.7c-1-2-1.5-4.1-1.5-6.4C328.7,165.2,331.3,161.2,336.5,158z M342.2,173.4
		c0.8,1.2,1.9,1.8,3.2,1.8c1.8,0,3.5-0.4,5-1.1c1.5-0.7,2.9-1.7,4.4-3v-17.2c-2.6,0.8-4.9,2.1-7,3.9c-2.1,1.8-3.7,3.6-4.9,5.6
		c-1.2,2-1.8,3.7-1.8,5.2C341,170.6,341.4,172.2,342.2,173.4z"/>
	<path class="st0" d="M382.5,171v-41.8l-6.7-10.5l18.1-3.5V171l6.7,10.6h-24.8L382.5,171z"/>
	<path class="st0" d="M410.3,129.3l-6.7-10.5l18.1-3.5v30.1c1.6-2.5,3.5-4.6,5.8-6.3c2.3-1.7,4.5-2.5,6.8-2.5c3.5,0,6.5,1,9,3.1
		c2.5,2.1,4.4,4.8,5.6,8.4c1.3,3.5,1.9,7.4,1.9,11.8c0,4.3-0.6,8.3-1.9,11.8c-1.3,3.5-3.1,6.3-5.6,8.4c-2.5,2.1-5.5,3.1-9,3.1
		c-2.3,0-4.6-0.8-6.8-2.5c-2.3-1.7-4.2-3.8-5.8-6.3v7.5h-18.1l6.7-10.6V129.3z M426.2,175.2c1.3,1.2,2.5,1.8,3.8,1.8
		c2.8,0,4.9-1.5,6.4-4.4c1.4-2.9,2.2-7.2,2.2-12.9c0-5.7-0.7-10-2.2-12.9c-1.4-2.9-3.6-4.4-6.4-4.4c-1.3,0-2.6,0.6-3.8,1.8
		c-1.3,1.2-2.7,2.8-4.4,4.9v21.1C423.4,172.4,424.9,174,426.2,175.2z"/>
	<path class="st0" d="M459.9,148c2.1-3.5,4.9-6.4,8.4-8.5c3.5-2.1,7.4-3.2,11.5-3.2c3.8,0,7.2,1,10.3,3.1c3.1,2.1,5.6,4.7,7.4,7.9
		c1.8,3.2,2.7,6.3,2.7,9.3l-29.7,7.7c1.4,4.5,3.3,8.3,5.7,11.4s5,4.6,8,4.6c1.3-0.3,3.1-1.2,5.2-2.8c2.1-1.6,3.8-3.1,5.1-4.7
		l2.9,4.2c-2.4,1.8-4.8,3.2-7.2,4.3c-2.4,1-5.4,1.5-9,1.5c-4.5,0-8.6-1-12.4-3.1c-3.7-2.1-6.7-4.9-8.8-8.5s-3.2-7.5-3.2-11.7
		C456.8,155.4,457.9,151.5,459.9,148z M469.8,161.7l17.8-4.6c-0.3-2.7-0.9-5.5-1.9-8.3c-1-2.8-2.3-5.2-4-7.1
		c-1.7-1.9-3.6-2.9-5.9-2.9c-2.2,0-3.9,1.3-5.3,3.8c-1.3,2.5-2,5.8-2,9.8C468.4,155.2,468.9,158.3,469.8,161.7z"/>
	<path class="st0" d="M508.9,171v-41.8l-6.7-10.5l18.1-3.5v38.1l11.5-7.8l4.4-7.8h16l-16.1,7.8l-13.9,9.3l9.8,1.5l11.7,15.6
		l10.4,9.7h-25.4l1.6-9.2l-10-13.5V171l4.9,10.6h-23L508.9,171z"/>
</g>
</svg>
