<?xml version="1.0" encoding="utf-8"?>
<!-- Generator: Adobe Illustrator 25.2.0, SVG Export Plug-In . SVG Version: 6.00 Build 0)  -->
<svg version="1.1" id="Layer_1" xmlns="http://www.w3.org/2000/svg" xmlns:xlink="http://www.w3.org/1999/xlink" x="0px" y="0px"
	 viewBox="0 0 300 300" style="enable-background:new 0 0 300 300;" xml:space="preserve">
<style type="text/css">
	.st0{fill:#DF1F26;}
</style>
<path id="Cedro_3_" class="st0" d="M278.6,226.8c-0.3-1.4-1.3-2.1-2.6-2.7c-1.1-1.8-2.5-3.2-4.5-3.9c-10-8.9-22.6-13.7-33.8-20.9
	c-9-5.8-9-9.2,0.2-14.4c1.6-0.1,3.2-0.1,4.8-0.2c5.3,2.5,10.5,5.3,15.9,7.5c2.8,1.1,6.8,2.4,8.5-1.3c1.7-3.8-1.9-5.2-4.6-7.1
	c-5.8-4.1-12.3-7.5-16.7-13.1c-4.7-5.9-9.8-10.4-17.7-10.9c0,0,0,0,0,0c0,0,0,0,0,0c0,0,0,0,0,0c-1-0.4-2-0.8-3.1-1.1
	c-1.8-0.5-4.4,1.2-5.2-1.6c-0.7-2.3,1.7-3.4,2.8-5c4.5-0.1,9-0.3,13.4-0.4c4.3,0,8.6-0.1,12.9,0.1c3,0.1,5.8-0.2,6.3-3.6
	c0.4-3.1-2.4-4-4.9-4.6c-8.9-2.3-17.9-4.7-26.8-6.9c-6.2-1.5-6.6-2.6-2.2-7.6c1.7-0.2,3.4-0.3,5.1-0.5c4.4,3.1,9.6,2.2,14.4,3.2
	c2.1,0.4,4.2,1.4,5.1-1.4c0.8-2.5-0.7-4.5-2.9-5.6c-3-1.6-6.2-2.8-9.2-4.3c-16.1-8.1-27.3-23-43.3-31.3c-1.4-0.7-2.6-2.2-1.9-4
	c0.6-1.7,2-3,4-3.3c2.4-0.3,4.5,0.5,6.5,1.4c4.8,2.1,9.7,3.8,15,4.2c1.7,0.1,4.1,0.9,4.8-1.2c0.8-2.3-1.8-2.5-3.3-3.3
	c-5-2.5-9.8-5.3-13.9-9.2c-1.5-1.4-5-2.2-3.5-4.9c1-1.9,3.7-2.3,6.1-1.1c1.7,0.8,3.2,0.4,4-1.3c0.9-1.7,0.3-3.5-1.1-4.3
	c-10.8-6.4-20.3-15.6-33.6-17.1c-10.2-1.2-17.7-6.5-22.9-15.3c-2.1-3.6-4-7.3-6.5-12c-7,14.6-20.1,22.3-31.2,32.9
	c3.7,1.8,8.3-0.5,8.6,3.4c0.3,3.2-3.6,4.2-6.1,5.7c-4.7,2.8-9.5,5.3-14.1,8.1c-1.5,0.9-3.5,1.7-3.4,3.9c0.2,2.8,2.6,1.9,4.2,2.2
	c2.4,0.5,4.8,1.2,4.8,3.9c0,2.6-1.9,5.1-4.6,5.1c-6.8-0.2-10.1,4.1-13.1,9.2c-2.2,3.9-5.9,6.1-9.9,8.1c-4.5,2.2-9,4.3-13.1,7.2
	c-3.2,2.3-9.7,3.6-7.5,8.9c2.5,5.8,8,2.1,12,0.7c5.3-1.8,9.7-2.1,12.9,3.4c0.1,2.2,0.3,4.3,0.4,6.5c-3.5,5.7-7.1,11.8-13.6,13.8
	c-11.6,3.5-20,11.1-28.1,19.5c-1.8,1.9-5.9,3-3.4,7c2.3,3.7,6.1,3.2,9.2,1.9c4.1-1.8,7.8-4.5,11.6-7c3-1.9,5.9-2.1,8.7,0.4
	c2.8,2.5,2.9,5.7,1.8,8.8c-1.1,3.2-4,4.8-6.9,6.2c-6.3,3-11.9,7.3-17.7,11.2c-8.4,5.5-13.4,15.1-23.7,18.3c-3.4,1-2.7,3.7,0.6,5.1
	c1.8,1.7,3.7,1.4,5.6,0.3h0c2.6-0.5,5.3-1,7.9-1.6c11.5-2.9,21.5-9.2,32.1-14.2c4.2-2,8.9-2.6,11.3,2c2.5,4.7-1.6,7.2-5.2,9.5
	c-7.7,4.8-16.7,6.7-24.8,10.6c-1.5,0-3,0-4.1,1.4c0,0,0,0,0,0c0,0,0,0,0,0c-3.7,1.1-8.3-0.3-10.7,4.2c-2-0.2-2.7,0.9-2.6,2.7
	c0.2,2.1,1.4,3,3.4,3c4.1,1.8,8.1,1.3,12.2,0c0,0,0,0,0,0c1.1-0.1,2.3-0.2,3.4-0.3c0,0,0,0,0,0c5,0,9.6-1.5,14-3.9
	c2.2-0.1,4.2-0.6,5.4-2.8c3.3,0.7,5.6-1.3,8-3h0c4.6-0.4,8.2-3.2,12.3-4.8c11.3-4.4,16.3-3.1,23.2,6.5c-0.1,1.5,0.2,2.9,1.3,4.1
	c-0.3,2.7-0.7,5.5-1,8.2c-0.4,0.9-0.8,1.8-1.3,2.8c0,0,0,0,0,0c0,0,0,0,0,0c-1.7,3.1-3.3,6.2-5,9.3h0c0,0,0,0,0,0
	c-7.1,10.7-16.2,18.8-28.4,23.3c-0.4-0.2-0.8-0.1-1.1,0.3c-4,0.5-7,2.9-10.1,5.1c-1.7,1.2-2.7,2.3-0.8,4.2c1.8,1.7,3.1,1.4,4.3-0.5
	c1.9-2.9,5.1-4.2,8.1-5.7c1.3-0.2,2.6-0.4,3.9-0.6c0,0,0,0,0,0c0,0,0,0,0,0c2.1,0.3,4.2,0.3,6-1c1.2-0.1,2.4-0.3,3.6-0.4l0,0
	c1.3-0.2,2.7-0.4,4-0.7c9.1-2.2,14.4-10,22.1-14.3c2.6-0.4,5.3-0.7,7.9-1.1c3.6,2.2,7.3,3.2,11.6,1.5c2.6-1,6.5-0.7,7.3,1.9
	c2.3,7.6,10.1,9.2,14.4,14.5c0.9,1.2,2.2,2.6,4,2.2c2.2-0.5,1.3-2.5,1.4-4c0.2-4.6,3-5.8,7-5.1c9.1,1.6,18.6,2.6,23.6,12.2
	c0.5,1,1.5,1.7,2.4,2.4c1.9,1.3,4,2.9,5.9,0.3c1.6-2.2,0.7-3.7-1.4-5.6c-3.4-3.3-7.8-4.9-11-8.2c-1.5-1.4-3-2.7-4.4-4.1v0
	c-4.4-4.5-8.6-9.1-11.3-14.9c-0.8-3.3-1.6-6.6-2.4-9.9c0,0,0,0,0,0c0,0,0,0,0,0c-0.1-0.8-0.2-1.6-0.3-2.4c0-2.7,0-5.4,0-8.1l0,0
	c0.1-1.2,0.1-2.5,0.2-3.7c0,0,0,0,0,0c1.4-5.8,0.8-12.7,8.1-15.5c1.7,0.1,3.5,0.2,5.2,0.3c0,0,0,0,0,0c6.1,3.5,12,7.3,19.4,7.7
	c3.2,0,6.3,0,9.5,0c13.2,0.1,26.6-1.4,38.4,6.8c1.3,1,2.7,2,4,2.9c2,1.7,4.1,3.4,6.7,4.2c2.1,1.3,4.1,2.7,6.3,3.7
	c1.9,0.9,4.2,1.4,5.8-0.3C279.7,231.5,281.1,229.2,278.6,226.8z M93.8,162.1c-2.9,1.3-6,2.2-9.1,2.9c-5.7,1.4-10.6-2-11.2-7.7
	c-0.4-3.4,2.5-3.7,4.4-4c4.5-0.7,9-0.9,14.9-1.4c2.1-0.1,5.5,0.3,6.3,4.1C99.9,159.8,96.4,161,93.8,162.1z M95.4,122.2
	c-3.5,0.5-8.7-4.8-9-8.8c-0.3-3.1,1.3-4.8,4.1-5.1c3.5-0.5,9.9,5.2,10.1,9.1C100.6,120.6,98.2,121.8,95.4,122.2z M158.9,72.4
	c2.4,0,3.5,1.6,3.5,3.9c0,2.1-1,3.3-3.2,3.7c-2.1-0.4-3.5-1.6-3.8-3.8C155.1,73.6,156.5,72.3,158.9,72.4z M150,103.8
	c-0.5,2.6-1.9,4.4-4.9,4.2c-2.4-0.1-3.5-1.7-3.5-4c0-3.7,3-3.3,5.3-3.6C149.1,100.1,150,101.6,150,103.8z M122,83.8
	c1.2-0.6,2.6-2.5,4.2-1c1.6,1.5,1.7,3.6,0.7,5.7c-2,4.4-6.3,5.4-9.6,7.2c-4-0.1-5.1-2-3.5-4.9C115.6,87.5,118.8,85.6,122,83.8z
	 M114.7,68.2c2.6-0.1,3.8,1.3,3.7,3.7c-0.1,2.1-1.4,3.3-3.4,3.7c-2-0.4-3.2-1.6-3.3-3.7C111.6,69.8,112.4,68.3,114.7,68.2z
	 M103.7,110.9c0.3-4,2.7-6,6.2-5.7c3.8-0.1,6.1,1.5,5.7,4.7c-0.5,3.9-3.7,5.7-7.2,5.7C105.7,115.6,103.5,113.8,103.7,110.9z
	 M111.8,195.1c-5.6-1.2-4.7-6.8-5.4-9.1c-0.9-3.8-0.6-5.7,2-5.3c5.1,0.8,6.5,5,7.2,9.3C116.1,193,114.4,195.7,111.8,195.1z
	 M121.1,144.2c-2.2-0.1-3.6-1.7-3.9-3.8c-0.3-1.8,0.8-3.1,2.6-3.1c2.3,0.1,3.3,2,4,3.6C123.9,143,122.8,144.2,121.1,144.2z
	 M128.6,194.5c-3-1-4-3.8-4.4-6.8c-0.2-1.4,1-2.1,2.3-1.7c2.9,0.9,4.6,2.9,4.7,6C131.1,193.4,131,195,128.6,194.5z M134.1,81
	c1-5.6,6.2-6,10.5-7.2c2.8-0.8,4.4,1,4.2,3.8c-0.5,6.8-7.2,4.1-9.7,6.6C136,84.4,133.7,83.3,134.1,81z M137.8,141
	c-1.9,0.1-2.9-1.1-3-2.9c-0.1-2.1,0.9-3.4,2.9-4c1.9,0.1,2.8,1.3,2.9,3.1C140.8,139.1,140.1,140.8,137.8,141z M144.7,193.3
	c-3.8-0.1-4.9-2.6-4.5-5.2c0.2-2.8-0.4-5.4,2.8-5.1c3.6,0.3,5.8,2.4,6,6.1C149.1,191.7,147.3,193.3,144.7,193.3z M152.1,151.8
	c-2.9-0.2-4.6-1.8-4.9-4.5c-0.4-2.7-0.7-6.2,2-7.3c4.6-2,4.7,3.4,7.1,5.3c0.2,0.8,0.5,1.6,0.7,2.4
	C156.9,150.8,155.1,151.9,152.1,151.8z M164.4,149.8c-1.2,2.3-2.8,1.7-4.4,0.3c-0.2-0.8-0.3-1.6-0.5-2.4c1.3-0.8,1.4-4,4-2.2
	C165,146.5,165.3,148.2,164.4,149.8z M161.5,109.1c-2.9,0.3-4.3-1.5-4.5-4c-0.2-3.4,2.3-4.9,5.1-5.3c2.4-0.4,2.7,1.9,3.1,3.8
	C164.2,105.6,164.9,108.7,161.5,109.1z M201.2,125.4c2.8-0.6,3.9,1.8,4.1,4.7c0.3,3.2-1.4,5.1-4.7,5.3c-3.5,0.2-6-1.8-6.2-4.9
	C194.1,127,197,125.6,201.2,125.4z M169.1,78.5c-0.3-3.1,1.4-4.4,4.2-4.8c2.9-0.4,4.2,1.1,4.3,3.7c0.1,2.8-1.4,4.5-4.3,5.3
	C171,82.3,169.4,81,169.1,78.5z M181.5,116.1c-4.8-0.3-9.1-1.5-9.1-6.6c0-4.4,4.3-5.4,8.1-5.6c4.4-0.2,7.7,2,7.8,6.6
	C188.4,115.1,184.8,115.8,181.5,116.1z M206.9,174.8c-2.6,3.8-6.3,5.7-11.5,5.6c-2.3-0.2-6.1-0.2-6.8-3.4c-0.9-3.6,2.5-5.4,5.3-6.8
	c0.4-0.2,0.8-0.5,1.2-0.5c3.6-0.4,7.2-3.5,10.7,0.2C207.1,171.3,208.1,173,206.9,174.8z M220.3,187.3c-2.6-0.4-6.1-0.3-6.3-4.8
	c-0.1-3.8,5.9-8.8,10.7-8.9c3.9,0,5.8,2.5,5.9,6C230.7,183.4,225.6,187.2,220.3,187.3z"/>
</svg>
