<?xml version="1.0" encoding="utf-8"?>
<!-- Generator: Adobe Illustrator 25.2.0, SVG Export Plug-In . SVG Version: 6.00 Build 0)  -->
<svg version="1.1" id="Layer_1" xmlns="http://www.w3.org/2000/svg" xmlns:xlink="http://www.w3.org/1999/xlink" x="0px" y="0px"
	 viewBox="0 0 45 50" style="enable-background:new 0 0 45 50;" xml:space="preserve">
<g id="Group_2600" transform="translate(920 -118.971)">
	<g>
		<path d="M-892.7,122.6c-2.5,0-4.7,1.6-5.5,4c-0.1,0.3,0.1,0.6,0.3,0.7c0.1,0,0.3,0,0.4,0c0.1-0.1,0.2-0.2,0.3-0.3
			c0.6-1.9,2.4-3.2,4.5-3.2c2.6,0,4.7,2.1,4.7,4.7c0,1.6-0.6,3-1.6,4.2c-0.6,0.6-0.9,1.3-1,2.2c0,0,0,0,0,0h-1.5v-0.8
			c0-0.3-0.2-0.5-0.5-0.5c-0.3,0-0.5,0.2-0.5,0.5v0.8h-1.5c0,0,0,0,0,0c-0.1-0.8-0.5-1.6-1-2.2c-0.7-0.8-1.2-1.7-1.4-2.7
			c0-0.1-0.1-0.3-0.3-0.3c-0.1-0.1-0.3-0.1-0.4-0.1c-0.1,0-0.3,0.1-0.3,0.3c-0.1,0.1-0.1,0.3-0.1,0.4c0.3,1.1,0.9,2.2,1.6,3.1
			c0.4,0.4,0.7,0.9,0.8,1.5c0,0.2,0,0.4,0,0.6v3.5c0,0,0,0,0,0v0c0,0,0,0,0,0v0c0.2,0.7,0.5,1.3,1.1,1.8c0.6,0.5,1.3,0.7,2,0.7
			c0.7,0,1.4-0.3,2-0.7c0.5-0.5,0.9-1.1,1.1-1.8v0v0c0,0,0,0,0,0v0c0,0,0,0,0,0v-3.5c0-0.2,0-0.4,0-0.6c0.1-0.6,0.4-1.1,0.8-1.5
			c1.2-1.3,1.8-3.1,1.9-4.8C-886.9,125.2-889.5,122.6-892.7,122.6z M-890.9,139.4c-0.4,0.6-1,1-1.8,1c-0.7,0-1.4-0.4-1.8-1H-890.9z
			 M-890.7,137.6v0.7h-4v-0.7H-890.7z M-890.7,135.8v0.7h-4v-0.7H-890.7z"/>
		<path d="M-892.7,122.1c0.3,0,0.5-0.2,0.5-0.5v-1.1c0-0.3-0.2-0.5-0.5-0.5c-0.3,0-0.5,0.2-0.5,0.5v1.1
			C-893.2,121.8-893,122.1-892.7,122.1z"/>
		<path d="M-899.5,127.8h-1.1c-0.3,0-0.5,0.2-0.5,0.5c0,0.3,0.2,0.5,0.5,0.5h1.1c0.3,0,0.5-0.2,0.5-0.5
			C-899,128.1-899.2,127.8-899.5,127.8z"/>
		<path d="M-892.2,129.7h1c0.3,0,0.5-0.2,0.5-0.5c0-0.3-0.2-0.5-0.5-0.5h-3c-0.3,0-0.5,0.2-0.5,0.5c0,0.3,0.2,0.5,0.5,0.5h1v0.8
			c0,0.3,0.2,0.5,0.5,0.5c0.3,0,0.5-0.2,0.5-0.5V129.7z"/>
		<path d="M-897.9,123.9c0.1,0.1,0.2,0.2,0.4,0.2c0.1,0,0.3-0.1,0.4-0.2c0.1-0.1,0.2-0.2,0.2-0.4c0-0.1-0.1-0.3-0.2-0.4l-0.8-0.8
			c-0.1-0.1-0.2-0.2-0.4-0.2c-0.1,0-0.3,0.1-0.4,0.2c-0.2,0.2-0.2,0.5,0,0.8L-897.9,123.9z"/>
		<path d="M-897.8,132.9c-0.1,0-0.3,0.1-0.4,0.2l-0.8,0.8c-0.2,0.2-0.2,0.5,0,0.8c0.1,0.1,0.2,0.2,0.4,0.2c0.1,0,0.3-0.1,0.4-0.2
			l0.8-0.8c0.2-0.2,0.2-0.5,0-0.8C-897.5,133-897.7,132.9-897.8,132.9z"/>
		<path d="M-887.9,124.1c0.1,0,0.3-0.1,0.4-0.2l0.8-0.8c0,0,0,0,0,0c0.2-0.2,0.2-0.5,0-0.8c-0.1-0.1-0.2-0.2-0.4-0.2
			c-0.1,0-0.3,0.1-0.4,0.2l-0.8,0.8c-0.2,0.2-0.2,0.5,0,0.8C-888.1,124-888,124.1-887.9,124.1z"/>
		<path d="M-887.2,133.1c-0.1-0.1-0.2-0.2-0.4-0.2c-0.1,0-0.3,0.1-0.4,0.2c-0.1,0.1-0.2,0.2-0.2,0.4c0,0.1,0.1,0.3,0.2,0.4l0.8,0.8
			c0.1,0.1,0.2,0.2,0.4,0.2c0.1,0,0.3-0.1,0.4-0.2c0.1-0.1,0.2-0.2,0.2-0.4c0-0.1-0.1-0.3-0.2-0.4L-887.2,133.1z"/>
		<path d="M-884.8,127.8h-1.1c-0.3,0-0.5,0.2-0.5,0.5c0,0.3,0.2,0.5,0.5,0.5h1.1c0.3,0,0.5-0.2,0.5-0.5
			C-884.2,128.1-884.5,127.8-884.8,127.8z"/>
		<path d="M-893.2,132.2c0,0.3,0.2,0.5,0.5,0.5c0.3,0,0.5-0.2,0.5-0.5c0-0.3-0.2-0.5-0.5-0.5C-893,131.7-893.2,131.9-893.2,132.2z"
			/>
		<path d="M-897.9,128.9c0.3,0,0.5-0.2,0.5-0.5c0-0.3-0.2-0.5-0.5-0.5c-0.3,0-0.5,0.2-0.5,0.5C-898.5,128.6-898.2,128.9-897.9,128.9
			z"/>
	</g>
	<g id="Group_2599" transform="translate(-920 132.354)">
		<g id="Group_2594" transform="translate(15.088 23.735)">
			<path id="Path_5874" d="M7.4,10.4c-0.2,0-0.4,0.1-0.5,0.2c-0.1,0.1-0.2,0.3-0.2,0.5c0,0.2,0.1,0.4,0.2,0.5C7,11.9,7.2,12,7.4,12
				c0.2,0,0.4-0.1,0.5-0.2c0.1-0.1,0.2-0.3,0.2-0.5c0-0.2-0.1-0.4-0.2-0.5C7.8,10.5,7.6,10.4,7.4,10.4z"/>
		</g>
		<g id="Group_2595">
			<path id="Path_5875" d="M38.1,21.4l-2.6-0.6v-1c1.5-0.9,2.4-2.6,2.4-4.3v-2.9c0-2.8-2.3-5.1-5.1-5.1c-0.1,0-0.2,0-0.3,0
				c-0.3,0.4-0.6,0.7-1,1c-1,0.8-2.2,1.3-3.5,1.3c-0.2,0-0.3,0-0.5,0c0.1,0.4,0.2,0.9,0.2,1.3v0.1l-2.9-1.7c-0.3-0.2-0.7-0.1-1,0.2
				c-1.1,1.3-2.7,2.1-4.5,2.1h-2.2v-0.7c0-2.9,2.3-5.2,5.2-5.2c0-0.5,0-1,0-1.5l0,0c-3,0-5.7,2-6.5,4.9c-1-1.1-2.4-1.7-3.8-1.7
				c-2.8,0-5.1,2.3-5.1,5.1v2.9c0,1.7,0.9,3.4,2.4,4.3v1l-2.6,0.6c-2.4,0.6-4.1,2.7-4.1,5.2v5.2c0,0.4,0.3,0.8,0.8,0.8l0,0h6.2v2.3
				c0,0.4,0.3,0.8,0.8,0.8l0,0h8.5c0.4,0,0.8-0.3,0.8-0.8v0c0-0.4-0.3-0.8-0.8-0.8l0,0h-3.4v-3.4c0-0.4-0.3-0.8-0.8-0.8l0,0
				c-0.4,0-0.8,0.3-0.8,0.8v0v3.4h-2.7v-3.5c0-2.6,1.8-4.9,4.3-5.5l3.8-0.9l2.4,5.6c0.1,0.3,0.4,0.5,0.7,0.5l0,0
				c0.3,0,0.6-0.2,0.7-0.5l2.4-5.5l3.8,0.9c2.5,0.6,4.3,2.9,4.3,5.5v0.9c0,0.1-0.1,0.2-0.1,0.3s0,0.2,0.1,0.3v2h-2.7v-3.4
				c0-0.4-0.3-0.8-0.8-0.8l0,0c-0.4,0-0.8,0.3-0.8,0.8v0v3.4h-3.8c-0.4,0-0.8,0.3-0.8,0.8v0c0,0.4,0.3,0.8,0.8,0.8l0,0h8.8
				c0.4,0,0.8-0.3,0.8-0.8v0v-2.3h6.2c0.4,0,0.8-0.3,0.8-0.8v0v-5.2C42.2,24.2,40.5,22,38.1,21.4z M32.8,9.1c2,0,3.5,1.6,3.5,3.5
				v0.3h-2.2c-1.7,0-3.3-0.4-4.7-1.3C29.9,10.1,31.3,9.1,32.8,9.1L32.8,9.1z M29.3,15.4c0-0.1,0-2.1,0-2.1c1.5,0.7,3.2,1.1,4.9,1.1
				h2.2v1.1c0,2-1.6,3.5-3.5,3.5c-2,0-3.5-1.6-3.5-3.5L29.3,15.4z M8.6,12.8v-0.2c0-2,1.6-3.5,3.5-3.5c1.6,0,3,1,3.4,2.5
				c-1.4,0.8-3.1,1.3-4.7,1.3L8.6,12.8L8.6,12.8z M8.6,15.5v-1.1h2.2c1.7,0,3.4-0.4,4.9-1.1v2.2c0,2-1.6,3.5-3.5,3.5
				C10.2,19,8.6,17.5,8.6,15.5L8.6,15.5z M9.7,30.7v0.4H7.4v-3.4c0-0.4-0.3-0.8-0.8-0.8l0,0c-0.4,0-0.8,0.3-0.8,0.8v0v3.4H4.3v-4.4
				c0-1.8,1.2-3.3,2.9-3.7l2.4-0.6l1.6,3.8C10.2,27.4,9.7,29,9.7,30.7L9.7,30.7z M12.2,24.3L11,21.5c0,0,0,0,0-0.1v-1
				c0.4,0.1,0.8,0.1,1.2,0.1c0.4,0,0.8,0,1.2-0.1v0.9c0,0,0,0,0,0c0,0,0,0,0,0.1L12.2,24.3z M15.2,23.7c-0.4,0.1-0.9,0.3-1.3,0.4
				l0.8-1.8l2.4,0.6c0.2,0,0.4,0.1,0.6,0.2L15.2,23.7z M19,22.1c-0.5-0.3-1-0.5-1.6-0.7l-2.6-0.6v-1c0.6-0.4,1.2-0.9,1.6-1.6
				c0.6,1.1,1.5,2.1,2.6,2.7V22.1z M22.5,27.6l-1.9-4.4v-1.6c0.6,0.2,1.3,0.3,1.9,0.3c0.6,0,1.3-0.1,1.9-0.3v1.6l0,0L22.5,27.6z
				 M22.5,20.4c-2.9,0-5.2-2.3-5.2-5.2v-1.8h2.2c2,0,3.8-0.8,5.2-2.2l3.1,1.8v2.3C27.6,18.1,25.3,20.4,22.5,20.4L22.5,20.4z M26,21
				L26,21c1.1-0.7,2-1.6,2.6-2.7c0.4,0.6,0.9,1.2,1.6,1.6v1l-2.6,0.6c-0.6,0.1-1.1,0.4-1.6,0.7V21z M29.8,23.7l-2.4-0.6
				c0.2-0.1,0.4-0.1,0.6-0.2l2.4-0.6l0.8,1.8C30.7,24,30.2,23.8,29.8,23.7L29.8,23.7z M31.7,21.5C31.7,21.5,31.7,21.5,31.7,21.5
				c0-0.1,0-0.1,0-0.1v-1c0.4,0.1,0.8,0.1,1.2,0.1c0.4,0,0.8,0,1.2-0.1v1c0,0,0,0,0,0l-1.2,2.8L31.7,21.5z M40.7,31.1h-1.5v-3.4
				c0-0.4-0.3-0.8-0.8-0.8l0,0c-0.4,0-0.8,0.3-0.8,0.8v0v3.4h-2.3v-0.4c0-1.6-0.6-3.2-1.6-4.5l1.6-3.8l2.5,0.6
				c1.7,0.4,2.9,1.9,2.9,3.7L40.7,31.1z"/>
		</g>
		<g id="Group_2596" transform="translate(13.045 7.725)">
			<path id="Path_5876" d="M6.9,6.3c-0.2,0-0.4,0.1-0.5,0.2C6.2,6.7,6.1,6.9,6.1,7.1c0,0.2,0.1,0.4,0.2,0.5c0.1,0.1,0.3,0.2,0.5,0.2
				c0.2,0,0.4-0.1,0.5-0.2c0.1-0.1,0.2-0.3,0.2-0.5c0-0.2-0.1-0.4-0.2-0.5C7.3,6.4,7.1,6.3,6.9,6.3z"/>
		</g>
		<g id="Group_2597" transform="translate(17.151 7.725)">
			<path id="Path_5877" d="M7.9,6.3c-0.2,0-0.4,0.1-0.5,0.2C7.2,6.7,7.1,6.9,7.1,7.1c0,0.2,0.1,0.4,0.2,0.5c0.1,0.1,0.3,0.2,0.5,0.2
				c0.2,0,0.4-0.1,0.5-0.2c0.1-0.1,0.2-0.3,0.2-0.5c0-0.2-0.1-0.4-0.2-0.5C8.3,6.4,8.1,6.3,7.9,6.3z"/>
		</g>
		<g id="Group_2598" transform="translate(14.325 9.792)">
			<path id="Path_5878" d="M8.6,7.1C8.3,7.3,8,7.3,7.7,7.1C7.4,6.8,7,6.8,6.6,7.1c-0.3,0.3-0.3,0.8,0,1.1C7,8.6,7.6,8.8,8.2,8.8
				c0.6,0,1.1-0.2,1.5-0.6c0.3-0.3,0.3-0.8,0-1.1C9.4,6.8,8.9,6.8,8.6,7.1C8.6,7.1,8.6,7.1,8.6,7.1z"/>
		</g>
	</g>
</g>
</svg>
