<?xml version="1.0" encoding="utf-8"?>
<!-- Generator: Adobe Illustrator 25.2.0, SVG Export Plug-In . SVG Version: 6.00 Build 0)  -->
<svg version="1.1" id="Layer_1" xmlns="http://www.w3.org/2000/svg" xmlns:xlink="http://www.w3.org/1999/xlink" x="0px" y="0px"
	 viewBox="0 0 45 50" style="enable-background:new 0 0 45 50;" xml:space="preserve">
<style type="text/css">
	.st0{fill:#010101;}
</style>
<g id="rating" transform="translate(0)">
	<path id="Path_5836" class="st0" d="M8.9,36.9h-5c-0.5,0-0.9,0.4-0.9,0.9v2.7c0,0.5,0.4,0.9,0.9,0.9h5c0.5,0,0.9-0.4,0.9-0.9v-2.7
		C9.7,37.3,9.3,36.9,8.9,36.9z M8,39.6H4.8v-1H8V39.6z"/>
	<path id="Path_5837" class="st0" d="M16.9,36.9h-5c-0.5,0-0.9,0.4-0.9,0.9v2.7c0,0.5,0.4,0.9,0.9,0.9h5c0.5,0,0.9-0.4,0.9-0.9v-2.7
		C17.7,37.3,17.3,36.9,16.9,36.9z M16,39.6h-3.3v-1H16V39.6z"/>
	<path id="Path_5838" class="st0" d="M24.9,36.9h-5c-0.5,0-0.9,0.4-0.9,0.9v2.7c0,0.5,0.4,0.9,0.9,0.9h5c0.5,0,0.9-0.4,0.9-0.9v-2.7
		C25.8,37.3,25.4,36.9,24.9,36.9z M24.1,39.6h-3.3v-1h3.3V39.6z"/>
	<path id="Path_5839" class="st0" d="M32.9,36.9h-5c-0.5,0-0.9,0.4-0.9,0.9v2.7c0,0.5,0.4,0.9,0.9,0.9h5c0.5,0,0.9-0.4,0.9-0.9v-2.7
		C33.9,37.3,33.5,36.9,32.9,36.9z M32.1,39.6h-3.2v-1h3.3L32.1,39.6z"/>
	<path id="Path_5840" class="st0" d="M41,36.9h-5c-0.5,0-0.9,0.4-0.9,0.9v2.7c0,0.5,0.4,0.9,0.9,0.9h5c0.5,0,0.9-0.4,0.9-0.9v-2.7
		C41.9,37.3,41.5,36.9,41,36.9z M40.2,39.6h-3.3v-1h3.2L40.2,39.6z"/>
	<path id="Path_5841" class="st0" d="M3.9,8.7C3.4,8.7,3,9.1,3,9.6l0,0v2.7c0,0.5,0.4,0.9,0.9,0.9h5c0.5,0,0.9-0.4,0.9-0.9V9.6
		c0-0.5-0.4-0.9-0.9-0.9l0,0H3.9z M8,11.4H4.8v-1H8V11.4z"/>
	<path id="Path_5842" class="st0" d="M12,13.2h5c0.5,0,0.9-0.4,0.9-0.9V9.6c0-0.5-0.4-0.9-0.9-0.9h-5c-0.5,0-0.9,0.4-0.9,0.9l0,0
		v2.7C11.1,12.8,11.4,13.2,12,13.2z M12.8,10.4h3.3v1h-3.3L12.8,10.4z"/>
	<path id="Path_5843" class="st0" d="M24.9,13.2c0.5,0,0.9-0.4,0.9-0.9V9.6c0-0.5-0.4-0.9-0.9-0.9h-5c-0.5,0-0.9,0.4-0.9,0.9v2.7
		c0,0.5,0.4,0.9,0.9,0.9C20,13.2,24.9,13.2,24.9,13.2z M20.8,10.4h3.3v1h-3.3C20.8,11.4,20.8,10.4,20.8,10.4z"/>
	<path id="Path_5844" class="st0" d="M32.9,13.2c0.5,0,0.9-0.4,0.9-0.9V9.6c0-0.5-0.4-0.9-0.9-0.9h-5c-0.5,0-0.9,0.4-0.9,0.9v2.7
		c0,0.5,0.4,0.9,0.9,0.9C28,13.2,32.9,13.2,32.9,13.2z M28.9,10.4h3.3v1H29L28.9,10.4z"/>
	<path id="Path_5845" class="st0" d="M41,13.2c0.5,0,0.9-0.4,0.9-0.9V9.6c0-0.5-0.4-0.9-0.9-0.9h-5c-0.5,0-0.9,0.4-0.9,0.9v2.7
		c0,0.5,0.4,0.9,0.9,0.9C36.1,13.2,41,13.2,41,13.2z M37,10.4h3.2v1h-3.3L37,10.4z"/>
	<path id="Path_5846" class="st0" d="M27.7,22.6L25,22l-1.4-2.3c-0.2-0.4-0.7-0.7-1.2-0.7l0,0c-0.5,0-0.9,0.2-1.2,0.6l-1.4,2.3
		l-2.6,0.6c-0.7,0.2-1.2,0.9-1,1.7c0.1,0.2,0.2,0.4,0.3,0.5l1.8,2.1l-0.2,2.7c-0.1,0.8,0.5,1.4,1.2,1.5c0.2,0,0.5,0,0.6-0.1l2.5-1.1
		l2.5,1c0.2,0.1,0.4,0.2,0.6,0.2c0.2,0,0.5-0.1,0.8-0.2c0.4-0.3,0.6-0.8,0.5-1.2l-0.2-2.7l1.8-2c0.5-0.5,0.5-1.4-0.1-1.9
		C28.1,22.8,27.9,22.7,27.7,22.6L27.7,22.6z M25.1,26c-0.2,0.2-0.2,0.4-0.2,0.6l0.2,2.5l-2.3-1c-0.2-0.1-0.5-0.1-0.7,0l-2.3,0.9
		l0.2-2.5c0-0.2-0.1-0.5-0.2-0.6l-1.6-1.9l2.4-0.5c0.2-0.1,0.4-0.2,0.5-0.4l1.2-2.1l1.2,2.1c0.2,0.2,0.3,0.3,0.5,0.4l2.4,0.5
		L25.1,26z"/>
	<path id="Path_5847" class="st0" d="M13,22l-1.7,0.1L10,20.9c-0.3-0.3-0.7-0.4-1.2-0.3C8.5,20.7,8.2,21,8,21.5l-0.5,1.6l-1.5,0.8
		c-0.5,0.3-0.8,1-0.5,1.6c0.1,0.2,0.2,0.3,0.4,0.4l1.4,0.9l0.3,1.7c0.1,0.4,0.4,0.8,0.8,0.9c0.4,0.2,0.9,0.1,1.2-0.2l1.3-1l1.6,0.2
		c0.6,0.1,1.2-0.3,1.4-0.9c0-0.2,0-0.4-0.1-0.6l-0.5-1.6l0.7-1.5c0.2-0.4,0.2-0.9-0.1-1.2C13.8,22.2,13.5,22,13,22L13,22z
		 M11.6,25.5l0.4,1.1l-1.2-0.2c-0.2,0-0.5,0-0.6,0.2l-0.9,0.8L9,26.2c-0.1-0.2-0.2-0.5-0.4-0.5L7.7,25l1-0.5
		c0.2-0.1,0.4-0.3,0.4-0.5l0.3-1.2l0.9,0.8c0.2,0.2,0.4,0.2,0.6,0.2l1.2-0.1l-0.5,1.1C11.5,25,11.5,25.3,11.6,25.5L11.6,25.5z"/>
	<path id="Path_5848" class="st0" d="M36.4,29.4c0.4-0.2,0.7-0.5,0.8-0.9l0.3-1.7l1.4-0.9c0.5-0.4,0.7-1.1,0.3-1.6
		c-0.1-0.2-0.2-0.3-0.5-0.4L37.3,23l-0.5-1.6c-0.1-0.4-0.4-0.7-0.9-0.9c-0.4-0.1-0.9,0-1.2,0.3L33.6,22l-1.7-0.1
		c-0.4,0-0.8,0.2-1,0.5c-0.2,0.3-0.2,0.8-0.1,1.2l0.8,1.6L31,26.9c-0.2,0.6,0.1,1.3,0.7,1.5c0.2,0.1,0.4,0.1,0.5,0.1l1.7-0.2l1.3,1
		c0.2,0.2,0.5,0.3,0.8,0.3C36.1,29.5,36.3,29.5,36.4,29.4z M35.7,27.4l-0.9-0.8c-0.2-0.2-0.3-0.2-0.5-0.2c-0.1,0-0.1,0-0.2,0
		l-1.1,0.2l0.4-1.1c0.1-0.2,0.1-0.5,0-0.7l-0.5-1.1l1.2,0.1c0.2,0,0.5-0.1,0.6-0.2l0.9-0.8l0.3,1.2c0.1,0.2,0.2,0.4,0.4,0.5l1,0.5
		l-0.9,0.6c-0.2,0.2-0.3,0.3-0.4,0.5L35.7,27.4z"/>
	<path id="Path_5849" class="st0" d="M37.6,35.2c0,0.5,0.4,0.9,0.9,0.9l0,0c0.5,0,0.9-0.4,0.9-0.9c0-0.5-0.4-0.9-0.9-0.9
		S37.6,34.7,37.6,35.2L37.6,35.2z"/>
	<path id="Path_5850" class="st0" d="M8.6,7.9C9,7.9,9.4,7.5,9.4,7S9,6.2,8.6,6.2H8.5l0,0C8,6.2,7.6,6.6,7.6,7
		C7.7,7.5,8.1,7.8,8.6,7.9z"/>
	<path id="Path_5851" class="st0" d="M42.3,6.1H12c-0.5,0-0.9,0.4-0.9,0.9s0.4,0.9,0.9,0.9h0.1h30.2c0.3,0,0.5,0.2,0.5,0.5l0,0V14
		H2.2V8.3c0-0.3,0.2-0.5,0.5-0.5h3.3C6.5,7.8,6.9,7.5,7,7c0-0.5-0.3-0.9-0.8-0.9H6.2H2.7c-1.2,0.1-2.2,1-2.2,2.3v33.3
		c0,1.2,1,2.3,2.3,2.3h39.5c1.2,0,2.3-1,2.3-2.3V8.3C44.4,7.1,43.4,6.2,42.3,6.1z M42.3,42.2H2.7c-0.3,0-0.5-0.2-0.5-0.5V36H35
		c0.5,0,0.9-0.4,0.9-0.9c0-0.5-0.4-0.8-0.9-0.9H2.2V15.7h40.5v18.6h-1.8c-0.5,0-0.9,0.4-0.9,0.9c0,0.5,0.4,0.8,0.9,0.9h1.8v5.7
		C42.7,42,42.5,42.2,42.3,42.2z"/>
</g>
</svg>
