<?xml version="1.0" encoding="utf-8"?>
<!-- Generator: Adobe Illustrator 25.2.0, SVG Export Plug-In . SVG Version: 6.00 Build 0)  -->
<svg version="1.1" id="Layer_1" xmlns="http://www.w3.org/2000/svg" xmlns:xlink="http://www.w3.org/1999/xlink" x="0px" y="0px"
	 viewBox="0 0 2251.7 700.7" style="enable-background:new 0 0 2251.7 700.7;" xml:space="preserve">
<style type="text/css">
	.st0{fill:#404040;}
	.st1{fill:#212422;}
	.st2{fill:#D26261;}
	.st3{fill:#F06F70;}
	.st4{fill:#D16F28;}
	.st5{fill:#DF1F26;}
	.st6{fill:#733D19;}
	.st7{fill:#9B1C1F;}
	.st8{fill:#BC2326;}
	.st9{fill:#B75C27;}
	.st10{fill:#AE1F23;}
	.st11{fill:#243962;}
	.st12{fill:#2B4F97;}
	.st13{fill:#EE985E;}
	.st14{fill:#FAB17E;}
	.st15{fill:#1C1B2A;}
	.st16{fill:#FFFFFF;}
	.st17{fill:#242333;}
	.st18{fill:#AB423F;}
	.st19{fill:#C8DCEE;}
	.st20{fill:#EAF2FB;}
	.st21{fill:#364038;}
	.st22{fill:#F06370;}
	.st23{fill:#CC4456;}
	.st24{fill:#59432F;}
	.st25{fill:#443119;}
	.st26{fill:#31392F;}
	.st27{fill:#553C23;}
	.st28{fill:#A9397E;}
	.st29{fill:#E15265;}
	.st30{opacity:0.4;fill:#494C38;}
	.st31{fill:#441D12;}
	.st32{fill:#29263B;}
	.st33{fill:#D1DDF1;}
	.st34{fill:#AFB8DE;}
	.st35{fill:#949FD1;}
	.st36{fill:#C1D0EB;}
	.st37{fill:#BBC3E3;}
	.st38{fill:#5897AF;}
	.st39{fill:#DCE5F5;}
	.st40{fill:#F8AFA6;}
	.st41{fill:#FCCCB0;}
	.st42{fill:#6C3244;}
	.st43{fill:#314BA0;}
	.st44{fill:#62C7C7;}
	.st45{fill:#FEE7AC;}
	.st46{fill:#FFD97A;}
	.st47{fill:#E7ECF7;}
	.st48{fill:#72CAC7;}
	.st49{fill:#7F8DC6;}
	.st50{fill:#A3AED9;}
	.st51{fill:#E1E9F6;}
	.st52{fill:#9AA5D4;}
	.st53{fill:#8AD0C3;}
	.st54{opacity:0.74;fill:url(#SVGID_1_);enable-background:new    ;}
	.st55{fill:url(#SVGID_2_);}
	.st56{fill:#355B71;}
	.st57{fill:#22354A;}
	.st58{fill:#D9ECD6;}
	.st59{fill:#2D4762;}
	.st60{fill:#152E44;}
	.st61{fill:#24449C;}
	.st62{fill:#F47B20;}
	.st63{fill:#AA2A24;}
	.st64{fill:#183C55;}
	.st65{fill:#0C1623;}
	.st66{fill:#BD3D54;}
	.st67{fill:#0E1B2F;}
	.st68{fill:#1D405F;}
	.st69{fill:#731A13;}
	.st70{fill:#F9A780;}
	.st71{fill:#F68F72;}
	.st72{fill:none;stroke:#4F2531;stroke-width:2;stroke-linecap:round;stroke-miterlimit:10;}
	.st73{fill:#743645;}
	.st74{fill:#FED097;}
	.st75{fill:#F6DB9F;}
	.st76{fill:#4F2531;}
	.st77{fill:#411E2C;}
	.st78{fill:#5A2A39;}
	.st79{fill:#6C3240;}
	.st80{fill:#D78272;}
	.st81{fill:#D4665B;}
	.st82{fill:#582937;}
	.st83{fill:#421E29;}
	.st84{fill:#242133;}
	.st85{fill:#FAB585;}
	.st86{fill:#F79B79;}
	.st87{fill:none;}
	.st88{fill:#32141D;}
	.st89{opacity:0.7;fill:#260E16;}
	.st90{opacity:0.4;fill:#A9397E;}
	.st91{opacity:0.93;fill:#FFFFFF;}
	.st92{fill:#553348;}
	.st93{fill:#C74254;}
	.st94{fill:#A92C3D;}
	.st95{fill:#DCE6F5;}
	.st96{fill:#B8CBE9;}
	.st97{fill:none;stroke:#EA8668;stroke-width:0.25;stroke-miterlimit:10;}
	.st98{fill:#F0A350;}
	.st99{fill:#484D4A;}
	.st100{fill:#484848;}
	.st101{fill:#D8B096;}
	.st102{opacity:0.2;}
	.st103{fill:#F17DB1;}
</style>
<path class="st0" d="M1473.4,366.4c-9.1-27.4-66.1-18.8-66.1-18.8s-38.7,47.9-49.9,49.1c-11.2,1.1,23.2-46.2,23.2-46.2
	c-15.7-1.2-49.1,9.7-66.4,15.9l33.6,84c12.2,0.8,20.3,7.7,33.3,12.9c-5.1-0.4-10.7-0.5-16-0.4c-4.2-0.9-8.7-1.6-13.1-2.1l32.5,81.2
	c16.3-0.4,35.5-17.6,35.5-17.6c-13.6-0.6-33.1-12.6-32.4-16.3c0.7-3.7,33,6.3,38.6,6.8c5.5,0.5,18.1-5.1,20-23.2
	c2-18.1-34.5-23.1-34.5-23.1s-8.4,5.1-17.9,10.2c-1.9-2-4.9-4.2-8.5-6.6c3.1-2.3,6-4.2,7.7-5.4c3.5,0.8,7.3,1.4,11.6,1.7
	c29.5,2.3,52-42.8,52-42.8c-20.4,5.1-56.9-4-58.3-9.7c-1.4-5.7,52.7-5.1,61.2-6.8C1467.8,407.5,1482.5,393.8,1473.4,366.4z"/>
<path class="st0" d="M635.7,707.4l-565.9-0.2c0,0-30.8-76.3-40.6-176.8c92.8-129.3,276.9-275.6,276.9-275.6S557.9,580.8,635.7,707.4
	z"/>
<g>
	<g>
		<path class="st1" d="M1391.4,556.8c0,0-24.6-28.7-1.5-46.8c0,0,16.8-10.2,30.6-9.4c0,0-19.4,32.6-13.2,35.9
			c6.3,3.2,19.1-37.9,19.1-37.9s38.3-3.7,50.6,2.2c0,0-32.7,26.8-25.8,28.4c6.9,1.6,42.3-24.7,42.3-24.7s35.7,6.1,33.7,27.8
			c-1.9,21.7-14.2,28.5-19.6,27.9c-5.4-0.6-37-12.6-37.7-8.2c-0.7,4.4,18.3,18.9,31.6,19.6c0,0-25.1,27.7-41.8,19.7
			s-18.1-20.7-28.5-25.4c-10.4-4.8-19.3-4.7-15,0.1c4.3,4.9,23.1,9.6,29.1,20.1c6,10.5,11.3,17.6-6,15
			c-17.3-2.6-45.4-15.2-46.6-29.7C1391.4,556.8,1391.4,556.8,1391.4,556.8z"/>
		<g>
			<path class="st1" d="M1509.7,532.8c0,0-96.8-3.7-118.2,24c0,0-4.7,14.2-19.3,27.1l-2.3,6.2c0,0,16.8-17.7,22.8-18.8
				C1392.7,571.2,1383.3,536.9,1509.7,532.8z"/>
			<path class="st1" d="M1372.2,583.8c0,0-20.8,15.4-22.2,42.8l3.8,0.3c0,0,6.6-28.4,18.6-39.5
				C1384.3,576.4,1372.2,583.8,1372.2,583.8z"/>
		</g>
	</g>
	<g>
		<path class="st2" d="M1367.7,490.6c0,0-51.5-28.8-27.5-68c0,0,19.2-24,39.8-30.2c0,0-11,58.4,0,59.7c11,1.4,7.6-65.9,7.6-65.9
			s54.2-26.1,75.5-24c0,0-33.6,57-22.7,55.6c11-1.4,48.8-59,48.8-59s55.6-10.3,64.5,22.7c8.9,33-5.5,49.4-13.7,51.5
			c-8.2,2.1-61.1,1.4-59.7,8.2c1.4,6.9,37.1,17.9,57,11.7c0,0-22,54.2-50.8,51.5c-28.8-2.7-37.8-20.6-55.6-22
			c-17.9-1.4-30.9,3.4-22,8.2c8.9,4.8,39.1,1.6,53.6,13.8c14.4,12.3,26.1,19.8-0.7,25.3c-26.8,5.5-74.8,2.1-84.5-18.5
			C1367.7,490.6,1367.7,490.6,1367.7,490.6z"/>
		<g>
			<path class="st2" d="M1528.4,391.7c0,0-144.2,46.7-160.7,98.9c0,0,0.7,23.3-13.7,50.1V551c0,0,15.1-35,23.3-39.8
				C1377.3,511.2,1345.1,465.8,1528.4,391.7z"/>
			<path class="st2" d="M1354,540.7c0,0-22.2,33.8-9.6,74.9l5.7-1.5c0,0-5.6-45.3,6.1-68C1367.9,523.2,1354,540.7,1354,540.7z"/>
		</g>
	</g>
	<path class="st1" d="M1466.8,606.9h2.3v-3.1h-166.7h-25.1h-15.6v3.1h3.4c1.2,41,27,75.9,63.1,90.5h-52.1c-6.9,0-12.4,5.6-12.4,12.4
		l0,0h204.5l0,0c0-6.9-5.6-12.4-12.4-12.4h-52.1C1439.9,682.8,1465.6,647.9,1466.8,606.9z"/>
</g>
<path class="st3" d="M1311.3,705.2H1195l0.1-2.9l9-275.5c0,0,110.9-30.3,138.8-1.5c24.4,25.3,90.6,125.3,94.1,184.5
	C1440.4,667.4,1376.8,705.2,1311.3,705.2z"/>
<path class="st4" d="M666.8,456.3c0,0,150.1-68.2,178.5-23.6c15.1,23.6,56.6,118,59.7,177.2c3,57.5-53,95.4-110.6,95.4H692.1
	L666.8,456.3z"/>
<path class="st5" d="M370.9,246.6c0,0,674.4-5.9,748.9-5.8c38.3,0.1,23.4,33,34,68.2c23.3,77.8,53.9,177.9,49.1,195.2
	c-6.9,24.6-681.4,31.6-699.9,25.9C484.4,524.5,370.9,246.6,370.9,246.6z"/>
<path class="st6" d="M929.3,240.8c0,0-89.1,64.6-74.7,209.3l215.1,6.5L929.3,240.8z"/>
<path class="st6" d="M1124.2,240.8c0,0-94.2,33-74.7,209.3l215.1,6.5L1124.2,240.8z"/>
<path class="st7" d="M517.1,296.5c0,0,2.5-36.6-6.3-33.5c-8.8,3.2-65.1,54.3-56.2,175l25.9,22.1l197.7-32.9L517.1,296.5z"/>
<path class="st7" d="M641.1,244.8c0,0-53.8,46.2-54,198.7l6.5,66.9h337.9l-162.3-267L641.1,244.8z"/>
<path class="st7" d="M937.9,243.7c0,0-53.8,46.2-54,198.7l6.5,66.9c114.3-26,228.6-51.9,342.9-77.9
	c-55.8-63-111.5-126.1-167.3-189.1c-9.6,2-22.4,6.2-33.4,16.3c-27.7,25.5-18.8,66-31,70C993.1,331.4,975.6,315.6,937.9,243.7z"/>
<path class="st8" d="M1311.3,705.2H1195l0.1-2.9c3.8-2.8,10.9-6.2,22.5-10.7c64.6-25,154.2-81.4,154.2-81.4s32.8,17.2,65.3-0.3
	C1440.4,667.4,1376.8,705.2,1311.3,705.2z"/>
<path class="st5" d="M1371.7,610.2c-9.7,88.7-106.2,96.2-171,95.3l-641,0.1l10.9-60.7l33.1-184.8c0,0,667-22.8,694.7,2.6
	c12.9,11.8,71.4,70.8,73.9,124.8C1372.7,595.6,1372.5,603.2,1371.7,610.2z"/>
<path class="st9" d="M1299.5,470.4c0,0-2.4,16.6-62.9,15.4c-60.5-1.2-127.4-3.8-136.4-4c-8.9-0.2,105.3-70.7,145-57.3
	C1284.9,438.1,1299.5,470.4,1299.5,470.4z"/>
<path class="st10" d="M1371.7,610.2c-9.7,88.7-106.2,96.2-171,95.3l-641,0.1l10.9-60.7c90.4,0.5,594,3.2,703.9,1.3
	C1343.1,645,1365.3,626.2,1371.7,610.2z"/>
<g id="Batman_3_">
	<path class="st11" d="M1188.5,464.2c0,0-0.5,7.4-6.2,11.2c-5.7,3.8-9.2,11.5,1.6,20.1c10.8,8.6,22,23.1,28.9,28.4
		c6.9,5.3,17.2,8.1,19.7,2c0,0,0.9-5-7.8-13.8c-8.7-8.8-7.9-15.9-11.3-26.2c-3.4-10.2,4.7-33.2,4.7-33.2l-15.2-13.3L1188.5,464.2z"
		/>
	<path class="st12" d="M1225.8,526.8c-2.8,3.3-9.1,5.5-14.9,5.9c-6.2,0.4-17-1.2-27.6-2.1c-4.4-0.3-8.8-0.5-12.8-0.3
		c-13.8,0.6-16.2-7.5-14.4-14.1c1.8-6.6-2.7-12.5-2.7-12.5l-0.6-2.9l-5-25.2h20.2c0,0,5.8,14.6,12.9,23.2c1.7,2.1,3.6,3.9,5.4,5
		c5.8,3.4,9.6,7,14.6,9.4c3,1.5,6.5,2.5,11.2,2.9c12.4,0.9,15,5.3,15,5.3C1227.8,523.3,1227.2,525.2,1225.8,526.8z"/>
	<path class="st12" d="M1151.1,235.8c0,0-42-1-69.6,8.4c0,0-28.1,8.4-42.3,15.9c-4.4,2.3-7.3,6.8-7.6,11.8
		c-1.5,22.3-2,91.8,46.9,113.9c0,0,80.7-30.9,93.6-35.2C1206.3,339.3,1151.1,235.8,1151.1,235.8z"/>
	<path class="st13" d="M1121.3,234.7c0,0,0,0,0,0.1c-0.2,1.3-2.2,13.3-9.8,25c-2.3-0.4-4.6-1.1-6.8-2c-11.1-4.5-20.6-13.9-20.6-14.9
		c0.8-5.8,1.2-13.6,0.8-24l2,0.3l31.6,5.1C1119.2,228.6,1121.3,234.7,1121.3,234.7z"/>
	<path class="st14" d="M1121.3,234.8c-0.2,1.3-2.2,13.3-9.8,25c-2.3-0.4-4.6-1.1-6.8-2c-0.5-2-0.7-4-0.8-5.9
		C1103.5,241.6,1118.1,235.9,1121.3,234.8z"/>
	<path class="st14" d="M1140,206.6"/>
	<path class="st15" d="M1125.8,243c0,0-1.8,0.1-4.8-0.1c-5.4-0.3-22.5-1.2-32.1-11.5c-5.2-5.6-6.5-12-7.8-19.1
		c-5.4-29.2,5.7-61.1,14.5-61.1c2.4,0,2.2,2.4,7,4.4c7.7,3.2,11.7-1.3,20.5,1.5c10.9,3.5,14.1,11.7,15.8,19.1
		C1141.3,186.9,1137.2,241.6,1125.8,243z"/>
	<path class="st14" d="M1123.2,243c0,0-2.2,0.1-5.6-0.1c-12.3-1.3-25.3-9.2-25.2-33.2c0.2-32.7,5.2-46.7,27.7-52.8
		c12.9,3.5,16.7,11.7,18.7,19.1C1141.6,186.9,1136.8,241.6,1123.2,243z"/>
	<path class="st15" d="M1086.5,206.6c-0.2-9.8,0.1-20.6,1.2-32.3c0.6-6.8,1.5-13.2,2.5-19.3c0.4-3,1.1-6.6,2.4-10.5
		c0.7-2.2,1.6-4.2,2.4-6c0.8,1.9,1.5,4.1,2.1,6.4c0.7,2.7,1.3,5.2,1.6,7.5c2.7,0.1,5.6,0.4,8.6,0.8c8.5,1.1,16.1,2.9,22.6,5
		c0.8-2.3,2.2-5.2,4.2-8.2c1.1-1.6,2.2-2.9,3.2-4c0.4,1.2,0.8,2.4,1.1,3.7c1.2,4.6,1.5,8.9,1.4,12.5c0.1,1.6,0.3,3.3,0.4,5
		c1.1,17.9,0.5,34.9-1.3,51c-4.1-1-8.2-2.2-12.3-3.4c-1.7-0.5-3.5-1-5.2-1.5c-0.9,0.4-1.9,0.9-3,1.3c-1.3,0.5-2.5,0.8-3.6,1
		c-0.9-0.6-2.1-1.4-3.2-2.6c-0.9-0.9-1.6-1.8-2.1-2.6c-3.9-0.8-8-1.5-12.2-2.1C1093.7,207.5,1090,207,1086.5,206.6z"/>
	<path class="st16" d="M1097.6,181.5c-0.2,0-1.4-0.1-2.5,0.8c-1.1,1-1.1,2.4-1.1,2.6c0,0.5,0,1.5,0.4,2.5c0.5,1.2,1.3,2,1.7,2.4
		c0.6,0.7,1.7,1.8,3.4,2.6c2.4,1.1,4.5,0.9,5.4,0.8c0.8-0.1,1.5-0.3,2.3-0.4c0.5-0.1,1.5-0.4,2.5-1.2c0.9-0.8,1.4-1.6,1.6-2.1
		c-3-2.8-5.6-4.9-7.7-5.9C1101.4,182.4,1099.2,181.8,1097.6,181.5z"/>
	<path class="st16" d="M1135.6,186.5c0.2,0,1.3,0.3,2,1.4c0.8,1.2,0.3,2.5,0.3,2.6c-0.1,0.5-0.4,1.3-1.1,2.2c-0.8,1-1.7,1.5-2.2,1.7
		c-0.8,0.4-1.8,0.7-3.1,1c-2.2,0.3-4,0-5-0.3c-0.9-0.3-1.8-0.6-2.7-0.9c-0.4-0.2-1.2-0.8-1.9-1.8c-0.6-0.9-0.8-1.8-0.9-2.3
		c3.4-1.7,6.3-2.9,8.5-3.3C1132,186.3,1134,186.3,1135.6,186.5z"/>
	<path class="st17" d="M1137.4,146c-1.3,1.4-2.9,3.3-4.3,5.7c-1.4,2.3-2.4,4.5-3,6.3c1,1.5,2.2,3.5,3.2,5.8c1.1,2.7,1.7,5.1,2.1,7
		c0.4-4,0.9-8.1,1.2-12.3C1136.8,154.4,1137.1,150.1,1137.4,146z"/>
	<path class="st17" d="M1098.7,152.4c-0.1,1.3-0.3,2.6-0.4,3.9l34.9,7.7c-0.2-0.7-0.4-1.5-0.9-2.4c-0.7-1.6-1.7-2.7-2.4-3.4
		c-3.5-1.2-7.4-2.3-11.7-3.2C1111,153.3,1104.4,152.6,1098.7,152.4z"/>
	<path class="st17" d="M1095,138.5c-3.9,14.5-7.6,34.3-7.1,57.7c0.3,14.7,2.2,27.6,4.4,38.4c-1.7-1.4-4.1-3.7-6.3-7
		c-3.3-4.9-4.7-10.1-5.6-18.5c-1.2-12-2.8-28.8,5.8-47.1c1.5-3.2,3-5.8,4-7.4c0.3-1.6,0.6-3.3,1.1-5.1
		C1092.3,145.3,1093.6,141.6,1095,138.5z"/>
	<path class="st17" d="M1114.9,215.4c-0.5-6.3-0.9-12.5-1.4-18.8c-1.4,4.4-2.8,8.8-4.2,13.2c0.4,0.6,0.8,1.2,1.3,1.8
		C1112,213.4,1113.6,214.6,1114.9,215.4z"/>
	<path class="st13" d="M1068.9,236.5c0,0-24.5,26.9-16.1,48.4C1061.2,306.5,1082.8,248.9,1068.9,236.5z"/>
	<path class="st14" d="M1180,218.9c0,0,13.7,46.8-4,52.8C1158.3,277.8,1173.2,223.4,1180,218.9z"/>
	<path class="st2" d="M1344.3,499.9c-2.7,13.4-91.6,21.6-126.2,6c-6.9-3.1-13.4-4.7-19.5-5.1c-5.5-0.4-9.7,0.2-11,0.3
		c-16.8,2.2-62.4,6.1-93.6,8.7c-41.2,3.5-106.5-2.5-114.7-28.3c-4.9-15.4,11.4-35.5,5-40.1c-4.6-3.4-14.5,6.1-17.2,3.5
		c-5.5-5.3,30.7-49,37.6-76.5c3.2-12.8,5.4-24,6.6-30.6c0.7-4,1.1-6.3,1.1-6.3c1.1-3.6,13.1-45,38.9-63c9.7-6.7,16.9-16.2,23-25.3
		c10.1-15.1,16.9-29.2,26.2-27.7c8.6,1.4,15,5.2,20.9,6.6c4.3,1,8.4,0.7,12.9-2.7c6.1-4.6,11-11,16.6-13.5c4.4-1.9,9.1-1.5,15.1,3.9
		c11.3,10.3,13.6,56,20.7,73.2c0.5,1.2,1,2.2,1.5,3.1c1.2,1.9,2.4,3.1,3.9,3.4c0.5,0.1,1.1,0.2,1.8,0.1c3.8-0.1,9.7-2.1,16.8-4.8
		c0.1,0,0.2-0.1,0.3-0.1c14.7-5.7,34.5-14.3,51.3-14.5c2.1,0,4.1,0.1,6,0.3c2.5,0.3,4.8,0.8,7,1.6
		C1302.4,281.8,1347,486.5,1344.3,499.9z"/>
	<path class="st14" d="M1180,218.9c0,0-5-8.1-15.1-7.9c-10.1,0.2-12.3,5-13.1,6.5s6.1,10.8,13.1,9.7c7-1.1,13.3,3.6,15.1,0.1
		C1181.8,223.9,1180,218.9,1180,218.9z"/>
	<path class="st10" d="M1266.6,270.6c0,0-16.9,5.1-24.8,26.2c-7,18.8-43.5,25.2-53.6-10.7c1.2,1.9,2.4,3.1,3.9,3.4
		c0.5,0.1,1.1,0.2,1.8,0.1c3.7,0.1,9.6-2,16.8-4.8c0.1,0,0.2-0.1,0.3-0.1c14.8-5.9,34.7-14.8,51.3-14.5
		C1263.8,270.3,1265.2,270.4,1266.6,270.6C1266.6,270.6,1266.6,270.6,1266.6,270.6z"/>
	<path class="st10" d="M1004.8,368.4c5.1-20.5,7.7-36.9,7.7-36.9c1.1-3.6,13.1-45,38.9-63c9.7-6.7,16.9-16.2,23-25.3
		c13.6-5.2,22.7-8.2,22.7-8.2S1127,410.3,1004.8,368.4z"/>
	<path class="st14" d="M1083.9,244.8c-3.3-0.5-6.4,0.2-9,0.8c-2.9,0.7-5.2,1.1-6.1-0.7c-1.8-3.5,0-8.4,0-8.4s4.5-7.4,13.7-7.8
		c0.4,0,0.9,0,1.4,0c10.1,0.2,12.3,5,13.1,6.4C1097.9,236.5,1090.9,246,1083.9,244.8z"/>
	<path class="st18" d="M1150.9,205.9c0,0-1.8,28.8-29.5,16.2c4.3,1,8.4,0.7,12.9-2.7C1140.4,214.8,1145.3,208.4,1150.9,205.9z"/>
	<path class="st11" d="M1225.8,526.8c-2.8,3.3-9.1,5.5-14.9,5.9c-6.2,0.4-17-1.2-27.6-2.1c-4.4-0.3-8.8-0.5-12.8-0.3
		c-13.8,0.6-16.2-7.5-14.4-14.1c1.8-6.6-2.7-12.5-2.7-12.5l-0.6-2.9c12.9-8.9,22.6-5.7,28.1-2c3.5,2.4,5.4,5,5.4,5
		s-0.3,12.2,9.6,15.7C1205.8,522.8,1219.4,530,1225.8,526.8z"/>
	<path class="st13" d="M1075,245.6c-2.9,0.7-5.2,1.1-6.1-0.7c-1.8-3.5,0-8.4,0-8.4s4.5-7.4,13.7-7.8
		C1082.6,228.7,1073.7,238,1075,245.6z"/>
</g>
<g>
	<path class="st19" d="M1085.4,469.1c0,0,2.3,7.2-1.7,13c-4,5.7-4.5,14.3,9,18.5c13.5,4.2,29.6,13.8,38.1,16.2
		c8.6,2.4,19.4,1.3,19.5-5.4c0,0-1-5.1-12.6-10.2c-11.6-5.1-13.5-12.2-20.6-20.7c-7.1-8.5-7.9-33.4-7.9-33.4l-19.5-7L1085.4,469.1z"
		/>
	<path class="st20" d="M1136.5,519.4L1136.5,519.4c-3.3,1.9-7.7,3.1-11.9,3.4c-8.9,0.6-27.3-3.1-41.4-2.4
		c-14.1,0.6-16.5-7.7-14.7-14.4c1.8-6.7-2.8-12.8-2.8-12.8l-1-5.2l-4.6-23.6h20.7c0,0,6.2,15.8,13.8,24.4c0.7,0.8,1.4,1.5,2.1,2.2
		c0.9,0.9,1.9,1.6,2.9,2.2c9.5,5.6,13.7,11.6,26.3,12.6c12.6,0.9,15.3,5.4,15.3,5.4C1142.2,514.5,1140.1,517.3,1136.5,519.4z"/>
	<path class="st13" d="M1048.4,211.5c0.5,9.4-33.5,60.4-51.4,76.9c-3.3,3-6,4.9-7.8,5.1c-12.3,1.8-24-35.8-24-35.8
		s21.2-29,42.6-48.9c8.3-7.7,16.6-14.1,23.7-16.9c0,0,3.4,1.8,7.2,4.7C1043.1,200.3,1048.1,205.5,1048.4,211.5z"/>
	<path class="st21" d="M895.9,265.3c0,0-43.2,13-50.3,21.2c4.9,10.3,12.5,27.6,18.9,49.9c20.7,72.2,3.9,110.8,21.7,120.9
		c22.1,12.6,84-26,102.3-83.2c18.6-58.2-16.2-109.9-21.4-117.5C967.1,256.6,924.2,255.6,895.9,265.3z"/>
	<path class="st14" d="M928.3,277.9c-6.4-0.9-12.2-2.4-17-4.1c-10-3.5-16-7.8-15.3-8.6c3.1-3.5,7.4-13.2,6.3-40.5l2.1,0.3l32.3,5.2
		l3.1,0.5c0,0-0.2,4.3-0.2,10.1c0,3.5,0,7.5,0.1,11.4c0.3,8.7,2,16.8,3,18.8C943.9,273.4,953.7,281.3,928.3,277.9z"/>
	<path class="st13" d="M939.5,241c0,0-26.3,9.5-28.3,32.8c-10-3.5-16-7.8-15.3-8.6c3.1-3.5,7.4-13.2,6.3-40.5l2.1,0.3l32.3,5.2
		C937.4,234.8,939.5,241,939.5,241z"/>
	<path class="st13" d="M945.1,241c0,0-1.9,0.1-5-0.1c-12-0.5-41.6-4.2-42.1-27.3c-0.6-29-6.9-48.3,22.7-50.5
		c9.3-0.7,16.3-0.1,21.6,1.3c11.5,3.2,14.9,10.4,16.6,17C961.5,191,957.2,239.8,945.1,241z"/>
	<g>
		<path class="st22" d="M902,294.5c0,0,82.2-1.6,124.2,3.6c0,0,21,33.7,1.6,102.1c0,0-67.5,9.5-99.2,7.1c0,0-12.9-31.8-16.3-66
			C908.9,307.1,902,294.5,902,294.5z"/>
		<path class="st23" d="M902,294.5c0,0-6.3,28.5-2.7,59.4c3.3,28.7,29.3,53.3,29.3,53.3S921.1,318,902,294.5z"/>
	</g>
	<path class="st21" d="M886.7,414c20.1-3,50.1-11.3,80.4-33.5l-7.4-18.4c0,0-39.8,4.6-68.6,18c0,0,0,0,0,0
		c-0.6-31.5-5.3-74.4-8.7-79.8c-0.1-0.1-0.1-0.2-0.2-0.2c-5.8-8.5-36.6-13.6-36.6-13.6s-17.6,60,16.8,129.1c0,0,0,0,0.1,0
		c0.6,0,6.9,0.4,17.1-0.7C882,414.7,884.5,414.4,886.7,414C886.7,414,886.7,414,886.7,414z"/>
	<path class="st24" d="M906.5,453.9c0,0,43.9,61,92.2,53.3c48.3-7.7,102-197,102-197s-22.1-31.5-62-10
		C998.7,321.7,906.5,453.9,906.5,453.9z"/>
	<path class="st25" d="M1043.2,305.1c0,0,32.9,170.8,46.7,175.2c14.6,4.7,28.6-4.9,28.6-4.9s14.4-172.3-35.3-177.8
		C1033.5,292.1,1043.2,305.1,1043.2,305.1z"/>
	<path class="st26" d="M891.1,380.1c0.3-0.2,0.7-0.4,1.2-0.7c7-3.9,13.1-5.6,17.3-6.6c9.5-2.4,43.9-10.2,44.2-8.7
		c0.2,1-13.8,5.5-68.2,18.9c-5.2-22.6-10.3-45.2-15.5-67.9c0,0,1.9-13.2,12.1-15.2c0.1,0.1,0.1,0.2,0.2,0.2
		C885.7,305.7,890.5,348.6,891.1,380.1z"/>
	<path class="st27" d="M1076.6,310.2c0,0-9.2,32.5-23.5,71.1c-4.1,11-8.5,22.5-13.3,33.9c-4.4,10.6-9.2,21.1-14.1,31.1
		c-15.9,32.2-33.9,58.1-51.1,60.9c-9.1,1.4-18,0.5-26.5-2.1c-18.9-5.7-35.7-19-47.6-30.7c-11.3-11-18.1-20.5-18.1-20.5
		S948.5,359.1,993,317c0,0,0,0,0,0c8.1-7.6,15.4-13.5,21.5-16.8C1054.5,278.8,1076.6,310.2,1076.6,310.2z"/>
	<path class="st19" d="M1136.5,519.4c-3.3,1.9-7.7,3.1-11.9,3.4c-8.9,0.6-27.3-3.1-41.4-2.4c-14.1,0.6-16.5-7.7-14.7-14.4
		c1.8-6.7-2.8-12.8-2.8-12.8l-1-5.2c1.1-3.7,1.9-6.3,1.9-6.3l17.1,0.4l10.8,6.7l2.7,1.7c0,0-0.2,0.2-0.6,0.5
		c-2,1.7-7.8,7.5-2.8,14.2c6,7.9,21.9,9.9,26.6,12.8C1125.1,520.9,1133.6,519.8,1136.5,519.4z"/>
	<path class="st25" d="M1053.1,381.3c-4.1,11-8.5,22.5-13.3,33.9c-4.4,10.6-9.2,21.1-14.1,31.1c-18.4-51.6,4-108.8,4.8-109.4
		L1053.1,381.3z"/>
	<path class="st27" d="M1019,305.1c0,0,18.1,117.9,46,190.5c0,0,10,1.6,18.2,0c5.6-1.1,14-5.2,14-5.2s11.5-187.3-38.2-192.8
		C1009.4,292.1,1019,305.1,1019,305.1z"/>
	<path class="st25" d="M948.1,505.1c-7.3-0.8-35.9-4.9-55.1-29.3c-7.6-9.7-11.4-19.6-13.4-26.8c13.8-15.9,27.6-31.8,41.4-47.8
		c24.1-28,48.1-56,72-84.2C992,318.5,914,430.1,948.1,505.1z"/>
</g>
<path class="st28" d="M909.1,158.7"/>
<path class="st16" d="M948,243.6c-2.7-0.4-6.5-1.1-10.9-2.2c-11.9-3.1-23.4-5.6-29.8-13.8c-4.3-5.5-6.9-13-6.8-22.9
	c0.3-36.2,7.6-51.8,40.2-58.6c11.2,2.4,17.7,6.5,21.7,11.3c2.1,2.5,3.8,5.5,5.4,9.9c6.3,17.7-0.1,29.5-7.1,63.3
	c-0.6,2.9-1.9,9.3-6.9,12C951.6,243.6,949.4,243.7,948,243.6z"/>
<path class="st29" d="M954.9,209.9c-1.8-2.9-3.6-5.4-5.4-7.6c1.2,2.5,2.3,5.4,3.3,8.7c0.6,2.1,1.1,4.2,1.4,6
	c1.6-0.1,3.1-0.2,4.7-0.2C957.8,214.6,956.5,212.3,954.9,209.9z"/>
<path class="st29" d="M920.7,202.2c2.8-2,5.4-3.6,7.9-5c-2,1.8-4.2,4.1-6.3,6.8c-1.4,1.8-2.6,3.5-3.6,5.1c-1.4-0.7-2.8-1.3-4.2-2
	C916.3,205.5,918.4,203.8,920.7,202.2z"/>
<path class="st15" d="M931.5,172.6c-0.6,0-1.1,0.5-1.1,1.1s0.5,1.1,1.1,1.1c0.6,0,1.1-0.5,1.1-1.1S932.1,172.6,931.5,172.6z"/>
<path class="st15" d="M935.8,175.1c-0.6,0-1.1,0.5-1.1,1.1s0.5,1.1,1.1,1.1c0.6,0,1.1-0.5,1.1-1.1S936.4,175.1,935.8,175.1z"/>
<path class="st15" d="M942.7,175.1c-0.6,0-1.1,0.5-1.1,1.1s0.5,1.1,1.1,1.1s1.1-0.5,1.1-1.1S943.3,175.1,942.7,175.1z"/>
<path class="st15" d="M946.7,171.9c-0.6,0-1.1,0.5-1.1,1.1s0.5,1.1,1.1,1.1s1.1-0.5,1.1-1.1S947.3,171.9,946.7,171.9z"/>
<path class="st15" d="M947.6,167.4c-0.6,0-1.1,0.5-1.1,1.1s0.5,1.1,1.1,1.1c0.6,0,1.1-0.5,1.1-1.1S948.3,167.4,947.6,167.4z"/>
<path class="st15" d="M948.2,163c-0.6,0-1.1,0.5-1.1,1.1s0.5,1.1,1.1,1.1s1.1-0.5,1.1-1.1S948.8,163,948.2,163z"/>
<path class="st15" d="M931.4,167.6c-0.6,0-1.1,0.5-1.1,1.1s0.5,1.1,1.1,1.1s1.1-0.5,1.1-1.1S932,167.6,931.4,167.6z"/>
<path class="st15" d="M932.5,162.4c-0.6,0-1.1,0.5-1.1,1.1s0.5,1.1,1.1,1.1s1.1-0.5,1.1-1.1S933.1,162.4,932.5,162.4z"/>
<path class="st29" d="M939.7,183.5l13.9-6.9l-13.1,3.6c-3.8-0.9-7.6-1.9-11.4-2.8C932.6,179.3,936.2,181.4,939.7,183.5z"/>
<path class="st15" d="M952.9,184.7c-2.2,0.1-5.4,0.3-6.4,2.2c-1.5,2.9,2.2,9.7,7.4,10c5.1,0.2,9.4-6.2,8.2-9.3
	C960.7,184.3,953.7,184.7,952.9,184.7z"/>
<path class="st15" d="M926,181.9c2.2,0.1,5.4,0.3,6.4,2.2c1.5,2.9-2.2,9.7-7.4,10c-5.1,0.2-9.4-6.2-8.2-9.3
	C918.1,181.5,925.1,181.9,926,181.9z"/>
<path class="st15" d="M942.3,205.6c-0.3-1.4-2.9-1.9-3.5-2c-0.8-0.1-2.8-0.5-3.5,0.4c-0.9,1.2,0.4,4.6,2.8,5
	C940.3,209.4,942.6,207.1,942.3,205.6z"/>
<path class="st30" d="M930.9,203.7c0.2-0.8,0.9-2.7,2.7-4.3c0.7-0.6,2.6-2.3,5.5-2.1c3.6,0.2,5.6,3.3,5.8,3.6
	c1.4,2.2,1.2,4.4,1.1,5.1c-0.3-0.4-2.8-4.4-7.7-4.8C934.2,200.9,931.4,203.3,930.9,203.7z"/>
<path class="st15" d="M930.9,210.1c-0.6,0-1.1,0.5-1.1,1.1s0.5,1.1,1.1,1.1s1.1-0.5,1.1-1.1S931.5,210.1,930.9,210.1z"/>
<path class="st15" d="M931.3,216.2c-0.6,0-1.1,0.5-1.1,1.1s0.5,1.1,1.1,1.1c0.6,0,1.1-0.5,1.1-1.1S931.9,216.2,931.3,216.2z"/>
<path class="st15" d="M931.3,222.3c-0.6,0-1.1,0.5-1.1,1.1s0.5,1.1,1.1,1.1c0.6,0,1.1-0.5,1.1-1.1S931.9,222.3,931.3,222.3z"/>
<path class="st15" d="M935.6,222.7c-0.6,0-1.1,0.5-1.1,1.1s0.5,1.1,1.1,1.1c0.6,0,1.1-0.5,1.1-1.1S936.2,222.7,935.6,222.7z"/>
<path class="st15" d="M937,216.6c-0.6,0-1.1,0.5-1.1,1.1s0.5,1.1,1.1,1.1c0.6,0,1.1-0.5,1.1-1.1S937.7,216.6,937,216.6z"/>
<path class="st15" d="M939.2,211.2c-0.6,0-1.1,0.5-1.1,1.1s0.5,1.1,1.1,1.1s1.1-0.5,1.1-1.1S939.8,211.2,939.2,211.2z"/>
<path class="st15" d="M945.2,215.2c-0.6,0-1.1,0.5-1.1,1.1s0.5,1.1,1.1,1.1c0.6,0,1.1-0.5,1.1-1.1S945.8,215.2,945.2,215.2z"/>
<path class="st15" d="M923.3,213.4c-0.6,0-1.1,0.5-1.1,1.1s0.5,1.1,1.1,1.1c0.6,0,1.1-0.5,1.1-1.1S924,213.4,923.3,213.4z"/>
<path class="st15" d="M918.4,218c-0.6,0-1.1,0.5-1.1,1.1s0.5,1.1,1.1,1.1c0.6,0,1.1-0.5,1.1-1.1S919,218,918.4,218z"/>
<path class="st15" d="M948.1,220.2c-0.6,0-1.1,0.5-1.1,1.1s0.5,1.1,1.1,1.1s1.1-0.5,1.1-1.1S948.7,220.2,948.1,220.2z"/>
<path class="st13" d="M1049.3,210.6c0,0-11.6-0.7-25.9-1.6c-4.7-0.3-9.7-0.6-14.7-1c-18-1.2-35.9-2.5-38.9-2.9l-3.7-14.7
	c0,0,60.2-14,69.7-9.7c6.5,3,10.4,6.7,12.6,10.5C1053.9,200.7,1049.3,210.6,1049.3,210.6z"/>
<path class="st21" d="M1049.3,210.6c0.5,9.4-33.5,60.4-51.4,76.9c-1,1.5-4.1,5.6-9.2,6.7c-7.1,1.5-13-3.9-15.3-6.1
	c-11.7-10.8-8.6-29.9-8.1-32.5c6.8-11.2,13.1-18.5,17.8-23.3c5.4-5.4,10.1-11.5,16-16.3c3-2.4,5-3.8,4.7-5c-1.2-4.4-29.4,2.2-33-5.9
	c-0.5-1.2-0.2-4.1,0.4-9.9c0.5-4.3,0.7-6.5,1.3-7.7c2.4-5.1,11.6-4.8,22.6-5.5c27.2-1.6,34.3-6.9,44.8-0.6c3.7,2.2,6.1,4.9,7.6,6.7
	c1.5,2.6,4.4,8.7,3.5,16.3C1050.6,206.9,1049.9,208.9,1049.3,210.6z"/>
<path class="st13" d="M966.1,190.4c0,0-18.9-2.8-24.2-1.6c-5.3,1.2-23.8,9-22.9,12.6c0.9,3.6,14.8,10,20.5,8.8
	c5.7-1.2,10.3-0.5,17.6-2.1c7.3-1.6,12.8-3.1,12.8-3.1L966.1,190.4z"/>
<path class="st31" d="M904.5,172.5c-2.4,3.7-4.8,7.4-7.2,11.1c-0.1,0.5-0.1,1.1-0.2,1.7c-0.3,3.5-0.2,6.8,0,9.8
	c0.3-2.1,0.8-3.4,1.1-4.2c0.1-0.3,0.3-0.7,0.8-1.7c0.5-0.9,0.6-1.3,0.9-1.8c0.3-0.5,0.6-0.8,0.7-1c0.4-0.5,0.7-0.7,0.8-0.9
	c0.7-0.7,0.6-1.8,0.7-2.9c0.1-1.3,0.5-2.6,0.6-3.9C903.2,177.3,903.6,175.2,904.5,172.5z"/>
<path class="st15" d="M849.4,570.9c0.2,9-4.9,16.2,4.3,20.3c13.7,6,19.6,12.2,29.9,15.1c10.2,3,25.6,7.5,17.5-8.1
	c-8.1-15.6-13.7-29.9-13.7-29.9L849.4,570.9z"/>
<path class="st32" d="M922,546.1c1.3,9-3,16.6,6.6,19.6c14.3,4.3,21.1,9.8,31.4,11.3c10.2,1.5,26.5,4.5,16.6-10
	c-9.8-14.5-17.3-28.2-17.3-28.2L922,546.1z"/>
<path class="st33" d="M963.3,460.3c-1.7-6.4-5.1-12.2-9.8-16.8c-4.7-4.6-10.6-7.9-17.1-9.4l-13.4-3.2c-10.5-73,1.5-87.7-54.2-110.9
	l-46.5-7.7c0,0-47.6-5.3-68.1,16l14.1,83c0,0-16.9,51.8-15.8,79.4h61.9l15.4,88.8c101.3-1.9,153.6-41.8,153.6-41.8L963.3,460.3z"/>
<path class="st34" d="M859.9,470.8c-2.6-14.5-2.3-20.1-20.5-21.8l-28.4-2.6l2.1-5.5l61-2.6l-44.4-42.2L766,407
	c-2,8-3.2,16.1-3.4,24.3c-7.5,4.7-5.8,10.7-4.3,16.6c-3.4,14.7-6.2,30.9-5.8,42.7h61.9c0.4,19.2,6.2,31.4,7.3,43.7
	c1.1,12.4,5.5,45.2,5.5,45.2c17.1-0.4,34.2-1.9,51.2-4.3L859.9,470.8z"/>
<path class="st35" d="M769.4,431.1l60.4,4.1c0,0-15.8-4.5-30.5-7c-8.9-1.7-17.9-2.9-26.9-3.6c-2.3,0-3.4,1.9-4.3,4.7
	c-0.1,0.2-0.1,0.4,0,0.7c0,0.2,0.1,0.4,0.2,0.6c0.1,0.2,0.3,0.3,0.5,0.5C769,431,769.2,431.1,769.4,431.1z"/>
<path class="st36" d="M849.6,442c22.8,6.4,25.8,7.7,37.3,26c11.5,18.3,11.9,17.3,21.3,7.9c9.4-9.4,22.6-23.5,27.1-28.8
	c4.5-5.3-0.2-6.4-30.1-10.5S834.7,437.7,849.6,442z"/>
<path class="st37" d="M782.2,379.5c4.3-8.1,7.4-16.7,9.2-25.6c1.7-6.6,6.2,2.1,2.6,13.4c-2.5,7.5-6.9,14.2-12.8,19.4L782.2,379.5z"
	/>
<path class="st37" d="M768.2,318.7c33.9,54.8,75.5,79.3,96.2,68.9c17.9-9,18.6-43.1,18.4-54.4c-16.7-10.5-62.4-36-104.4-19.4
	C775.1,315.1,771.7,316.7,768.2,318.7z"/>
<path class="st38" d="M799.3,323.1c12.1,12.4,24,18.9,31.7,22.3c13.5,6,28.2,12.6,39.6,5.6c9.9-6.1,12-19,12.5-23.4
	C855.2,326.1,827.2,324.6,799.3,323.1z"/>
<path class="st16" d="M917.9,385c-3.2-30.7-6.8-44.2-35-58.7C888.5,346,887,385,887,385H917.9z"/>
<path class="st39" d="M892.3,359.6c-1.1,7.9-3,15.7-5.5,23.3l4.9,0.6c2.6-7.6,4.6-15.4,6-23.3C898.7,351.3,893.8,349.8,892.3,359.6z
	"/>
<path class="st40" d="M899.1,373.5c5.3-16.2,18.8-22.6,33.9-22.2l-15.1,22.2H899.1z"/>
<path class="st41" d="M841.5,359.4c40.7-13.9,58.9,11.5,58.9,11.5c4.7-6.2,11-11,18.3-13.7c7.3-2.7,15.2-3.3,22.8-1.6l6.8,12.4
	l-61.7,24.1L841.5,359.4z"/>
<path class="st42" d="M899.8,379.7l0.6-6.2l7.5,4.5L899.8,379.7z"/>
<path class="st43" d="M837,357.7l-27.9,73l68.3,19h4.5l47.6-22.2l26.7-65.5l-2.3-2.6L903,377.8L837,357.7z"/>
<path class="st44" d="M822.3,386.7c6,1.1,11.9,2.8,14.3,3.4c2.3,0.6,3.2,1.1,2.3,3.8c-0.9,2.8-0.9,2.6-6,2.1l-11.9-0.6L822.3,386.7z
	"/>
<path class="st16" d="M768.3,411.3c8.7,1.3,20.1,1.9,30.1,2.8c0.3-4.1,1.2-8.1,2.6-11.9c2.4-6.3,5.5-12.4,9.4-17.9
	c-7.9-1.7-17.5-3.6-25.4-4.9c3.4-39.5-14.5-63.4-27.3-54c-6.1,4.5-10.3,11.1-11.7,18.6c-1.1,5.8-1.7,15.6-2.3,17.7
	c-1.9,7-7.3,8.5-2.8,22.6C743.2,391.2,735.1,406.8,768.3,411.3z"/>
<path class="st45" d="M805.9,383.1l-8.1-1.5c-4.1-0.9-6-0.4-3.6,0.9c2.3,1.3,2.6,2.3-3.6,3.2c-6.2,0.9-5.5,4.1-3.6,5.5
	c1.9,1.5,3.2,3.8-1.5,5.3s-5.5,3.6-2.8,5.3c2.8,1.7,4.3,3.8-0.4,5.3c-4.7,1.5-4.1,4.1,0,5.5l10.7,0.6L805.9,383.1z"/>
<path class="st44" d="M798.4,414c0.6-6.4,2.1-15.4,11.9-29.9l14.9,3.2l-1.9,7.3l9.6,6.6c3.2,2.3,3.2,3,2.6,4.5
	c-0.5,1.1-1.3,2.1-2.3,2.8c-0.6,0.6-2.3-0.4-4.9-1.3l-7.3-2.3c-1.3-0.4-1.5,0.4-0.6,1.1c0.9,0.6,6.8,3.6,8.1,4.5
	c1.3,0.9,1.5,1.3,1.1,2.3c-0.4,1.1-1.1,3.2-3.2,3c-2.1-0.2-9.8-2.6-9.8-2.6C811.4,415.3,804.8,414.5,798.4,414z"/>
<path class="st39" d="M785,379.3c-5.8,0.2-15.4,4.7-22.4,9.6c-7,4.9-8.5,1.5-6.2-2.1c2.3-3.6,11.1-5.5,19.4-7.5
	c8.3-1.9,9.4-1.5,9.4-1.5L785,379.3z"/>
<path class="st39" d="M777.7,378.8c2.8-0.4,4.5-3.2-0.6-4.7l-11.9-3.4c-1.5-0.2-2.8-4.7,2.6-3.4s17.7,7.7,17.7,7.7s3.4,3.2-0.4,4.3
	L777.7,378.8z"/>
<path class="st38" d="M825.3,395.9l-4.1-2.8l0.9-1.9l4.7,4.7H825.3z"/>
<path class="st38" d="M820.4,405.9l-2.6-1.3l1.3-1.3l1.9,1.5L820.4,405.9z"/>
<path class="st46" d="M802.1,382.5c-6.2,5.3-13.2,14.9-13.9,30.5l10.2,1.1c0.3-4.1,1.2-8.1,2.6-11.9c2.4-6.3,5.5-12.4,9.4-17.9
	L802.1,382.5z"/>
<path class="st47" d="M747,372.2c0.3-0.6,0.8-1.1,1.4-1.3c0.6-0.3,1.3-0.3,2-0.1c3.7,0.9,7.3,2,10.9,3.4c2.1,1.3-6,3.6-12.4,4.9
	C742.5,380.3,743.8,378,747,372.2z"/>
<path class="st48" d="M816.3,405.1c-1.7-1.9-1.9-3.8,0.9-5.1c2.8-1.3,2.6-3.4,1.5-4.9c-1.1-1.5-3.2-3.8,0.6-5.1
	c3.8-1.3,2.1-3.4-0.9-4.1h-0.2l-7.9-1.7c-7,10.5-9.8,17.9-11.1,23.7c0.2,0,13,1.5,15.8,0.9C817.8,408.1,818.3,406.8,816.3,405.1z"/>
<path class="st49" d="M814.4,490.6c-3-17.7-3.4-21.1-4.1-23.5c-0.6-2.3-5.1,17.3-5.3,23.5H814.4z"/>
<path class="st50" d="M848.4,478.9c-3.2,25.4-7.7,52.7-9.6,67c-1.9,14.3-4.7,3.6-7-7.5c-2.3-11.1-1.7-15.1,4.3-35.4
	C841.9,482.7,850.1,464.8,848.4,478.9z"/>
<path class="st51" d="M881.8,468.4c14.9,22,39.9,57.8,44.8,67.2c4.9,9.4-0.9,4.1-10.2-3c-9.4-7-10.9-9-17.1-19.4
	C893.2,502.8,873.5,456.1,881.8,468.4z"/>
<path class="st36" d="M948,451.4c-5.1,19.6-13.7,44.4-15.8,51.8s-10.5,4.9-17.1,1.7c-6.6-3.2-3.8-1.7,1.1,4.5c4,4.7,9,8.2,14.7,10.5
	c3.4,1.3,9.2,5.1,12.4-16.4C946.5,481.9,950.8,441.3,948,451.4z"/>
<path class="st52" d="M967.2,533.9c-1.5,12.4-12.6,9-18.3,5.1c-5.8-3.8-13.2-2.6-15.6,10c-1.1,5.3-6.4,10.2-14.7,3.6
	c-8.3-6.6-14.7-4.5-16.2,4.3c-1.5,8.7-8.7,10.9-16,2.6c-7.3-8.3-16.2-4.3-18.3,6.2c-2.1,10.5-11.7,8.1-16.6-0.4
	c-4.9-8.5-13.4-4.7-14.9,4.7c-1.5,9.4-9.2,3.6-10.2,0.4l1.1,9.2c9.2-0.2,18.6-0.6,27.7-1.5c84.7-7.3,128.4-40.5,128.4-40.5l-1.5-6.6
	C979.3,521.8,968.9,521.6,967.2,533.9z"/>
<path class="st49" d="M874.8,555.7c-3.2,1.3-5.8,4.9-6.8,10c-1.7,8.5-11.7,8.1-16.6-0.4c-4.9-8.5-13.4-4.7-14.9,4.7
	c-1.5,9.4-9.2,3.6-10.2,0.4c0.4,3.8,0.9,6.8,1.1,8.1v1.1c17.1-0.4,34.2-1.9,51.2-4.3L874.8,555.7z"/>
<path class="st35" d="M767.5,449c1.3,3.2,3.2,1.7,6.6,0.9c10.5-3,21.1-7.3,25.8-7.7c4.7-0.4,6.4-2.3-3.2-2.1s-23.3,0.9-27.5,1.3
	S765.4,443.7,767.5,449z"/>
<g>
	<path class="st53" d="M781.6,296.4c-0.2-2-0.3-4.3-0.5-6.9C781.2,291.8,781.3,294,781.6,296.4z"/>
	<path class="st53" d="M911.4,242.9c-2.1-3.4-21.7-33.9-57.4-34.5c-3.7-0.1-7.3,0.2-10.8,0.8c-6,7.1-16.6,21.5-21.4,42.8
		c-1,4.5-5.1,24.4,1.3,48.9c5.2,19.6,14.8,33.5,21.7,41.8c6.5,0.3,12.3,0.1,16.5,0c12.9-0.4,28.9-1.2,42.2-12.9
		c12.5-11,15.5-25.6,17.1-32.8C921.7,291.3,926.2,266.8,911.4,242.9z"/>
	<path class="st53" d="M821.8,252c4.8-21.2,15.4-35.7,21.4-42.8c-27.7,4.6-47.3,28.1-55.4,48c-1.4,3.3-6.8,16.7-6.6,32.3
		c0.2,2.5,0.3,4.8,0.5,6.9c0.9,6.8,3,13.8,7.2,20.5c12.9,20.4,37.5,25,56,25.8c-6.9-8.2-16.5-22.2-21.7-41.8
		C816.6,276.3,820.8,256.5,821.8,252z"/>
	
		<linearGradient id="SVGID_1_" gradientUnits="userSpaceOnUse" x1="780.5798" y1="1358.6914" x2="819.4194" y2="1367.9327" gradientTransform="matrix(1 0 0 -1 0 1649.6471)">
		<stop  offset="0" style="stop-color:#62C7C7"/>
		<stop  offset="1" style="stop-color:#55BAC8"/>
	</linearGradient>
	<path class="st54" d="M821.8,252c4.8-21.2,15.4-35.7,21.4-42.8c-27.7,4.6-47.3,28.1-55.4,48c-1.4,3.3-6.8,16.7-6.6,32.3
		c0.2,2.5,0.3,4.8,0.5,6.9c0.9,6.8,3,13.8,7.2,20.5c12.9,20.4,37.5,25,56,25.8c-6.9-8.2-16.5-22.2-21.7-41.8
		C816.6,276.3,820.8,256.5,821.8,252z"/>
</g>
<linearGradient id="SVGID_2_" gradientUnits="userSpaceOnUse" x1="845.1708" y1="193.7593" x2="845.1708" y2="193.7593">
	<stop  offset="0" style="stop-color:#62C7C7"/>
	<stop  offset="1" style="stop-color:#55BAC8"/>
</linearGradient>
<path class="st55" d="M845.2,193.8"/>
<path class="st16" d="M820.8,206.8c-1,0.2-1.3,2.7-1.8,7.2c-0.5,4.4-0.8,6.6,0.4,7.5c1.6,1.3,5.1,0.6,6.4-1.5c1-1.5,0.3-3.2-0.9-6.6
	C824.2,211.8,822.3,206.5,820.8,206.8z"/>
<path class="st16" d="M885.6,209.2c1,0.2,1.3,2.7,1.9,7.1c0.6,4.4,0.8,6.6-0.3,7.5c-1.6,1.3-5.1,0.6-6.4-1.4c-1-1.5-0.3-3.2,0.9-6.6
	C882.2,214.2,884.1,208.9,885.6,209.2z"/>
<path class="st16" d="M903.3,282c-7.2,21.2-41.9,26.5-64.6,21.8c-6.2-1.3-29-6-34.3-21.6c-7.2-21.5,20.3-59.6,52.6-57.8
	C886.4,226,910.8,259.8,903.3,282z"/>
<circle class="st56" cx="852.6" cy="265.9" r="16.4"/>
<circle class="st57" cx="852.9" cy="265.7" r="11.4"/>
<path class="st58" d="M859.3,259.8c1.1,1.5,1,3.7,0.3,4c-0.4,0.2-1.1-0.5-1.6-1c-1.3-1.4-2.4-3.7-1.8-4.3
	C856.8,258,858.4,258.6,859.3,259.8z"/>
<g>
	<path class="st59" d="M901.7,311.3c-0.4-1.3-2.6-1.4-6.6-1.1c-0.1,1.5-1.6,3.3-3.2,3.5c-1.6,0.2-3.5-1.3-3.8-2.7
		c-1.4,0.2-2.8,0.3-4.4,0.5c0.1,2-1.6,4.7-3.3,4.8c-1.6,0.1-3.5-2.2-3.7-4.1c-1,0.1-2,0.1-3,0.2c0,2.5-1.6,5.5-3.3,5.6
		c-1.7,0.1-3.5-2.8-3.7-5.3c-1.3,0.1-2.7,0.1-4.1,0.1c-0.2,2.4-2.6,5.3-5.1,5.4c-2.6,0.1-5.5-2.9-5.8-5.4c0,0-0.1,0-0.1,0
		c-0.1,0-0.3,0-0.4,0c-0.3,2.4-2.7,5.1-5.1,5.2c-2.7,0.1-5.8-3.1-5.8-5.7c-1.2-0.1-2.3-0.2-3.4-0.2c-0.1,2.5-1.7,5.4-3.3,5.5
		c-1.9,0.1-4-3.5-3.7-6.2c-0.9-0.1-1.7-0.2-2.5-0.3c0,2-1.7,4.4-3.3,4.5c-2,0.1-4.3-3.3-3.6-5.4c-0.6-0.1-1.3-0.2-1.9-0.3
		c-0.2,1.5-2.1,3.1-3.8,2.9c-1.7-0.2-3.3-2.3-3.2-3.8c-4.4-0.5-6.8-0.5-7.3,0.8c-0.6,1.6,1.5,4.9,5.7,8.6
		c16.5-6.3,47.4,9.3,51.7,11.5c2.5,1.3,4.1,2.3,5.3,3.1C887.5,328.5,903,315.3,901.7,311.3z"/>
	<path class="st16" d="M824,315.7c1.7-0.1,3.3-2.5,3.3-4.5c-2.5-0.3-4.8-0.6-6.9-0.9C819.7,312.4,822,315.8,824,315.7z"/>
	<path class="st16" d="M880.4,316.2c1.7-0.1,3.4-2.7,3.3-4.8c-2.1,0.2-4.5,0.4-7,0.6C877,314.1,878.8,316.3,880.4,316.2z"/>
	<path class="st16" d="M814.8,312.9c1.7,0.2,3.6-1.4,3.8-2.9c-2.7-0.4-5-0.7-7-1C811.4,310.5,813.1,312.7,814.8,312.9z"/>
	<path class="st16" d="M891.9,313.7c1.6-0.2,3.1-2,3.2-3.5c-1.9,0.2-4.2,0.4-7,0.7C888.4,312.4,890.3,313.9,891.9,313.7z"/>
	<path class="st16" d="M833.6,317.6c1.6-0.1,3.2-3,3.3-5.5c-2.5-0.2-4.8-0.4-7-0.6C829.6,314,831.7,317.7,833.6,317.6z"/>
	<path class="st16" d="M870.4,318c1.7-0.1,3.3-3.2,3.3-5.6c-2.2,0.1-4.5,0.3-7,0.4C866.9,315.2,868.8,318.1,870.4,318z"/>
	<path class="st16" d="M846.1,318c2.4-0.1,4.8-2.8,5.1-5.2c-3.9-0.1-7.5-0.3-10.8-0.5C840.3,314.9,843.4,318.1,846.1,318z"/>
	<path class="st16" d="M857.5,318.2c2.5-0.1,4.9-2.9,5.1-5.4c-3.4,0.1-7,0.1-10.9,0C852,315.3,854.9,318.3,857.5,318.2z"/>
	<path class="st60" d="M810,318.5c8,7.1,23.6,15.5,40.9,16.2c5.6,0.2,11-0.4,16.1-1.5c-1.1-0.8-2.8-1.8-5.3-3.1
		C857.3,327.7,826.4,312.1,810,318.5z"/>
</g>
<path class="st61" d="M695.3,334.5l-10.5-44.4l-7.2,16.7l-11.1,32.4L695.3,334.5z"/>
<path class="st62" d="M540.2,252.3l150.9,20.5c12.9,6,16.9,8.4,23.1,23.9l4.6,11.5c4.4,3.6,4.8,4.2,3.6,9.4l-32.6,21.5l17.9,61.1
	l-137.7,16.7L541,352.6l-44.4-26.7c-1-0.6-1.8-1.4-2.4-2.4c-1.8-3.8-1.4-7.4,5.4-10.7c4.2-14.5,4-17.1,7.4-28.3
	C514.4,259.3,520.3,251.9,540.2,252.3z"/>
<path class="st63" d="M664.8,380.7c-4.5-6.5-6.7-14.2-6.2-22.1c0.8-20.3-8.2-26.1-11.1-41.2h-2l-5.2,0.6c0.6,15.3-7.2,22.9-2,42.6
	c2,7.6,1.4,15.7-1.6,22.9c-4.4,10-4,20.3,2.4,28.5l15.9-1.6h1.4l12.3-1.2C673,399.8,671.4,389.7,664.8,380.7z"/>
<path class="st63" d="M692.5,347.7l-47.2-14.5l7.6,41.6l52.9,18.3L692.5,347.7z"/>
<path class="st63" d="M651.1,370L600.4,357l-2.8,13.1l10.2,9.2l10.5,31.8l-9.6,1l-44.2,8.6l-1.2,6.4l-3.2-4.4
	c-0.9-1.3-1.6-2.7-1.9-4.2c-0.3-1.5-0.3-3.1,0.1-4.6l2.2-11.9l-3.8-13.7h-1.8c-4-0.4-4-1.6-7-6.8c-4.9-8.6-9.2-17.5-12.9-26.7l6-2.2
	l13.9-29.9c57.7,19.9,77.8,28.5,102.3,40c24.5,11.5,25.1,11.5,29.5,15.1C691.1,381.3,688.7,379.5,651.1,370z"/>
<path class="st63" d="M559.8,261.3l-22.3,12.5l22.3,27.9l22.1-17.9L559.8,261.3z"/>
<path class="st64" d="M603.1,209.5l-10.5,1.8c-2.5,0.4-4.8,1.3-6.9,2.6c-2.1,1.4-3.8,3.1-5.2,5.2l-6.2,9.6l-19.7,5.8
	c-2.1,0.6-4,1.7-5.7,3c-1.7,1.4-3.1,3.1-4.1,5l-4.6,9.6c0,0,54.9,76,98.3,88.4c43.4,12.5,52.7-67.9,52.7-67.9c0-0.9-0.2-1.7-0.7-2.5
	c-0.5-0.7-1.1-1.3-1.9-1.7l-11.5-6.6l1-14.9c0.1-1.4-0.1-2.8-0.7-4c-0.6-1.3-1.4-2.4-2.5-3.2l-31.4-24.3L603.1,209.5z"/>
<path class="st65" d="M592.6,211.3c-2.5,0.4-4.8,1.3-6.9,2.6c-2.1,1.4-3.8,3.1-5.2,5.2l-6.2,9.6l-19.7,5.8c-2.1,0.6-4,1.7-5.7,3
	c-1.7,1.4-3.1,3.1-4.1,5l-4.6,9.6c13,17.4,27.1,34,42.4,49.4l6-15.3h35.6c0,0-4.2-14.7-5.6-21.3s-4.6-10.5,5.2-12.1l-8.2-41.6
	l-12.5-2L592.6,211.3z"/>
<path class="st66" d="M594.6,231c-9.6-7.2-9-6.6-3.6-10c3.2-2.2,7-3.4,10.9-3.6L594.6,231z"/>
<path class="st64" d="M582,238c8.2,12.5,57.1,65.3,64.5,70.3c7.4,5-3,12.1-3,12.1c-14-6.9-27.6-14.8-40.6-23.5
	c-16.5-11.9-26.3-19.3-30.9-23.7c-4.6-4.4-6-8.2,3-2.4c9.6,5.6,19.8,10.3,30.3,13.9l2.6-3l-24.3-34.6L582,238z"/>
<path class="st65" d="M662.3,233.4c10.7,9.2,16.1,6.8-9.2,41.2l-6-3.8l-17.5-19.9l22.3-27.9L662.3,233.4z"/>
<path class="st62" d="M614.9,417.5L603.3,477h110.3v30.9h26.1l1,21.1h58.9l-2.2-20.9l9-8.4c0.7-0.7,1.3-1.6,1.6-2.5
	c0.3-0.9,0.5-1.9,0.4-2.9l-5.4-58.1c-0.5-5.4-2.1-10.7-4.7-15.5c-2.6-4.8-6.1-9-10.4-12.3c-4.3-3.4-9.2-5.8-14.4-7.2
	c-5.3-1.4-10.7-1.7-16.1-0.9L614.9,417.5z"/>
<path class="st19" d="M772.5,628.5l-1.6,1.4c-0.9,0.7-1.4,1.7-1.6,2.8l-0.4,2.8c-0.2,1.4,0.2,2.8,1,4c3.8,5.2,8,6.4,12.9,8
	c5.5,1.3,10.7,3.8,15.1,7.4c7.4,5.5,16.2,8.8,25.3,9.4c10.2,0.8,14.3-3.8,14.1-7.6c-0.2-3.8-5.4-7.4-5.4-7.4L772.5,628.5z"/>
<path class="st67" d="M770.9,618.4c1.6-13.9-6-22.1-15.5-40.6c-9.4-18.5-13.7-40.2-17.1-68.1h50.2c0,0,10.9,67.3,13.9,81.8
	c1.8,8.8,2.8,22.9,12.3,34.6c12.5,15.7,21.3,23.1,19.3,28.5c-2,5.4-9,7.6-23.1,2c-3.8-1.6-8-4.6-13.1-7.4s-11.7-5-15.7-7
	C771.9,637.3,769.1,634.9,770.9,618.4z"/>
<path class="st68" d="M810.7,648.6c-7.8-8-14.5-13.9-15.7-18.5c-1.2-4.6-2.2-12.1-3.6-18.7c-1.4-6.6-23.5-66.5-29.5-99.9l-5.4-1.8
	h-18.1c3.4,27.9,7.6,49.6,17.1,68.1c9.4,18.5,17.1,26.7,15.5,40.6c-1.6,13.9,1,18.9,11.3,23.7c4,2,9.2,3.4,15.7,7
	c6.4,3.6,9.2,5.8,13.1,7.4c8.2,3.2,13.9,3.8,17.7,2.8C821.8,657.2,815.7,653.5,810.7,648.6z"/>
<path class="st69" d="M753.8,511.5c1,27.7,9.4,53.9,15.5,65.3c6,11.5,11.3,23.7,12.9,48"/>
<path class="st69" d="M807.2,612.4c-1-2.5-1.7-5-2.2-7.6c-1-1-2.1-1.8-3.4-2.4c-1.3-0.6-2.7-0.8-4-0.8c-5.4,0.4-9.4,4.4-11.1,11.1
	c-1.6,6.6-4.2,12.1-7,13.1c-2.8,1-4.6-0.2-7.8-2.4c-0.2-0.2-0.3-0.3-0.6-0.3c-0.2-0.1-0.4-0.1-0.7-0.1v4.6c2.2,1.5,4.8,2.4,7.4,2.6
	l3-0.4c4.4-1.6,7.4-6.8,9.6-16.1c1.2-4.8,3.8-7.6,7.2-7.8S804.8,608.2,807.2,612.4z"/>
<path class="st15" d="M799.6,491.8c-5,0.2-14.1,0.6-45,6.2l-14.9,12.5l0.4,6.6l36.8,8.4c0,0,13.1-6.2,20.7-16.1v-1.4l3-2.8
	C807.2,492.8,804.6,491.6,799.6,491.8z"/>
<path class="st32" d="M740.7,529h58.9l-2.2-20.9l-0.4-5.4l-21.9,1.4c-9.4,0.8-49.4,1.4-49.4,1.4l0.8,2.4h13.3L740.7,529z"/>
<path class="st63" d="M736.7,457.3c20.3-8.4,25.5-10.9,29.7-12.3c4.2-1.4,0-4.2-6.2-7.2C754,434.8,752.2,437.8,736.7,457.3z"/>
<path class="st70" d="M730.5,337.5l-8-19.9l-27.1,16.9l-38.8-14.1v26.5l11.9,4.8c35,14.5,41.6,23.1,56.7,21.7
	C740.1,372.1,737.1,353.8,730.5,337.5z"/>
<path class="st71" d="M710.2,325.2l8.2,18.3l-22.5-7.4l-0.6-1.6L710.2,325.2z"/>
<path class="st19" d="M727.3,630.9l-1.6,1.4c-0.4,0.3-0.8,0.7-1,1.1c-0.2,0.5-0.4,1-0.4,1.5l-0.6,3c-0.2,1.4,0.2,2.8,1,4
	c3.8,5.2,8.2,6.4,12.9,7.8c5.6,1.5,10.8,4.1,15.3,7.6c7.3,5.5,16.1,8.8,25.3,9.4c10,0.8,14.1-3.8,14.1-7.8c0-4-5.6-7.2-5.6-7.2
	L727.3,630.9z"/>
<path class="st67" d="M725.6,620.9c1.6-13.9-6-22.1-15.5-40.6c-9.4-18.5-13.7-40.4-17.1-68.3h50.2c0,0,11.1,67.5,14.1,82
	c1.8,8.8,2.8,22.9,12.1,34.6c12.5,15.7,21.3,23.1,19.3,28.3s-9,7.8-23.1,2.2c-4.4-2.2-8.7-4.7-12.9-7.4c-6.6-3.8-11.9-5-15.9-7
	C726.9,639.7,723.8,637.3,725.6,620.9z"/>
<path class="st68" d="M765.4,651c-7.8-8-14.5-13.9-15.5-18.5c-1-4.6-2.4-12.1-3.8-18.9s-23.5-66.5-29.5-99.9l-5.2-1.8h-18.3
	c3.4,27.9,7.6,49.8,17.1,68.3c9.4,18.5,17.1,26.7,15.5,40.6c-1.6,13.9,1.2,18.9,11.3,23.7c4,2,9.2,3.2,15.9,7
	c4.1,2.7,8.4,5.2,12.9,7.4c8.2,3.2,14.1,3.8,17.9,2.6C776.8,659.5,770.6,655.9,765.4,651z"/>
<path class="st72" d="M708.6,513.7c1,27.9,9.4,54.1,15.5,65.3c6,11.3,11.3,23.9,12.9,48.2"/>
<path class="st63" d="M564.5,420.7L553.6,477h110.1l3.8,19.5c0.5,2.2,1.5,4.2,3.1,5.7c1.6,1.6,3.6,2.7,5.7,3.1l9.8,2l4.8,21.7h59.5
	l-2.4-16.7l7.4-2.6c1.3-0.4,2.3-1.2,3-2.3c0.7-1.1,1-2.4,0.8-3.7l-6-67.5c-0.5-5.4-2.1-10.7-4.7-15.5c-2.6-4.8-6.1-9-10.4-12.3
	c-4.3-3.4-9.2-5.8-14.4-7.2c-5.3-1.4-10.7-1.7-16.1-0.9c0,0-96.5,11.3-115.8,14.1C572.7,417.1,564.5,420.7,564.5,420.7z"/>
<path class="st73" d="M573.7,435c16.2-9.5,33-17.7,50.4-24.7c-5.2-2.2-8.8-1.6-24.3,3l-37.6,19.1L573.7,435z"/>
<path class="st74" d="M695.3,334.5l29.1,10.7c0.1,0.1,0.2,0.1,0.2,0.2c0,0.1,0.1,0.2,0.1,0.3s0,0.2-0.1,0.3c0,0.1-0.1,0.2-0.2,0.2
	L656.7,324v-3.6L695.3,334.5z"/>
<path class="st75" d="M450.7,462.1l-35.2,8.4l-4.6,6.4h44.6L450.7,462.1z"/>
<path class="st76" d="M580.1,431.5l-27.1,1.2c-2.1,0.1-4.1,0.8-5.8,2.2c-1.6,1.3-2.8,3.2-3.3,5.2l-9,36.8c0.7,0.8,1.8,1.9,3.3,2.9
	c5.3,3.6,9.6,2.2,22,2.6c10.1,0.3,12.4,1.3,17.3-0.5c3.7-1.4,6.4-3.5,8.1-5c0.6-12.7,1.2-25.5,1.8-38.2c0-1-0.1-1.9-0.5-2.8
	c-0.4-0.9-0.9-1.7-1.6-2.4c-0.7-0.7-1.5-1.2-2.4-1.6C582.1,431.7,581.1,431.5,580.1,431.5z"/>
<path class="st77" d="M569,482.6c-0.6-9.7-0.1-22.4,3.7-36.6c1.5-5.4,3.2-10.2,5-14.5h-2.8l-21.9,1c-2.1,0.1-4.1,0.8-5.8,2.2
	c-1.6,1.3-2.8,3.2-3.3,5.2l-9,36.8c1.1,1.3,3,3.1,5.8,4.3c1.1,0.5,2.7,1,7.2,1.3c4.2,0.3,6.9,0.1,10.3,0.1
	C560.8,482.4,564.5,482.4,569,482.6z"/>
<path class="st65" d="M677.6,253.9c0,0-0.2,3.4-0.6,8c-0.8,6.8-2.1,13.5-3.8,20.1c-1.4,6-1.4,5.8-3.4,4.4l-7-5
	C666.8,275.6,674,264.5,677.6,253.9z"/>
<path class="st65" d="M607.3,286.4l-2-1.8c-13.5-11.7-37-35.8-48-50.8l16.7-5h0.4c11.1,20.5,30.9,47,39.6,57.7l1.6,2
	C622.7,296.9,619.9,297.1,607.3,286.4z"/>
<path class="st65" d="M584.6,228.8l25.9,25.1l5,21.9L587,239.6L584.6,228.8z"/>
<path class="st66" d="M648.7,266.7L595,229.2l-0.8-0.8c-1.6-1.4-2.8-1.2,0.4,2.6l52.5,39.8C647.7,269.4,648.1,268,648.7,266.7z"/>
<path class="st63" d="M685.3,325.4c9.4-11.9,16.9-19.3,19.9-21.1c3-1.8,2.6-1-2,5.4c-4.6,6.4-12.9,19.7-12.9,19.7L685.3,325.4z"/>
<path class="st63" d="M692.5,288.5c0,0-0.2,16.7,0,18.7c0.2,2,0.8-0.2,2.2-4.8c1.4-4.6,2.6-8.2,2.8-9.4c0.2-1.2,0.6-1.6-2.2-4.2
	C692.5,286,692.5,286,692.5,288.5z"/>
<path class="st71" d="M727.3,369c-5.2-0.3-10.4-1.7-15.1-4c-2.6-1.2-1,1.8,3.6,4.6C720.4,372.5,730.9,369.4,727.3,369z"/>
<path class="st78" d="M636.8,349.7l13.5-1.6c3,2.6,6.7,4.2,10.7,4.6l19.1,12.7l7.8,4.6c0,0,12.1-8.8,0-44.2c-1-3.4-1.6-4.2-7.8-2.8
	l-10.5-3.6l-5.2-7.4c-0.7-1-1.7-1.9-2.8-2.5c-1.1-0.6-2.4-0.9-3.6-0.9h-23.1c-0.8,0-1.6,0.3-2.1,0.9s-0.9,1.3-0.9,2.1
	c-0.1,0.8,0.2,1.5,0.7,2.1c0.5,0.6,1.2,1,1.9,1.1l18.9,3.4l-13.9,6.8c-1.1,0.6-2,1.5-2.5,2.6c-0.5,1.1-0.7,2.4-0.5,3.6
	c0.3,1.4,0.9,2.7,1.8,3.8c-3.2,3-1,7.4-1,7.4c-3.8,1.2-5.2,2-5.6,5.2C631.2,351,633.4,350.4,636.8,349.7z"/>
<path class="st76" d="M682.6,359l-21.7-12.9c-2-1.1-4-2.3-5.8-3.6c-3-2.2-2.6-4.4-1.2-4.8c0.5-0.1,0.9-0.4,1.2-0.7
	c0.3-0.3,0.6-0.7,0.8-1.2c0.2-0.5,0.2-0.9,0.1-1.4c-0.1-0.5-0.2-0.9-0.5-1.3c-1.2-3-1.8-4.2-0.2-5.8c1.6-1.6,2.6-2.2,1.8-3.2
	c-0.8-1-2.6-3.2-1.2-5c1.4-1.8,3-1.2,2-4.2c-1-3-2-6.2,0-6.2h-23.1c-0.8,0-1.6,0.3-2.1,0.9s-0.9,1.3-0.9,2.1
	c-0.1,0.8,0.2,1.5,0.7,2.1c0.5,0.6,1.2,1,1.9,1.1l18.9,3.4l-13.9,6.8c-1.1,0.6-2,1.5-2.5,2.6c-0.5,1.1-0.7,2.4-0.5,3.6
	c0.3,1.4,0.9,2.7,1.8,3.8c-3.2,3-1,7.4-1,7.4c-3.8,1.2-5.2,2-5.6,5.2c-0.4,3.2,1.8,2.6,5.2,2l13.5-1.6c3,2.6,6.7,4.2,10.7,4.6
	l19.1,12.7l2.6,1.6V359z"/>
<path class="st79" d="M680,365.4l7.8,4.6c0,0,12.1-8.8,0-44.2c-1-3.4-1.6-4.2-7.8-2.8l2.6,1C685.3,332.9,687.3,350.2,680,365.4z"/>
<path class="st73" d="M662.3,310c2.4,13.9-1.8,28.9-1.8,28.9l10.2,4.8c1.4-5.4,1.2-12.1-1.2-24.3l-5.2-7.4
	C663.8,311.2,663.2,310.5,662.3,310z"/>
<path class="st77" d="M638.2,335.1c9.4-4.6,17.3-8.8,17.3-8.8l-0.4-1.2l-17.7,9L638.2,335.1z"/>
<path class="st77" d="M637.2,342.5l16.7-4.8l-1-1.4l-16.1,5.4L637.2,342.5z"/>
<path class="st77" d="M653.3,318.2l2.6-1.2l-0.2-2.2l-4.6,3L653.3,318.2z"/>
<path class="st78" d="M682.6,359c-0.7,2.2-1.6,4.3-2.6,6.4l7.8,4.6c1.7-1.6,3-3.6,3.6-5.8L682.6,359z"/>
<path class="st80" d="M541,352.6c-2,8.1-5.2,15.8-9.2,23.1c-6,9.6-18.5,28.7-18.5,28.7s-17.1,37.2-34.4,56.3l-27.7-6.4
	c0,0,18.7-53.1,25.1-68.3c4.8-11.5,16.1-44,21.5-59.5C519.3,335.3,541,352.6,541,352.6z"/>
<path class="st76" d="M495.5,455.3l-5.8,3.8L476,477h-73.2l2.2-3.2c1.8-2.4,4.3-4.3,7.2-5.2l24.7-7.6l17.3-39.2
	c0.2-0.3,0.5-0.5,0.8-0.6c0.3-0.1,0.7-0.1,1,0c16.1,9.8,33.2,24.1,39.8,31.8c0.1,0.2,0.3,0.4,0.3,0.6c0.1,0.2,0.1,0.5,0,0.7
	c0,0.2-0.1,0.4-0.3,0.6C495.9,455,495.7,455.1,495.5,455.3z"/>
<path class="st81" d="M503,379.5c5,15.5,6,19.9,8.8,16.3c2.3-2.7,4.2-5.7,5.8-8.8c0.4-0.8,1.4-2.8-6-7.4
	C504.2,374.9,500.4,371.7,503,379.5z"/>
<path class="st82" d="M495.9,452.8c-6.6-7.6-23.7-21.9-39.8-31.8c-0.3-0.1-0.7-0.1-1,0c-0.3,0.1-0.6,0.3-0.8,0.6l-2.2,5.4
	c25.5,18.7,37.6,32,37.6,32l5.8-3.8c0.2-0.1,0.4-0.3,0.5-0.5c0.1-0.2,0.2-0.4,0.3-0.6c0-0.2,0-0.5,0-0.7
	C496.2,453.2,496.1,453,495.9,452.8z"/>
<path class="st83" d="M459.6,469.5c-8.2,2.8-16.5,6-29.1,7.4H476l2.4-3.2C479.5,463.3,468,466.7,459.6,469.5z"/>
<path class="st78" d="M580.1,431.5c-7.2,0.4-8.6,2.6-9.8,13.3c-1.2,10.7-1.8,13.3-2.2,15.7c0,0.3-0.2,0.6-0.5,0.9
	c-0.3,0.2-0.6,0.3-0.9,0.3h-29.1c-0.4,0-0.6-0.4-0.6-0.8l5.2-20.1c0.5-2.4,1.9-4.5,3.8-6c1.9-1.5,4.3-2.3,6.7-2.3L580.1,431.5z"/>
<path class="st73" d="M548,455.1c-0.1,0.8-0.3,1.6-0.6,2.4c0,0.1,0,0.2,0.1,0.3c0.1,0.1,0.2,0.1,0.3,0.1h8.2c0.3,0,0.6-0.1,0.8-0.3
	c0.2-0.2,0.4-0.4,0.4-0.7l0.6-2.2c0-0.2,0-0.4-0.2-0.4h-8.4c-0.3,0-0.5,0.1-0.7,0.2C548.3,454.6,548.1,454.8,548,455.1z"/>
<path class="st63" d="M779.9,437c5.2,1.1,10.4,2.5,15.5,4.2c2.4,1,2.6,1.2-1.6,6c-4.2,4.8-4.8,6.8-9,0.2
	C780.5,440.8,777.1,436.2,779.9,437z"/>
<path class="st84" d="M686.3,507.3l39.2,7.6c6.2,1.2,7.2,1.4,22.7-2.6l2.4,16.7h-59.5L686.3,507.3z"/>
<path class="st62" d="M663.7,477c18.9-11.3,23.7-14.5,27.7-16.3c4-1.8-0.6-4.4-7-6.4C678,452.2,676.4,455.3,663.7,477z"/>
<path class="st62" d="M699.1,486.4c17.7,4,32,7.2,39.2,8.4c7.2,1.2,4.8-1.8-4.4-9c-6.3-5.2-13.1-10-20.1-14.3
	c-4.4-2.4-5.6-0.8-13.5,5.8C692.5,484,692.1,484.8,699.1,486.4z"/>
<path class="st63" d="M538.1,299.7c17.1,19.5,20.1,27.1,20.1,27.1l-3.6,6.4c0,0-1.4-2.8-8.8-15.1
	C538.3,305.9,528.7,289.1,538.1,299.7z"/>
<path class="st69" d="M762,614.6c-0.9-2.4-1.7-4.9-2.2-7.4c-1-1-2.1-1.8-3.4-2.4c-1.3-0.6-2.7-0.8-4-0.8c-5.4,0.4-9.4,4.4-11.1,11.1
	c-1.6,6.6-4.2,11.9-7,13.1c-2.8,1.2-4.6-0.2-7.8-2.4c-0.2-0.4-0.6-0.4-1-0.4c-0.2,1.5-0.2,3.1-0.2,4.6c2.2,1.5,4.8,2.4,7.4,2.6
	c1,0,2.1-0.2,3-0.6c4.4-1.6,7.4-6.6,9.8-15.9c1-4.8,3.6-7.6,7-7.8C756,608,759.6,610.4,762,614.6z"/>
<path class="st85" d="M660.5,233.9c-1.4,2.8-2.7,5.7-4,8.9c-4.4,11-6.6,21.3-7.6,30c-7.1-5.6-14.2-11.1-21.3-16.7
	c12.6-13.4,22.6-22.6,26-24c0.8-0.3,2.7-1.1,4.5-0.4C659.4,232.2,660.1,233.2,660.5,233.9z"/>
<path class="st86" d="M660.7,233.2c-0.6,2.2-1.7,5.4-4.1,8.6c-3.8,5.1-7.6,6.1-12.7,11c-2.2,2.1-5.1,5.3-7.8,10.2
	c-1-0.9-2.5-2.1-4.4-3.3c-1.4-0.9-2.1-1.2-3-1.9c-1.1-0.8-2.4-2.2-3.5-4.6c7.6-7.8,15.2-15.6,22.9-23.4
	C652.3,230.8,656.5,232,660.7,233.2z"/>
<g>
	<path class="st87" d="M701.6,211.2c-1.2-0.2-2.4-0.4-3.6-0.6c-0.1,0.1-0.2,0.1-0.3,0.2C698.9,210.9,700.3,211,701.6,211.2z"/>
	<path class="st88" d="M582.8,103.4c0.1,0.7,0.3,1.4,0.4,2.1C583.1,104.7,583,104.1,582.8,103.4L582.8,103.4z"/>
	<path class="st88" d="M680.9,66l5.4-2.3C684.5,64.4,682.7,65.1,680.9,66z"/>
	<path class="st88" d="M778.4,143.9c-1.7-0.6-3.4-1.1-5.2-1.7C774.9,142.7,776.6,143.3,778.4,143.9
		C778.4,143.9,778.4,143.9,778.4,143.9z"/>
	<path class="st88" d="M673.3,229.1c19.7-7.2,38.3-9.4,54-9.5c-2.9-1.4-6.1-2.8-9.5-4c-5.8-2.1-11.2-3.5-16.2-4.4
		c-1.3-0.2-2.7-0.3-3.9-0.4c0.1-0.1,0.2-0.1,0.3-0.2c-0.6-0.1-1.2-0.2-1.8-0.3c8.8-5.2,17.7-10.3,26.5-15.5c2.1-1.2,4.3-2.4,6.6-3.5
		c15.6-7.9,30.8-12.8,44.9-15.8c-7.9-2.1-16.6-4.1-26.2-5.5c-7.6-1.2-14.8-1.9-21.5-2.3c4.4-2.8,8.7-5.6,13.1-8.4
		c5.1-4,13.4-9.4,24.8-12.7c4.6-1.3,8.9-2.1,12.7-2.5c-15.3-3.1-32-5.7-50.2-7.3c-10.7-0.9-20.9-1.5-30.6-1.7
		c-0.1-0.5-0.2-1-0.2-1.4c-2-4.1-5.2-9.4-10.5-14.4c-2-1.9-4-3.5-5.9-4.7c-3.7-3-6.8-3.8-9-4c-2.6-0.2-4.3,0.4-7.7-0.2
		c-2.5-0.4-4.4-1.3-5.6-1.9c2.7-7.7,8.1-19.6,18.6-31.3c7.1-7.8,14.4-13.1,20.2-16.6c-10.1,4.5-22.6,11.2-35.3,21.5
		c-7.1,5.7-13,11.5-17.8,16.9c-0.4-7.6,0.3-18.7,6.2-29.7c0.7-1.8,1.5-3.5,2.3-5.1c1.8-2.1,3.7-4.1,5.8-6.2c4.4-5,8.5-8,13.4-11.8
		c1.1-0.9,2.2-1.7,3.4-2.5c3.3-2.4,6.6-4.5,9.8-6.4c-11.9,0.6-36.8,3.5-61.7,20.7c-20.1,13.8-31.3,30.7-37.1,41.3
		c-0.8,2.6-1.3,4.7-1.7,6.2c-1.4-0.2-3.8-0.7-6.3-2.3c-2.3-1.4-3.7-3.2-4.4-4.3c-3-4.7-6.1-10.6-8.6-17.7c-0.5-1.3-0.9-2.5-1.2-3.8
		l-2.3,87.8c0.5,0.4,1,0.7,1.3,0.9c-4.4,1.4-12,3.2-21.2,1.8c-4.6-0.7-8.4-2-11.3-3.2c-1.9-1.2-4.2-2.8-6.4-4.8
		c5.7,7.3,12.1,14.8,19.2,22.4c7.3,7.8,14.7,14.9,21.8,21.2c1.5,0.9,3,1.9,4.6,3.1c8.5,5.8,15.1,11.8,20.2,17c1.4,1,2.8,2.1,4.2,3
		l-1.4-0.2c0.8,0.9,1.6,1.7,2.3,2.5c23.4,1.4,46.9,2.7,70.3,4.1c0-0.1,0-0.2,0-0.2C667,231.6,670.1,230.3,673.3,229.1z"/>
	<path class="st88" d="M513.1,145.8c-0.5-0.6-0.9-1.1-1.4-1.7c0.3,0.5,0.5,1,0.8,1.5C512.7,145.7,512.9,145.8,513.1,145.8z"/>
	<path class="st88" d="M592.9,226.7c-1.4-1-2.8-2-4.2-3c1,1,1.9,2,2.8,2.9L592.9,226.7z"/>
	<path class="st88" d="M513.4,147.7c4.2,19.7,12.4,30.6,19.1,36.9c9.3,8.8,17.6,10.4,31.3,19c-7.2-6.4-14.5-13.4-21.8-21.2
		c-7.1-7.6-13.5-15.2-19.2-22.4c-0.4-0.3-0.7-0.6-1.1-1C517.6,155.1,515.1,151,513.4,147.7z"/>
	<path class="st89" d="M585.8,225.9c2.9,1.3,5.8,2.6,8.6,3.9c-0.2-0.3-0.5-0.6-0.8-0.8c-0.2,0-0.3,0-0.5,0
		C591,228,588.5,227,585.8,225.9z"/>
	<path class="st88" d="M585.8,225.9c2.7,1,5.1,2,7.4,3.1c0.2,0,0.3,0,0.5,0c-0.7-0.8-1.5-1.6-2.3-2.5L585.8,225.9z"/>
	<path class="st89" d="M585.8,225.9c2.7,1,5.1,2,7.4,3.1c0.2,0,0.3,0,0.5,0c-0.7-0.8-1.5-1.6-2.3-2.5L585.8,225.9z"/>
	<path class="st88" d="M568.5,206.7c-1.6-1.1-3.2-2.1-4.6-3.1c8.6,7.6,17,14.3,24.9,20C583.6,218.5,576.9,212.5,568.5,206.7z"/>
	<path class="st89" d="M568.5,206.7c-1.6-1.1-3.2-2.1-4.6-3.1c8.6,7.6,17,14.3,24.9,20C583.6,218.5,576.9,212.5,568.5,206.7z"/>
	<path class="st88" d="M588.7,223.7c-7.9-5.7-16.2-12.4-24.9-20c-13.7-8.6-22-10.3-31.3-19c-6.7-6.3-15-17.2-19.1-36.9
		c-0.4-0.7-0.7-1.4-1-2.1c0,0,0.1,0,0.1,0c-0.3-0.5-0.5-1-0.8-1.5c-0.9-1.1-1.7-2.3-2.4-3.3c0.5,6.9,1.9,15.8,5,25.7
		c2.9,9,6.5,16.4,9.8,22c3.7,3.4,8.7,7.4,15.1,10.9c10.7,5.9,20.7,8,27.4,8.9c-4.5,0.7-9.9,2-15.9,4.2c-5.1,1.9-9.4,4.1-12.9,6.1
		c6-0.4,13-0.3,20.7,0.6c10.7,1.3,19.9,3.9,27.3,6.7l5.6,0.6C590.6,225.6,589.7,224.7,588.7,223.7z"/>
	<path class="st89" d="M588.7,223.7c-7.9-5.7-16.2-12.4-24.9-20c-13.7-8.6-22-10.3-31.3-19c-6.7-6.3-15-17.2-19.1-36.9
		c-0.4-0.7-0.7-1.4-1-2.1c0,0,0.1,0,0.1,0c-0.3-0.5-0.5-1-0.8-1.5c-0.9-1.1-1.7-2.3-2.4-3.3c0.5,6.9,1.9,15.8,5,25.7
		c2.9,9,6.5,16.4,9.8,22c3.7,3.4,8.7,7.4,15.1,10.9c10.7,5.9,20.7,8,27.4,8.9c-4.5,0.7-9.9,2-15.9,4.2c-5.1,1.9-9.4,4.1-12.9,6.1
		c6-0.4,13-0.3,20.7,0.6c10.7,1.3,19.9,3.9,27.3,6.7l5.6,0.6C590.6,225.6,589.7,224.7,588.7,223.7z"/>
	<path class="st88" d="M546.5,145c2.5,5.8,6.6,12.8,13.5,20c0.1,0,0.1,0.1,0.2,0.1c0.1,0.1,0.2,0.1,0.2,0.2l2.3-87.8
		c-1.5-5.1-2.5-9.9-3.1-14.5C551,76.4,532.1,111.8,546.5,145z"/>
	<path class="st88" d="M563.1,42.6c-0.1,0.2-0.2,0.3-0.4,0.5c0.1,0.1,0.2,0.1,0.3,0.2C563.1,43,563.1,42.8,563.1,42.6z"/>
	<path class="st89" d="M563.1,42.6c-0.1,0.2-0.2,0.3-0.4,0.5c0.1,0.1,0.2,0.1,0.3,0.2C563.1,43,563.1,42.8,563.1,42.6z"/>
	<path class="st88" d="M556.7,161.6c1.6,1.9,2.4,2.7,3.3,3.4c-7-7.1-11.1-14.2-13.5-20c-14.3-33.2,4.5-68.6,13.1-82
		c-0.7-5.4-0.8-10.3-0.7-14.5c-6.5,9.7-14.3,24.3-18.4,43.3c-3.7,17.2-3.1,32-1.9,42c0.7,4,2.5,11.1,7.7,18.4
		c1.4,1.9,2.8,3.6,4.2,5.1c1.2,0.4,2.3,0.7,3.5,1.1C555,159.6,556,160.7,556.7,161.6z"/>
	<path class="st89" d="M556.7,161.6c1.6,1.9,2.4,2.7,3.3,3.4c-7-7.1-11.1-14.2-13.5-20c-14.3-33.2,4.5-68.6,13.1-82
		c-0.7-5.4-0.8-10.3-0.7-14.5c-6.5,9.7-14.3,24.3-18.4,43.3c-3.7,17.2-3.1,32-1.9,42c0.7,4,2.5,11.1,7.7,18.4
		c1.4,1.9,2.8,3.6,4.2,5.1c1.2,0.4,2.3,0.7,3.5,1.1C555,159.6,556,160.7,556.7,161.6z"/>
	<path class="st88" d="M655.1,38.4c-4.1,0.7-19.9,3.3-32.9,10.5c-23.1,12.7-33.2,37.4-37.2,50.4c5.8-10.7,17-27.6,37.1-41.3
		c24.9-17.1,49.9-20.1,61.7-20.7c0.1-0.1,0.2-0.1,0.4-0.2C676.7,36.5,666.7,36.4,655.1,38.4z"/>
	<path class="st88" d="M582.8,103.4c0-0.1-0.1-0.3-0.1-0.4C582.8,103.1,582.8,103.3,582.8,103.4L582.8,103.4z"/>
	<path class="st88" d="M583.3,105.4c0.4-1.5,0.9-3.6,1.7-6.2c-0.8,1.5-1.5,2.9-2.1,4.1C583,104.1,583.1,104.7,583.3,105.4z"/>
	<path class="st89" d="M583.3,105.4c0.4-1.5,0.9-3.6,1.7-6.2c-0.8,1.5-1.5,2.9-2.1,4.1C583,104.1,583.1,104.7,583.3,105.4z"/>
	<path class="st88" d="M584.9,99.2c4-13,14-37.7,37.2-50.4c13-7.1,28.9-9.8,32.9-10.5c11.6-1.9,21.6-1.9,29.1-1.4
		c0.1-0.1,0.2-0.1,0.3-0.2c-10.8-2.1-31-4.2-53,4.6C623,44.8,616.2,49,610.9,53c-3.3,2.6-6.7,5.7-10,9.5
		c-12.4,14.3-16.8,32.8-18.2,40.5c0,0.1,0.1,0.3,0.1,0.4C583.4,102.1,584.1,100.8,584.9,99.2z"/>
	<path class="st89" d="M584.9,99.2c4-13,14-37.7,37.2-50.4c13-7.1,28.9-9.8,32.9-10.5c11.6-1.9,21.6-1.9,29.1-1.4
		c0.1-0.1,0.2-0.1,0.3-0.2c-10.8-2.1-31-4.2-53,4.6C623,44.8,616.2,49,610.9,53c-3.3,2.6-6.7,5.7-10,9.5
		c-12.4,14.3-16.8,32.8-18.2,40.5c0,0.1,0.1,0.3,0.1,0.4C583.4,102.1,584.1,100.8,584.9,99.2z"/>
	<path class="st88" d="M513.3,147.3c2.9,4.1,6.1,8.4,9.5,12.7c2.3,2,4.5,3.6,6.4,4.8c2.9,1.3,6.8,2.6,11.3,3.2
		c9.2,1.4,16.8-0.4,21.2-1.8c-0.3-0.2-0.8-0.5-1.3-0.9l0,0.1l-1.1-0.7c-2.7,0.2-5.6,0.3-8.7,0.3c-7.3-0.1-13.8-1.1-19.2-2.3
		c-3.3-2.2-7-5.1-10.7-8.6c-3-2.8-5.4-5.6-7.6-8.2c-0.2-0.1-0.4-0.1-0.6-0.2C512.8,146.2,513,146.7,513.3,147.3z"/>
	<path class="st89" d="M513.3,147.3c2.9,4.1,6.1,8.4,9.5,12.7c2.3,2,4.5,3.6,6.4,4.8c2.9,1.3,6.8,2.6,11.3,3.2
		c9.2,1.4,16.8-0.4,21.2-1.8c-0.3-0.2-0.8-0.5-1.3-0.9l0,0.1l-1.1-0.7c-2.7,0.2-5.6,0.3-8.7,0.3c-7.3-0.1-13.8-1.1-19.2-2.3
		c-3.3-2.2-7-5.1-10.7-8.6c-3-2.8-5.4-5.6-7.6-8.2c-0.2-0.1-0.4-0.1-0.6-0.2C512.8,146.2,513,146.7,513.3,147.3z"/>
	<path class="st88" d="M513.4,147.7c1.7,3.3,4.3,7.4,8.3,11.3c0.4,0.3,0.7,0.6,1.1,1c-3.4-4.3-6.5-8.6-9.5-12.7
		C513.3,147.4,513.4,147.6,513.4,147.7z"/>
	<path class="st89" d="M513.4,147.7c1.7,3.3,4.3,7.4,8.3,11.3c0.4,0.3,0.7,0.6,1.1,1c-3.4-4.3-6.5-8.6-9.5-12.7
		C513.3,147.4,513.4,147.6,513.4,147.7z"/>
	<path class="st88" d="M512.5,145.6C512.5,145.6,512.4,145.6,512.5,145.6c0.2,0.6,0.5,1.3,0.9,2.1c0-0.1-0.1-0.3-0.1-0.4
		C513,146.7,512.8,146.2,512.5,145.6z"/>
	<path class="st89" d="M512.5,145.6C512.5,145.6,512.4,145.6,512.5,145.6c0.2,0.6,0.5,1.3,0.9,2.1c0-0.1-0.1-0.3-0.1-0.4
		C513,146.7,512.8,146.2,512.5,145.6z"/>
	<path class="st89" d="M512.5,145.6C512.5,145.6,512.4,145.6,512.5,145.6c0.2,0.6,0.5,1.3,0.9,2.1c0-0.1-0.1-0.3-0.1-0.4
		C513,146.7,512.8,146.2,512.5,145.6z"/>
	<path class="st88" d="M560,165c0.1,0.1,0.3,0.3,0.4,0.4l0-0.1c-0.1-0.1-0.2-0.1-0.2-0.2C560.1,165.1,560.1,165,560,165z"/>
	<path class="st89" d="M560,165c0.1,0.1,0.3,0.3,0.4,0.4l0-0.1c-0.1-0.1-0.2-0.1-0.2-0.2C560.1,165.1,560.1,165,560,165z"/>
	<path class="st88" d="M560,165c-0.9-0.7-1.7-1.5-3.3-3.4c-0.7-0.9-1.7-2-2.7-3.3c-1.2-0.4-2.3-0.7-3.5-1.1c3.4,3.6,6.8,6,9.2,7.5
		c-0.1,0-0.2,0-0.3,0l1.1,0.7C560.3,165.3,560.2,165.1,560,165z"/>
	<path class="st89" d="M560,165c-0.9-0.7-1.7-1.5-3.3-3.4c-0.7-0.9-1.7-2-2.7-3.3c-1.2-0.4-2.3-0.7-3.5-1.1c3.4,3.6,6.8,6,9.2,7.5
		c-0.1,0-0.2,0-0.3,0l1.1,0.7C560.3,165.3,560.2,165.1,560,165z"/>
	<path class="st89" d="M560,165c-0.9-0.7-1.7-1.5-3.3-3.4c-0.7-0.9-1.7-2-2.7-3.3c-1.2-0.4-2.3-0.7-3.5-1.1c3.4,3.6,6.8,6,9.2,7.5
		c-0.1,0-0.2,0-0.3,0l1.1,0.7C560.3,165.3,560.2,165.1,560,165z"/>
	<path class="st88" d="M563.9,81.2c2.5,7.1,5.6,12.9,8.6,17.7c0.7,1.1,2.1,2.8,4.4,4.3c2.5,1.6,5,2.1,6.3,2.3
		c-0.1-0.7-0.3-1.4-0.4-2.1c-0.1,0.2-0.2,0.3-0.2,0.5c-2.1-1.3-4.8-3.3-7.4-6.2c-3.6-4-5.5-8.1-6.5-10.8c-2.2-7.2-4.3-16.1-5.2-26.5
		c-0.1-1-0.1-1.9-0.2-2.8l-0.5,19.8C563.1,78.7,563.5,80,563.9,81.2z"/>
	<path class="st89" d="M563.9,81.2c2.5,7.1,5.6,12.9,8.6,17.7c0.7,1.1,2.1,2.8,4.4,4.3c2.5,1.6,5,2.1,6.3,2.3
		c-0.1-0.7-0.3-1.4-0.4-2.1c-0.1,0.2-0.2,0.3-0.2,0.5c-2.1-1.3-4.8-3.3-7.4-6.2c-3.6-4-5.5-8.1-6.5-10.8c-2.2-7.2-4.3-16.1-5.2-26.5
		c-0.1-1-0.1-1.9-0.2-2.8l-0.5,19.8C563.1,78.7,563.5,80,563.9,81.2z"/>
	<path class="st88" d="M562.7,77.4l0.5-19.8c-0.5,0.7-1.9,2.6-3.6,5.3C560.2,67.5,561.2,72.4,562.7,77.4z"/>
	<path class="st89" d="M562.7,77.4l0.5-19.8c-0.5,0.7-1.9,2.6-3.6,5.3C560.2,67.5,561.2,72.4,562.7,77.4z"/>
	<path class="st88" d="M559.6,62.9c1.7-2.7,3.1-4.6,3.6-5.3c-0.3-5.2-0.4-10-0.2-14.3c-0.1-0.1-0.2-0.1-0.3-0.2
		c-1.2,1.6-2.4,3.3-3.8,5.3C558.8,52.7,558.9,57.6,559.6,62.9z"/>
	<path class="st89" d="M559.6,62.9c1.7-2.7,3.1-4.6,3.6-5.3c-0.3-5.2-0.4-10-0.2-14.3c-0.1-0.1-0.2-0.1-0.3-0.2
		c-1.2,1.6-2.4,3.3-3.8,5.3C558.8,52.7,558.9,57.6,559.6,62.9z"/>
	<path class="st88" d="M582.7,103c-0.1,0.3-0.1,0.6-0.2,0.9c0.1-0.2,0.2-0.3,0.2-0.5C582.8,103.3,582.8,103.1,582.7,103z"/>
	<path class="st89" d="M582.7,103c-0.1,0.3-0.1,0.6-0.2,0.9c0.1-0.2,0.2-0.3,0.2-0.5C582.8,103.3,582.8,103.1,582.7,103z"/>
	<path class="st89" d="M582.7,103c-0.1,0.3-0.1,0.6-0.2,0.9c0.1-0.2,0.2-0.3,0.2-0.5C582.8,103.3,582.8,103.1,582.7,103z"/>
	<path class="st88" d="M657.2,57.9c-2,2.1-4,4.1-5.8,6.2c-0.8,1.6-1.6,3.3-2.3,5.1c0.9-1.7,1.9-3.3,3-4.8
		C653.2,62.7,654.9,60.4,657.2,57.9z"/>
	<path class="st88" d="M642.9,98.8c0.3-8.7,1.8-18.9,6.2-29.7C643.2,80.1,642.5,91.2,642.9,98.8z"/>
	<path class="st89" d="M642.9,98.8c0.3-8.7,1.8-18.9,6.2-29.7C643.2,80.1,642.5,91.2,642.9,98.8z"/>
	<path class="st88" d="M670.6,46.1c-4.9,3.8-9,6.8-13.4,11.8c5.5-5.6,11.2-10.3,16.8-14.3C672.8,44.4,671.7,45.3,670.6,46.1z"/>
	<path class="st89" d="M670.6,46.1c-4.9,3.8-9,6.8-13.4,11.8c5.5-5.6,11.2-10.3,16.8-14.3C672.8,44.4,671.7,45.3,670.6,46.1z"/>
	<path class="st88" d="M674,43.6c-5.6,4-11.2,8.7-16.8,14.3c-2.2,2.5-3.9,4.8-5.1,6.5c-1,1.5-2,3.1-3,4.8c-4.4,10.7-5.9,21-6.2,29.7
		l0.6-1.3c2.8-11,9.2-29.1,24.7-45.5c6-6.4,12.2-11.3,17.7-14.9c-0.6,0-1.3,0-2.1,0.1C680.6,39.1,677.3,41.2,674,43.6z"/>
	<path class="st89" d="M674,43.6c-5.6,4-11.2,8.7-16.8,14.3c-2.2,2.5-3.9,4.8-5.1,6.5c-1,1.5-2,3.1-3,4.8c-4.4,10.7-5.9,21-6.2,29.7
		l0.6-1.3c2.8-11,9.2-29.1,24.7-45.5c6-6.4,12.2-11.3,17.7-14.9c-0.6,0-1.3,0-2.1,0.1C680.6,39.1,677.3,41.2,674,43.6z"/>
	<path class="st88" d="M683.8,37.2c0.7,0,1.5-0.1,2.1-0.1c-0.6,0-1.2-0.1-1.7-0.1C684,37.1,683.9,37.1,683.8,37.2z"/>
	<path class="st89" d="M683.8,37.2c0.7,0,1.5-0.1,2.1-0.1c-0.6,0-1.2-0.1-1.7-0.1C684,37.1,683.9,37.1,683.8,37.2z"/>
	<path class="st88" d="M685.9,37.1c-0.5-0.1-1-0.2-1.5-0.3c-0.1,0.1-0.2,0.1-0.3,0.2C684.7,37,685.3,37.1,685.9,37.1z"/>
	<path class="st89" d="M685.9,37.1c-0.5-0.1-1-0.2-1.5-0.3c-0.1,0.1-0.2,0.1-0.3,0.2C684.7,37,685.3,37.1,685.9,37.1z"/>
	<path class="st89" d="M685.9,37.1c-0.5-0.1-1-0.2-1.5-0.3c-0.1,0.1-0.2,0.1-0.3,0.2C684.7,37,685.3,37.1,685.9,37.1z"/>
	<path class="st88" d="M660.7,81.9c12.7-10.3,25.2-17.1,35.3-21.5c-2.9,0.8-6.3,1.9-9.8,3.3l-5.4,2.3c-2.8,1.3-5.8,2.9-8.7,4.7
		c-14.9,9.1-23.9,20.4-28.8,27.7c0-0.1,0.1-0.3,0.1-0.4c-0.2,0.3-0.3,0.6-0.5,0.9C647.7,93.5,653.6,87.7,660.7,81.9z"/>
	<path class="st89" d="M660.7,81.9c12.7-10.3,25.2-17.1,35.3-21.5c-2.9,0.8-6.3,1.9-9.8,3.3l-5.4,2.3c-2.8,1.3-5.8,2.9-8.7,4.7
		c-14.9,9.1-23.9,20.4-28.8,27.7c0-0.1,0.1-0.3,0.1-0.4c-0.2,0.3-0.3,0.6-0.5,0.9C647.7,93.5,653.6,87.7,660.7,81.9z"/>
	<path class="st88" d="M643.4,98c0-0.1,0.1-0.3,0.1-0.5l-0.6,1.3C643.1,98.6,643.3,98.3,643.4,98z"/>
	<path class="st89" d="M643.4,98c0-0.1,0.1-0.3,0.1-0.5l-0.6,1.3C643.1,98.6,643.3,98.3,643.4,98z"/>
	<path class="st89" d="M643.4,98c0-0.1,0.1-0.3,0.1-0.5l-0.6,1.3C643.1,98.6,643.3,98.3,643.4,98z"/>
	<path class="st88" d="M726.9,136.7c18.1,1.6,34.9,4.2,50.2,7.3c0.4,0,0.9-0.1,1.3-0.1c-1.7-0.6-3.4-1.1-5.1-1.7
		c-13.7-4.3-30.6-7.9-50.1-8.8c-9.8-0.5-18.8-0.1-27,0.6c-0.1-0.1-0.1-0.2-0.2-0.3c0.1,0.5,0.2,1,0.2,1.4
		C706,135.3,716.2,135.8,726.9,136.7z"/>
	<path class="st89" d="M726.9,136.7c18.1,1.6,34.9,4.2,50.2,7.3c0.4,0,0.9-0.1,1.3-0.1c-1.7-0.6-3.4-1.1-5.1-1.7
		c-13.7-4.3-30.6-7.9-50.1-8.8c-9.8-0.5-18.8-0.1-27,0.6c-0.1-0.1-0.1-0.2-0.2-0.3c0.1,0.5,0.2,1,0.2,1.4
		C706,135.3,716.2,135.8,726.9,136.7z"/>
	<path class="st88" d="M707.3,222.4c8.1-1.2,15.8-1.9,22.9-2.2c-4.6-2.4-10.6-5-17.8-6.9c-3.9-1-7.5-1.7-10.8-2.1
		c5,0.9,10.4,2.3,16.2,4.4c3.5,1.3,6.6,2.6,9.5,4c-15.7,0-34.4,2.3-54,9.5c-3.2,1.2-6.3,2.4-9.3,3.8c0,0.1,0,0.2,0,0.2
		c0.1,0,0.2,0,0.4,0C676.4,228.9,690.8,224.8,707.3,222.4z"/>
	<path class="st89" d="M707.3,222.4c8.1-1.2,15.8-1.9,22.9-2.2c-4.6-2.4-10.6-5-17.8-6.9c-3.9-1-7.5-1.7-10.8-2.1
		c5,0.9,10.4,2.3,16.2,4.4c3.5,1.3,6.6,2.6,9.5,4c-15.7,0-34.4,2.3-54,9.5c-3.2,1.2-6.3,2.4-9.3,3.8c0,0.1,0,0.2,0,0.2
		c0.1,0,0.2,0,0.4,0C676.4,228.9,690.8,224.8,707.3,222.4z"/>
	<path class="st88" d="M781.4,144.9c-1.4-0.3-2.9-0.6-4.3-0.9c-3.8,0.4-8.1,1.1-12.7,2.5c-11.4,3.3-19.6,8.7-24.8,12.7
		c-4.4,2.8-8.7,5.6-13.1,8.4c6.7,0.4,13.9,1.2,21.5,2.3c9.6,1.5,18.4,3.4,26.2,5.5c-14.1,3-29.3,8-44.9,15.8
		c-2.2,1.1-4.4,2.3-6.6,3.5c-8.8,5.2-17.7,10.3-26.5,15.5c0.6,0.1,1.2,0.2,1.8,0.3c11.9-7.3,26-15,42.2-22
		c12.8-5.5,24.9-9.8,35.9-13.1c-6.9-2.4-15.3-4.7-24.9-6.3c-8.5-1.4-16.3-1.9-22.9-2c4.8-3.2,10.2-6.5,16.4-9.6
		c13.7-6.9,26.5-10.5,36.8-12.6c-1-0.4-2.1-0.7-3.1-1.1c0,0-0.1,0-0.1,0C779.3,144.2,780.4,144.6,781.4,144.9z"/>
	<path class="st89" d="M781.4,144.9c-1.4-0.3-2.9-0.6-4.3-0.9c-3.8,0.4-8.1,1.1-12.7,2.5c-11.4,3.3-19.6,8.7-24.8,12.7
		c-4.4,2.8-8.7,5.6-13.1,8.4c6.7,0.4,13.9,1.2,21.5,2.3c9.6,1.5,18.4,3.4,26.2,5.5c-14.1,3-29.3,8-44.9,15.8
		c-2.2,1.1-4.4,2.3-6.6,3.5c-8.8,5.2-17.7,10.3-26.5,15.5c0.6,0.1,1.2,0.2,1.8,0.3c11.9-7.3,26-15,42.2-22
		c12.8-5.5,24.9-9.8,35.9-13.1c-6.9-2.4-15.3-4.7-24.9-6.3c-8.5-1.4-16.3-1.9-22.9-2c4.8-3.2,10.2-6.5,16.4-9.6
		c13.7-6.9,26.5-10.5,36.8-12.6c-1-0.4-2.1-0.7-3.1-1.1c0,0-0.1,0-0.1,0C779.3,144.2,780.4,144.6,781.4,144.9z"/>
	<path class="st88" d="M778.3,143.9c-0.4,0-0.9,0.1-1.3,0.1c1.4,0.3,2.9,0.6,4.3,0.9C780.4,144.6,779.3,144.2,778.3,143.9z"/>
	<path class="st89" d="M778.3,143.9c-0.4,0-0.9,0.1-1.3,0.1c1.4,0.3,2.9,0.6,4.3,0.9C780.4,144.6,779.3,144.2,778.3,143.9z"/>
	<path class="st89" d="M778.3,143.9c-0.4,0-0.9,0.1-1.3,0.1c1.4,0.3,2.9,0.6,4.3,0.9C780.4,144.6,779.3,144.2,778.3,143.9z"/>
</g>
<path class="st85" d="M662.6,228.4c2.3,1.6,9-2,12.8-5.8c2.3-2.3,5.6-6.7,5.6-6.7c0,0,0,0,0,0c1.1-2,3-6,3.3-11.3
	c0.3-4.8,0.1-7.1-1-8.8c-0.4-0.6-0.9-1-1.2-1.3c-1.8-0.6-3.3-0.5-4.2-0.4c-4.4,0.7-8.1,5.2-9.4,11.2
	C660.6,222.4,660.9,227.2,662.6,228.4z"/>
<g>
	<path class="st85" d="M629.4,258C629.5,258,629.5,258,629.4,258C629.5,258,629.5,258,629.4,258L629.4,258z"/>
	<path class="st85" d="M672.4,178.3c-1-4.8-3.7-13.9-11.2-22.5c-11.8-13.4-27.2-15.9-31.6-16.4v0c0,0,0,0,0,0c0,0,0,0,0,0v0
		c-4.4,0.6-19.8,3-31.6,16.4c-5.4,6.1-8.3,12.6-9.9,17.5c-0.8,8.4-1.9,32,12.7,55.7c9.5,15.5,21.7,24.5,28.9,29v0
		c3.8-1.5,8.2-3.5,12.8-6.4c6-3.7,10.7-7.6,14.3-11c5.3-8.4,12.4-22.1,15-40.3C672.8,192,672.8,184.5,672.4,178.3z"/>
	<path class="st86" d="M629.5,258C629.5,258,629.5,258,629.5,258C629.5,258,629.5,258,629.5,258C629.5,258,629.5,258,629.5,258z"/>
	<path class="st86" d="M587.9,173.3c-0.6,1.9-1.1,3.7-1.3,5c-0.4,5.8-0.5,12.7,0.5,20.3c1.2,1.8,2.2,4,2.8,6.5
		c7.8,17.1,7.5,21.9,5.8,23.1c0,0,0,0-0.1,0c2.3,4.9,4.6,9.1,6.7,12.4c3.6,3.4,8.3,7.3,14.3,11c4.6,2.8,9,4.9,12.8,6.4v0
		c0,0,0,0,0,0c0,0,0,0,0,0c0,0,0,0,0,0c-7.2-4.9-18-13.5-26.9-27.4C587.4,206.8,587.4,182.7,587.9,173.3z"/>
	<path class="st86" d="M580.4,193.9c-1-0.2-2.4-0.2-4.2,0.4c-0.3,0.3-0.8,0.7-1.2,1.3c-1.2,1.7-1.3,3.9-1,8.8
		c0.3,5.3,2.1,9.3,3.3,11.3c0,0,0,0,0,0c0,0,3.3,4.4,5.6,6.7c3.8,3.8,10.4,7.4,12.7,5.8c-3.5-7.6-6.7-16.9-8.3-28
		c-0.1-0.6-0.1-1.1-0.2-1.7C585.3,196.1,583,194.4,580.4,193.9z"/>
	<path class="st86" d="M595.6,228.3C595.6,228.3,595.6,228.2,595.6,228.3c1.8-1.3,2-6.1-5.8-23.1c-0.5-2.5-1.5-4.7-2.8-6.5
		c0.1,0.6,0.1,1.1,0.2,1.7C588.9,211.3,592.1,220.7,595.6,228.3z"/>
</g>
<path class="st90" d="M583.4,187.9c5.8-0.8,13.9-1.6,23.5-1.6c2.9,0,6.8,2.4,9.2,0.5c2.6-2.1,0.1-6,2.3-8.8
	c3.1-3.9,10.2,0.5,23.5-0.2c9.5-0.5,11.4-3,15.9-0.9c7.3,3.4,9.1,13.4,9.3,14.8c1.2,7-1,12.6-2.1,14.9c2.3-2.1,6.2-6.3,8.6-12.8
	c3.5-9.7,1.4-18.2,0.5-21.1c-13.2-8.7-26.4-17.3-39.6-26l-52.6,19.1L583.4,187.9z"/>
<path class="st91" d="M611.3,202.3c0,0,3.7,1.7,7,4.3c1,0.8,1.8,1.6,1.8,1.6c0.6,0.6,0.8,0.9,0.9,1.1c0.7,1.3-1.4,3.1-5,7.9
	c0,0-3.3,4.3-4.9,4.2c-0.3,0-0.4-0.1-1.2-0.4c0,0-3.3-1.4-7.1-2.3c-1.8-0.4-2.7-0.6-2.9-0.6c-0.4,0-1,0-1.4-0.3
	c-0.5-0.4-0.7-0.9-0.8-1.2c-1.3-4-1.7-6.6-1.7-6.6c-1.3-8.3-0.4-4.1-0.8-6.6c-0.1-0.5-0.2-1.1,0-1.9c0.3-1.2,1.3-2.7,2.7-3.3
	c1.5-0.6,2.6,0.2,6.8,1.8C608.4,201.4,608,201,611.3,202.3z"/>
<path class="st91" d="M646.4,202C646.4,202,646.4,202,646.4,202c-3.6,1.8-5.3,4-7,4.3c-0.1,0-0.3,0.1-0.5,0.3
	c-0.4,0.4-0.3,1.1-0.3,1.7c0,1.1-0.2,1.7-0.3,2.2c-0.1,0.6,0.1,2.4,3.3,6.3c0,0,3.3,4.3,4.9,4.2c0.3,0,0.4-0.1,1.2-0.4
	c0,0,3.3-1.4,7.1-2.3c1.8-0.4,2.7-0.6,2.9-0.6c0.4,0,1,0,1.4-0.3c0.5-0.4,0.7-0.9,0.8-1.2c1.3-4,1.7-6.6,1.7-6.6
	c1.3-8.3,0.4-4.1,0.8-6.6c0.1-0.5,0.2-1.1,0-1.9c-0.3-1.2-1.3-2.7-2.7-3.3c-1.5-0.6-2.6,0.2-6.8,1.8
	C649.2,201.1,649.6,200.7,646.4,202z"/>
<path class="st28" d="M693.1,260.1"/>
<path class="st92" d="M646.4,206.5c0.2,2.9-1,6.9-2.5,7c-1.6,0-3.7-4.5-2.7-8.1c0.4-1.3,1.4-3.3,2.6-3.2c0.5,0,0.8,0.4,1.2,0.7
	C645.4,203.3,646.3,204.3,646.4,206.5z"/>
<path class="st88" d="M630.6,209.9c0.6,1,1.1,2,1.7,3.1c3.8-3.4,9.6-7.9,17.6-11.6c7.6-3.5,14.5-5,19.4-5.7c-2.3-2.1-4.6-4.3-7-6.4
	c-4.6,1.8-10.1,4.4-15.9,8.1C639.7,201.6,634.5,206,630.6,209.9z"/>
<path class="st92" d="M611.1,206.7c-0.2,2.9,1,6.9,2.5,7c1.6,0,3.7-4.5,2.7-8.1c-0.4-1.3-1.4-3.3-2.6-3.2c-0.5,0-0.8,0.4-1.2,0.7
	C612.1,203.5,611.2,204.6,611.1,206.7z"/>
<path class="st88" d="M626.9,210.2c-0.6,1-1.1,2-1.7,3.1c-3.8-3.4-9.6-7.9-17.6-11.6c-7.6-3.5-14.5-5-19.4-5.7
	c2.3-2.1,4.6-4.3,7-6.4c4.6,1.8,10.1,4.4,15.9,8.1C617.8,201.8,623,206.3,626.9,210.2z"/>
<path class="st88" d="M582,195.5c1.6,2.5,3.3,4.5,3.5,4.7c2.6,3.1,5.2,5.4,7.2,6.9c-1.4-1.7-3.7-5-4.8-9.6c-0.6-2.5-0.6-4.8-0.5-6.4
	c0.1-2.5,0.5-6.6,2.8-10.9c1-1.9,2.1-3.4,3.1-4.6c1,1.8,2.6,4.3,4.8,7.2c3,3.9,7.1,9.3,14,14c3.1,2.1,8,4.9,14.8,6.8
	c-5.9-7.5-9.2-14.4-10-18.6c-0.6-2.9-0.8-6.3-0.8-6.3c-0.1-2.2-0.1-4,0-5.4c1.6,0.5,3.3,1.1,5.1,1.9c7.2,3.1,12.7,7.2,16.6,10.9
	c2.3,2.5,4.8,5.7,7.2,9.4c3.7,5.8,6,11.2,7.5,15.7c2-4.4,4.2-10.3,5.5-17.5c0.9-4.9,1.2-9.4,1.2-13.2c-0.1-1.1-0.3-2.3-0.7-3.6
	c-0.9-3.4-2.3-6.1-3.6-8c2.2,2.5,4.5,5.4,6.7,8.7c4,5.8,6.8,11.4,8.7,16.3c-0.3,1.1-0.6,2.2-0.9,3.3c-1.3,3.8-3,7-4.6,9.5
	c2.2-1.8,4.8-4,7.3-7c3.7-4.4,6.1-8.6,7.7-12c-0.2-7.6-0.4-15.1-0.6-22.7c-16.4-12.9-32.8-25.7-49.1-38.6
	c-21.8,12.3-43.5,24.7-65.3,37C572.7,179.1,578.9,190.8,582,195.5z"/>
<path class="st93" d="M621.7,236.2l1.1,0.4l1.1,0.3l1.1,0.3l1.1,0.1c2.9,0.3,5.8,0,8.6-1l1-0.4l1-0.5l1-0.5l1-0.6h0.1
	c0.3-0.2,0.7-0.3,1-0.3c0.4,0,0.7,0,1.1,0.1c0.3,0.1,0.7,0.3,0.9,0.5c0.3,0.2,0.5,0.5,0.7,0.8c0.2,0.4,0.3,0.9,0.3,1.4
	c0,0.5-0.1,0.9-0.4,1.4c-1.2,1.9-2.8,3.5-4.8,4.6c-2,1.1-4.1,1.8-6.4,2.1c-2.2,0.3-4.5,0.1-6.7-0.6c-2.2-0.7-4.1-1.8-5.7-3.5
	c-0.5-0.5-0.8-1.2-0.8-2c0-0.7,0.3-1.4,0.8-1.9c0.4-0.3,0.8-0.5,1.2-0.7c0.5-0.1,0.9-0.1,1.4,0H621.7z"/>
<path class="st94" d="M620.5,242.2c1.2,0.9,2.6,1.5,4,2c2.2,0.6,4.4,0.8,6.7,0.6c2.2-0.3,4.4-1,6.4-2.1c1.4-0.8,2.6-1.8,3.7-3.1
	c-1.6-1.6-3.5-2.9-5.6-3.8h-0.1l-1,0.4c-2.7,1-5.7,1.4-8.6,1l-1.1-0.1h-0.1C622.9,238.4,621.5,240.2,620.5,242.2z"/>
<path class="st95" d="M640.6,237.7l0.1-3.7c-0.6-0.2-1.3-0.1-1.8,0.3h-0.1l-1,0.6l-1,0.5l-1,0.5l-1,0.4c-2.7,1-5.7,1.4-8.6,1
	l-1.1-0.1l-1.1-0.3l-1.1-0.3l-1.1-0.4h-0.1c-0.4-0.1-0.7-0.1-1.1-0.1l-0.1,1.9C627.9,241.6,636.2,239.6,640.6,237.7z"/>
<path class="st96" d="M623.1,236.7l-0.3-0.1l-1.1-0.4h-0.1c-0.4-0.1-0.7-0.1-1.1-0.1l-0.1,1.9c0.8,0.4,1.5,0.7,2.3,0.9L623.1,236.7z
	"/>
<path class="st96" d="M636.3,239.1c1.4-0.3,2.8-0.8,4.1-1.4l0.1-3.7c-0.6-0.2-1.3-0.1-1.8,0.3h-0.1l-1,0.6l-1,0.5l-0.4,0.2
	L636.3,239.1z"/>
<polyline class="st97" points="630.4,224 632.7,229.2 630,232.2 627.9,231 "/>
<path class="st86" d="M630.1,225.7c-0.1,2.2-0.2,4.3-0.2,6.4c0.8-1,1.7-2,2.5-3c-0.8-1.7-1.5-3.3-2.3-5
	C630.1,224.6,630.1,225.2,630.1,225.7z"/>
<path class="st85" d="M662.5,232.6"/>
<path class="st3" d="M738.7,645.9c-16.1,36.8-59.7,59.3-104.2,59.3H532.3l8-278.4c0,0,97.6-30.3,122.1-1.5
	c21.5,25.3,79.7,125.3,82.8,184.5C745.9,623,743.5,635,738.7,645.9z"/>
<path class="st8" d="M738.7,645.9c-16.1,36.8-59.7,59.3-104.2,59.3h-92.2c-18-20.4-12.2-30,37.4-46.4
	c67.4-22.3,104.8-31.1,104.8-31.1S698.2,646.7,738.7,645.9z"/>
<path class="st98" d="M687.1,609.9c-3.1-59.2-44.6-153.5-59.7-177.2c-22-34.5-117-1.4-158.7,15.3c-23.7-70.5-47.1-139.7-59.9-177.2
	c-5.8-17.2-22-28.8-40.1-28.8c0,0-67.8-10-78.3,80.3c-33.6,289.3-6.6,382.5,113.9,383.3c15.1,0.1,44.7-0.2,69.9-0.5l0,0h102.3
	C634.1,705.2,690.1,667.4,687.1,609.9z"/>
<path class="st1" d="M687.1,609.7c-3.1-59.4-44.6-154-59.7-177.7c-18.7-29.5-90.4-9.8-137,7.1c-8.1,2.9-15.5,5.8-21.7,8.3
	c-23.7-70.7-47.1-140.1-59.9-177.7c-5.8-17.3-22-28.9-40.1-28.9c0,0-6.7,0.1-15.9,0.9c0,0,0,0,0,0c-14.9,1.4-36.2,4.7-46.5,13.1
	c-6.9,5.7-11.7,30.7-15.9,66.5c-9.8,84.6-14.4,152.5-13.1,206.2c0.7,27.6,2.9,51.4,6.9,71.9c2.7,14.3,6.3,27,10.8,38.2
	c19.2,48.3,54.7,67.8,109.4,68.2c6.4,0,15.3,0,25.4-0.1c13.9-0.1,29.9-0.3,44.5-0.4l0,0h102.3C634.1,705.3,690.1,667.4,687.1,609.7z
	"/>
<path class="st3" d="M425.7,477.9c0,0-57.1-209.8-60.9-225.8c-1.7-7.1-6.9-9.7-12.1-10.4c9.2-0.8,15.9-0.9,15.9-0.9
	c18.2,0,34.3,11.6,40.1,28.8c12.7,37.5,36.1,106.7,59.9,177.2C474.8,444.2,425.7,477.9,425.7,477.9z"/>
<path class="st0" d="M498.9,490.2c-7.2-21.6-52.2-14.9-52.2-14.9s-30.5,37.8-39.4,38.7c-8.9,0.9,18.3-36.5,18.3-36.5
	c-17.2-1.4-61,15.8-61,15.8s2.8,44.1-6.1,43.2c-8.9-0.9,0-39.2,0-39.2c-16.6,4.1-32.2,19.8-32.2,19.8
	c-19.4,25.7,22.2,44.6,22.2,44.6s0.6,15.3-11.1,32.9c0,0-14.7,18.1-10,41.4h-12.9c2.5-16.8-7.9-29.6-7.9-29.6
	c-8.8-13.3-8.4-24.9-8.4-24.9s31.6-14.4,16.8-33.8c0,0-11.8-12-24.4-15c0,0,6.7,29,0,29.7c-6.7,0.7-4.6-32.8-4.6-32.8
	s-3.6-1.4-8.9-3.3c0.7,27.5,2.9,51.2,6.9,71.7c3.9-1.6,6.9-3.6,8.4-6.2c0.3-0.4,0.5-0.9,0.7-1.3c-0.4,0.8-0.7,1.3-0.7,1.3
	c3,1.4,7.6,8.3,10.7,13.5c0.4,0.9,1.2,2.1,2.2,3.8c0.4,0.8,0.8,1.4,1,1.8c3.6,7.4,3.8,18.1,3.4,25.1h-46.8v2h2.7
	c1,26.9,21.8,49.8,51,59.4h-42.1c-5.6,0-10.1,3.7-10.1,8.2h165.3c0-0.6-0.1-1.1-0.2-1.6c-0.9-3.7-5-6.5-9.9-6.5h-42.1
	c29.2-9.6,50-32.4,51-59.4h1.9v-2h-86.9c2-3.6,4.5-7.1,7.3-9.6c0.3-0.3,0.8-0.6,1.3-1.1c1.4-1.1,2.4-1.9,3.1-2.5
	c4.4-3.4,10.4-7.8,13.3-8.2c0,0-0.1-0.4-0.1-1.2c0,0.4,0.1,0.8,0.1,1.2c1,9.5,23.7,17.8,37.7,19.5c14,1.7,9.7-3,4.8-9.9
	c-4.8-6.9-20-10-23.5-13.2c-3.5-3.2,3.7-3.2,12.1-0.1c8.4,3.1,9.6,11.4,23.1,16.7c13.5,5.2,33.8-12.9,33.8-12.9
	c-10.8-0.4-26.1-9.9-25.6-12.8c0.6-2.9,26.1,5,30.4,5.4c4.4,0.4,14.3-4,15.8-18.3c1.5-14.3-27.3-18.2-27.3-18.2s-6.6,4-14.2,8
	c-1.5-1.6-3.9-3.3-6.7-5.2c2.5-1.8,4.7-3.3,6.1-4.3c2.8,0.6,5.8,1.1,9.2,1.3c23.3,1.8,41.1-33.8,41.1-33.8
	c-16.1,4.1-44.9-3.2-46.1-7.7c-1.1-4.5,41.6-4.1,48.3-5.4C494.5,522.6,506.1,511.8,498.9,490.2z M356.3,575.3
	c-0.1-0.1-0.5-0.6-1-1.7C355.7,574.2,356,574.7,356.3,575.3z M352.1,623c0,0-7.6,4.6-13,13.1h-5.5c-0.7-8.9-0.9-24.9,4.3-35.6
	c0.3-0.6,0.8-1.4,1.3-2.4c0.7-1.1,1.3-2.1,1.8-2.9c0.5-0.8,0.9-1.5,1.2-2.1c4.2-6.9,10.1-15.9,14.1-17.8c1,1.7,2.5,3.3,4.4,4.6
	c-7.6,11.5,7,25.3,7,25.3S363.9,614.5,352.1,623z M380.5,591.9c-1.3-0.6-1.2-2.4-0.4-4.9c1.8,0.3,3.7,0.6,5.6,0.9
	C383.9,590.7,382,592.5,380.5,591.9z M413.4,566.3c-11.9-2.7-26.3-2.2-31.6-4.5c-7.2-3.2,3.3-6.3,17.8-5.4
	c9.7,0.6,16.2,6.1,26.4,10.2C422,566.3,417.6,566.2,413.4,566.3z"/>
<path class="st99" d="M472.9,440.5c-7.2-26.6-52.2-18.3-52.2-18.3s-30.5,46.6-39.4,47.7c-8.9,1.1,18.3-44.9,18.3-44.9
	c-17.2-1.7-61,19.4-61,19.4s2.8,54.4-6.1,53.3c-8.9-1.1,0-48.3,0-48.3c-16.6,5-32.2,24.4-32.2,24.4c-19.4,31.6,22.2,54.9,22.2,54.9
	s0.6,18.9-11.1,40.5c0,0-14.6,22.3-9.9,51h-12.9c2.5-20.7-7.9-36.4-7.9-36.4c-8.8-16.4-8.4-30.7-8.4-30.7s31.6-17.7,16.8-41.7
	c0,0-11.8-14.7-24.4-18.5c0,0,6.7,35.8,0,36.6c-6.7,0.8-4.6-40.4-4.6-40.4s-33.3-16-46.3-14.7c0,0,20.6,34.9,13.9,34.1
	c-6.7-0.8-29.9-36.2-29.9-36.2s-34.1-6.3-39.6,13.9c-5.5,20.2,3.4,30.3,8.4,31.6c5.1,1.3,37.5,0.8,36.6,5.1
	c-0.8,4.2-22.7,10.9-34.9,7.2c0,0,13.5,33.3,31.2,31.6c17.7-1.7,23.2-12.6,34.1-13.5c10.9-0.8,18.9,2.1,13.5,5.1
	c-5.5,2.9-24,1-32.8,8.5c-8.8,7.5-16,12.1,0.4,15.5c16.4,3.4,45.9,1.3,51.8-11.4c0.3-0.6,0.5-1.1,0.7-1.6c-0.4,1-0.7,1.6-0.7,1.6
	c3,1.8,7.6,10.2,10.7,16.7c0.4,1.1,1.2,2.6,2.2,4.7c0.4,0.8,0.7,1.5,0.9,2c3.7,9.1,3.9,22.5,3.5,31.2h-13.9h-20.3h-12.6v2.5h2.7
	c1,33.2,21.8,61.3,51,73.1h-42.1c-5.6,0-10.1,4.5-10.1,10.1h165.3c0-5.6-4.5-10.1-10.1-10.1h-42.1c29.2-11.8,50-40,51-73.1h1.9v-2.5
	h-86.9c2-4.4,4.5-8.7,7.3-11.9c0.3-0.3,0.8-0.8,1.3-1.3c1.4-1.3,2.4-2.3,3.1-3c4.4-4.2,10.4-9.6,13.3-10.1c0,0-0.1-0.5-0.1-1.5
	c0,0.5,0.1,0.9,0.1,1.5c1,11.7,23.7,21.9,37.7,24c14,2.1,9.6-3.6,4.8-12.2c-4.8-8.5-20-12.3-23.5-16.2c-3.5-3.9,3.7-3.9,12.1-0.1
	c8.4,3.8,9.6,14.1,23.1,20.6c13.5,6.5,33.8-15.9,33.8-15.9c-10.8-0.5-26.1-12.2-25.6-15.8c0.6-3.6,26.1,6.2,30.4,6.6
	c4.4,0.5,14.3-5,15.8-22.5c1.5-17.6-27.3-22.5-27.3-22.5s-6.6,4.9-14.1,9.9c-1.5-1.9-3.9-4-6.7-6.4c2.5-2.2,4.7-4.1,6.1-5.2
	c2.8,0.8,5.8,1.3,9.2,1.7c23.3,2.2,41.1-41.6,41.1-41.6c-16.1,5-44.9-3.9-46.1-9.4c-1.1-5.5,41.6-5,48.3-6.7
	S480.1,467.2,472.9,440.5z M354.5,565.8c-1.3-0.7-1.2-3-0.4-6c1.8,0.4,3.7,0.8,5.6,1.1C357.8,564.4,355.9,566.6,354.5,565.8z
	 M326.1,604.1c0,0-7.6,5.7-13,16.2h-5.5c-0.7-11-0.9-30.7,4.3-43.8c0.3-0.7,0.8-1.7,1.3-3c1.4-2.7,2.3-4.7,2.9-6.2
	c4.2-8.5,10.1-19.6,14.1-22c0,0-0.5-0.7-1-2.1c0.3,0.7,0.6,1.4,1,2.1c1,2.1,2.5,4,4.4,5.7c-7.6,14.1,7,31.2,7,31.2
	S337.8,593.7,326.1,604.1z M387.4,534.3c-11.9-3.3-26.3-2.7-31.6-5.5c-7.2-3.9,3.3-7.8,17.8-6.7c9.7,0.7,16.2,7.5,26.4,12.5
	C396,534.3,391.6,534.2,387.4,534.3z"/>
<g>
	<path class="st10" d="M2066.8,505.8h-285.3c-6.8,0-12.4,5.6-12.4,12.4v73.2c0,6.8,5.6,12.4,12.4,12.4h285.3
		c6.8,0,12.4-5.6,12.4-12.4v-73.2C2079.2,511.4,2073.7,505.8,2066.8,505.8z M2070.5,591.4c0,2-1.7,3.7-3.7,3.7h-285.3
		c-2,0-3.7-1.7-3.7-3.7v-73.2c0-2,1.7-3.7,3.7-3.7h285.3c2,0,3.7,1.7,3.7,3.7V591.4z"/>
	<rect x="1579.6" y="203.7" class="st8" width="619" height="352.8"/>
	<rect x="1600.4" y="203.7" class="st10" width="619" height="352.8"/>
	<path class="st3" d="M2219.4,203.7v352.8h-619v-41.5c319.5-34.6,475.4-224.8,530.7-311.3H2219.4z"/>
	<path class="st100" d="M2132.8,603.8h-540.7c-4.8,0-8.8,4-8.8,8.8v82.5c0,4.8,4,8.8,8.8,8.8h540.7c4.8,0,8.8-4,8.8-8.8v-82.5
		C2141.6,607.8,2137.7,603.8,2132.8,603.8z"/>
	<path class="st1" d="M2189.8,603.8h-540.7c-4.8,0-8.8,4-8.8,8.8v82.5c0,4.8,4,8.8,8.8,8.8h540.7c4.8,0,8.8-4,8.8-8.8v-82.5
		C2198.6,607.8,2194.6,603.8,2189.8,603.8z"/>
	<g>
		<rect x="1781.4" y="352.3" class="st101" width="275.1" height="98.4"/>
		<polygon class="st5" points="1793.3,352.3 1787.8,450.7 2062.9,450.7 2068.8,352.3 		"/>
	</g>
	<path class="st5" d="M1725.8,521.8h-97c-4.9,0-8.8,4-8.8,8.8v2.9c0,4.9,4,8.8,8.8,8.8h97c4.9,0,8.8-4,8.8-8.8v-2.9
		C1734.6,525.8,1730.7,521.8,1725.8,521.8z"/>
</g>
<g class="st102">
	
		<image style="overflow:visible;" width="10538" height="5630" xlink:href="BD82BEED.png"  transform="matrix(0.24 0 0 0.24 -273.6047 -290.7765)">
	</image>
</g>
<path class="st103" d="M1551.4,273l5.5-2.5c0.2-0.2,0.2-0.3,0-0.3l-5.5-2.5h-0.2l-2.5-5.7h-0.2l-2.5,5.7l-5.7,2.5
	c-0.2,0-0.2,0.2,0,0.3l5.7,2.5l2.5,5.7h0.2l2.5-5.7H1551.4z"/>
<path class="st103" d="M1490.7,89.8l5.5-2.5c0.2-0.2,0.2-0.3,0-0.3l-5.5-2.5h-0.2l-2.5-5.7h-0.2l-2.5,5.7l-5.7,2.5
	c-0.2,0-0.2,0.2,0,0.3l5.7,2.5l2.5,5.7h0.2l2.5-5.7H1490.7z"/>
<path class="st103" d="M1186.7,28.8l5.5-2.5c0.2-0.2,0.2-0.3,0-0.3l-5.5-2.5h-0.2l-2.5-5.7h-0.2l-2.5,5.7l-5.7,2.5
	c-0.2,0-0.2,0.2,0,0.3l5.7,2.5l2.5,5.7h0.2l2.5-5.7H1186.7z"/>
<path class="st103" d="M1379.9,275.4l5.5-2.5c0.2-0.2,0.2-0.3,0-0.3l-5.5-2.5h-0.2l-2.5-5.7h-0.2l-2.5,5.7l-5.7,2.5
	c-0.2,0-0.2,0.2,0,0.3l5.7,2.5l2.5,5.7h0.2l2.5-5.7H1379.9z"/>
<path class="st103" d="M1320.1,143.1l5.5-2.5c0.2-0.2,0.2-0.3,0-0.3l-5.5-2.5h-0.2l-2.5-5.7h-0.2l-2.5,5.7l-5.7,2.5
	c-0.2,0-0.2,0.2,0,0.3l5.7,2.5l2.5,5.7h0.2l2.5-5.7H1320.1z"/>
<path class="st103" d="M1054,99.4l5.5-2.5c0.2-0.2,0.2-0.3,0-0.3L1054,94h-0.2l-2.5-5.7h-0.2l-2.5,5.7l-5.7,2.5
	c-0.2,0-0.2,0.2,0,0.3l5.7,2.5l2.5,5.7h0.2l2.5-5.7H1054z"/>
<path class="st103" d="M870.9,74.2l5.5-2.5c0.2-0.2,0.2-0.3,0-0.3l-5.5-2.5h-0.2l-2.5-5.7h-0.2l-2.5,5.7l-5.7,2.5
	c-0.2,0-0.2,0.2,0,0.3l5.7,2.5l2.5,5.7h0.2l2.5-5.7H870.9z"/>
<path class="st103" d="M1431.6,185.8l5.5-2.5c0.2-0.2,0.2-0.3,0-0.3l-5.5-2.5h-0.2l-2.5-5.7h-0.2l-2.5,5.7l-5.7,2.5
	c-0.2,0-0.2,0.2,0,0.3l5.7,2.5l2.5,5.7h0.2l2.5-5.7H1431.6z"/>
<path class="st103" d="M1649.1,151.6l5.5-2.5c0.2-0.2,0.2-0.3,0-0.3l-5.5-2.5h-0.2l-2.5-5.7h-0.2l-2.5,5.7l-5.7,2.5
	c-0.2,0-0.2,0.2,0,0.3l5.7,2.5l2.5,5.7h0.2l2.5-5.7H1649.1z"/>
<path class="st103" d="M1852.1,187.6l5.5-2.5c0.2-0.2,0.2-0.3,0-0.3l-5.5-2.5h-0.2l-2.5-5.7h-0.2l-2.5,5.7l-5.7,2.5
	c-0.2,0-0.2,0.2,0,0.3l5.7,2.5l2.5,5.7h0.2l2.5-5.7H1852.1z"/>
</svg>
