<?xml version="1.0" encoding="utf-8"?>
<!-- Generator: Adobe Illustrator 25.2.0, SVG Export Plug-In . SVG Version: 6.00 Build 0)  -->
<svg version="1.1" id="Layer_1" xmlns="http://www.w3.org/2000/svg" xmlns:xlink="http://www.w3.org/1999/xlink" x="0px" y="0px"
	 viewBox="0 0 220 300" style="enable-background:new 0 0 220 300;" xml:space="preserve">
<style type="text/css">
	.st0{fill:#E10600;}
</style>
<g id="Cedro">
	<path class="st0" d="M200,204.8c-0.2-0.9-0.9-1.6-1.8-1.9c-0.7-1.3-1.8-2.3-3.2-2.8c-7.1-6.4-16.1-9.8-24.1-14.9
		c-6.4-4.1-6.4-6.5,0.1-10.3l3.4-0.1c3.8,1.8,7.4,3.8,11.3,5.4c2,0.8,4.8,1.7,6-0.9c1.2-2.7-1.4-3.7-3.3-5
		c-4.1-2.9-8.8-5.3-11.9-9.3c-3.3-4.2-7-7.4-12.6-7.7l0,0c-0.7-0.3-1.4-0.5-2.2-0.8c-1.2-0.4-3.1,0.8-3.7-1.1
		c-0.5-1.6,1.2-2.4,2-3.6l9.6-0.3c3,0,6.1,0,9.2,0.1c2.1,0.1,4.1-0.1,4.5-2.5c0.3-2.2-1.7-2.8-3.5-3.3c-6.4-1.7-12.7-3.3-19.1-4.9
		c-4.4-1.1-4.7-1.8-1.6-5.4l3.6-0.3c3.1,2.2,6.8,1.6,10.2,2.3c1.5,0.3,3,1,3.6-1c0.5-1.7-0.4-3.4-2-4c-2.1-1.1-4.4-2-6.6-3.1
		c-11.5-5.8-19.4-16.4-30.8-22.3c-1.1-0.5-1.7-1.7-1.4-2.8c0.4-1.3,1.5-2.2,2.9-2.3c1.6-0.1,3.2,0.2,4.7,1c3.4,1.6,7,2.6,10.7,3
		c1.2,0.1,3,0.7,3.5-0.8c0.5-1.7-1.3-1.8-2.4-2.3c-3.6-1.7-6.9-3.9-9.9-6.5c-1.1-1-3.5-1.6-2.5-3.5c1-1.4,2.9-1.7,4.4-0.8
		c0.9,0.6,2.1,0.3,2.7-0.6c0.1-0.1,0.1-0.2,0.2-0.3c0.6-1.1,0.3-2.4-0.8-3c-7.7-4.6-14.5-11.1-23.9-12.2c-6.9-0.7-13-4.8-16.3-10.9
		c-1.5-2.6-2.8-5.2-4.6-8.6c-5,10.4-14.3,15.9-22.3,23.4c2.6,1.3,5.9-0.4,6.1,2.4c0.2,2.3-2.6,3-4.3,4.1c-3.3,2-6.8,3.8-10.1,5.8
		c-1,0.6-2.5,1.2-2.4,2.7c0.1,2,1.9,1.4,3,1.6c1.7,0.3,3.5,0.9,3.4,2.7c0.1,1.9-1.4,3.5-3.2,3.6c0,0,0,0-0.1,0
		c-4.9-0.1-7.2,2.9-9.3,6.6c-1.7,2.6-4.2,4.6-7,5.8c-3.2,1.5-6.3,3.2-9.3,5.1c-2.3,1.6-6.9,2.6-5.3,6.3c1.8,4.1,5.7,1.5,8.5,0.5
		c3.8-1.3,6.9-1.5,9.2,2.4l0.3,4.6c-2.5,4-5.1,8.4-9.7,9.8c-8.3,2.5-14.3,7.9-20,13.9c-1.3,1.4-4.2,2.2-2.4,4.9
		c1.5,2.1,4.3,2.7,6.5,1.4c2.9-1.4,5.7-3.1,8.3-4.9c1.8-1.5,4.5-1.4,6.2,0.3c1.7,1.6,2.3,4.1,1.3,6.3c-1,2.1-2.8,3.7-4.9,4.4
		c-4.4,2.4-8.6,5-12.6,8c-5.9,3.9-9.5,10.8-16.8,13c-2.4,0.7-1.9,2.7,0.5,3.6c1.1,1.1,2.8,1.1,4,0.2l0,0c1.9-0.4,3.8-0.7,5.6-1.2
		c8.2-2.1,15.3-6.6,22.9-10.1c3-1.4,6.4-1.8,8.1,1.4c1.7,3.3-1.2,5.2-3.7,6.8c-5.5,3.5-11.9,4.8-17.6,7.6c-1.1-0.2-2.2,0.2-2.9,1
		l0,0c-2.6,0.8-5.9-0.2-7.6,3c-1.4-0.1-1.9,0.6-1.8,1.9c0,1.2,0.9,2.1,2.1,2.2c0.1,0,0.2,0,0.3,0c2.8,1.1,5.9,1.1,8.7,0l0,0l2.5-0.2
		l0,0c3.5,0,6.9-1,10-2.8c1.6,0.2,3.1-0.6,3.8-2c2.4,0.5,4-0.9,5.7-2.1l0,0c3.1-0.7,6-1.9,8.8-3.4c8-3.1,11.6-2.2,16.5,4.6
		c-0.1,1.1,0.2,2.1,0.9,2.9c-0.2,1.9-0.5,3.9-0.7,5.8l-0.9,2l0,0l-3.6,6.6l0,0c-5.1,7-12.2,12.9-20.6,16c-0.3-0.1-0.6-0.1-0.8,0.2
		c-2.7,0.6-5.1,1.8-7.2,3.6c-1.2,0.8-1.9,1.6-0.6,3c1.2,1.2,2.2,1,3.1-0.4c1.5-1.8,3.5-3.2,5.7-4.1l2.8-0.4l0,0
		c1.5,0.3,3,0.1,4.3-0.7l2.5-0.3l0,0c0.9-0.2,1.9-0.3,2.8-0.5c6.4-1.5,10.3-7.1,15.7-10.2l5.6-0.8c2.4,1.7,5.5,2.1,8.2,1
		c1.8-0.7,4.7-0.5,5.2,1.4c1.6,5.4,7.2,6.5,10.2,10.3c0.7,0.8,1.6,1.9,2.8,1.6c1.6-0.4,1-1.8,1-2.9c0.1-3.3,2.1-4.1,4.9-3.6
		c6.5,1.1,13.2,1.9,16.8,8.7c0.4,0.7,1,1.3,1.7,1.7c1.3,0.9,2.9,2.1,4.2,0.2c1.1-1.5,0.5-2.6-1-4c-2.4-2.3-5.5-3.5-7.9-5.8l-3.2-2.9
		l0,0c-3.3-3.1-6-6.6-8.1-10.6l-1.7-7.1l0,0c-0.1-0.6-0.1-1.1-0.2-1.7V205l0,0c0-0.9,0.1-1.8,0.1-2.7l0,0c1-4.2,0.5-9.1,5.7-11
		l3.7,0.2l0,0c4.3,2.5,8.6,5.2,13.8,5.5h6.8c9.4,0.1,19-1,27.3,4.9l2.8,2.1c1.4,1.3,3,2.3,4.8,3c1.5,0.9,2.9,1.9,4.5,2.7
		c1.3,0.8,2.9,0.8,4.1-0.2C200.8,208.2,201.8,206.5,200,204.8z M68.4,158.8c-2.1,0.9-4.2,1.6-6.4,2.1c-3.3,1-6.7-0.9-7.7-4.2
		c-0.1-0.4-0.2-0.9-0.2-1.3c-0.3-2.4,1.7-2.6,3.1-2.8c3.2-0.5,6.4-0.7,10.6-1c2-0.4,4,0.9,4.5,2.9C72.8,157.1,70.3,158,68.4,158.8
		L68.4,158.8z M69.5,130.4c-2.5,0.3-6.2-3.4-6.4-6.3c-0.3-1.7,0.7-3.3,2.4-3.6c0.2,0,0.4-0.1,0.5-0.1c2.5-0.3,7,3.7,7.2,6.5
		C73.3,129.2,71.5,130.1,69.5,130.4L69.5,130.4z M114.8,94.9c1.7,0,2.5,1.1,2.5,2.8c0.1,1.3-0.8,2.5-2.1,2.6h-0.1
		c-1.4-0.2-2.6-1.3-2.7-2.7c-0.3-1.2,0.4-2.3,1.5-2.7C114.2,94.9,114.5,94.8,114.8,94.9L114.8,94.9z M108.4,117.3
		c-0.1,1.7-1.6,3.1-3.3,3c-0.1,0-0.1,0-0.2,0c-1.4,0-2.5-1.1-2.5-2.4c0-0.1,0-0.3,0-0.4c0-2.6,2.2-2.3,3.8-2.6
		C107.8,114.6,108.4,115.7,108.4,117.3L108.4,117.3z M88.5,103.1c0.8-0.5,1.9-1.8,3-0.7c1.1,1.1,1.3,2.7,0.5,4
		c-1.4,3.1-4.5,3.9-6.9,5.1c-2.9-0.1-3.6-1.4-2.5-3.5C84.1,105.8,86.1,104.1,88.5,103.1L88.5,103.1z M83.3,91.9
		c1.2-0.2,2.4,0.6,2.6,1.8c0.1,0.3,0.1,0.6,0,0.9c0,1.4-1.1,2.5-2.4,2.6c-1.4-0.1-2.4-1.3-2.4-2.6C81.1,93.1,81.6,92,83.3,91.9
		L83.3,91.9z M75.4,122.3c-0.1-2.1,1.4-4,3.6-4.1c0.3,0,0.6,0,0.9,0c2.7,0,4.3,1.1,4.1,3.4c-0.3,2.5-2.6,4.3-5.2,4.1
		c-1.7,0.1-3.2-1.1-3.3-2.8C75.4,122.7,75.4,122.5,75.4,122.3L75.4,122.3z M81.2,182.3c-4-0.9-3.3-4.8-3.9-6.5
		c-0.6-2.7-0.4-4.1,1.4-3.8c3.7,0.6,4.6,3.5,5.1,6.7C84.3,180.8,83.1,182.7,81.2,182.3L81.2,182.3z M87.8,146
		c-1.5-0.1-2.7-1.2-2.8-2.7c-0.2-1,0.3-1.9,1.3-2.2c0.2,0,0.4-0.1,0.6,0c1.6,0,2.3,1.4,2.9,2.5C89.8,145.2,89.1,146.1,87.8,146
		L87.8,146z M93.2,181.9c-1.9-0.8-3.1-2.7-3.1-4.8c-0.1-1,0.7-1.5,1.6-1.2c2,0.5,3.3,2.3,3.3,4.3C95,181,94.9,182.2,93.2,181.9
		L93.2,181.9z M97.1,101c0.7-4,4.4-4.3,7.4-5.1c2-0.5,3.2,0.7,3,2.7c-0.4,4.8-5.1,2.9-6.9,4.7C98.4,103.4,96.8,102.7,97.1,101
		L97.1,101z M99.8,143.8c-1.3,0.1-2.1-0.8-2.1-2.1c-0.2-1.3,0.8-2.6,2.1-2.8c1.1,0,2.1,0.9,2.1,2v0.1
		C101.9,142.4,101.4,143.7,99.8,143.8L99.8,143.8z M104.7,181c-1.7,0.2-3.1-1-3.3-2.7c0-0.3,0-0.7,0.1-1c0.1-2-0.3-3.8,2-3.7
		c2.3,0,4.2,1.8,4.3,4.1c0,0.1,0,0.1,0,0.2c0.2,1.5-0.9,2.9-2.5,3C105.1,181,104.9,181,104.7,181L104.7,181z M110,151.4
		c-1.9,0-3.4-1.4-3.5-3.2c-0.3-1.9-0.5-4.4,1.4-5.2c3.3-1.5,3.4,2.4,5,3.8l0.5,1.7C113.3,150.7,112.1,151.5,110,151.4L110,151.4z
		 M118.7,150c-0.9,1.6-2,1.2-3.1,0.2c-0.1-0.5-0.2-1.1-0.3-1.7c1-0.5,1-2.8,2.8-1.6C119.1,147.7,119.4,149,118.7,150L118.7,150z
		 M116.7,121.1c-1.5,0.3-2.9-0.7-3.2-2.2c0-0.2-0.1-0.4,0-0.6c-0.2-2.4,1.7-3.5,3.6-3.8c1.7-0.3,1.9,1.3,2.2,2.7
		C118.5,118.5,119.1,120.8,116.7,121.1L116.7,121.1z M144.9,132.6c2-0.4,2.7,1.3,2.9,3.4c0.3,1.7-0.8,3.4-2.4,3.7
		c-0.3,0.1-0.6,0.1-0.9,0.1c-2.1,0.3-4-1.1-4.4-3.1c0-0.1,0-0.2,0-0.4C139.8,133.8,141.9,132.8,144.9,132.6L144.9,132.6z
		 M122.1,99.2c-0.2-2.2,1-3.2,3-3.4s3,0.8,3.1,2.7c0.2,1.9-1.2,3.5-3.1,3.7C123.5,102.2,122.1,100.9,122.1,99.2L122.1,99.2z
		 M130.9,126c-3.4-0.2-6.5-1-6.5-4.7c0-3.2,3.1-3.9,5.7-4c3.2-0.1,5.5,1.4,5.6,4.7C135.8,125.3,133.2,125.8,130.9,126L130.9,126z
		 M149,167.8c-1.8,2.7-4.9,4.3-8.2,4c-1.6-0.2-4.3-0.2-4.9-2.4c-0.6-2.6,1.8-3.8,3.8-4.9c0.3-0.2,0.6-0.3,0.9-0.4
		c2.5-0.3,5.2-2.5,7.6,0.2C149.1,165.3,149.8,166.6,149,167.8L149,167.8z M158.5,176.7c-1.9-0.3-4.4-0.2-4.5-3.4
		c-0.1-2.7,4.2-6.3,7.6-6.3c2.2-0.1,4,1.5,4.2,3.7c0,0.2,0,0.4,0,0.6C165.9,174,162.2,176.7,158.5,176.7L158.5,176.7z"/>
</g>
</svg>
