<?xml version="1.0" encoding="utf-8"?>
<!-- Generator: Adobe Illustrator 25.2.0, SVG Export Plug-In . SVG Version: 6.00 Build 0)  -->
<svg version="1.1" xmlns="http://www.w3.org/2000/svg" xmlns:xlink="http://www.w3.org/1999/xlink" x="0px" y="0px"
	 viewBox="0 0 952.7 497.7" style="enable-background:new 0 0 952.7 497.7;" xml:space="preserve">
<style type="text/css">
	.st0{fill:#E87070;}
	.st1{fill:#212322;}
	.st2{fill:#9B2C2C;}
	.st3{fill:#752222;}
	.st4{fill:#E10600;}
	.st5{fill:#D16E24;}
	.st6{fill:#EF8E8E;}
	.st7{fill:#723B17;}
	.st8{fill:#B7591A;}
	.st9{fill:#233862;}
	.st10{fill:#2A4E96;}
	.st11{fill:#ED975D;}
	.st12{fill:#FFB27D;}
	.st13{fill:#1C1B29;}
	.st14{fill:#FFFFFF;}
	.st15{fill:#232233;}
	.st16{fill:#C65447;}
	.st17{fill:#AA413E;}
	.st18{fill:#C7DCEF;}
	.st19{fill:#E9F3FE;}
	.st20{fill:#353F37;}
	.st21{fill:#EF6270;}
	.st22{fill:#CC4355;}
	.st23{fill:#59422E;}
	.st24{fill:#443017;}
	.st25{fill:#30382E;}
	.st26{fill:#543B22;}
	.st27{fill:#A8387E;}
	.st28{fill:#CFDEFF;}
	.st29{fill:#E05164;}
	.st30{opacity:0.4;fill:#484B37;}
	.st31{fill:#451B10;}
	.st32{fill:#28263B;}
	.st33{fill:#ABBAFF;}
	.st34{fill:#8FA2FA;}
	.st35{fill:#BDD1FF;}
	.st36{fill:#B8C5FF;}
	.st37{fill:#189B3D;}
	.st38{fill:#DBE6FF;}
	.st39{fill:#F7AEA5;}
	.st40{fill:#FECCAF;}
	.st41{fill:#6B3143;}
	.st42{fill:#133BBA;}
	.st43{fill:#1541CC;}
	.st44{fill:#0B2585;}
	.st45{fill:#61C7C7;}
	.st46{fill:#FFE8AD;}
	.st47{fill:#2ABC57;}
	.st48{fill:#5697B0;}
	.st49{fill:#FFD978;}
	.st50{fill:#E6EDFF;}
	.st51{fill:#3ADB70;}
	.st52{fill:#7C90EB;}
	.st53{fill:#9EB0FF;}
	.st54{fill:#E0EAFF;}
	.st55{fill:#94A7FF;}
	.st56{fill:#7D93FF;}
	.st57{fill:#7CE4CC;}
	.st58{fill:url(#SVGID_1_);}
	.st59{fill:#335A70;}
	.st60{fill:#21354A;}
	.st61{fill:#D4FFDC;}
	.st62{fill:#2C4661;}
	.st63{fill:#152E44;}
	.st64{fill:#FF707E;}
	.st65{fill:#1F40A1;}
	.st66{fill:#2347A1;}
	.st67{fill:#1A378A;}
	.st68{fill:#2A52C2;}
	.st69{fill:#BD3C53;}
	.st70{fill:#C74153;}
	.st71{fill:#4F2431;}
	.st72{fill:#6B313F;}
	.st73{fill:#592534;}
	.st74{fill:none;stroke:#4F2431;stroke-width:2;stroke-linecap:round;stroke-miterlimit:10;}
	.st75{fill:#FEA77F;}
	.st76{fill:#FA8E70;}
	.st77{fill:#612936;}
	.st78{fill:#733544;}
	.st79{fill:#FFD096;}
	.st80{fill:#F7DC9E;}
	.st81{fill:#401D2B;}
	.st82{fill:#D14658;}
	.st83{fill:#E65568;}
	.st84{fill:#592938;}
	.st85{fill:#D68272;}
	.st86{fill:#D4655B;}
	.st87{fill:#572836;}
	.st88{fill:#421E29;}
	.st89{fill:#232133;}
	.st90{fill:#171621;}
	.st91{fill:#FFB685;}
	.st92{fill:#FE9B77;}
	.st93{fill:none;}
	.st94{fill:#350D1A;}
	.st95{opacity:0.7;fill:#260511;}
	.st96{opacity:0.4;fill:#A8387E;}
	.st97{opacity:0.93;fill:#FFFFFF;}
	.st98{fill:#543247;}
	.st99{fill:#A82C3C;}
	.st100{fill:#DBE7FF;}
	.st101{fill:#B5CDFF;}
	.st102{fill:none;stroke:#EA8668;stroke-width:0.25;stroke-miterlimit:10;}
	.st103{fill:#F1A34F;}
	.st104{fill:#3D3F3E;}
</style>
<g id="Layer_10">
</g>
<g id="_x3C_Layer_x3E_">
	<path class="st0" d="M895.5,251.7c-6.7-20-48.2-13.8-48.2-13.8s-28.2,35-36.4,35.8c-8.2,0.8,16.9-33.7,16.9-33.7
		c-11.5-0.9-35.8,7.1-48.5,11.6l24.5,61.3c8.9,0.6,14.8,5.7,24.3,9.4c-3.7-0.3-7.8-0.3-11.7-0.3c-3.1-0.7-6.4-1.2-9.6-1.5l23.7,59.3
		c11.9-0.3,25.9-12.8,25.9-12.8c-10-0.4-24.2-9.2-23.7-11.9c0.5-2.7,24.1,4.6,28.2,5c4,0.4,13.2-3.7,14.6-16.9
		c1.4-13.2-25.2-16.9-25.2-16.9s-6.1,3.7-13.1,7.4c-1.4-1.4-3.6-3-6.2-4.8c2.3-1.6,4.4-3.1,5.6-3.9c2.6,0.6,5.4,1,8.5,1.2
		c21.6,1.7,38-31.3,38-31.3c-14.9,3.8-41.6-2.9-42.6-7.1c-1-4.2,38.5-3.8,44.7-5C891.4,281.7,902.2,271.7,895.5,251.7z"/>
	<path class="st1" d="M283.8,500.7L0.6,500.6c0,0-6.3-289.2-0.7-294.1c25.7-22.3,43.2-36.3,43.2-36.3S227,408.2,283.8,500.7z"/>
	<g>
		<g>
			<path class="st0" d="M835.6,390.7c0,0-17.9-20.9-1.1-34.2c0,0,12.3-7.4,22.3-6.8c0,0-14.2,23.8-9.6,26.2
				c4.6,2.4,13.9-27.7,13.9-27.7s28-2.7,37,1.6c0,0-23.9,19.6-18.9,20.7c5,1.2,30.9-18,30.9-18s26,4.4,24.6,20.3
				c-1.4,15.9-10.4,20.8-14.3,20.4c-3.9-0.4-27-9.2-27.5-6c-0.5,3.2,13.4,13.8,23.1,14.3c0,0-18.4,20.2-30.5,14.4
				c-12.2-5.8-13.2-15.1-20.8-18.6c-7.6-3.5-14.1-3.5-11,0.1c3.1,3.5,16.9,7,21.2,14.7c4.3,7.7,8.2,12.9-4.4,11
				c-12.6-1.9-33.1-11.1-34-21.7C835.6,390.7,835.6,390.7,835.6,390.7z"/>
			<g>
				<path class="st0" d="M922,373.2c0,0-70.7-2.7-86.3,17.5c0,0-3.5,10.3-14.1,19.8l-1.7,4.5c0,0,12.3-12.9,16.6-13.7
					C836.5,401.2,829.7,376.2,922,373.2z"/>
				<path class="st0" d="M821.6,410.4c0,0-15.2,11.2-16.2,31.3l2.8,0.2c0,0,4.8-20.7,13.6-28.8C830.5,405,821.6,410.4,821.6,410.4z"
					/>
			</g>
		</g>
		<g>
			<path class="st2" d="M818.3,342.3c0,0-37.6-21.1-20.1-49.6c0,0,14-17.5,29.1-22.1c0,0-8,42.6,0,43.6c8,1,5.5-48.1,5.5-48.1
				s39.6-19.1,55.1-17.5c0,0-24.6,41.6-16.5,40.6c8-1,35.6-43.1,35.6-43.1s40.6-7.5,47.1,16.5c6.5,24.1-4,36.1-10,37.6
				c-6,1.5-44.6,1-43.6,6c1,5,27.1,13,41.6,8.5c0,0-16,39.6-37.1,37.6c-21.1-2-27.6-15-40.6-16c-13-1-22.6,2.5-16,6
				c6.5,3.5,28.6,1.1,39.1,10.1c10.5,9,19.1,14.5-0.5,18.5c-19.6,4-54.6,1.5-61.7-13.5C818.3,342.3,818.3,342.3,818.3,342.3z"/>
			<g>
				<path class="st2" d="M935.6,270.1c0,0-105.3,34.1-117.3,72.2c0,0,0.5,17-10,36.6v7.5c0,0,11-25.6,17-29.1
					C825.3,357.4,801.8,324.3,935.6,270.1z"/>
				<path class="st2" d="M808.3,378.9c0,0-16.2,24.7-7,54.7l4.2-1.1c0,0-4.1-33.1,4.4-49.7C818.4,366.2,808.3,378.9,808.3,378.9z"/>
			</g>
		</g>
		<path class="st3" d="M890.7,427.3h1.7V425H770.7h-18.3H741v2.3h2.5c0.9,30,19.7,55.4,46,66.1h-38c-5,0-9.1,4.1-9.1,9.1l0,0h149.3
			l0,0c0-5-4.1-9.1-9.1-9.1h-38C871,482.7,889.8,457.2,890.7,427.3z"/>
	</g>
	<path class="st4" d="M777.1,499.1h-84.9l0.1-2.1l6.6-201.2c0,0,81-22.1,101.4-1.1c17.8,18.5,66.2,91.5,68.7,134.7
		C871.4,471.5,824.9,499.1,777.1,499.1z"/>
	<path class="st5" d="M306.6,317.3c0,0,109.6-49.8,130.3-17.3c11,17.3,41.3,86.1,43.6,129.4c2.2,42-38.7,69.6-80.8,69.6H325
		L306.6,317.3z"/>
	<path class="st6" d="M90.5,164.2c0,0,492.4-4.3,546.8-4.2c28,0.1,17.1,24.1,24.8,49.8c17,56.8,39.4,129.9,35.8,142.6
		c-5.1,18-497.6,23.1-511.1,18.9C173.4,367.1,90.5,164.2,90.5,164.2z"/>
	<path class="st7" d="M498.2,160c0,0-65.1,47.1-54.5,152.8l157,4.8L498.2,160z"/>
	<path class="st7" d="M640.5,160c0,0-68.8,24.1-54.5,152.8l157,4.8L640.5,160z"/>
	<path class="st2" d="M197.2,200.6c0,0,1.8-26.8-4.6-24.4c-6.5,2.3-47.5,39.7-41.1,127.8l18.9,16.1l144.4-24L197.2,200.6z"/>
	<path class="st2" d="M287.7,162.9c0,0-39.3,33.8-39.4,145.1l4.8,48.9h246.7L381.3,162L287.7,162.9z"/>
	<path class="st7" d="M504.5,162.1c0,0-39.3,33.8-39.4,145.1l4.8,48.9c83.5-18.9,166.9-37.9,250.4-56.8
		c-40.7-46-81.4-92.1-122.2-138.1c-7,1.4-16.4,4.5-24.4,11.9c-20.2,18.6-13.7,48.2-22.6,51.1C544.8,226.1,532,214.6,504.5,162.1z"/>
	<path class="st2" d="M777.1,499.1h-84.9l0.1-2.1c2.8-2,8-4.6,16.4-7.8c47.2-18.2,112.6-59.5,112.6-59.5s24,12.5,47.7-0.2
		C871.4,471.5,824.9,499.1,777.1,499.1z"/>
	<path class="st0" d="M821.3,429.7c-7,64.8-77.5,70.2-124.9,69.6l-468.1,0.1l7.9-44.3l24.2-134.9c0,0,487-16.7,507.3,1.9
		c9.4,8.6,52.1,51.7,54,91.1C822,419,821.8,424.5,821.3,429.7z"/>
	<path class="st8" d="M768.5,327.7c0,0-1.7,12.1-45.9,11.2c-44.2-0.9-93.1-2.8-99.6-2.9c-6.5-0.1,76.9-51.6,105.8-41.8
		C757.8,304,768.5,327.7,768.5,327.7z"/>
	<path class="st2" d="M821.3,429.7c-7,64.8-77.5,70.2-124.9,69.6l-468.1,0.1l7.9-44.3c66,0.4,433.7,2.3,514,0.9
		C800.3,455.1,816.6,441.4,821.3,429.7z"/>
	<g id="Batman_2_">
		<path class="st9" d="M687.4,323.1c0,0-0.4,5.4-4.5,8.2c-4.2,2.8-6.7,8.4,1.2,14.6c7.9,6.3,16,16.9,21.1,20.7
			c5.1,3.8,12.5,5.9,14.4,1.5c0,0,0.7-3.7-5.7-10.1c-6.4-6.4-5.8-11.6-8.3-19.1c-2.5-7.5,3.4-24.3,3.4-24.3l-11.1-9.7L687.4,323.1z"
			/>
		<path class="st10" d="M707.3,369.1c-2.1,2.4-6.6,4-10.9,4.3c-4.5,0.3-12.4-0.9-20.2-1.5c-3.2-0.2-6.4-0.4-9.4-0.2
			c-10.1,0.4-11.8-5.5-10.5-10.3c1.3-4.8-2-9.1-2-9.1l-0.4-2.1l-3.6-18.4h14.8c0,0,4.2,10.7,9.4,17c1.3,1.5,2.6,2.8,3.9,3.6
			c4.2,2.5,7,5.1,10.6,6.9c2.2,1.1,4.8,1.8,8.2,2.1c9,0.7,10.9,3.9,10.9,3.9C708.7,366.6,708.3,367.9,707.3,369.1z"/>
		<path class="st9" d="M707.3,369.1c-2.1,2.4-6.6,4-10.9,4.3c-4.5,0.3-12.4-0.9-20.2-1.5c-3.2-0.2-6.4-0.4-9.4-0.2
			c-10.1,0.4-11.8-5.5-10.5-10.3c1.3-4.8-2-9.1-2-9.1l-0.4-2.1c9.4-6.5,16.5-4.2,20.5-1.5c2.6,1.7,3.9,3.6,3.9,3.6s-0.2,8.9,7,11.4
			C692.7,366.2,702.6,371.4,707.3,369.1z"/>
		<path class="st10" d="M660.1,156.3c0,0-30.6-0.8-50.8,6.2c0,0-20.5,6.2-30.9,11.6c-3.2,1.7-5.3,5-5.5,8.6
			c-1.1,16.3-1.4,67,34.2,83.2c0,0,58.9-22.6,68.3-25.7C700.5,231.9,660.1,156.3,660.1,156.3z"/>
		<path class="st11" d="M638.4,155.5C638.4,155.5,638.4,155.5,638.4,155.5c-0.2,1.1-1.6,9.8-7.1,18.3c-1.7-0.3-3.4-0.8-5-1.5
			c-8.1-3.3-15-10.2-15.1-10.9c0.6-4.3,0.9-9.9,0.6-17.5l1.5,0.2l23,3.7C636.9,151.1,638.4,155.5,638.4,155.5z"/>
		<path class="st12" d="M638.4,155.6c-0.2,1-1.6,9.7-7.1,18.3c-1.7-0.3-3.4-0.8-5-1.5c-0.3-1.5-0.5-3-0.6-4.3
			C625.4,160.5,636,156.4,638.4,155.6z"/>
		<path class="st12" d="M652,135"/>
		<path class="st13" d="M641.6,161.5c0,0-1.3,0.1-3.5-0.1c-4-0.2-16.4-0.9-23.5-8.4c-3.8-4.1-4.7-8.8-5.7-14
			c-3.9-21.3,4.2-44.6,10.6-44.6c1.8,0,1.6,1.7,5.1,3.2c5.6,2.3,8.6-1,14.9,1.1c8,2.6,10.3,8.5,11.5,13.9
			C653,120.6,650,160.6,641.6,161.5z"/>
		<path class="st12" d="M639.8,161.5c0,0-1.6,0.1-4.1-0.1c-9-0.9-18.5-6.7-18.4-24.2c0.1-23.8,3.8-34.1,20.2-38.5
			c9.5,2.6,12.2,8.5,13.6,13.9C653.2,120.6,649.7,160.6,639.8,161.5z"/>
		<path class="st13" d="M613,135c-0.2-7.2,0-15.1,0.8-23.6c0.5-5,1.1-9.7,1.8-14.1c0.3-2.2,0.8-4.8,1.8-7.7c0.5-1.6,1.2-3.1,1.8-4.4
			c0.6,1.4,1.1,3,1.6,4.7c0.5,2,0.9,3.8,1.2,5.5c2,0.1,4.1,0.3,6.3,0.6c6.2,0.8,11.8,2.1,16.5,3.6c0.6-1.7,1.6-3.8,3.1-6
			c0.8-1.1,1.6-2.1,2.4-2.9c0.3,0.8,0.5,1.7,0.8,2.7c0.8,3.4,1.1,6.5,1,9.1c0.1,1.2,0.2,2.4,0.3,3.6c0.8,13.1,0.4,25.5-0.9,37.2
			c-3-0.8-6-1.6-9-2.5c-1.3-0.4-2.5-0.7-3.8-1.1c-0.6,0.3-1.4,0.6-2.2,0.9c-0.9,0.3-1.8,0.6-2.6,0.7c-0.7-0.4-1.5-1-2.4-1.9
			c-0.7-0.7-1.2-1.3-1.5-1.9c-2.9-0.5-5.8-1.1-8.9-1.6C618.2,135.7,615.6,135.3,613,135z"/>
		<path class="st14" d="M621.1,116.7c-0.1,0-1.1-0.1-1.8,0.6c-0.8,0.7-0.8,1.8-0.8,1.9c0,0.4,0,1.1,0.3,1.8c0.4,0.9,0.9,1.5,1.2,1.7
			c0.4,0.5,1.2,1.3,2.5,1.9c1.7,0.8,3.3,0.7,4,0.6c0.6-0.1,1.1-0.2,1.7-0.3c0.4-0.1,1.1-0.3,1.8-0.9c0.7-0.6,1-1.2,1.2-1.5
			c-2.2-2-4.1-3.6-5.6-4.3C623.8,117.3,622.3,116.9,621.1,116.7z"/>
		<path class="st14" d="M648.8,120.3c0.1,0,1,0.2,1.5,1c0.6,0.9,0.2,1.8,0.2,1.9c-0.1,0.4-0.3,1-0.8,1.6c-0.6,0.7-1.2,1.1-1.6,1.2
			c-0.6,0.3-1.3,0.5-2.2,0.7c-1.6,0.3-2.9,0-3.7-0.2c-0.7-0.2-1.3-0.4-2-0.7c-0.3-0.2-0.9-0.6-1.4-1.3c-0.5-0.7-0.6-1.3-0.6-1.7
			c2.5-1.2,4.6-2.1,6.2-2.4C646.2,120.2,647.7,120.2,648.8,120.3z"/>
		<path class="st15" d="M650.1,90.8c-1,1-2.1,2.4-3.2,4.2c-1,1.7-1.7,3.3-2.2,4.6c0.8,1.1,1.6,2.5,2.3,4.3c0.8,1.9,1.3,3.7,1.5,5.1
			c0.3-2.9,0.6-5.9,0.9-9C649.7,96.8,649.9,93.8,650.1,90.8z"/>
		<path class="st15" d="M621.9,95.4c-0.1,0.9-0.2,1.9-0.3,2.8l25.4,5.6c-0.1-0.5-0.3-1.1-0.6-1.7c-0.5-1.1-1.2-2-1.7-2.5
			c-2.6-0.9-5.4-1.7-8.5-2.4C630.9,96.1,626.1,95.6,621.9,95.4z"/>
		<path class="st15" d="M619.2,85.3c-2.9,10.6-5.5,25-5.2,42.1c0.2,10.7,1.6,20.2,3.2,28c-1.3-1.1-3-2.7-4.6-5.1
			c-2.4-3.6-3.5-7.4-4.1-13.5c-0.9-8.8-2-21,4.2-34.4c1.1-2.4,2.2-4.2,2.9-5.4c0.2-1.2,0.4-2.4,0.8-3.7
			C617.2,90.3,618.2,87.6,619.2,85.3z"/>
		<path class="st15" d="M633.7,141.4c-0.3-4.6-0.7-9.2-1-13.7c-1,3.2-2,6.4-3,9.7c0.3,0.4,0.6,0.9,0.9,1.3
			C631.6,140,632.8,140.8,633.7,141.4z"/>
		<path class="st11" d="M600.1,156.8c0,0-17.9,19.6-11.7,35.4C594.5,208,610.3,165.9,600.1,156.8z"/>
		<path class="st12" d="M681.2,144c0,0,10,34.2-2.9,38.6C665.4,187,676.3,147.2,681.2,144z"/>
		<path class="st16" d="M802.4,349.2c-2,9.8-66.9,15.7-92.1,4.4c-5.1-2.3-9.8-3.4-14.2-3.7c-4-0.3-7.1,0.1-8,0.3
			c-12.3,1.6-45.6,4.4-68.3,6.3c-30.1,2.5-77.7-1.8-83.7-20.7c-3.6-11.3,8.3-25.9,3.6-29.3c-3.4-2.5-10.6,4.4-12.6,2.5
			c-4-3.8,22.4-35.8,27.4-55.8c2.3-9.3,4-17.5,4.8-22.4c0.5-2.9,0.8-4.6,0.8-4.6c0.8-2.6,9.6-32.8,28.4-46
			c7.1-4.9,12.3-11.8,16.8-18.5c7.4-11.1,12.4-21.3,19.1-20.2c6.3,1,10.9,3.8,15.3,4.8c3.1,0.7,6.1,0.5,9.4-2c4.4-3.3,8-8,12.1-9.9
			c3.2-1.4,6.7-1.1,11,2.9c8.3,7.5,9.9,40.9,15.1,53.5c0.4,0.9,0.7,1.6,1.1,2.3c0.8,1.4,1.8,2.3,2.8,2.5c0.4,0.1,0.8,0.1,1.3,0.1
			c2.8,0,7.1-1.5,12.3-3.5c0.1,0,0.1,0,0.2-0.1c10.8-4.1,25.2-10.4,37.5-10.6c1.5,0,3,0,4.4,0.2c1.8,0.2,3.5,0.6,5.1,1.2
			C771.8,189.9,804.4,339.3,802.4,349.2z"/>
		<path class="st12" d="M681.2,144c0,0-3.6-5.9-11-5.7c-7.4,0.2-9,3.7-9.6,4.7s4.5,7.9,9.6,7.1c5.1-0.8,9.7,2.6,11,0.1
			C682.5,147.6,681.2,144,681.2,144z"/>
		<path class="st17" d="M744.5,181.7c0,0-12.4,3.7-18.1,19.2c-5.1,13.8-31.8,18.4-39.1-7.8c0.8,1.4,1.8,2.3,2.8,2.5
			c0.4,0.1,0.8,0.1,1.3,0.1c2.7,0.1,7-1.4,12.3-3.5c0.1,0,0.1,0,0.2-0.1c10.8-4.3,25.3-10.8,37.5-10.6
			C742.4,181.5,743.5,181.6,744.5,181.7C744.5,181.7,744.5,181.7,744.5,181.7z"/>
		<path class="st17" d="M553.3,253.2c3.7-14.9,5.6-26.9,5.6-26.9c0.8-2.6,9.6-32.8,28.4-46c7.1-4.9,12.3-11.8,16.8-18.5
			c9.9-3.8,16.6-6,16.6-6S642.6,283.7,553.3,253.2z"/>
		<path class="st12" d="M611.1,162.9c-2.4-0.4-4.7,0.2-6.5,0.6c-2.1,0.5-3.8,0.8-4.5-0.5c-1.3-2.5,0-6.1,0-6.1s3.3-5.4,10-5.7
			c0.3,0,0.7,0,1,0c7.4,0.2,9,3.7,9.6,4.7C621.3,156.9,616.2,163.7,611.1,162.9z"/>
		<path class="st17" d="M660,134.5c0,0-1.3,21-21.6,11.8c3.1,0.7,6.1,0.5,9.4-2C652.3,141,655.9,136.3,660,134.5z"/>
		<path class="st11" d="M604.6,163.5c-2.1,0.5-3.8,0.8-4.5-0.5c-1.3-2.5,0-6.1,0-6.1s3.3-5.4,10-5.7
			C610.1,151.1,603.6,157.9,604.6,163.5z"/>
	</g>
	<g id="Jason">
		<g>
			<path class="st18" d="M612.2,326.7c0,0,1.7,5.3-1.2,9.5c-2.9,4.2-3.3,10.5,6.6,13.5c9.8,3,21.6,10.1,27.8,11.8
				c6.3,1.8,14.1,1,14.2-4c0,0-0.7-3.7-9.2-7.5c-8.5-3.7-9.9-8.9-15-15.1c-5.2-6.2-5.8-24.4-5.8-24.4l-14.2-5.1L612.2,326.7z"/>
			<path class="st19" d="M649.5,363.4L649.5,363.4c-2.4,1.4-5.6,2.2-8.7,2.5c-6.5,0.4-19.9-2.2-30.2-1.8
				c-10.3,0.4-12.1-5.6-10.7-10.5c1.3-4.9-2-9.3-2-9.3l-0.8-3.8l-3.4-17.2h15.1c0,0,4.6,11.5,10,17.8c0.5,0.6,1,1.1,1.5,1.6
				c0.7,0.6,1.4,1.2,2.1,1.6c6.9,4.1,10,8.5,19.2,9.2c9.2,0.7,11.2,4,11.2,4C653.7,359.8,652.1,361.9,649.5,363.4z"/>
			<path class="st11" d="M585.2,138.6c0.4,6.9-24.5,44.1-37.5,56.2c-2.4,2.2-4.4,3.5-5.7,3.7c-8.9,1.3-17.5-26.1-17.5-26.1
				s15.5-21.1,31.1-35.7c6-5.6,12.1-10.3,17.3-12.3c0,0,2.5,1.3,5.2,3.5C581.3,130.4,584.9,134.2,585.2,138.6z"/>
			<path class="st20" d="M473.8,177.8c0,0-31.5,9.5-36.8,15.5c3.6,7.5,9.2,20.1,13.8,36.5c15.1,52.7,2.8,80.9,15.9,88.3
				c16.2,9.2,61.3-19,74.7-60.8c13.6-42.5-11.8-80.2-15.7-85.8C525.8,171.5,494.5,170.7,473.8,177.8z"/>
			<path class="st12" d="M497.4,187c-4.7-0.6-8.9-1.7-12.4-3c-7.3-2.6-11.7-5.7-11.2-6.2c2.3-2.6,5.4-9.7,4.6-29.6l1.5,0.2l23.6,3.8
				l2.2,0.4c0,0-0.1,3.2-0.1,7.4c0,2.5,0,5.4,0.1,8.3c0.2,6.4,1.4,12.3,2.2,13.7C508.9,183.8,516,189.5,497.4,187z"/>
			<path class="st11" d="M505.7,160.1c0,0-19.2,7-20.6,24c-7.3-2.6-11.7-5.7-11.2-6.2c2.3-2.6,5.4-9.7,4.6-29.6l1.5,0.2l23.6,3.8
				C504.1,155.6,505.7,160.1,505.7,160.1z"/>
			<path class="st11" d="M509.8,160.1c0,0-1.4,0-3.7,0c-8.8-0.4-30.4-3.1-30.7-19.9c-0.4-21.2-5.1-35.3,16.6-36.9
				c6.8-0.5,11.9-0.1,15.7,1c8.4,2.3,10.9,7.6,12.2,12.4C521.7,123.6,518.6,159.2,509.8,160.1z"/>
			<g>
				<path class="st21" d="M478.3,199.2c0,0,60-1.2,90.7,2.6c0,0,15.3,24.6,1.2,74.5c0,0-49.3,6.9-72.4,5.2c0,0-9.4-23.2-11.9-48.2
					C483.3,208.4,478.3,199.2,478.3,199.2z"/>
				<path class="st22" d="M478.3,199.2c0,0-4.6,20.8-2,43.4c2.4,20.9,21.4,38.9,21.4,38.9S492.2,216.3,478.3,199.2z"/>
			</g>
			<path class="st20" d="M467.1,286.4c14.7-2.2,36.6-8.2,58.7-24.5l-5.4-13.4c0,0-29.1,3.4-50.1,13.2c0,0,0,0,0,0
				c-0.4-23-3.9-54.3-6.3-58.3c0-0.1-0.1-0.1-0.1-0.2c-4.2-6.2-26.7-9.9-26.7-9.9s-12.8,43.8,12.2,94.3c0,0,0,0,0,0
				c0.4,0,5.1,0.3,12.5-0.5C463.7,286.9,465.5,286.7,467.1,286.4C467.1,286.4,467.1,286.4,467.1,286.4z"/>
			<path class="st23" d="M481.6,315.6c0,0,32.1,44.5,67.3,38.9c35.2-5.6,74.5-143.8,74.5-143.8s-16.1-23-45.3-7.3
				C548.9,219,481.6,315.6,481.6,315.6z"/>
			<path class="st24" d="M581.3,206.9c0,0,24,124.7,34.1,128c10.6,3.4,20.9-3.6,20.9-3.6s10.5-125.8-25.8-129.8
				C574.3,197.4,581.3,206.9,581.3,206.9z"/>
			<path class="st25" d="M470.3,261.7c0.2-0.1,0.5-0.3,0.9-0.5c5.1-2.8,9.6-4.1,12.7-4.8c7-1.7,32-7.5,32.3-6.3
				c0.2,0.8-10.1,4-49.8,13.8c-3.8-16.5-7.6-33-11.3-49.5c0,0,1.4-9.6,8.8-11.1c0,0.1,0.1,0.1,0.1,0.2
				C466.4,207.3,469.8,238.7,470.3,261.7z"/>
			<path class="st26" d="M605.7,210.7c0,0-6.7,23.7-17.1,51.9c-3,8-6.2,16.5-9.7,24.8c-3.2,7.8-6.7,15.4-10.3,22.7
				c-11.6,23.5-24.8,42.4-37.3,44.4c-6.6,1.1-13.1,0.3-19.3-1.5c-13.8-4.1-26.1-13.9-34.8-22.4c-8.2-8.1-13.2-15-13.2-15
				s48.3-69.2,80.8-99.9c0,0,0,0,0,0c5.9-5.6,11.2-9.9,15.7-12.3C589.6,187.7,605.7,210.7,605.7,210.7z"/>
			<path class="st18" d="M649.5,363.4c-2.4,1.4-5.6,2.2-8.7,2.5c-6.5,0.4-19.9-2.2-30.2-1.8c-10.3,0.4-12.1-5.6-10.7-10.5
				c1.3-4.9-2-9.3-2-9.3l-0.8-3.8c0.8-2.7,1.4-4.6,1.4-4.6l12.5,0.3l7.9,4.9l2,1.2c0,0-0.2,0.1-0.5,0.4c-1.5,1.2-5.7,5.5-2,10.4
				c4.4,5.8,16,7.2,19.4,9.4C641.1,364.5,647.4,363.7,649.5,363.4z"/>
			<path class="st24" d="M588.6,262.6c-3,8-6.2,16.5-9.7,24.8c-3.2,7.8-6.7,15.4-10.3,22.7c-13.4-37.7,2.9-79.5,3.5-79.9
				L588.6,262.6z"/>
			<path class="st26" d="M563.7,206.9c0,0,13.2,86.1,33.6,139.1c0,0,7.3,1.2,13.3,0c4.1-0.8,10.2-3.8,10.2-3.8s8.4-136.8-27.9-140.8
				C556.7,197.4,563.7,206.9,563.7,206.9z"/>
			<path class="st24" d="M511.9,353c-5.3-0.6-26.2-3.6-40.2-21.4c-5.6-7.1-8.3-14.3-9.8-19.5c10.1-11.6,20.2-23.2,30.2-34.9
				c17.6-20.4,35.1-40.9,52.6-61.5C544,216.7,487,298.2,511.9,353z"/>
		</g>
		<path class="st27" d="M484.1,98.6"/>
		<g>
			<path class="st14" d="M526.3,106.2c-1.2-3.2-2.4-5.4-3.9-7.2c-2.7-3.2-6.8-6-13.8-7.7c-3.9,3.5-8.1,7.9-12.1,13.2
				c-3.2,4.2-5.7,8.2-7.8,11.9c-0.7,1.2-1.4,2.5-2,3.8c-5.4,11.9-3.9,24.3-1.5,33.1c4.8,3.7,11.6,5.3,18.7,7.1c3.3,0.8,6,1.3,8,1.6
				c1,0.1,2.6,0,4.2-0.8c3.7-1.9,4.6-6.6,5.1-8.7C526.3,127.7,530.9,119.1,526.3,106.2z"/>
			<path class="st28" d="M486.7,120.2c0.6-1.3,1.3-2.6,2-3.8c2.1-3.7,4.6-7.7,7.8-11.9c4.1-5.3,8.3-9.7,12.1-13.2
				c-0.7-0.2-1.4-0.3-2.1-0.5c-23.8,4.9-29.1,16.3-29.3,42.8c-0.1,7.3,1.9,12.7,5,16.8c0.9,1.1,1.9,2.1,3,3
				C482.8,144.4,481.3,132,486.7,120.2z"/>
		</g>
		<path class="st29" d="M516.9,137.4c-1.3-2.1-2.7-3.9-3.9-5.5c0.8,1.8,1.7,3.9,2.4,6.4c0.5,1.6,0.8,3.1,1,4.4
			c1.1-0.1,2.3-0.1,3.4-0.2C519,140.9,518,139.2,516.9,137.4z"/>
		<path class="st29" d="M491.9,131.8c2-1.4,3.9-2.6,5.7-3.6c-1.5,1.3-3.1,3-4.6,5c-1,1.3-1.9,2.5-2.6,3.7c-1-0.5-2.1-1-3.1-1.5
			C488.7,134.2,490.2,133,491.9,131.8z"/>
		<path class="st13" d="M500.5,108.8c-0.5,0-0.8,0.4-0.8,0.8s0.4,0.8,0.8,0.8s0.8-0.4,0.8-0.8S501,108.8,500.5,108.8z"/>
		<path class="st13" d="M503.6,110.6c-0.5,0-0.8,0.4-0.8,0.8s0.4,0.8,0.8,0.8c0.5,0,0.8-0.4,0.8-0.8S504.1,110.6,503.6,110.6z"/>
		<path class="st13" d="M508.7,110.6c-0.5,0-0.8,0.4-0.8,0.8s0.4,0.8,0.8,0.8c0.5,0,0.8-0.4,0.8-0.8S509.1,110.6,508.7,110.6z"/>
		<path class="st13" d="M511.6,108.3c-0.5,0-0.8,0.4-0.8,0.8s0.4,0.8,0.8,0.8s0.8-0.4,0.8-0.8S512.1,108.3,511.6,108.3z"/>
		<path class="st13" d="M512.3,104.9c-0.5,0-0.8,0.4-0.8,0.8s0.4,0.8,0.8,0.8c0.5,0,0.8-0.4,0.8-0.8S512.8,104.9,512.3,104.9z"/>
		<path class="st13" d="M512.7,101.7c-0.5,0-0.8,0.4-0.8,0.8c0,0.5,0.4,0.8,0.8,0.8s0.8-0.4,0.8-0.8
			C513.5,102.1,513.2,101.7,512.7,101.7z"/>
		<path class="st13" d="M500.4,105.1c-0.5,0-0.8,0.4-0.8,0.8s0.4,0.8,0.8,0.8c0.5,0,0.8-0.4,0.8-0.8S500.9,105.1,500.4,105.1z"/>
		<path class="st13" d="M501.3,101.3c-0.5,0-0.8,0.4-0.8,0.8s0.4,0.8,0.8,0.8c0.5,0,0.8-0.4,0.8-0.8S501.7,101.3,501.3,101.3z"/>
		<path class="st29" d="M506.5,116.7l10.1-5.1l-9.6,2.6c-2.8-0.7-5.5-1.4-8.3-2C501.3,113.7,503.9,115.2,506.5,116.7z"/>
		<path class="st13" d="M516.1,117.6c-1.6,0.1-3.9,0.2-4.7,1.6c-1.1,2.1,1.6,7.1,5.4,7.3c3.7,0.2,6.9-4.5,6-6.8
			C521.9,117.3,516.7,117.6,516.1,117.6z"/>
		<path class="st13" d="M496.5,115.6c1.6,0.1,3.9,0.2,4.7,1.6c1.1,2.1-1.6,7.1-5.4,7.3c-3.7,0.2-6.9-4.5-6-6.8
			C490.7,115.3,495.8,115.5,496.5,115.6z"/>
		<path class="st13" d="M507.7,134.3c-0.2-1-2.1-1.4-2.6-1.5c-0.6-0.1-2-0.4-2.5,0.3c-0.6,0.9,0.3,3.4,2,3.7
			C506.2,137.1,507.9,135.4,507.7,134.3z"/>
		<path class="st30" d="M499.4,132.9c0.2-0.6,0.7-2,2-3.2c0.5-0.4,1.9-1.6,4-1.5c2.7,0.2,4.1,2.4,4.2,2.6c1,1.6,0.8,3.2,0.8,3.7
			c-0.2-0.3-2-3.2-5.6-3.5C501.8,130.9,499.7,132.6,499.4,132.9z"/>
		<path class="st13" d="M499.4,137.6c-0.5,0-0.8,0.4-0.8,0.8c0,0.5,0.4,0.8,0.8,0.8s0.8-0.4,0.8-0.8
			C500.2,137.9,499.8,137.6,499.4,137.6z"/>
		<path class="st13" d="M499.6,142c-0.5,0-0.8,0.4-0.8,0.8c0,0.5,0.4,0.8,0.8,0.8c0.5,0,0.8-0.4,0.8-0.8
			C500.5,142.4,500.1,142,499.6,142z"/>
		<path class="st13" d="M499.6,146.4c-0.5,0-0.8,0.4-0.8,0.8c0,0.5,0.4,0.8,0.8,0.8c0.5,0,0.8-0.4,0.8-0.8
			C500.5,146.8,500.1,146.4,499.6,146.4z"/>
		<path class="st13" d="M502.8,146.8c-0.5,0-0.8,0.4-0.8,0.8c0,0.5,0.4,0.8,0.8,0.8s0.8-0.4,0.8-0.8
			C503.6,147.1,503.2,146.8,502.8,146.8z"/>
		<path class="st13" d="M503.9,142.3c-0.5,0-0.8,0.4-0.8,0.8c0,0.5,0.4,0.8,0.8,0.8c0.5,0,0.8-0.4,0.8-0.8
			C504.7,142.7,504.3,142.3,503.9,142.3z"/>
		<path class="st13" d="M505.4,138.4c-0.5,0-0.8,0.4-0.8,0.8c0,0.5,0.4,0.8,0.8,0.8c0.5,0,0.8-0.4,0.8-0.8
			C506.3,138.7,505.9,138.4,505.4,138.4z"/>
		<path class="st13" d="M509.8,141.2c-0.5,0-0.8,0.4-0.8,0.8c0,0.5,0.4,0.8,0.8,0.8c0.5,0,0.8-0.4,0.8-0.8
			C510.6,141.6,510.3,141.2,509.8,141.2z"/>
		<path class="st13" d="M493.9,140c-0.5,0-0.8,0.4-0.8,0.8c0,0.5,0.4,0.8,0.8,0.8s0.8-0.4,0.8-0.8C494.7,140.4,494.3,140,493.9,140z
			"/>
		<path class="st13" d="M490.2,143.4c-0.5,0-0.8,0.4-0.8,0.8c0,0.5,0.4,0.8,0.8,0.8c0.5,0,0.8-0.4,0.8-0.8
			C491,143.7,490.7,143.4,490.2,143.4z"/>
		<path class="st13" d="M511.9,144.9c-0.5,0-0.8,0.4-0.8,0.8c0,0.5,0.4,0.8,0.8,0.8c0.5,0,0.8-0.4,0.8-0.8
			C512.7,145.3,512.4,144.9,511.9,144.9z"/>
		<path class="st11" d="M585.8,137.9c0,0-8.4-0.5-18.9-1.2c-3.4-0.2-7.1-0.5-10.8-0.7c-13.2-0.9-26.2-1.8-28.4-2.1l-2.7-10.7
			c0,0,44-10.3,50.9-7.1c4.7,2.2,7.6,4.9,9.2,7.7C589.2,130.7,585.8,137.9,585.8,137.9z"/>
		<path class="st20" d="M585.8,137.9c0.4,6.9-24.5,44.1-37.5,56.2c-0.8,1.1-3,4.1-6.7,4.9c-5.2,1.1-9.5-2.9-11.2-4.4
			c-8.6-7.9-6.3-21.8-5.9-23.7c5-8.2,9.6-13.5,13-17c3.9-3.9,7.4-8.4,11.7-11.9c2.2-1.7,3.7-2.7,3.4-3.7c-0.8-3.2-21.5,1.6-24.1-4.3
			c-0.4-0.8-0.2-3,0.3-7.2c0.3-3.2,0.5-4.7,0.9-5.6c1.8-3.7,8.5-3.5,16.5-4c19.8-1.2,25.1-5.1,32.7-0.5c2.7,1.6,4.5,3.6,5.5,4.9
			c1.1,1.9,3.2,6.4,2.5,11.9C586.8,135.2,586.3,136.7,585.8,137.9z"/>
		<path class="st11" d="M525,123.2c0,0-13.8-2-17.7-1.1c-3.9,0.9-17.4,6.6-16.7,9.2c0.7,2.6,10.8,7.3,15,6.5
			c4.1-0.8,7.5-0.4,12.8-1.6c5.3-1.2,9.3-2.3,9.3-2.3L525,123.2z"/>
		<path class="st31" d="M480.8,108.7c-1.7,2.7-3.5,5.4-5.2,8.1c0,0.4-0.1,0.8-0.1,1.2c-0.2,2.6-0.2,5,0,7.2c0.2-1.5,0.5-2.5,0.8-3.1
			c0.1-0.2,0.2-0.5,0.6-1.2c0.3-0.7,0.5-1,0.7-1.3c0.2-0.4,0.4-0.6,0.5-0.7c0.3-0.4,0.5-0.5,0.6-0.6c0.5-0.5,0.5-1.3,0.5-2.1
			c0-1,0.3-1.9,0.5-2.8C479.8,112.2,480.1,110.6,480.8,108.7z"/>
	</g>
	<g id="S_x26_A">
		<path class="st13" d="M439.9,401c0.2,6.5-3.6,11.8,3.1,14.8c10,4.4,14.3,8.9,21.8,11.1c7.5,2.2,18.7,5.5,12.8-5.9
			c-5.9-11.4-10-21.8-10-21.8L439.9,401z"/>
		<path class="st32" d="M492.8,382.9c0.9,6.5-2.2,12.2,4.8,14.3c10.4,3.1,15.4,7.2,22.9,8.3c7.5,1.1,19.3,3.3,12.2-7.3
			c-7.2-10.6-12.6-20.6-12.6-20.6L492.8,382.9z"/>
		<path class="st28" d="M523.1,320.3c-1.2-4.7-3.7-8.9-7.2-12.3c-3.5-3.4-7.8-5.7-12.5-6.9l-9.8-2.3c-7.6-53.3,1.1-64-39.6-81
			l-34-5.6c0,0-34.7-3.9-49.7,11.7l10.3,60.6c0,0-12.3,37.9-11.5,57.9h45.2l11.2,64.8c74-1.4,112.2-30.5,112.2-30.5L523.1,320.3z"/>
		<path class="st33" d="M447.5,327.9c-1.9-10.6-1.7-14.6-15-15.9l-20.7-1.9l1.6-4.1l44.6-1.9l-32.4-30.8l-46.6,7.9
			c-1.5,5.8-2.3,11.8-2.5,17.8c-5.5,3.4-4.2,7.8-3.1,12.2c-2.5,10.7-4.5,22.6-4.2,31.2h45.2c0.3,14,4.5,22.9,5.3,31.9
			c0.8,9,4.1,33,4.1,33c12.5-0.3,25-1.4,37.4-3.1L447.5,327.9z"/>
		<path class="st34" d="M381.5,298.9l44.1,3c0,0-11.5-3.3-22.3-5.1c-6.5-1.3-13-2.1-19.6-2.6c-1.7,0-2.5,1.4-3.1,3.4
			c0,0.2-0.1,0.3,0,0.5c0,0.2,0.1,0.3,0.2,0.4c0.1,0.1,0.2,0.2,0.3,0.3C381.1,298.9,381.3,298.9,381.5,298.9z"/>
		<path class="st35" d="M440,306.9c16.7,4.7,18.8,5.6,27.3,19c8.4,13.4,8.7,12.6,15.6,5.8c6.9-6.9,16.5-17.1,19.8-21
			c3.3-3.9-0.2-4.7-22-7.6C458.9,300,429.1,303.8,440,306.9z"/>
		<path class="st36" d="M390.8,261.2c3.1-5.9,5.4-12.2,6.7-18.7c1.2-4.8,4.5,1.6,1.9,9.8c-1.8,5.5-5.1,10.3-9.3,14.2L390.8,261.2z"
			/>
		<path class="st36" d="M380.6,216.8c24.7,40,55.1,57.9,70.3,50.3c13.1-6.6,13.6-31.5,13.5-39.7c-12.2-7.7-45.6-26.3-76.3-14.2
			C385.6,214.2,383.1,215.4,380.6,216.8z"/>
		<path class="st37" d="M403.3,220.1c8.8,9,17.5,13.8,23.1,16.3c9.9,4.4,20.6,9.2,28.9,4.1c7.2-4.4,8.8-13.9,9.2-17.1
			C444.1,222.3,423.7,221.2,403.3,220.1z"/>
		<path class="st14" d="M489.9,265.3c-2.3-22.4-5-32.2-25.5-42.8c4.1,14.3,3,42.8,3,42.8H489.9z"/>
		<path class="st38" d="M471.2,246.7c-0.8,5.8-2.2,11.5-4.1,17l3.6,0.5c1.9-5.5,3.3-11.2,4.4-17
			C475.9,240.7,472.3,239.6,471.2,246.7z"/>
		<path class="st39" d="M476.2,256.9c3.9-11.8,13.7-16.5,24.8-16.2l-11.1,16.2H476.2z"/>
		<path class="st40" d="M434.1,246.6c29.8-10.1,43,8.4,43,8.4c3.4-4.6,8-8,13.4-10c5.3-2,11.1-2.4,16.7-1.2l5,9l-45,17.6
			L434.1,246.6z"/>
		<path class="st41" d="M476.6,261.4l0.5-4.5l5.5,3.3L476.6,261.4z"/>
		<path class="st42" d="M430.8,245.3l-20.4,53.3l49.8,13.9h3.3l34.7-16.2l19.5-47.8l-1.7-1.9L479,260L430.8,245.3z"/>
		<path class="st43" d="M517.8,248.5l-37.2,13.7l-17,50.3l34.1-14.3L517.8,248.5z"/>
		<path class="st44" d="M430.1,247.5l47,14.6l-16.8,50.3l-49.8-13.9L430.1,247.5z"/>
		<path class="st45" d="M420.1,266.5c4.4,0.8,8.7,2,10.4,2.5c1.7,0.5,2.3,0.8,1.7,2.8c-0.6,2-0.6,1.9-4.4,1.6l-8.7-0.5L420.1,266.5z
			"/>
		<path class="st14" d="M380.7,284.4c6.4,0.9,14.6,1.4,22,2c0.2-3,0.8-5.9,1.9-8.7c1.7-4.6,4-9,6.9-13.1c-5.8-1.2-12.8-2.6-18.5-3.6
			c2.5-28.8-10.6-46.3-19.9-39.4c-4.5,3.3-7.5,8.1-8.6,13.6c-0.8,4.2-1.2,11.4-1.7,12.9c-1.4,5.1-5.3,6.2-2,16.5
			C362.3,269.8,356.4,281.2,380.7,284.4z"/>
		<path class="st46" d="M408.1,263.9l-5.9-1.1c-3-0.6-4.4-0.3-2.6,0.6c1.7,0.9,1.9,1.7-2.6,2.3c-4.5,0.6-4.1,3-2.6,4.1
			c1.4,1.1,2.3,2.8-1.1,3.9c-3.4,1.1-4.1,2.6-2,3.9c2,1.2,3.1,2.8-0.3,3.9s-3,3,0,4.1l7.8,0.5L408.1,263.9z"/>
		<path class="st47" d="M402.6,286.5c0.5-4.7,1.6-11.2,8.7-21.8l10.9,2.3l-1.4,5.3l7,4.8c2.3,1.7,2.3,2.2,1.9,3.3
			c-0.4,0.8-1,1.5-1.7,2c-0.5,0.5-1.7-0.3-3.6-0.9l-5.3-1.7c-0.9-0.3-1.1,0.3-0.5,0.8c0.6,0.5,5,2.6,5.9,3.3
			c0.9,0.6,1.1,0.9,0.8,1.7c-0.3,0.8-0.8,2.3-2.3,2.2c-1.6-0.2-7.2-1.9-7.2-1.9C412.1,287.4,407.3,286.8,402.6,286.5z"/>
		<path class="st38" d="M392.8,261.1c-4.2,0.2-11.2,3.4-16.4,7c-5.1,3.6-6.2,1.1-4.5-1.6c1.7-2.6,8.1-4.1,14.2-5.5
			c6.1-1.4,6.9-1.1,6.9-1.1L392.8,261.1z"/>
		<path class="st38" d="M387.5,260.8c2-0.3,3.3-2.3-0.5-3.4l-8.7-2.5c-1.1-0.2-2-3.4,1.9-2.5c3.9,0.9,12.9,5.6,12.9,5.6
			s2.5,2.3-0.3,3.1L387.5,260.8z"/>
		<path class="st48" d="M422.3,273.2l-3-2l0.6-1.4l3.4,3.4H422.3z"/>
		<path class="st48" d="M418.7,280.5l-1.9-0.9l0.9-0.9l1.4,1.1L418.7,280.5z"/>
		<path class="st49" d="M405.3,263.4c-4.5,3.9-9.7,10.9-10.1,22.3l7.5,0.8c0.2-3,0.8-5.9,1.9-8.7c1.7-4.6,4-9,6.9-13.1L405.3,263.4z
			"/>
		<path class="st50" d="M365.1,255.9c0.2-0.4,0.6-0.8,1.1-1c0.5-0.2,1-0.2,1.4-0.1c2.7,0.6,5.4,1.5,7.9,2.5c1.6,0.9-4.4,2.6-9,3.6
			C361.8,261.8,362.8,260.1,365.1,255.9z"/>
		<path class="st51" d="M415.7,279.9c-1.2-1.4-1.4-2.8,0.6-3.7c2-0.9,1.9-2.5,1.1-3.6c-0.8-1.1-2.3-2.8,0.5-3.7
			c2.8-0.9,1.6-2.5-0.6-3h-0.2l-5.8-1.2c-5.1,7.6-7.2,13.1-8.1,17.3c0.2,0,9.5,1.1,11.5,0.6C416.8,282.1,417.1,281.2,415.7,279.9z"
			/>
		<path class="st52" d="M414.3,342.4c-2.2-12.9-2.5-15.4-3-17.1c-0.5-1.7-3.7,12.6-3.9,17.1H414.3z"/>
		<path class="st53" d="M439.1,333.8c-2.3,18.5-5.6,38.5-7,48.9c-1.4,10.4-3.4,2.6-5.1-5.5c-1.7-8.1-1.2-11.1,3.1-25.9
			C434.4,336.6,440.3,323.5,439.1,333.8z"/>
		<path class="st54" d="M463.6,326.2c10.9,16,29.1,42.2,32.7,49.1c3.6,6.9-0.6,3-7.5-2.2c-6.9-5.1-7.9-6.5-12.5-14.2
			C471.8,351.3,457.5,317.1,463.6,326.2z"/>
		<path class="st35" d="M511.8,313.7c-3.7,14.3-10,32.4-11.5,37.9c-1.6,5.5-7.6,3.6-12.5,1.2c-4.8-2.3-2.8-1.2,0.8,3.3
			c2.9,3.4,6.6,6,10.7,7.6c2.5,0.9,6.7,3.7,9-12C510.8,336,513.9,306.4,511.8,313.7z"/>
		<path class="st55" d="M525.9,374c-1.1,9-9.2,6.5-13.4,3.7c-4.2-2.8-9.7-1.9-11.4,7.3c-0.8,3.9-4.7,7.5-10.7,2.6
			c-6.1-4.8-10.7-3.3-11.8,3.1c-1.1,6.4-6.4,7.9-11.7,1.9c-5.3-6.1-11.8-3.1-13.4,4.5c-1.6,7.6-8.6,5.9-12.2-0.3
			c-3.6-6.2-9.8-3.4-10.9,3.4c-1.1,6.9-6.7,2.6-7.5,0.3l0.8,6.7c6.7-0.2,13.6-0.5,20.3-1.1c61.8-5.3,93.8-29.6,93.8-29.6l-1.1-4.8
			C534.7,365.1,527.1,365,525.9,374z"/>
		<path class="st56" d="M458.4,389.9c-2.3,0.9-4.2,3.6-5,7.3c-1.2,6.2-8.6,5.9-12.2-0.3c-3.6-6.2-9.8-3.4-10.9,3.4
			c-1.1,6.9-6.7,2.6-7.5,0.3c0.3,2.8,0.6,5,0.8,5.9v0.8c12.5-0.3,25-1.4,37.4-3.1L458.4,389.9z"/>
		<path class="st34" d="M380.1,312c0.9,2.3,2.3,1.2,4.8,0.6c7.6-2.2,15.4-5.3,18.8-5.6c3.4-0.3,4.7-1.7-2.3-1.6
			c-7,0.2-17,0.6-20.1,0.9C378.2,306.7,378.5,308.1,380.1,312z"/>
		<g>
			<path class="st57" d="M390.4,200.5c-0.1-1.5-0.2-3.1-0.4-5C390,197.2,390.2,198.9,390.4,200.5z"/>
			<path class="st51" d="M485.1,161.5c-1.6-2.5-15.8-24.7-41.9-25.2c-2.7,0-5.3,0.2-7.9,0.6c-4.4,5.2-12.1,15.7-15.6,31.2
				c-0.7,3.3-3.8,17.8,1,35.7c3.8,14.3,10.8,24.5,15.8,30.5c4.8,0.2,9,0.1,12.1,0c9.4-0.3,21.1-0.9,30.8-9.4
				c9.1-8.1,11.3-18.7,12.5-24C492.7,196.9,495.9,179,485.1,161.5z"/>
			<path class="st57" d="M419.7,168.1c3.5-15.5,11.2-26,15.6-31.2c-20.3,3.4-34.5,20.6-40.5,35c-1,2.4-5,12.2-4.8,23.6
				c0.1,1.9,0.2,3.5,0.4,5c0.6,5,2.2,10.1,5.3,15c9.4,14.9,27.4,18.3,40.9,18.8c-5-6-12.1-16.2-15.8-30.5
				C415.9,185.9,419,171.4,419.7,168.1z"/>
			<path class="st47" d="M419.7,168.1c3.5-15.5,11.2-26,15.6-31.2c-20.3,3.4-34.5,20.6-40.5,35c-1,2.4-5,12.2-4.8,23.6
				c0.1,1.9,0.2,3.5,0.4,5c0.6,5,2.2,10.1,5.3,15c9.4,14.9,27.4,18.3,40.9,18.8c-5-6-12.1-16.2-15.8-30.5
				C415.9,185.9,419,171.4,419.7,168.1z"/>
		</g>
		<linearGradient id="SVGID_1_" gradientUnits="userSpaceOnUse" x1="437.4787" y1="124.2112" x2="437.4787" y2="124.2112">
			<stop  offset="0" style="stop-color:#61C7C7"/>
			<stop  offset="1" style="stop-color:#54B9C7"/>
		</linearGradient>
		<path class="st58" d="M437.5,124.2"/>
		<path class="st14" d="M419,135.1c-0.7,0.1-1,2-1.3,5.2c-0.4,3.2-0.5,4.8,0.3,5.5c1.2,0.9,3.8,0.4,4.7-1.1c0.7-1.1,0.2-2.4-0.7-4.8
			C421.5,138.8,420.1,134.9,419,135.1z"/>
		<path class="st14" d="M466.3,136.9c0.7,0.1,1,2,1.4,5.2c0.4,3.2,0.6,4.8-0.2,5.5c-1.2,1-3.8,0.5-4.7-1c-0.7-1.1-0.3-2.4,0.6-4.8
			C463.8,140.6,465.2,136.7,466.3,136.9z"/>
		<path class="st14" d="M479.2,190c-5.2,15.5-30.6,19.4-47.1,15.9c-4.5-0.9-21.2-4.4-25-15.8c-5.3-15.7,14.8-43.5,38.4-42.2
			C466.8,149.2,484.7,173.9,479.2,190z"/>
		<circle class="st59" cx="442.2" cy="178.3" r="12"/>
		<circle class="st60" cx="442.4" cy="178.1" r="8.3"/>
		<path class="st61" d="M447.1,173.8c0.8,1.1,0.7,2.7,0.2,2.9c-0.3,0.1-0.8-0.4-1.1-0.8c-1-1-1.8-2.7-1.3-3.1
			C445.2,172.5,446.4,173,447.1,173.8z"/>
		<g>
			<path class="st62" d="M478,211.5c-0.3-0.9-1.9-1-4.8-0.8c-0.1,1.1-1.2,2.4-2.3,2.5c-1.2,0.1-2.5-0.9-2.8-2
				c-1,0.1-2.1,0.2-3.2,0.3c0.1,1.5-1.2,3.4-2.4,3.5c-1.2,0.1-2.5-1.6-2.7-3c-0.7,0.1-1.4,0.1-2.2,0.2c0,1.8-1.2,4-2.4,4.1
				c-1.2,0.1-2.6-2-2.7-3.9c-1,0-2,0.1-3,0.1c-0.1,1.8-1.9,3.8-3.7,3.9c-1.9,0.1-4-2.1-4.2-3.9c0,0-0.1,0-0.1,0c-0.1,0-0.2,0-0.3,0
				c-0.2,1.7-1.9,3.7-3.7,3.8c-2,0.1-4.2-2.3-4.2-4.1c-0.9-0.1-1.7-0.1-2.5-0.2c0,1.8-1.2,4-2.4,4c-1.4,0.1-2.9-2.6-2.7-4.5
				c-0.6-0.1-1.3-0.1-1.9-0.2c0,1.5-1.2,3.2-2.4,3.3c-1.5,0.1-3.2-2.4-2.6-3.9c-0.5-0.1-0.9-0.1-1.4-0.2c-0.2,1.1-1.6,2.2-2.8,2.1
				c-1.2-0.1-2.4-1.7-2.3-2.8c-3.2-0.4-5-0.4-5.4,0.6c-0.5,1.2,1.1,3.6,4.2,6.3c12-4.6,34.6,6.8,37.8,8.4c1.8,0.9,3,1.7,3.8,2.3
				C467.7,224,479,214.4,478,211.5z"/>
			<path class="st14" d="M421.3,214.6c1.2-0.1,2.4-1.8,2.4-3.3c-1.8-0.2-3.5-0.4-5-0.6C418.2,212.2,419.9,214.7,421.3,214.6z"/>
			<path class="st14" d="M462.5,215.1c1.3-0.1,2.5-2,2.4-3.5c-1.6,0.2-3.3,0.3-5.1,0.5C460,213.5,461.3,215.1,462.5,215.1z"/>
			<path class="st14" d="M414.6,212.6c1.2,0.1,2.6-1,2.8-2.1c-2-0.3-3.7-0.5-5.1-0.7C412.2,210.9,413.3,212.4,414.6,212.6z"/>
			<path class="st14" d="M470.9,213.2c1.2-0.1,2.3-1.5,2.3-2.5c-1.4,0.1-3.1,0.3-5.1,0.5C468.4,212.3,469.7,213.4,470.9,213.2z"/>
			<path class="st14" d="M428.3,216c1.2-0.1,2.4-2.2,2.4-4c-1.8-0.1-3.5-0.3-5.1-0.5C425.4,213.4,427,216.1,428.3,216z"/>
			<path class="st14" d="M455.2,216.3c1.2-0.1,2.4-2.3,2.4-4.1c-1.6,0.1-3.3,0.2-5.1,0.3C452.6,214.3,454,216.4,455.2,216.3z"/>
			<path class="st14" d="M437.4,216.3c1.8-0.1,3.5-2.1,3.7-3.8c-2.8-0.1-5.5-0.2-7.9-0.3C433.2,214.1,435.5,216.4,437.4,216.3z"/>
			<path class="st14" d="M445.8,216.5c1.8-0.1,3.6-2.1,3.7-3.9c-2.5,0.1-5.1,0.1-7.9,0C441.7,214.4,443.9,216.5,445.8,216.5z"/>
			<path class="st63" d="M411.1,216.7c5.9,5.2,17.2,11.3,29.9,11.8c4.1,0.2,8-0.3,11.8-1.1c-0.8-0.6-2-1.3-3.8-2.3
				C445.7,223.5,423.1,212.1,411.1,216.7z"/>
		</g>
	</g>
	<g id="Layer_5">
	</g>
	<g id="Goku">
		<path class="st64" d="M211.6,168.9c4.7-10.1,4.5-10.6,13.1-13.5l-11.3,16L211.6,168.9z"/>
		<path class="st65" d="M327.3,228.4l-7.6-32.4l-5.3,12.2l-8.1,23.6L327.3,228.4z"/>
		<path class="st66" d="M214.1,168.4l110.2,15c9.4,4.4,12.3,6.2,16.9,17.5l3.4,8.4c3.2,2.6,3.5,3.1,2.6,6.9l-23.8,15.7l13.1,44.6
			l-100.5,12.2l-21.3-47l-32.4-19.5c-0.7-0.4-1.3-1-1.8-1.8c-1.3-2.8-1-5.4,4-7.8c3.1-10.6,2.9-12.5,5.4-20.7
			C195.3,173.5,199.5,168.1,214.1,168.4z"/>
		<path class="st67" d="M305,262.1c-3.3-4.7-4.9-10.4-4.5-16.1c0.6-14.8-6-19.1-8.1-30.1H291l-3.8,0.4c0.4,11.2-5.3,16.7-1.5,31.1
			c1.5,5.6,1.1,11.4-1.2,16.7c-3.2,7.3-2.9,14.8,1.8,20.8l11.6-1.2h1l9-0.9C311.1,276.1,309.9,268.7,305,262.1z"/>
		<path class="st67" d="M325.3,238.1l-34.5-10.6l5.6,30.4l38.6,13.4L325.3,238.1z"/>
		<path class="st67" d="M295.1,254.3l-37-9.5l-2.1,9.5l7.5,6.8l7.6,23.2l-7,0.7l-32.3,6.3l-0.9,4.7l-2.3-3.2c-0.7-0.9-1.1-2-1.4-3.1
			c-0.2-1.1-0.2-2.3,0-3.4l1.6-8.7l-2.8-10h-1.3c-2.9-0.3-2.9-1.2-5.1-5c-3.6-6.3-6.8-12.8-9.4-19.5l4.4-1.6l10.1-21.9
			c42.1,14.5,56.8,20.8,74.7,29.2c17.9,8.4,18.3,8.4,21.6,11S322.5,261.2,295.1,254.3z"/>
		<path class="st68" d="M228.4,175l-16.3,9.1l16.3,20.4l16.1-13.1L228.4,175z"/>
		<path class="st21" d="M260,137.1l-7.6,1.3c-1.8,0.3-3.5,0.9-5,1.9c-1.5,1-2.8,2.3-3.8,3.8l-4.5,7l-14.4,4.3
			c-1.5,0.5-2.9,1.2-4.2,2.2c-1.2,1-2.3,2.3-3,3.7l-3.4,7c0,0,40.1,55.5,71.8,64.6c31.7,9.1,38.4-49.6,38.4-49.6
			c0-0.6-0.2-1.3-0.5-1.8c-0.3-0.5-0.8-1-1.4-1.3l-8.4-4.8l0.7-10.9c0.1-1-0.1-2-0.5-2.9c-0.4-0.9-1-1.7-1.8-2.3l-22.9-17.8
			L260,137.1z"/>
		<path class="st64" d="M235.8,152.1c2.3-5.6,3.4-12.2,17.5-15l10.3-1.5l-0.9,8.4l-19.5,12.9L235.8,152.1z"/>
		<path class="st29" d="M252.4,138.4c-1.8,0.3-3.5,0.9-5,1.9c-1.5,1-2.8,2.3-3.8,3.8l-4.5,7l-14.4,4.3c-1.5,0.5-2.9,1.2-4.2,2.2
			c-1.2,1-2.3,2.3-3,3.7l-3.4,7c9.5,12.7,19.8,24.8,31,36.1l4.4-11.2h26c0,0-3.1-10.7-4.1-15.6c-1-4.8-3.4-7.6,3.8-8.8l-6-30.4
			l-9.1-1.5L252.4,138.4z"/>
		<path class="st69" d="M253.8,152.8c-7-5.3-6.6-4.8-2.6-7.3c2.3-1.6,5.1-2.5,7.9-2.6L253.8,152.8z"/>
		<path class="st29" d="M244.6,157.9c6,9.1,41.7,47.7,47.1,51.4c5.4,3.7-2.2,8.8-2.2,8.8c-10.3-5-20.2-10.8-29.6-17.2
			c-12-8.7-19.2-14.1-22.6-17.3c-3.4-3.2-4.4-6,2.2-1.8c7,4.1,14.5,7.5,22.2,10.1l1.9-2.2l-17.8-25.2L244.6,157.9z"/>
		<path class="st70" d="M303.3,154.6c7.8,6.8,11.7,5-6.8,30.1l-4.4-2.8l-12.8-14.5l16.3-20.4L303.3,154.6z"/>
		<path class="st15" d="M268.6,289l-8.5,43.4h80.6V355h19.1l0.7,15.4h43l-1.6-15.3l6.6-6.2c0.5-0.5,0.9-1.1,1.2-1.8
			c0.3-0.7,0.4-1.4,0.3-2.1l-4-42.4c-0.4-4-1.5-7.8-3.4-11.3s-4.5-6.6-7.6-9s-6.7-4.3-10.5-5.3c-3.8-1-7.8-1.3-11.8-0.7L268.6,289z"
			/>
		<path class="st71" d="M383.7,443.1l-1.2,1c-0.6,0.5-1.1,1.2-1.2,2.1l-0.3,2.1c-0.1,1,0.1,2.1,0.7,2.9c2.8,3.8,5.9,4.7,9.4,5.9
			c4,0.9,7.8,2.8,11,5.4c5.4,4,11.8,6.4,18.5,6.9c7.5,0.6,10.4-2.8,10.3-5.6c-0.1-2.8-4-5.4-4-5.4L383.7,443.1z"/>
		<path class="st72" d="M382.5,435.7c1.2-10.1-4.4-16.1-11.3-29.6c-6.9-13.5-10-29.3-12.5-49.7h36.7c0,0,7.9,49.2,10.1,59.7
			c1.3,6.5,2.1,16.7,9,25.2c9.1,11.4,15.6,16.9,14.1,20.8c-1.5,4-6.6,5.6-16.9,1.5c-2.8-1.2-5.9-3.4-9.5-5.4
			c-3.7-2.1-8.5-3.7-11.4-5.1C383.3,449.5,381.2,447.7,382.5,435.7z"/>
		<path class="st73" d="M411.6,457.7c-5.7-5.9-10.6-10.1-11.4-13.5c-0.9-3.4-1.6-8.8-2.6-13.6c-1-4.8-17.2-48.6-21.6-72.9l-4-1.3
			h-13.2c2.5,20.4,5.6,36.2,12.5,49.7c6.9,13.5,12.5,19.5,11.3,29.6c-1.2,10.1,0.7,13.8,8.2,17.3c2.9,1.5,6.8,2.5,11.4,5.1
			c4.7,2.6,6.8,4.3,9.5,5.4c6,2.3,10.1,2.8,12.9,2.1C419.7,464,415.3,461.3,411.6,457.7z"/>
		<path class="st74" d="M370,357.6c0.7,20.3,6.9,39.3,11.3,47.7c4.4,8.4,8.2,17.3,9.4,35.1"/>
		<path class="st71" d="M409.1,431.3c-0.7-1.8-1.3-3.7-1.6-5.6c-0.7-0.7-1.5-1.3-2.5-1.7c-0.9-0.4-1.9-0.6-3-0.6
			c-4,0.3-6.9,3.2-8.1,8.1c-1.2,4.8-3.1,8.8-5.1,9.5c-2.1,0.7-3.4-0.1-5.7-1.8c-0.1-0.1-0.3-0.2-0.4-0.3c-0.2-0.1-0.3-0.1-0.5,0v3.4
			c1.6,1.1,3.5,1.8,5.4,1.9l2.2-0.3c3.2-1.2,5.4-5,7-11.7c0.9-3.5,2.8-5.6,5.3-5.7C404.7,426.3,407.3,428.2,409.1,431.3z"/>
		<path class="st13" d="M403.5,343.3c-3.7,0.1-10.3,0.4-32.9,4.5l-10.9,9.1l0.3,4.8l26.9,6.2c0,0,9.5-4.5,15.1-11.7v-1l2.2-2.1
			C409.1,344,407.2,343.1,403.5,343.3z"/>
		<path class="st32" d="M360.5,370.4h43l-1.6-15.3l-0.3-4l-16,1c-6.9,0.6-36.1,1-36.1,1l0.6,1.8h9.7L360.5,370.4z"/>
		<path class="st13" d="M357.6,318c14.8-6.2,18.6-7.9,21.7-9c3.1-1,0-3.1-4.5-5.3C370.2,301.6,368.9,303.8,357.6,318z"/>
		<path class="st75" d="M353,230.6l-5.9-14.5l-19.8,12.3L299,218.1v19.4l8.7,3.5c25.5,10.6,30.4,16.9,41.4,15.8
			C360.1,255.8,357.9,242.5,353,230.6z"/>
		<path class="st76" d="M338.2,221.6l6,13.4l-16.4-5.4l-0.4-1.2L338.2,221.6z"/>
		<path class="st71" d="M350.7,444.8l-1.2,1c-0.3,0.2-0.6,0.5-0.7,0.8c-0.2,0.3-0.3,0.7-0.3,1.1l-0.4,2.2c-0.1,1,0.1,2.1,0.7,2.9
			c2.8,3.8,6,4.7,9.4,5.7c4.1,1.1,7.9,3,11.2,5.6c5.4,4.1,11.8,6.4,18.5,6.9c7.3,0.6,10.3-2.8,10.3-5.7c0-2.9-4.1-5.3-4.1-5.3
			L350.7,444.8z"/>
		<path class="st72" d="M349.5,437.5c1.2-10.1-4.4-16.1-11.3-29.6c-6.9-13.5-10-29.5-12.5-49.9h36.7c0,0,8.1,49.3,10.3,59.9
			c1.3,6.5,2.1,16.7,8.8,25.2c9.1,11.4,15.6,16.9,14.1,20.7s-6.6,5.7-16.9,1.6c-3.2-1.6-6.4-3.4-9.4-5.4c-4.8-2.8-8.7-3.7-11.6-5.1
			C350.4,451.3,348.2,449.5,349.5,437.5z"/>
		<path class="st77" d="M378.6,459.5c-5.7-5.9-10.6-10.1-11.3-13.5c-0.7-3.4-1.8-8.8-2.8-13.8c-1-5-17.2-48.6-21.6-72.9l-3.8-1.3
			h-13.4c2.5,20.4,5.6,36.4,12.5,49.9c6.9,13.5,12.5,19.5,11.3,29.6c-1.2,10.1,0.9,13.8,8.2,17.3c2.9,1.5,6.8,2.3,11.6,5.1
			c3,2,6.2,3.8,9.4,5.4c6,2.3,10.3,2.8,13.1,1.9C386.8,465.7,382.3,463.1,378.6,459.5z"/>
		<path class="st74" d="M337,359.3c0.7,20.4,6.9,39.5,11.3,47.7s8.2,17.5,9.4,35.2"/>
		<path class="st13" d="M231.8,291.3l-7.9,41.1h80.4l2.8,14.2c0.3,1.6,1.1,3,2.3,4.2c1.1,1.1,2.6,1.9,4.2,2.3l7.2,1.5l3.5,15.8h43.4
			l-1.8-12.2l5.4-1.9c0.9-0.3,1.7-0.9,2.2-1.7c0.5-0.8,0.7-1.8,0.6-2.7l-4.4-49.3c-0.4-4-1.5-7.8-3.4-11.3s-4.5-6.6-7.6-9
			c-3.1-2.5-6.7-4.3-10.5-5.3c-3.8-1-7.8-1.3-11.8-0.7c0,0-70.4,8.2-84.5,10.3C237.8,288.7,231.8,291.3,231.8,291.3z"/>
		<path class="st78" d="M238.6,301.7c11.8-6.9,24.1-12.9,36.8-18c-3.8-1.6-6.5-1.2-17.8,2.2l-27.4,13.9L238.6,301.7z"/>
		<path class="st79" d="M327.3,228.4l21.3,7.8c0.1,0,0.1,0.1,0.1,0.2c0,0.1,0.1,0.1,0.1,0.2c0,0.1,0,0.1-0.1,0.2
			c0,0.1-0.1,0.1-0.1,0.2l-49.5-16.1v-2.6L327.3,228.4z"/>
		<path class="st80" d="M148.8,321.5l-25.7,6.2l-3.4,4.7h32.6L148.8,321.5z"/>
		<path class="st71" d="M243.3,299.2l-19.8,0.9c-1.5,0.1-3,0.6-4.2,1.6c-1.2,1-2,2.3-2.4,3.8l-6.6,26.9c0.5,0.5,1.3,1.4,2.4,2.1
			c3.9,2.6,7,1.6,16.1,1.9c7.4,0.2,9,1,12.6-0.3c2.7-1,4.7-2.6,5.9-3.7c0.4-9.3,0.9-18.6,1.3-27.9c0-0.7-0.1-1.4-0.4-2
			c-0.3-0.7-0.6-1.2-1.1-1.7c-0.5-0.5-1.1-0.9-1.7-1.1C244.7,299.3,244,299.2,243.3,299.2z"/>
		<path class="st81" d="M235.1,336.5c-0.4-7.1-0.1-16.4,2.7-26.7c1.1-3.9,2.3-7.4,3.7-10.6h-2.1l-16,0.7c-1.5,0.1-3,0.6-4.2,1.6
			c-1.2,1-2,2.3-2.4,3.8l-6.6,26.9c0.8,0.9,2.2,2.2,4.3,3.1c0.8,0.3,2,0.7,5.2,1c3.1,0.2,5,0.1,7.5,0.1
			C229.2,336.4,231.8,336.4,235.1,336.5z"/>
		<path class="st82" d="M314.4,169.5c0,0-0.1,2.5-0.4,5.9c-0.6,5-1.5,9.9-2.8,14.7c-1,4.4-1,4.3-2.5,3.2l-5.1-3.7
			C306.5,185.4,311.8,177.3,314.4,169.5z"/>
		<path class="st22" d="M263.1,193.3l-1.5-1.3c-9.8-8.5-27-26.1-35.1-37.1l12.2-3.7h0.3c8.1,15,22.6,34.3,28.9,42.1l1.2,1.5
			C274.4,200.9,272.3,201.1,263.1,193.3z"/>
		<path class="st83" d="M246.5,151.2l18.9,18.3l3.7,16l-20.8-26.4L246.5,151.2z"/>
		<path class="st69" d="M293.3,178.9l-39.2-27.4l-0.6-0.6c-1.2-1-2.1-0.9,0.3,1.9l38.3,29.1C292.6,180.8,292.9,179.8,293.3,178.9z"
			/>
		<path class="st67" d="M320,221.8c6.9-8.7,12.3-14.1,14.5-15.4s1.9-0.7-1.5,4c-3.4,4.7-9.4,14.4-9.4,14.4L320,221.8z"/>
		<path class="st68" d="M325.3,194.8c0,0-0.1,12.2,0,13.6c0.1,1.5,0.6-0.1,1.6-3.5c1-3.4,1.9-6,2.1-6.9c0.1-0.9,0.4-1.2-1.6-3.1
			C325.3,193,325.3,193,325.3,194.8z"/>
		<path class="st76" d="M350.7,253.6c-3.8-0.2-7.6-1.2-11-2.9c-1.9-0.9-0.7,1.3,2.6,3.4C345.7,256.1,353.3,253.9,350.7,253.6z"/>
		<path class="st84" d="M284.6,239.5l9.8-1.2c2.2,1.9,4.9,3.1,7.8,3.4l13.9,9.2l5.7,3.4c0,0,8.8-6.5,0-32.3
			c-0.7-2.5-1.2-3.1-5.7-2.1l-7.6-2.6l-3.8-5.4c-0.5-0.8-1.2-1.4-2-1.8c-0.8-0.4-1.7-0.7-2.6-0.7h-16.9c-0.6,0-1.1,0.2-1.6,0.6
			s-0.6,1-0.6,1.6c0,0.6,0.1,1.1,0.5,1.6c0.4,0.4,0.9,0.7,1.4,0.8l13.8,2.5l-10.1,5c-0.8,0.4-1.5,1.1-1.8,1.9
			c-0.4,0.8-0.5,1.7-0.4,2.6c0.2,1,0.7,2,1.3,2.8c-2.3,2.2-0.7,5.4-0.7,5.4c-2.8,0.9-3.8,1.5-4.1,3.8
			C280.5,240.4,282.1,240,284.6,239.5z"/>
		<path class="st71" d="M318.1,246.3l-15.8-9.4c-1.5-0.8-2.9-1.7-4.3-2.6c-2.2-1.6-1.9-3.2-0.9-3.5c0.3-0.1,0.6-0.3,0.9-0.5
			c0.3-0.2,0.4-0.5,0.6-0.9c0.1-0.3,0.1-0.7,0.1-1c0-0.3-0.2-0.7-0.4-1c-0.9-2.2-1.3-3.1-0.1-4.3c1.2-1.2,1.9-1.6,1.3-2.3
			s-1.9-2.3-0.9-3.7c1-1.3,2.2-0.9,1.5-3.1c-0.7-2.2-1.5-4.5,0-4.5h-16.9c-0.6,0-1.1,0.2-1.6,0.6s-0.6,1-0.6,1.6
			c0,0.6,0.1,1.1,0.5,1.6c0.4,0.4,0.9,0.7,1.4,0.8l13.8,2.5l-10.1,5c-0.8,0.4-1.5,1.1-1.8,1.9c-0.4,0.8-0.5,1.7-0.4,2.6
			c0.2,1,0.7,2,1.3,2.8c-2.3,2.2-0.7,5.4-0.7,5.4c-2.8,0.9-3.8,1.5-4.1,3.8c-0.3,2.3,1.3,1.9,3.8,1.5l9.8-1.2
			c2.2,1.9,4.9,3.1,7.8,3.4l13.9,9.2l1.9,1.2V246.3z"/>
		<path class="st72" d="M316.2,251l5.7,3.4c0,0,8.8-6.5,0-32.3c-0.7-2.5-1.2-3.1-5.7-2.1l1.9,0.7C320,227.2,321.5,239.8,316.2,251z"
			/>
		<path class="st78" d="M303.3,210.5c1.8,10.1-1.3,21.1-1.3,21.1l7.5,3.5c1-4,0.9-8.8-0.9-17.8l-3.8-5.4
			C304.4,211.3,303.9,210.8,303.3,210.5z"/>
		<path class="st81" d="M285.7,228.8c6.9-3.4,12.6-6.5,12.6-6.5l-0.3-0.9l-12.9,6.6L285.7,228.8z"/>
		<path class="st81" d="M284.9,234.2l12.2-3.5l-0.7-1l-11.7,4L284.9,234.2z"/>
		<path class="st81" d="M296.7,216.5l1.9-0.9l-0.1-1.6l-3.4,2.2L296.7,216.5z"/>
		<path class="st84" d="M318.1,246.3c-0.5,1.6-1.2,3.2-1.9,4.7l5.7,3.4c1.3-1.1,2.2-2.6,2.6-4.3L318.1,246.3z"/>
		<path class="st85" d="M214.6,241.6c-1.5,5.9-3.8,11.6-6.8,16.9c-4.4,7-13.5,21-13.5,21s-12.5,27.1-25.1,41.1l-20.3-4.7
			c0,0,13.6-38.7,18.3-49.9c3.5-8.4,11.7-32.1,15.7-43.4C198.8,229,214.6,241.6,214.6,241.6z"/>
		<path class="st71" d="M181.5,316.6l-4.3,2.8l-10,13.1h-53.4l1.6-2.3c1.3-1.8,3.2-3.1,5.3-3.8l18-5.6l12.6-28.6
			c0.1-0.2,0.4-0.4,0.6-0.4c0.2-0.1,0.5-0.1,0.7,0c11.7,7.2,24.2,17.6,29.1,23.2c0.1,0.1,0.2,0.3,0.2,0.4c0,0.2,0.1,0.3,0,0.5
			c0,0.2-0.1,0.3-0.2,0.5C181.8,316.4,181.6,316.5,181.5,316.6z"/>
		<path class="st86" d="M186.9,261.2c3.7,11.3,4.4,14.5,6.5,11.9c1.7-2,3.1-4.2,4.3-6.5c0.3-0.6,1-2.1-4.4-5.4
			C187.8,257.9,185,255.5,186.9,261.2z"/>
		<path class="st87" d="M181.8,314.8c-4.8-5.6-17.3-16-29.1-23.2c-0.2-0.1-0.5-0.1-0.7,0c-0.2,0.1-0.4,0.2-0.6,0.4l-1.6,4
			c18.6,13.6,27.4,23.3,27.4,23.3l4.3-2.8c0.1-0.1,0.3-0.2,0.4-0.3c0.1-0.1,0.2-0.3,0.2-0.5c0-0.2,0-0.3,0-0.5
			C182,315.1,181.9,314.9,181.8,314.8z"/>
		<path class="st88" d="M155.2,327c-6,2.1-12,4.4-21.3,5.4h33.3l1.8-2.3C169.7,322.4,161.4,324.9,155.2,327z"/>
		<path class="st84" d="M243.3,299.2c-5.3,0.3-6.3,1.9-7.2,9.7c-0.9,7.8-1.3,9.7-1.6,11.4c0,0.2-0.2,0.5-0.3,0.6
			c-0.2,0.2-0.4,0.3-0.7,0.2h-21.3c-0.3,0-0.4-0.3-0.4-0.6l3.8-14.7c0.4-1.7,1.4-3.3,2.8-4.3c1.4-1.1,3.1-1.7,4.9-1.7L243.3,299.2z"
			/>
		<path class="st78" d="M219.8,316.4c-0.1,0.6-0.2,1.2-0.4,1.8c0,0.1,0,0.2,0.1,0.2c0.1,0.1,0.1,0.1,0.2,0.1h6
			c0.2,0,0.4-0.1,0.6-0.2c0.2-0.1,0.3-0.3,0.3-0.5l0.4-1.6c0-0.1,0-0.3-0.1-0.3h-6.2c-0.2,0-0.4,0.1-0.5,0.2
			C220,316.1,219.9,316.2,219.8,316.4z"/>
		<path class="st13" d="M389.1,303.2c3.8,0.8,7.6,1.8,11.3,3.1c1.8,0.7,1.9,0.9-1.2,4.4c-3.1,3.5-3.5,5-6.6,0.1
			C389.6,306,387.1,302.6,389.1,303.2z"/>
		<path class="st89" d="M320.7,354.6l28.6,5.6c4.5,0.9,5.3,1,16.6-1.9l1.8,12.2h-43.4L320.7,354.6z"/>
		<path class="st90" d="M304.3,332.4c13.8-8.2,17.3-10.6,20.3-11.9c2.9-1.3-0.4-3.2-5.1-4.7C314.7,314.4,313.5,316.6,304.3,332.4z"
			/>
		<path class="st90" d="M330.1,339.3c12.9,2.9,23.3,5.3,28.6,6.2c5.3,0.9,3.5-1.3-3.2-6.6c-4.6-3.8-9.5-7.3-14.7-10.4
			c-3.2-1.8-4.1-0.6-9.8,4.3C325.3,337.5,325,338.1,330.1,339.3z"/>
		<path class="st67" d="M212.6,203c12.5,14.2,14.7,19.8,14.7,19.8l-2.6,4.7c0,0-1-2.1-6.5-11C212.7,207.5,205.7,195.2,212.6,203z"/>
		<path class="st71" d="M376.1,432.9c-0.7-1.8-1.2-3.6-1.6-5.4c-0.7-0.7-1.5-1.3-2.5-1.7c-0.9-0.4-1.9-0.6-3-0.6
			c-4,0.3-6.9,3.2-8.1,8.1c-1.2,4.8-3.1,8.7-5.1,9.5c-2.1,0.9-3.4-0.1-5.7-1.8c-0.1-0.3-0.4-0.3-0.7-0.3c-0.1,1.1-0.2,2.2-0.1,3.4
			c1.6,1.1,3.5,1.8,5.4,1.9c0.8,0,1.5-0.1,2.2-0.4c3.2-1.2,5.4-4.8,7.2-11.6c0.7-3.5,2.6-5.6,5.1-5.7
			C371.7,428.1,374.3,429.8,376.1,432.9z"/>
		<path class="st91" d="M301.9,154.9c-1,2-2,4.2-2.9,6.5c-3.2,8-4.8,15.6-5.5,21.9c-5.2-4.1-10.4-8.1-15.5-12.2
			c9.2-9.8,16.5-16.5,19-17.5c0.6-0.2,2-0.8,3.3-0.3C301.1,153.7,301.7,154.5,301.9,154.9z"/>
		<path class="st92" d="M302.1,154.4c-0.4,1.6-1.3,3.9-3,6.3c-2.7,3.7-5.5,4.5-9.3,8c-1.6,1.5-3.7,3.9-5.7,7.4
			c-0.7-0.7-1.8-1.5-3.2-2.4c-1-0.7-1.5-0.8-2.2-1.4c-0.8-0.6-1.7-1.6-2.5-3.4c5.6-5.7,11.1-11.4,16.7-17.1
			C296,152.7,299,153.5,302.1,154.4z"/>
		<g>
			<path class="st93" d="M331.9,138.4c-0.9-0.2-1.8-0.3-2.6-0.4c-0.1,0-0.2,0.1-0.2,0.1C330,138.1,331,138.2,331.9,138.4z"/>
			<path class="st94" d="M245.2,59.6c0.1,0.5,0.2,1,0.3,1.5C245.4,60.6,245.3,60.1,245.2,59.6L245.2,59.6z"/>
			<path class="st94" d="M316.8,32.3l3.9-1.7C319.5,31.2,318.2,31.7,316.8,32.3z"/>
			<path class="st94" d="M388,89.2c-1.2-0.4-2.5-0.8-3.8-1.2C385.5,88.4,386.7,88.8,388,89.2C388,89.2,388,89.2,388,89.2z"/>
			<path class="st94" d="M311.3,151.4c14.4-5.3,28-6.9,39.4-6.9c-2.1-1-4.4-2-7-2.9c-4.2-1.5-8.2-2.6-11.8-3.2
				c-1-0.1-1.9-0.2-2.8-0.3c0.1,0,0.2-0.1,0.2-0.1c-0.4-0.1-0.9-0.1-1.3-0.2c6.4-3.8,12.9-7.6,19.3-11.3c1.6-0.9,3.1-1.7,4.8-2.5
				c11.4-5.7,22.5-9.3,32.8-11.6c-5.7-1.5-12.1-3-19.2-4c-5.6-0.9-10.8-1.4-15.7-1.7c3.2-2,6.4-4.1,9.6-6.1
				c3.7-2.9,9.8-6.9,18.1-9.3c3.4-1,6.5-1.5,9.3-1.8c-11.1-2.2-23.4-4.1-36.6-5.3c-7.8-0.7-15.3-1.1-22.4-1.2
				c-0.1-0.4-0.1-0.7-0.2-1.1c-1.4-3-3.8-6.9-7.6-10.5c-1.5-1.4-2.9-2.5-4.3-3.5c-2.7-2.2-5-2.8-6.6-2.9c-1.9-0.2-3.2,0.3-5.7-0.2
				c-1.8-0.3-3.2-0.9-4.1-1.4c2-5.6,5.9-14.3,13.6-22.8c5.2-5.7,10.5-9.6,14.7-12.1c-7.4,3.3-16.5,8.2-25.8,15.7
				c-5.2,4.2-9.5,8.4-13,12.3c-0.3-5.6,0.2-13.7,4.5-21.7c0.5-1.3,1.1-2.5,1.7-3.7c1.3-1.5,2.7-3,4.2-4.5c3.2-3.7,6.2-5.9,9.8-8.6
				c0.8-0.6,1.6-1.2,2.4-1.8c2.4-1.7,4.8-3.3,7.2-4.7c-8.7,0.4-26.9,2.6-45.1,15.1c-14.7,10.1-22.9,22.4-27.1,30.2
				c-0.6,1.9-1,3.4-1.2,4.5c-1-0.1-2.8-0.5-4.6-1.7c-1.7-1.1-2.7-2.3-3.2-3.1c-2.2-3.4-4.4-7.7-6.3-12.9c-0.3-0.9-0.6-1.9-0.9-2.8
				l-1.7,64.1c0.4,0.3,0.7,0.5,0.9,0.6c-3.2,1-8.7,2.3-15.5,1.3c-3.3-0.5-6.1-1.4-8.3-2.4c-1.4-0.9-3-2-4.7-3.5
				c4.2,5.3,8.8,10.8,14,16.4c5.4,5.7,10.7,10.8,15.9,15.5c1.1,0.7,2.2,1.4,3.4,2.2c6.2,4.3,11.1,8.6,14.8,12.4
				c1,0.8,2.1,1.5,3.1,2.2l-1-0.1c0.6,0.6,1.1,1.2,1.7,1.8c17.1,1,34.2,2,51.3,3c0-0.1,0-0.1,0-0.2
				C306.7,153.2,309,152.3,311.3,151.4z"/>
			<path class="st94" d="M194.3,90.6c-0.3-0.4-0.7-0.8-1-1.2c0.2,0.4,0.4,0.7,0.6,1.1C194,90.5,194.2,90.6,194.3,90.6z"/>
			<path class="st94" d="M252.6,149.7c-1-0.7-2-1.5-3.1-2.2c0.7,0.7,1.4,1.4,2,2.1L252.6,149.7z"/>
			<path class="st94" d="M194.5,92c3,14.4,9.1,22.4,14,27c6.8,6.4,12.8,7.6,22.9,13.9c-5.2-4.7-10.6-9.8-15.9-15.5
				c-5.2-5.6-9.9-11.1-14-16.4c-0.3-0.2-0.5-0.5-0.8-0.7C197.6,97.4,195.7,94.4,194.5,92z"/>
			<path class="st95" d="M247.4,149.1c2.1,1,4.2,1.9,6.3,2.9c-0.2-0.2-0.4-0.4-0.5-0.6c-0.1,0-0.2,0-0.4,0
				C251.2,150.6,249.4,149.9,247.4,149.1z"/>
			<path class="st94" d="M247.4,149.1c2,0.7,3.8,1.5,5.4,2.2c0.1,0,0.2,0,0.4,0c-0.5-0.6-1.1-1.2-1.7-1.8L247.4,149.1z"/>
			<path class="st95" d="M247.4,149.1c2,0.7,3.8,1.5,5.4,2.2c0.1,0,0.2,0,0.4,0c-0.5-0.6-1.1-1.2-1.7-1.8L247.4,149.1z"/>
			<path class="st94" d="M234.7,135.1c-1.2-0.8-2.3-1.5-3.4-2.2c6.3,5.6,12.4,10.4,18.1,14.6C245.8,143.7,240.9,139.3,234.7,135.1z"
				/>
			<path class="st95" d="M234.7,135.1c-1.2-0.8-2.3-1.5-3.4-2.2c6.3,5.6,12.4,10.4,18.1,14.6C245.8,143.7,240.9,139.3,234.7,135.1z"
				/>
			<path class="st94" d="M249.5,147.5c-5.7-4.2-11.9-9-18.1-14.6c-10-6.3-16-7.5-22.9-13.9c-4.9-4.6-10.9-12.6-14-27
				c-0.3-0.5-0.5-1.1-0.7-1.5c0,0,0,0,0.1,0c-0.2-0.4-0.4-0.7-0.6-1.1c-0.6-0.8-1.2-1.6-1.8-2.4c0.4,5.1,1.4,11.5,3.7,18.8
				c2.1,6.6,4.7,12,7.1,16.1c2.7,2.5,6.4,5.4,11,7.9c7.8,4.3,15.1,5.8,20,6.5c-3.3,0.5-7.3,1.4-11.6,3.1c-3.7,1.4-6.9,3-9.4,4.5
				c4.4-0.3,9.5-0.2,15.1,0.4c7.8,0.9,14.5,2.8,20,4.9l4.1,0.4C250.9,148.9,250.2,148.2,249.5,147.5z"/>
			<path class="st95" d="M249.5,147.5c-5.7-4.2-11.9-9-18.1-14.6c-10-6.3-16-7.5-22.9-13.9c-4.9-4.6-10.9-12.6-14-27
				c-0.3-0.5-0.5-1.1-0.7-1.5c0,0,0,0,0.1,0c-0.2-0.4-0.4-0.7-0.6-1.1c-0.6-0.8-1.2-1.6-1.8-2.4c0.4,5.1,1.4,11.5,3.7,18.8
				c2.1,6.6,4.7,12,7.1,16.1c2.7,2.5,6.4,5.4,11,7.9c7.8,4.3,15.1,5.8,20,6.5c-3.3,0.5-7.3,1.4-11.6,3.1c-3.7,1.4-6.9,3-9.4,4.5
				c4.4-0.3,9.5-0.2,15.1,0.4c7.8,0.9,14.5,2.8,20,4.9l4.1,0.4C250.9,148.9,250.2,148.2,249.5,147.5z"/>
			<path class="st94" d="M218.7,90c1.8,4.2,4.8,9.4,9.9,14.6c0,0,0.1,0.1,0.1,0.1c0.1,0.1,0.1,0.1,0.2,0.1l1.7-64.1
				c-1.1-3.7-1.8-7.3-2.3-10.6C222,40,208.2,65.7,218.7,90z"/>
			<path class="st94" d="M230.8,15.2c-0.1,0.1-0.2,0.2-0.3,0.4c0.1,0.1,0.2,0.1,0.2,0.2C230.8,15.6,230.8,15.4,230.8,15.2z"/>
			<path class="st95" d="M230.8,15.2c-0.1,0.1-0.2,0.2-0.3,0.4c0.1,0.1,0.2,0.1,0.2,0.2C230.8,15.6,230.8,15.4,230.8,15.2z"/>
			<path class="st94" d="M226.2,102.1c1.2,1.4,1.8,2,2.4,2.5c-5.1-5.2-8.1-10.4-9.9-14.6c-10.5-24.3,3.3-50.1,9.6-59.9
				c-0.5-3.9-0.6-7.5-0.5-10.6c-4.7,7.1-10.4,17.7-13.5,31.6c-2.7,12.6-2.3,23.4-1.4,30.7c0.5,2.9,1.9,8.1,5.6,13.4
				c1,1.4,2,2.6,3.1,3.7c0.8,0.3,1.7,0.5,2.5,0.8C224.9,100.7,225.6,101.5,226.2,102.1z"/>
			<path class="st95" d="M226.2,102.1c1.2,1.4,1.8,2,2.4,2.5c-5.1-5.2-8.1-10.4-9.9-14.6c-10.5-24.3,3.3-50.1,9.6-59.9
				c-0.5-3.9-0.6-7.5-0.5-10.6c-4.7,7.1-10.4,17.7-13.5,31.6c-2.7,12.6-2.3,23.4-1.4,30.7c0.5,2.9,1.9,8.1,5.6,13.4
				c1,1.4,2,2.6,3.1,3.7c0.8,0.3,1.7,0.5,2.5,0.8C224.9,100.7,225.6,101.5,226.2,102.1z"/>
			<path class="st94" d="M298,12.2c-3,0.5-14.6,2.4-24.1,7.7c-16.9,9.3-24.2,27.3-27.1,36.8c4.2-7.8,12.4-20.1,27.1-30.2
				c18.2-12.5,36.4-14.7,45.1-15.1c0.1-0.1,0.2-0.1,0.3-0.2C313.7,10.8,306.4,10.7,298,12.2z"/>
			<path class="st94" d="M245.2,59.6c0-0.1,0-0.2-0.1-0.3C245.2,59.4,245.2,59.5,245.2,59.6L245.2,59.6z"/>
			<path class="st94" d="M245.5,61.1c0.3-1.1,0.7-2.6,1.2-4.5c-0.6,1.1-1.1,2.1-1.6,3C245.3,60.1,245.4,60.6,245.5,61.1z"/>
			<path class="st95" d="M245.5,61.1c0.3-1.1,0.7-2.6,1.2-4.5c-0.6,1.1-1.1,2.1-1.6,3C245.3,60.1,245.4,60.6,245.5,61.1z"/>
			<path class="st94" d="M246.8,56.6c2.9-9.5,10.2-27.5,27.1-36.8c9.5-5.2,21.1-7.2,24.1-7.7c8.5-1.4,15.8-1.4,21.3-1
				c0.1,0,0.1-0.1,0.2-0.1c-7.9-1.5-22.7-3.1-38.7,3.4c-6.1,2.5-11.1,5.5-14.9,8.4c-2.4,1.9-4.9,4.2-7.3,6.9
				c-9.1,10.4-12.3,24-13.3,29.6c0,0.1,0,0.2,0.1,0.3C245.7,58.7,246.2,57.7,246.8,56.6z"/>
			<path class="st95" d="M246.8,56.6c2.9-9.5,10.2-27.5,27.1-36.8c9.5-5.2,21.1-7.2,24.1-7.7c8.5-1.4,15.8-1.4,21.3-1
				c0.1,0,0.1-0.1,0.2-0.1c-7.9-1.5-22.7-3.1-38.7,3.4c-6.1,2.5-11.1,5.5-14.9,8.4c-2.4,1.9-4.9,4.2-7.3,6.9
				c-9.1,10.4-12.3,24-13.3,29.6c0,0.1,0,0.2,0.1,0.3C245.7,58.7,246.2,57.7,246.8,56.6z"/>
			<path class="st94" d="M194.5,91.7c2.1,3,4.4,6.1,6.9,9.3c1.7,1.5,3.3,2.6,4.7,3.5c2.1,0.9,4.9,1.9,8.3,2.4
				c6.7,1,12.3-0.3,15.5-1.3c-0.2-0.1-0.6-0.4-0.9-0.6l0,0.1l-0.8-0.5c-2,0.2-4.1,0.2-6.4,0.2c-5.3-0.1-10.1-0.8-14-1.7
				c-2.4-1.6-5.1-3.7-7.8-6.3c-2.2-2-4-4.1-5.5-6c-0.1,0-0.3-0.1-0.4-0.1C194.1,90.9,194.3,91.3,194.5,91.7z"/>
			<path class="st95" d="M194.5,91.7c2.1,3,4.4,6.1,6.9,9.3c1.7,1.5,3.3,2.6,4.7,3.5c2.1,0.9,4.9,1.9,8.3,2.4
				c6.7,1,12.3-0.3,15.5-1.3c-0.2-0.1-0.6-0.4-0.9-0.6l0,0.1l-0.8-0.5c-2,0.2-4.1,0.2-6.4,0.2c-5.3-0.1-10.1-0.8-14-1.7
				c-2.4-1.6-5.1-3.7-7.8-6.3c-2.2-2-4-4.1-5.5-6c-0.1,0-0.3-0.1-0.4-0.1C194.1,90.9,194.3,91.3,194.5,91.7z"/>
			<path class="st94" d="M194.5,92c1.2,2.4,3.1,5.4,6.1,8.3c0.3,0.2,0.5,0.5,0.8,0.7c-2.5-3.2-4.8-6.3-6.9-9.3
				C194.5,91.8,194.5,91.9,194.5,92z"/>
			<path class="st95" d="M194.5,92c1.2,2.4,3.1,5.4,6.1,8.3c0.3,0.2,0.5,0.5,0.8,0.7c-2.5-3.2-4.8-6.3-6.9-9.3
				C194.5,91.8,194.5,91.9,194.5,92z"/>
			<path class="st94" d="M193.9,90.5C193.8,90.5,193.8,90.5,193.9,90.5c0.1,0.4,0.4,1,0.7,1.5c0-0.1,0-0.2-0.1-0.3
				C194.3,91.3,194.1,90.9,193.9,90.5z"/>
			<path class="st95" d="M193.9,90.5C193.8,90.5,193.8,90.5,193.9,90.5c0.1,0.4,0.4,1,0.7,1.5c0-0.1,0-0.2-0.1-0.3
				C194.3,91.3,194.1,90.9,193.9,90.5z"/>
			<path class="st95" d="M193.9,90.5C193.8,90.5,193.8,90.5,193.9,90.5c0.1,0.4,0.4,1,0.7,1.5c0-0.1,0-0.2-0.1-0.3
				C194.3,91.3,194.1,90.9,193.9,90.5z"/>
			<path class="st94" d="M228.6,104.6c0.1,0.1,0.2,0.2,0.3,0.3l0-0.1c-0.1,0-0.1-0.1-0.2-0.1C228.6,104.7,228.6,104.6,228.6,104.6z"
				/>
			<path class="st95" d="M228.6,104.6c0.1,0.1,0.2,0.2,0.3,0.3l0-0.1c-0.1,0-0.1-0.1-0.2-0.1C228.6,104.7,228.6,104.6,228.6,104.6z"
				/>
			<path class="st94" d="M228.6,104.6c-0.6-0.5-1.2-1.1-2.4-2.5c-0.5-0.6-1.2-1.5-2-2.4c-0.8-0.3-1.7-0.5-2.5-0.8
				c2.5,2.6,5,4.4,6.7,5.5c-0.1,0-0.2,0-0.3,0l0.8,0.5C228.8,104.8,228.7,104.7,228.6,104.6z"/>
			<path class="st95" d="M228.6,104.6c-0.6-0.5-1.2-1.1-2.4-2.5c-0.5-0.6-1.2-1.5-2-2.4c-0.8-0.3-1.7-0.5-2.5-0.8
				c2.5,2.6,5,4.4,6.7,5.5c-0.1,0-0.2,0-0.3,0l0.8,0.5C228.8,104.8,228.7,104.7,228.6,104.6z"/>
			<path class="st95" d="M228.6,104.6c-0.6-0.5-1.2-1.1-2.4-2.5c-0.5-0.6-1.2-1.5-2-2.4c-0.8-0.3-1.7-0.5-2.5-0.8
				c2.5,2.6,5,4.4,6.7,5.5c-0.1,0-0.2,0-0.3,0l0.8,0.5C228.8,104.8,228.7,104.7,228.6,104.6z"/>
			<path class="st94" d="M231.4,43.5c1.8,5.2,4.1,9.5,6.3,12.9c0.5,0.8,1.6,2.1,3.2,3.1c1.9,1.2,3.6,1.5,4.6,1.7
				c-0.1-0.5-0.2-1-0.3-1.5c-0.1,0.1-0.1,0.2-0.2,0.4c-1.5-0.9-3.5-2.4-5.4-4.5c-2.6-2.9-4-5.9-4.7-7.9c-1.6-5.3-3.1-11.8-3.8-19.3
				c-0.1-0.7-0.1-1.4-0.1-2l-0.4,14.5C230.8,41.6,231.1,42.5,231.4,43.5z"/>
			<path class="st95" d="M231.4,43.5c1.8,5.2,4.1,9.5,6.3,12.9c0.5,0.8,1.6,2.1,3.2,3.1c1.9,1.2,3.6,1.5,4.6,1.7
				c-0.1-0.5-0.2-1-0.3-1.5c-0.1,0.1-0.1,0.2-0.2,0.4c-1.5-0.9-3.5-2.4-5.4-4.5c-2.6-2.9-4-5.9-4.7-7.9c-1.6-5.3-3.1-11.8-3.8-19.3
				c-0.1-0.7-0.1-1.4-0.1-2l-0.4,14.5C230.8,41.6,231.1,42.5,231.4,43.5z"/>
			<path class="st94" d="M230.5,40.7l0.4-14.5c-0.4,0.5-1.4,1.9-2.6,3.9C228.7,33.4,229.4,37,230.5,40.7z"/>
			<path class="st95" d="M230.5,40.7l0.4-14.5c-0.4,0.5-1.4,1.9-2.6,3.9C228.7,33.4,229.4,37,230.5,40.7z"/>
			<path class="st94" d="M228.3,30.1c1.3-2,2.2-3.3,2.6-3.9c-0.3-3.8-0.3-7.3-0.1-10.5c-0.1-0.1-0.2-0.1-0.2-0.2
				c-0.9,1.2-1.8,2.4-2.8,3.9C227.7,22.6,227.8,26.2,228.3,30.1z"/>
			<path class="st95" d="M228.3,30.1c1.3-2,2.2-3.3,2.6-3.9c-0.3-3.8-0.3-7.3-0.1-10.5c-0.1-0.1-0.2-0.1-0.2-0.2
				c-0.9,1.2-1.8,2.4-2.8,3.9C227.7,22.6,227.8,26.2,228.3,30.1z"/>
			<path class="st94" d="M245.2,59.4c0,0.2-0.1,0.4-0.1,0.6c0.1-0.1,0.1-0.2,0.2-0.4C245.2,59.5,245.2,59.4,245.2,59.4z"/>
			<path class="st95" d="M245.2,59.4c0,0.2-0.1,0.4-0.1,0.6c0.1-0.1,0.1-0.2,0.2-0.4C245.2,59.5,245.2,59.4,245.2,59.4z"/>
			<path class="st95" d="M245.2,59.4c0,0.2-0.1,0.4-0.1,0.6c0.1-0.1,0.1-0.2,0.2-0.4C245.2,59.5,245.2,59.4,245.2,59.4z"/>
			<path class="st94" d="M299.5,26.4c-1.5,1.5-2.9,3-4.2,4.5c-0.6,1.2-1.1,2.4-1.7,3.7c0.7-1.3,1.4-2.4,2.2-3.5
				C296.6,30,297.9,28.3,299.5,26.4z"/>
			<path class="st94" d="M289.1,56.3c0.2-6.3,1.3-13.8,4.5-21.7C289.3,42.6,288.8,50.7,289.1,56.3z"/>
			<path class="st95" d="M289.1,56.3c0.2-6.3,1.3-13.8,4.5-21.7C289.3,42.6,288.8,50.7,289.1,56.3z"/>
			<path class="st94" d="M309.3,17.8c-3.6,2.7-6.6,4.9-9.8,8.6c4-4.1,8.2-7.5,12.2-10.4C310.9,16.6,310.1,17.2,309.3,17.8z"/>
			<path class="st95" d="M309.3,17.8c-3.6,2.7-6.6,4.9-9.8,8.6c4-4.1,8.2-7.5,12.2-10.4C310.9,16.6,310.1,17.2,309.3,17.8z"/>
			<path class="st94" d="M311.8,16c-4.1,2.9-8.2,6.3-12.2,10.4c-1.6,1.9-2.9,3.5-3.7,4.7c-0.7,1.1-1.5,2.2-2.2,3.5
				c-3.2,7.8-4.3,15.3-4.5,21.7l0.5-1c2.1-8,6.7-21.2,18-33.2c4.4-4.7,8.9-8.2,12.9-10.9c-0.5,0-1,0-1.5,0.1
				C316.6,12.7,314.2,14.3,311.8,16z"/>
			<path class="st95" d="M311.8,16c-4.1,2.9-8.2,6.3-12.2,10.4c-1.6,1.9-2.9,3.5-3.7,4.7c-0.7,1.1-1.5,2.2-2.2,3.5
				c-3.2,7.8-4.3,15.3-4.5,21.7l0.5-1c2.1-8,6.7-21.2,18-33.2c4.4-4.7,8.9-8.2,12.9-10.9c-0.5,0-1,0-1.5,0.1
				C316.6,12.7,314.2,14.3,311.8,16z"/>
			<path class="st94" d="M318.9,11.3c0.5,0,1.1,0,1.5-0.1c-0.4,0-0.8-0.1-1.3-0.1C319.1,11.2,319,11.3,318.9,11.3z"/>
			<path class="st95" d="M318.9,11.3c0.5,0,1.1,0,1.5-0.1c-0.4,0-0.8-0.1-1.3-0.1C319.1,11.2,319,11.3,318.9,11.3z"/>
			<path class="st94" d="M320.5,11.3c-0.3-0.1-0.7-0.1-1.1-0.2c-0.1,0-0.1,0.1-0.2,0.1C319.6,11.2,320.1,11.2,320.5,11.3z"/>
			<path class="st95" d="M320.5,11.3c-0.3-0.1-0.7-0.1-1.1-0.2c-0.1,0-0.1,0.1-0.2,0.1C319.6,11.2,320.1,11.2,320.5,11.3z"/>
			<path class="st95" d="M320.5,11.3c-0.3-0.1-0.7-0.1-1.1-0.2c-0.1,0-0.1,0.1-0.2,0.1C319.6,11.2,320.1,11.2,320.5,11.3z"/>
			<path class="st94" d="M302.1,44c9.3-7.5,18.4-12.5,25.8-15.7c-2.1,0.6-4.6,1.4-7.2,2.4l-3.9,1.7c-2.1,1-4.2,2.1-6.4,3.4
				c-10.9,6.6-17.5,14.9-21,20.2c0-0.1,0-0.2,0.1-0.3c-0.1,0.2-0.3,0.4-0.4,0.6C292.6,52.4,296.9,48.2,302.1,44z"/>
			<path class="st95" d="M302.1,44c9.3-7.5,18.4-12.5,25.8-15.7c-2.1,0.6-4.6,1.4-7.2,2.4l-3.9,1.7c-2.1,1-4.2,2.1-6.4,3.4
				c-10.9,6.6-17.5,14.9-21,20.2c0-0.1,0-0.2,0.1-0.3c-0.1,0.2-0.3,0.4-0.4,0.6C292.6,52.4,296.9,48.2,302.1,44z"/>
			<path class="st94" d="M289.5,55.7c0-0.1,0.1-0.2,0.1-0.3l-0.5,1C289.2,56.1,289.3,55.9,289.5,55.7z"/>
			<path class="st95" d="M289.5,55.7c0-0.1,0.1-0.2,0.1-0.3l-0.5,1C289.2,56.1,289.3,55.9,289.5,55.7z"/>
			<path class="st95" d="M289.5,55.7c0-0.1,0.1-0.2,0.1-0.3l-0.5,1C289.2,56.1,289.3,55.9,289.5,55.7z"/>
			<path class="st94" d="M350.4,84c13.2,1.2,25.5,3.1,36.6,5.3c0.3,0,0.6-0.1,0.9-0.1c-1.3-0.4-2.5-0.8-3.8-1.3
				c-10-3.1-22.3-5.8-36.5-6.4c-7.1-0.3-13.7-0.1-19.7,0.4c0-0.1-0.1-0.2-0.1-0.3c0.1,0.4,0.1,0.7,0.2,1.1
				C335.1,82.9,342.6,83.3,350.4,84z"/>
			<path class="st95" d="M350.4,84c13.2,1.2,25.5,3.1,36.6,5.3c0.3,0,0.6-0.1,0.9-0.1c-1.3-0.4-2.5-0.8-3.8-1.3
				c-10-3.1-22.3-5.8-36.5-6.4c-7.1-0.3-13.7-0.1-19.7,0.4c0-0.1-0.1-0.2-0.1-0.3c0.1,0.4,0.1,0.7,0.2,1.1
				C335.1,82.9,342.6,83.3,350.4,84z"/>
			<path class="st94" d="M336.1,146.5c5.9-0.9,11.5-1.4,16.7-1.6c-3.4-1.7-7.7-3.6-13-5c-2.8-0.7-5.5-1.2-7.9-1.5
				c3.6,0.7,7.6,1.7,11.8,3.2c2.5,0.9,4.9,1.9,7,2.9c-11.5,0-25.1,1.6-39.4,6.9c-2.4,0.9-4.6,1.8-6.8,2.7c0,0.1,0,0.1,0,0.2
				c0.1,0,0.2,0,0.3,0C313.5,151.3,324,148.3,336.1,146.5z"/>
			<path class="st95" d="M336.1,146.5c5.9-0.9,11.5-1.4,16.7-1.6c-3.4-1.7-7.7-3.6-13-5c-2.8-0.7-5.5-1.2-7.9-1.5
				c3.6,0.7,7.6,1.7,11.8,3.2c2.5,0.9,4.9,1.9,7,2.9c-11.5,0-25.1,1.6-39.4,6.9c-2.4,0.9-4.6,1.8-6.8,2.7c0,0.1,0,0.1,0,0.2
				c0.1,0,0.2,0,0.3,0C313.5,151.3,324,148.3,336.1,146.5z"/>
			<path class="st94" d="M390.2,89.9c-1-0.2-2.1-0.4-3.2-0.6c-2.8,0.3-5.9,0.8-9.3,1.8c-8.3,2.4-14.3,6.4-18.1,9.3
				c-3.2,2-6.4,4.1-9.6,6.1c4.9,0.3,10.1,0.9,15.7,1.7c7,1.1,13.4,2.5,19.2,4c-10.3,2.2-21.4,5.8-32.8,11.6
				c-1.6,0.8-3.2,1.7-4.8,2.5c-6.4,3.8-12.9,7.6-19.3,11.3c0.4,0.1,0.9,0.1,1.3,0.2c8.7-5.4,19-11,30.8-16.1
				c9.3-4,18.2-7.2,26.2-9.6c-5-1.8-11.2-3.5-18.2-4.6c-6.2-1-11.9-1.4-16.7-1.4c3.5-2.4,7.5-4.8,12-7c10-5,19.3-7.7,26.9-9.2
				c-0.7-0.3-1.5-0.5-2.3-0.8c0,0,0,0-0.1,0C388.7,89.5,389.4,89.7,390.2,89.9z"/>
			<path class="st95" d="M390.2,89.9c-1-0.2-2.1-0.4-3.2-0.6c-2.8,0.3-5.9,0.8-9.3,1.8c-8.3,2.4-14.3,6.4-18.1,9.3
				c-3.2,2-6.4,4.1-9.6,6.1c4.9,0.3,10.1,0.9,15.7,1.7c7,1.1,13.4,2.5,19.2,4c-10.3,2.2-21.4,5.8-32.8,11.6
				c-1.6,0.8-3.2,1.7-4.8,2.5c-6.4,3.8-12.9,7.6-19.3,11.3c0.4,0.1,0.9,0.1,1.3,0.2c8.7-5.4,19-11,30.8-16.1
				c9.3-4,18.2-7.2,26.2-9.6c-5-1.8-11.2-3.5-18.2-4.6c-6.2-1-11.9-1.4-16.7-1.4c3.5-2.4,7.5-4.8,12-7c10-5,19.3-7.7,26.9-9.2
				c-0.7-0.3-1.5-0.5-2.3-0.8c0,0,0,0-0.1,0C388.7,89.5,389.4,89.7,390.2,89.9z"/>
			<path class="st94" d="M388,89.2c-0.3,0-0.6,0.1-0.9,0.1c1.1,0.2,2.1,0.4,3.2,0.6C389.4,89.7,388.7,89.5,388,89.2z"/>
			<path class="st95" d="M388,89.2c-0.3,0-0.6,0.1-0.9,0.1c1.1,0.2,2.1,0.4,3.2,0.6C389.4,89.7,388.7,89.5,388,89.2z"/>
			<path class="st95" d="M388,89.2c-0.3,0-0.6,0.1-0.9,0.1c1.1,0.2,2.1,0.4,3.2,0.6C389.4,89.7,388.7,89.5,388,89.2z"/>
		</g>
		<path class="st91" d="M303.5,150.9c1.7,1.2,6.6-1.4,9.3-4.2c1.7-1.7,4.1-4.9,4.1-4.9c0,0,0,0,0,0c0.8-1.5,2.2-4.4,2.4-8.2
			c0.2-3.5,0.1-5.2-0.8-6.4c-0.3-0.4-0.6-0.8-0.9-1c-1.3-0.4-2.4-0.4-3.1-0.3c-3.2,0.5-5.9,3.8-6.9,8.2
			C302,146.5,302.2,150,303.5,150.9z"/>
		<g>
			<path class="st91" d="M279.3,172.5C279.3,172.5,279.3,172.5,279.3,172.5C279.3,172.5,279.3,172.5,279.3,172.5L279.3,172.5z"/>
			<path class="st91" d="M310.6,114.4c-0.7-3.5-2.7-10.1-8.2-16.4c-8.6-9.8-19.9-11.6-23.1-12v0c0,0,0,0,0,0c0,0,0,0,0,0v0
				c-3.2,0.4-14.5,2.2-23.1,12c-4,4.5-6.1,9.2-7.2,12.7c-0.6,6.1-1.4,23.4,9.2,40.7c7,11.3,15.9,17.9,21.1,21.2v0
				c2.8-1.1,6-2.6,9.4-4.6c4.4-2.7,7.8-5.5,10.4-8c3.9-6.1,9.1-16.2,11-29.4C310.9,124.3,310.9,118.9,310.6,114.4z"/>
			<path class="st92" d="M279.3,172.5C279.3,172.5,279.3,172.5,279.3,172.5C279.3,172.5,279.3,172.5,279.3,172.5
				C279.3,172.5,279.3,172.5,279.3,172.5z"/>
			<path class="st92" d="M248.9,110.7c-0.5,1.4-0.8,2.7-1,3.7c-0.3,4.2-0.3,9.2,0.4,14.8c0.9,1.3,1.6,2.9,2,4.7
				c5.7,12.5,5.5,16,4.3,16.9c0,0,0,0-0.1,0c1.7,3.6,3.4,6.6,4.9,9c2.6,2.5,6.1,5.4,10.4,8c3.4,2.1,6.6,3.5,9.4,4.6v0c0,0,0,0,0,0
				c0,0,0,0,0,0c0,0,0,0,0,0c-5.3-3.6-13.1-9.9-19.6-20C248.6,135.1,248.6,117.6,248.9,110.7z"/>
			<path class="st92" d="M243.5,125.8c-0.7-0.1-1.8-0.2-3.1,0.3c-0.2,0.2-0.5,0.5-0.9,1c-0.9,1.2-0.9,2.9-0.8,6.4
				c0.2,3.9,1.5,6.8,2.4,8.2c0,0,0,0,0,0c0,0,2.4,3.2,4.1,4.9c2.8,2.8,7.6,5.4,9.3,4.3c-2.5-5.5-4.9-12.4-6.1-20.4
				c-0.1-0.4-0.1-0.8-0.2-1.2C247.1,127.3,245.4,126.1,243.5,125.8z"/>
			<path class="st92" d="M254.5,150.8C254.6,150.8,254.6,150.8,254.5,150.8c1.3-0.9,1.5-4.4-4.2-16.9c-0.4-1.8-1.1-3.4-2-4.7
				c0.1,0.4,0.1,0.8,0.2,1.2C249.6,138.5,252,145.3,254.5,150.8z"/>
		</g>
		<path class="st96" d="M245.7,121.4c4.3-0.6,10.1-1.1,17.1-1.2c2.1,0,5,1.7,6.7,0.3c1.9-1.5,0.1-4.4,1.7-6.4
			c2.2-2.8,7.4,0.4,17.1-0.1c7-0.4,8.4-2.2,11.6-0.7c5.3,2.5,6.6,9.8,6.8,10.8c0.9,5.1-0.8,9.2-1.5,10.9c1.7-1.6,4.5-4.6,6.3-9.4
			c2.6-7.1,1-13.3,0.3-15.4c-9.6-6.3-19.3-12.7-28.9-19l-38.4,13.9L245.7,121.4z"/>
		<path class="st97" d="M266,131.9c0,0,2.7,1.2,5.1,3.2c0.7,0.6,1.3,1.2,1.3,1.2c0.4,0.4,0.6,0.6,0.7,0.8c0.5,0.9-1,2.3-3.6,5.8
			c0,0-2.4,3.2-3.6,3.1c-0.2,0-0.3-0.1-0.8-0.3c0,0-2.4-1-5.2-1.7c-1.3-0.3-2-0.4-2.1-0.4c-0.3,0-0.7,0-1.1-0.2
			c-0.4-0.3-0.5-0.7-0.6-0.9c-0.9-2.9-1.2-4.8-1.2-4.8c-0.9-6.1-0.3-3-0.6-4.8c-0.1-0.4-0.2-0.8,0-1.4c0.2-0.9,1-2,2-2.4
			c1.1-0.4,1.9,0.1,5,1.3C263.9,131.2,263.6,130.9,266,131.9z"/>
		<path class="st97" d="M291.6,131.6C291.6,131.6,291.6,131.6,291.6,131.6c-2.6,1.3-3.9,2.9-5.1,3.2c-0.1,0-0.2,0.1-0.4,0.2
			c-0.3,0.3-0.2,0.8-0.2,1.3c0,0.8-0.2,1.2-0.2,1.6c-0.1,0.5,0,1.7,2.4,4.6c0,0,2.4,3.2,3.6,3.1c0.2,0,0.3-0.1,0.8-0.3
			c0,0,2.4-1,5.2-1.7c1.3-0.3,2-0.4,2.1-0.4c0.3,0,0.7,0,1.1-0.2c0.4-0.3,0.5-0.7,0.6-0.9c0.9-2.9,1.2-4.8,1.2-4.8
			c0.9-6.1,0.3-3,0.6-4.8c0.1-0.4,0.2-0.8,0-1.4c-0.2-0.9-1-2-2-2.4c-1.1-0.4-1.9,0.1-5,1.3C293.7,131,294,130.7,291.6,131.6z"/>
		<path class="st27" d="M325.8,174.1"/>
		<path class="st98" d="M291.6,134.9c0.1,2.1-0.7,5.1-1.8,5.1c-1.2,0-2.7-3.3-2-5.9c0.3-0.9,1.1-2.4,1.9-2.3c0.3,0,0.6,0.3,0.8,0.5
			C290.9,132.6,291.5,133.3,291.6,134.9z"/>
		<path class="st94" d="M280.1,137.4c0.4,0.7,0.8,1.5,1.2,2.2c2.8-2.5,7-5.8,12.9-8.5c5.6-2.5,10.6-3.6,14.2-4.1
			c-1.7-1.6-3.4-3.1-5.1-4.7c-3.4,1.3-7.4,3.2-11.6,5.9C286.8,131.3,283,134.6,280.1,137.4z"/>
		<path class="st98" d="M265.9,135.1c-0.1,2.1,0.7,5.1,1.8,5.1c1.2,0,2.7-3.3,2-5.9c-0.3-0.9-1.1-2.4-1.9-2.3
			c-0.3,0-0.6,0.3-0.8,0.5C266.6,132.8,266,133.5,265.9,135.1z"/>
		<path class="st94" d="M277.4,137.6c-0.4,0.7-0.8,1.5-1.2,2.2c-2.8-2.5-7-5.8-12.9-8.5c-5.6-2.5-10.6-3.6-14.2-4.1
			c1.7-1.6,3.4-3.1,5.1-4.7c3.4,1.3,7.4,3.2,11.6,5.9C270.7,131.5,274.5,134.8,277.4,137.6z"/>
		<path class="st94" d="M244.6,126.9c1.2,1.8,2.4,3.3,2.5,3.5c1.9,2.3,3.8,3.9,5.2,5c-1.1-1.3-2.7-3.6-3.5-7
			c-0.4-1.8-0.4-3.5-0.3-4.7c0.1-1.8,0.4-4.8,2.1-8c0.7-1.4,1.5-2.5,2.3-3.3c0.8,1.3,1.9,3.1,3.5,5.2c2.2,2.9,5.2,6.8,10.2,10.2
			c2.3,1.5,5.9,3.6,10.8,5c-4.3-5.5-6.7-10.5-7.3-13.6c-0.4-2.2-0.6-4.6-0.6-4.6c-0.1-1.6-0.1-2.9,0-3.9c1.2,0.4,2.4,0.8,3.7,1.4
			c5.2,2.2,9.2,5.3,12.1,8c1.7,1.9,3.5,4.1,5.3,6.9c2.7,4.2,4.4,8.2,5.5,11.4c1.5-3.2,3.1-7.6,4-12.8c0.7-3.6,0.9-6.9,0.9-9.6
			c-0.1-0.8-0.2-1.7-0.5-2.6c-0.6-2.5-1.7-4.5-2.6-5.9c1.6,1.8,3.3,4,4.9,6.4c2.9,4.3,4.9,8.3,6.4,11.9c-0.2,0.8-0.4,1.6-0.7,2.4
			c-0.9,2.8-2.2,5.1-3.4,6.9c1.6-1.3,3.5-3,5.3-5.1c2.7-3.2,4.5-6.3,5.6-8.8c-0.1-5.5-0.3-11-0.4-16.6c-12-9.4-23.9-18.8-35.9-28.2
			c-15.9,9-31.8,18-47.7,27C237.8,114.9,242.4,123.5,244.6,126.9z"/>
		<path class="st70" d="M273.6,156.6l0.8,0.3l0.8,0.2l0.8,0.2l0.8,0.1c2.1,0.3,4.3,0,6.3-0.8l0.8-0.3l0.7-0.3l0.7-0.4l0.7-0.4h0.1
			c0.2-0.1,0.5-0.2,0.7-0.2c0.3,0,0.5,0,0.8,0.1c0.3,0.1,0.5,0.2,0.7,0.4c0.2,0.2,0.4,0.4,0.5,0.6c0.2,0.3,0.2,0.7,0.2,1
			c0,0.3-0.1,0.7-0.3,1c-0.9,1.4-2.1,2.6-3.5,3.4c-1.4,0.8-3,1.3-4.6,1.5c-1.6,0.2-3.3,0.1-4.9-0.4c-1.6-0.5-3-1.3-4.1-2.5
			c-0.4-0.4-0.6-0.9-0.6-1.4c0-0.5,0.2-1,0.6-1.4c0.3-0.2,0.6-0.4,0.9-0.5c0.3-0.1,0.7-0.1,1,0H273.6z"/>
		<path class="st99" d="M272.7,161c0.9,0.6,1.9,1.1,2.9,1.5c1.6,0.5,3.2,0.6,4.9,0.4c1.6-0.2,3.2-0.7,4.6-1.5c1-0.6,1.9-1.3,2.7-2.2
			c-1.2-1.2-2.6-2.1-4.1-2.8h-0.1l-0.8,0.3c-2,0.7-4.1,1-6.3,0.8l-0.8-0.1h-0.1C274.5,158.2,273.4,159.5,272.7,161z"/>
		<path class="st100" d="M287.4,157.7l0.1-2.7c-0.5-0.1-0.9,0-1.3,0.2H286l-0.7,0.4l-0.7,0.4l-0.7,0.3l-0.8,0.3
			c-2,0.7-4.1,1-6.3,0.8l-0.8-0.1l-0.8-0.2l-0.8-0.2l-0.8-0.3h-0.1c-0.3-0.1-0.5-0.1-0.8-0.1l-0.1,1.4
			C278.1,160.6,284.2,159.1,287.4,157.7z"/>
		<path class="st101" d="M274.6,157l-0.2-0.1l-0.8-0.3h-0.1c-0.3-0.1-0.5-0.1-0.8-0.1l-0.1,1.4c0.6,0.3,1.1,0.5,1.7,0.7L274.6,157z"
			/>
		<path class="st101" d="M284.2,158.7c1-0.3,2-0.6,3-1l0.1-2.7c-0.5-0.1-0.9,0-1.3,0.2h-0.1l-0.7,0.4l-0.7,0.4l-0.3,0.1L284.2,158.7
			z"/>
		<polyline class="st102" points="279.9,147.7 281.6,151.5 279.6,153.7 278.1,152.8 		"/>
		<path class="st92" d="M279.7,148.9c-0.1,1.6-0.1,3.1-0.1,4.7c0.6-0.7,1.2-1.4,1.8-2.2c-0.6-1.2-1.1-2.4-1.7-3.7
			C279.7,148.2,279.7,148.6,279.7,148.9z"/>
		<path class="st91" d="M303.4,154"/>
		<g id="Layer_7">
		</g>
	</g>
	<g id="Layer_6">
	</g>
	<g id="Layer_8">
	</g>
	<g id="Layer_9">
	</g>
	<path class="st4" d="M359.1,455.7c-11.8,26.9-43.6,43.3-76.1,43.3h-74.7l5.8-203.3c0,0,71.3-22.1,89.2-1.1
		c15.7,18.5,58.2,91.5,60.5,134.7C364.3,439,362.5,447.8,359.1,455.7z"/>
	<path class="st2" d="M359.1,455.7c-11.8,26.9-43.6,43.3-76.1,43.3h-67.3c-13.1-14.9-8.9-21.9,27.3-33.9
		c49.2-16.3,76.6-22.7,76.6-22.7S329.5,456.3,359.1,455.7z"/>
	<path class="st103" d="M321.3,429.4c-2.2-43.2-32.6-112.1-43.6-129.4c-16.1-25.2-85.5-1-115.9,11.2c-17.3-51.5-34.4-102-43.7-129.4
		c-4.3-12.6-16-21-29.3-21c0,0-49.5-7.3-57.2,58.7c-24.5,211.2-4.8,279.3,83.2,279.8c11,0.1,32.6-0.1,51-0.3l0,0h74.7
		C282.6,499.1,323.5,471.5,321.3,429.4z"/>
	<path class="st104" d="M321.3,429.3c-2.2-43.4-32.6-112.4-43.6-129.8c-13.7-21.5-66-7.1-100,5.2c-6,2.1-11.3,4.2-15.9,6.1
		c-17.3-51.6-34.4-102.3-43.7-129.7c-4.3-12.6-16-21.1-29.3-21.1c0,0-4.9,0-11.6,0.7c0,0,0,0,0,0c-10.9,1-26.5,3.5-33.9,9.6
		c-5.1,4.2-8.6,22.4-11.6,48.6c-7.2,61.8-10.5,111.3-9.6,150.5c0.5,20.1,2.1,37.5,5,52.5c2,10.5,4.6,19.7,7.9,27.9
		c14,35.3,39.9,49.5,79.9,49.8c4.6,0,11.2,0,18.5,0c10.1-0.1,21.9-0.2,32.5-0.3l0,0h74.7C282.6,499.1,323.5,471.4,321.3,429.3z"/>
	<path class="st0" d="M130.5,333.1c0,0-41.7-153.2-44.4-164.9c-1.2-5.2-5-7.1-8.9-7.6c6.7-0.6,11.6-0.7,11.6-0.7
		c13.3,0,25.1,8.5,29.3,21c9.3,27.4,26.4,77.9,43.7,129.4C166.4,308.5,130.5,333.1,130.5,333.1z"/>
	<path class="st4" d="M184,342.1c-5.3-15.8-38.1-10.9-38.1-10.9s-22.3,27.6-28.8,28.3c-6.5,0.7,13.4-26.6,13.4-26.6
		c-12.6-1-44.6,11.5-44.6,11.5s2,32.2-4.5,31.6c-6.5-0.7,0-28.6,0-28.6c-12.2,3-23.5,14.5-23.5,14.5c-14.2,18.7,16.2,32.6,16.2,32.6
		s0.4,11.2-8.1,24c0,0-10.7,13.2-7.3,30.2h-9.4c1.8-12.3-5.7-21.6-5.7-21.6c-6.5-9.7-6.1-18.2-6.1-18.2s23-10.5,12.3-24.7
		c0,0-8.6-8.7-17.8-11c0,0,4.9,21.2,0,21.7c-4.9,0.5-3.4-24-3.4-24s-2.6-1-6.5-2.4c0.5,20.1,2.1,37.4,5,52.3c2.9-1.1,5-2.6,6.1-4.5
		c0.2-0.3,0.4-0.6,0.5-0.9c-0.3,0.6-0.5,0.9-0.5,0.9c2.2,1,5.5,6,7.8,9.9c0.3,0.7,0.8,1.6,1.6,2.8c0.3,0.6,0.6,1,0.7,1.3
		c2.7,5.4,2.8,13.2,2.5,18.3H11.6v1.5h2c0.7,19.7,15.9,36.4,37.2,43.3H20.1c-4.1,0-7.3,2.7-7.3,6h120.7c0-0.4-0.1-0.8-0.1-1.2
		c-0.7-2.7-3.6-4.8-7.2-4.8H95.4c21.3-7,36.5-23.7,37.2-43.3h1.4v-1.5H70.6c1.5-2.6,3.3-5.2,5.4-7c0.2-0.2,0.6-0.5,1-0.8
		c1-0.8,1.8-1.4,2.3-1.8c3.2-2.5,7.6-5.7,9.7-6c0,0-0.1-0.3-0.1-0.9c0,0.3,0.1,0.6,0.1,0.9c0.7,6.9,17.3,13,27.5,14.2
		c10.2,1.2,7-2.2,3.5-7.2c-3.5-5-14.6-7.3-17.2-9.6c-2.5-2.3,2.7-2.3,8.9-0.1c6.1,2.3,7,8.4,16.8,12.2c9.9,3.8,24.7-9.4,24.7-9.4
		c-7.9-0.3-19.1-7.3-18.7-9.4c0.4-2.1,19,3.7,22.2,3.9c3.2,0.3,10.4-2.9,11.6-13.4c1.1-10.4-19.9-13.3-19.9-13.3s-4.9,2.9-10.3,5.9
		c-1.1-1.1-2.8-2.4-4.9-3.8c1.8-1.3,3.4-2.4,4.4-3.1c2,0.4,4.2,0.8,6.7,1c17,1.3,30-24.7,30-24.7c-11.7,3-32.8-2.3-33.6-5.6
		c-0.8-3.3,30.4-3,35.3-3.9C180.7,365.8,189.2,357.9,184,342.1z M79.8,404.2c0-0.1-0.4-0.5-0.7-1.2
		C79.3,403.4,79.6,403.8,79.8,404.2z M76.8,439c0,0-5.6,3.4-9.5,9.6h-4c-0.5-6.5-0.7-18.2,3.1-26c0.2-0.4,0.6-1,1-1.7
		c0.5-0.8,0.9-1.5,1.3-2.1c0.4-0.6,0.6-1.1,0.8-1.5c3-5.1,7.4-11.6,10.3-13c0.7,1.3,1.8,2.4,3.2,3.4c-5.5,8.4,5.1,18.5,5.1,18.5
		S85.4,432.9,76.8,439z M97.5,416.3c-1-0.4-0.9-1.8-0.3-3.6c1.3,0.2,2.7,0.5,4.1,0.6C100,415.5,98.6,416.8,97.5,416.3z M121.5,397.6
		c-8.7-2-19.2-1.6-23.1-3.3c-5.3-2.3,2.4-4.6,13-3.9c7.1,0.4,11.8,4.5,19.3,7.4C127.8,397.6,124.6,397.6,121.5,397.6z"/>
	<path class="st2" d="M164.9,305.8c-5.3-19.4-38.1-13.4-38.1-13.4s-22.3,34-28.8,34.8c-6.5,0.8,13.4-32.8,13.4-32.8
		c-12.6-1.2-44.6,14.2-44.6,14.2s2,39.7-4.5,38.9c-6.5-0.8,0-35.3,0-35.3c-12.2,3.6-23.5,17.8-23.5,17.8
		c-14.2,23.1,16.2,40.1,16.2,40.1s0.4,13.8-8.1,29.6c0,0-10.7,16.2-7.3,37.3h-9.4c1.8-15.1-5.7-26.6-5.7-26.6
		c-6.5-12-6.1-22.4-6.1-22.4s23.1-12.9,12.3-30.4c0,0-8.6-10.8-17.8-13.5c0,0,4.9,26.1,0,26.7c-4.9,0.6-3.4-29.5-3.4-29.5
		s-24.3-11.7-33.8-10.8c0,0,15.1,25.5,10.1,24.9C-19.1,354.8-36,329-36,329s-24.9-4.6-28.9,10.1c-4,14.8,2.5,22.1,6.1,23.1
		c3.7,0.9,27.4,0.6,26.7,3.7c-0.6,3.1-16.6,8-25.5,5.2c0,0,9.8,24.3,22.7,23.1c12.9-1.2,16.9-9.2,24.9-9.8c8-0.6,13.8,1.5,9.8,3.7
		c-4,2.2-17.5,0.7-24,6.2c-6.5,5.5-11.7,8.9,0.3,11.3c12,2.5,33.5,0.9,37.8-8.3c0.2-0.4,0.4-0.8,0.5-1.2c-0.3,0.8-0.5,1.2-0.5,1.2
		c2.2,1.3,5.5,7.5,7.8,12.2c0.3,0.8,0.8,1.9,1.6,3.4c0.3,0.6,0.5,1.1,0.7,1.5c2.7,6.6,2.8,16.4,2.5,22.8H16.6H1.8h-9.2v1.8h2
		c0.7,24.2,15.9,44.8,37.2,53.4H1.1c-4.1,0-7.3,3.3-7.3,7.3h120.7c0-4.1-3.3-7.3-7.3-7.3H76.4c21.3-8.6,36.5-29.2,37.2-53.4h1.4
		v-1.8H51.5c1.5-3.2,3.3-6.4,5.4-8.7c0.2-0.2,0.6-0.6,1-1c1-1,1.8-1.7,2.3-2.2c3.2-3.1,7.6-7,9.7-7.4c0,0-0.1-0.4-0.1-1.1
		c0,0.3,0.1,0.7,0.1,1.1c0.7,8.5,17.3,16,27.5,17.5c10.2,1.5,7-2.7,3.5-8.9c-3.5-6.2-14.6-9-17.2-11.9c-2.5-2.9,2.7-2.9,8.9-0.1
		c6.1,2.8,7,10.3,16.8,15c9.9,4.7,24.7-11.6,24.7-11.6c-7.9-0.4-19.1-8.9-18.7-11.5c0.4-2.6,19,4.5,22.2,4.8
		c3.2,0.3,10.4-3.6,11.6-16.5c1.1-12.8-19.9-16.4-19.9-16.4s-4.9,3.6-10.3,7.2c-1.1-1.4-2.8-3-4.9-4.7c1.8-1.6,3.4-3,4.4-3.8
		c2,0.6,4.2,1,6.7,1.2c17,1.6,30-30.4,30-30.4c-11.8,3.6-32.8-2.8-33.6-6.9c-0.8-4.1,30.4-3.6,35.3-4.9
		C161.7,335,170.2,325.3,164.9,305.8z M78.5,397.3c-1-0.5-0.9-2.2-0.3-4.4c1.3,0.3,2.7,0.6,4.1,0.8
		C80.9,396.2,79.6,397.8,78.5,397.3z M57.7,425.3c0,0-5.6,4.1-9.5,11.8h-4c-0.5-8-0.7-22.4,3.1-32c0.2-0.5,0.6-1.3,1-2.2
		c1-2,1.7-3.4,2.1-4.5c3-6.2,7.4-14.3,10.3-16c0,0-0.4-0.5-0.7-1.5c0.2,0.5,0.5,1,0.7,1.5c0.7,1.5,1.8,2.9,3.2,4.2
		c-5.5,10.3,5.1,22.7,5.1,22.7S66.3,417.7,57.7,425.3z M102.5,374.3c-8.7-2.4-19.2-2-23.1-4c-5.3-2.8,2.4-5.7,13-4.9
		c7.1,0.5,11.8,5.5,19.3,9.2C108.8,374.3,105.6,374.2,102.5,374.3z"/>
</g>
<g id="Layer_11">
</g>
</svg>
