<?xml version="1.0" encoding="utf-8"?>
<!-- Generator: Adobe Illustrator 25.2.0, SVG Export Plug-In . SVG Version: 6.00 Build 0)  -->
<svg version="1.1" id="Layer_1" xmlns="http://www.w3.org/2000/svg" xmlns:xlink="http://www.w3.org/1999/xlink" x="0px" y="0px"
	 viewBox="0 0 93.3 101.8" style="enable-background:new 0 0 93.3 101.8;" xml:space="preserve">
<style type="text/css">
	.st0{fill:#DABE9A;}
	.st1{opacity:0.2;fill:#050706;enable-background:new    ;}
	.st2{fill:#E6E6E6;}
	.st3{fill:#D32027;}
	.st4{fill:#D8BA8F;}
	.st5{opacity:0.2;}
	.st6{fill:#050706;}
	.st7{fill:none;stroke:#FFFFFF;stroke-miterlimit:10;}
	.st8{fill:none;stroke:#D32027;stroke-miterlimit:10;}
	.st9{fill:#721013;}
</style>
<g id="Group_2577" transform="translate(-105.516 -85.65)">
	<path id="Path_5806" class="st0" d="M184.6,177.1h-67.1v-53l33.6-19.9l33.6,19.9L184.6,177.1z"/>
	<path id="Path_5807" class="st1" d="M184.6,177h-67.1v-53l33.6-19.9l33.6,19.9V177z"/>
	<g id="Group_2577-2" transform="translate(119.345 102.377)">
		<rect id="Rectangle_309" x="2.5" y="3.3" class="st2" width="59.6" height="59.8"/>
		<path id="Path_5808" class="st3" d="M28.6,49L15,35.2l4.6-4.5l8,8.1l16.5-25.9l5.4,3.5L28.6,49z"/>
	</g>
	<path id="Path_5809" class="st4" d="M184.6,139.7v37.5h-67.1v-37.5c2.9,1.4,5.7,2.9,8.6,4.4c2.8,1.5,5.7,3,8.5,4.5
		c3.1,1.7,6.3,3.4,9.4,5.1c0,0,0.1,0,0.1-0.1c0,0-0.1,0-0.1,0.1c2.3,1.3,4.7,2.6,7,3.9c2.3-1.3,4.7-2.6,7-3.9c0,0-0.1,0-0.1-0.1
		c0,0,0.1,0,0.1,0c3.1-1.7,6.3-3.4,9.4-5.1c2.8-1.5,5.7-3,8.5-4.5C178.9,142.6,181.7,141.1,184.6,139.7z"/>
	<g id="Group_2578" transform="translate(114.979 136.392)" class="st5">
		<path id="Path_5810" class="st6" d="M69.6,3.3c-2.7,1.9-5.5,3.7-8.2,5.6c-2.8,1.8-5.5,3.7-8.3,5.5c-2.9,1.9-5.8,3.8-8.7,5.6
			c-0.1,0.1-0.2,0.1-0.3,0.2c-2.6,1.6-5.1,3.3-7.7,4.9L36,25.3l-0.4-0.2c-2.6-1.6-5.2-3.3-7.7-4.9c-0.1-0.1-0.2-0.1-0.3-0.2
			c-2.9-1.9-5.8-3.7-8.7-5.6c-2.8-1.8-5.5-3.6-8.3-5.5C7.9,7,5.2,5.2,2.5,3.3c2.9,1.6,5.7,3.3,8.6,5c2.8,1.7,5.7,3.4,8.5,5.1
			c3.1,1.9,6.3,3.9,9.4,5.8c0,0,0,0,0,0c2.3,1.5,4.7,2.9,7,4.4c2.3-1.5,4.7-3,7-4.4c0,0,0,0,0,0c3.1-2,6.3-3.9,9.4-5.8
			c2.8-1.7,5.7-3.4,8.5-5.1C63.9,6.6,66.7,4.9,69.6,3.3z"/>
		<path id="Path_5811" class="st6" d="M29.1,19.2C29,19.2,29,19.3,29.1,19.2c-0.4,0.4-0.8,0.7-1.1,1c-1.7,1.4-3.4,2.8-5.2,4.1
			c-2.1,1.6-4.3,3.2-6.5,4.7c-2.2,1.5-4.4,3-6.7,4.5S5,36.4,2.6,37.7c2-1.8,4.2-3.4,6.3-5.1s4.3-3.2,6.5-4.7c2.2-1.5,4.4-3,6.7-4.5
			c1.8-1.2,3.6-2.3,5.5-3.4C28.1,19.8,28.5,19.5,29.1,19.2C29,19.3,29,19.2,29.1,19.2z"/>
		<path id="Path_5812" class="st6" d="M69.4,37.7c-2.4-1.3-4.7-2.7-6.9-4.2c-2.3-1.5-4.5-3-6.7-4.5c-2.2-1.6-4.4-3.1-6.5-4.7
			c-1.7-1.3-3.5-2.7-5.1-4.1c-0.4-0.3-0.7-0.6-1.1-0.9c0,0,0-0.1-0.1-0.1c0,0,0.1,0,0.1,0.1c0.4,0.3,0.9,0.5,1.3,0.7
			c1.9,1.1,3.7,2.2,5.5,3.4c2.3,1.5,4.5,3,6.7,4.5c2.2,1.6,4.4,3.1,6.5,4.7C65.3,34.3,67.4,35.9,69.4,37.7z"/>
	</g>
	<g id="Group_2587" transform="translate(105.517 85.65)">
		<g id="Group_2579" transform="translate(14.298)">
			<g id="Group_2577-2-2">
				<line id="Line_3" class="st7" x1="2.5" y1="12.2" x2="2.5" y2="3.3"/>
			</g>
		</g>
		<g id="Group_2580" transform="translate(4.26 4.012)">
			<g id="Group_2578-2">
				<line id="Line_4" class="st7" x1="8.7" y1="9.5" x2="2.5" y2="3.3"/>
			</g>
		</g>
		<g id="Group_2581" transform="translate(0 13.937)">
			<g id="Group_2579-2">
				<line id="Line_5" class="st7" x1="11.3" y1="3.3" x2="2.5" y2="3.3"/>
			</g>
		</g>
		<g id="Group_2582" transform="translate(4.012 17.705)">
			<g id="Group_2580-2">
				<line id="Line_6" class="st7" x1="8.7" y1="3.3" x2="2.5" y2="9.6"/>
			</g>
		</g>
		<g id="Group_2583" transform="translate(71.348)">
			<line id="Line_7" class="st8" x1="2.5" y1="12.2" x2="2.5" y2="3.3"/>
		</g>
		<g id="Group_2584" transform="translate(75.116 4.012)">
			<line id="Line_8" class="st8" x1="2.5" y1="9.5" x2="8.7" y2="3.3"/>
		</g>
		<g id="Group_2585" transform="translate(76.786 13.937)">
			<line id="Line_9" class="st8" x1="2.5" y1="3.3" x2="11.3" y2="3.3"/>
		</g>
		<g id="Group_2586" transform="translate(75.378 17.705)">
			<line id="Line_10" class="st8" x1="2.5" y1="3.3" x2="8.7" y2="9.6"/>
		</g>
	</g>
	<g id="Group_2581-2" transform="translate(140.278 144.397)">
		<path id="Path_5806-2" class="st3" d="M19,11.2c0,0.8-1.3,1.4-1.6,2.2c-0.2,0.8,0.5,2,0,2.7c-0.5,0.6-1.9,0.4-2.6,0.8
			s-0.8,1.9-1.6,2.2c-0.7,0.2-1.7-0.8-2.6-0.8S8.9,19.3,8.2,19c-0.8-0.2-0.9-1.7-1.6-2.2S4.5,16.7,4,16c-0.5-0.6,0.2-1.9,0-2.7
			c-0.2-0.7-1.6-1.3-1.6-2.2S3.8,9.7,4,9c0.2-0.8-0.5-2,0-2.7S5.9,6,6.6,5.5s0.8-1.9,1.6-2.2c0.7-0.2,1.7,0.8,2.6,0.8
			s1.8-1.1,2.6-0.8c0.8,0.2,0.9,1.7,1.6,2.2s2.1,0.2,2.6,0.8s-0.2,1.9,0,2.7C17.7,9.7,19,10.4,19,11.2z"/>
	</g>
	<path id="Cedro" class="st9" d="M155.4,158.2C155.4,158.1,155.3,158.1,155.4,158.2c-0.1-0.2-0.2-0.2-0.2-0.2
		c-0.4-0.3-0.7-0.5-1.1-0.7c-0.3-0.2-0.3-0.3,0-0.5l0.2,0c0.2,0.1,0.4,0.2,0.5,0.3c0.1,0,0.2,0.1,0.3,0s-0.1-0.2-0.2-0.2
		c-0.2-0.1-0.4-0.3-0.6-0.4c-0.1-0.2-0.4-0.3-0.6-0.4l0,0c0,0-0.1,0-0.1,0c-0.1,0-0.1,0-0.2-0.1c0-0.1,0.1-0.1,0.1-0.2l0.5,0
		c0.1,0,0.3,0,0.4,0c0.1,0,0.2,0,0.2-0.1s-0.1-0.1-0.2-0.2c-0.3-0.1-0.6-0.2-0.9-0.2c-0.2-0.1-0.2-0.1-0.1-0.3l0.2,0
		c0.2,0.1,0.3,0.1,0.5,0.1c0.1,0,0.1,0,0.2,0c0-0.1,0-0.2-0.1-0.2c-0.1-0.1-0.2-0.1-0.3-0.1c-0.5-0.3-0.9-0.8-1.5-1.1
		c-0.1,0-0.1-0.1-0.1-0.1c0-0.1,0.1-0.1,0.1-0.1c0.1,0,0.2,0,0.2,0c0.2,0.1,0.3,0.1,0.5,0.1c0.1,0,0.1,0,0.2,0s-0.1-0.1-0.1-0.1
		c-0.2-0.1-0.3-0.2-0.5-0.3c0,0-0.2-0.1-0.1-0.2c0-0.1,0.1-0.1,0.2,0c0,0,0.1,0,0.1,0c0,0,0,0,0,0l0,0c0-0.1,0-0.1,0-0.1
		c-0.3-0.3-0.7-0.5-1.1-0.6c-0.3,0-0.6-0.2-0.8-0.5c-0.1-0.1-0.1-0.2-0.2-0.4c-0.3,0.4-0.6,0.8-1.1,1.1c0.1,0.1,0.3,0,0.3,0.1
		c0,0.1-0.1,0.1-0.2,0.2c-0.2,0.1-0.3,0.2-0.5,0.3c-0.1,0-0.1,0.1-0.1,0.1c0,0.1,0.1,0.1,0.1,0.1c0.1,0,0.2,0,0.2,0.1
		c0,0.1-0.1,0.2-0.2,0.2l0,0c-0.2,0-0.4,0.1-0.4,0.3c-0.1,0.1-0.2,0.2-0.3,0.3c-0.2,0.1-0.3,0.2-0.4,0.2c-0.1,0.1-0.3,0.1-0.3,0.3
		c0.1,0.2,0.3,0.1,0.4,0c0.2-0.1,0.3-0.1,0.4,0.1l0,0.2c-0.1,0.2-0.2,0.4-0.5,0.5c-0.4,0.1-0.7,0.4-1,0.7c-0.1,0.1-0.2,0.1-0.1,0.2
		c0.1,0.1,0.2,0.1,0.3,0.1c0.1-0.1,0.3-0.1,0.4-0.2c0.1-0.1,0.2-0.1,0.3,0c0.1,0.1,0.1,0.2,0.1,0.3c0,0.1-0.1,0.2-0.2,0.2
		c-0.2,0.1-0.4,0.2-0.6,0.4c-0.3,0.2-0.5,0.5-0.8,0.6c-0.1,0-0.1,0.1,0,0.2c0.1,0.1,0.1,0.1,0.2,0l0,0c0.1,0,0.2,0,0.3-0.1
		c0.4-0.1,0.7-0.3,1.1-0.5c0.1-0.1,0.3-0.1,0.4,0.1s-0.1,0.2-0.2,0.3c-0.3,0.1-0.6,0.3-0.8,0.4c-0.1,0-0.1,0-0.1,0l0,0
		c-0.1,0-0.3,0-0.4,0.1c-0.1,0-0.1,0-0.1,0.1c0,0.1,0,0.1,0.1,0.1h0h0c0.1,0.1,0.3,0.1,0.4,0l0,0l0.1,0l0,0c0.2,0,0.3,0,0.5-0.1
		c0.1,0,0.1,0,0.2-0.1c0.1,0,0.2,0,0.3-0.1l0,0c0.1,0,0.3-0.1,0.4-0.2c0.3-0.2,0.6-0.1,0.8,0.2c0,0,0,0,0,0.1c0,0.1,0,0.1,0,0.1
		l0,0.3l0,0.1l0,0l-0.2,0.3l0,0c-0.2,0.4-0.6,0.6-1,0.8c0,0,0,0,0,0c-0.1,0-0.2,0.1-0.3,0.2c-0.1,0-0.1,0.1,0,0.1s0.1,0,0.1,0
		c0.1-0.1,0.2-0.2,0.3-0.2l0.1,0l0,0c0.1,0,0.1,0,0.2,0l0.1,0l0,0c0,0,0.1,0,0.1,0c0.3-0.1,0.5-0.3,0.8-0.5l0.3,0
		c0.1,0.1,0.3,0.1,0.4,0.1c0.1,0,0.2,0,0.2,0.1c0.1,0.3,0.3,0.3,0.5,0.5c0,0,0.1,0.1,0.1,0.1c0.1,0,0-0.1,0-0.1
		c0-0.2,0.1-0.2,0.2-0.2c0.3,0.1,0.6,0.1,0.8,0.4c0,0,0,0.1,0.1,0.1c0.1,0,0.1,0.1,0.2,0c0.1-0.1,0-0.1,0-0.2
		c-0.1-0.1-0.3-0.2-0.4-0.3l-0.2-0.1l0,0c-0.2-0.1-0.3-0.3-0.4-0.5l-0.1-0.3l0,0l0-0.1v-0.3l0,0l0-0.1l0,0c0-0.2,0-0.4,0.3-0.5
		l0.2,0l0,0c0.2,0.1,0.4,0.2,0.7,0.3h0.3c0.4-0.1,0.9,0,1.3,0.2l0.1,0.1c0.1,0.1,0.1,0.1,0.2,0.1c0.1,0,0.1,0.1,0.2,0.1
		c0.1,0,0.1,0,0.2,0C155.4,158.4,155.5,158.3,155.4,158.2z M149.1,156c-0.1,0-0.2,0.1-0.3,0.1c-0.2,0-0.3,0-0.4-0.2c0,0,0,0,0-0.1
		c0-0.1,0.1-0.1,0.1-0.1c0.2,0,0.3,0,0.5,0c0.1,0,0.2,0,0.2,0.1C149.3,155.9,149.2,156,149.1,156L149.1,156z M149.1,154.6
		c-0.1,0-0.3-0.2-0.3-0.3c0-0.1,0-0.2,0.1-0.2h0c0.2,0,0.3,0.1,0.3,0.3C149.3,154.6,149.2,154.6,149.1,154.6L149.1,154.6z
		 M151.3,152.9c0.1,0,0.1,0.1,0.1,0.1c0,0.1,0,0.1-0.1,0.1h0c-0.1,0-0.1-0.1-0.1-0.1C151.2,153,151.2,153,151.3,152.9
		C151.3,152.9,151.3,152.9,151.3,152.9C151.3,152.9,151.3,152.9,151.3,152.9L151.3,152.9z M151,154c0,0.1-0.1,0.1-0.2,0.1
		c0,0,0,0,0,0h0c-0.1,0-0.1-0.1-0.1-0.1c0,0,0,0,0,0c0-0.1,0.1-0.1,0.2-0.1S151,153.9,151,154L151,154z M150.1,153.3
		c0,0,0.1-0.1,0.1,0c0.1,0.1,0.1,0.1,0,0.2c-0.1,0.1-0.2,0.2-0.3,0.2c-0.1,0-0.2-0.1-0.1-0.2C149.8,153.5,149.9,153.4,150.1,153.3
		L150.1,153.3z M149.8,152.8c0.1,0,0.1,0,0.1,0.1c0,0,0,0,0,0c0,0,0,0,0,0c0,0.1-0.1,0.1-0.1,0.1c-0.1,0-0.1-0.1-0.1-0.1
		C149.7,152.8,149.7,152.8,149.8,152.8L149.8,152.8z M149.4,154.2c0-0.1,0.1-0.2,0.2-0.2c0,0,0,0,0,0c0,0,0,0,0,0
		c0.1,0,0.2,0.1,0.2,0.2c0,0.1-0.1,0.2-0.2,0.2C149.5,154.4,149.4,154.3,149.4,154.2L149.4,154.2L149.4,154.2z M149.7,157.1
		c-0.2,0-0.2-0.2-0.2-0.3c0-0.1,0-0.2,0.1-0.2c0.2,0,0.2,0.2,0.2,0.3C149.9,157,149.8,157.1,149.7,157.1L149.7,157.1z M150,155.4
		c-0.1,0-0.1-0.1-0.1-0.1c0,0,0-0.1,0.1-0.1c0,0,0,0,0,0c0.1,0,0.1,0.1,0.1,0.1C150.1,155.3,150.1,155.4,150,155.4L150,155.4z
		 M150.3,157.1c-0.1,0-0.2-0.1-0.1-0.2c0,0,0-0.1,0.1-0.1C150.3,156.8,150.4,156.9,150.3,157.1C150.4,157,150.4,157.1,150.3,157.1
		L150.3,157.1z M150.5,153.2c0-0.2,0.2-0.2,0.4-0.2c0.1,0,0.1,0,0.1,0.1c0,0.2-0.2,0.1-0.3,0.2C150.5,153.3,150.5,153.3,150.5,153.2
		L150.5,153.2z M150.6,155.3c-0.1,0-0.1,0-0.1-0.1c0,0,0,0,0,0c0-0.1,0-0.1,0.1-0.1c0.1,0,0.1,0,0.1,0.1v0v0
		C150.7,155.2,150.7,155.3,150.6,155.3L150.6,155.3z M150.8,157c-0.1,0-0.1,0-0.2-0.1c0,0,0,0,0-0.1c0-0.1,0-0.2,0.1-0.2
		c0.1,0,0.2,0.1,0.2,0.2v0C151,157,150.9,157,150.8,157C150.9,157,150.9,157,150.8,157C150.8,157,150.8,157,150.8,157L150.8,157z
		 M151.1,155.6c-0.1,0-0.2-0.1-0.2-0.2c0-0.1,0-0.2,0.1-0.2c0.2-0.1,0.2,0.1,0.2,0.2l0,0.1C151.2,155.6,151.2,155.6,151.1,155.6
		L151.1,155.6z M151.5,155.6c0,0.1-0.1,0.1-0.1,0l0-0.1c0,0,0-0.1,0.1-0.1C151.5,155.5,151.5,155.5,151.5,155.6L151.5,155.6z
		 M151.4,154.2c-0.1,0-0.1,0-0.2-0.1c0,0,0,0,0,0c0-0.1,0.1-0.2,0.2-0.2s0.1,0.1,0.1,0.1C151.5,154.1,151.5,154.2,151.4,154.2
		L151.4,154.2z M152.7,154.7c0.1,0,0.1,0.1,0.1,0.2c0,0.1,0,0.2-0.1,0.2c0,0,0,0,0,0c-0.1,0-0.2-0.1-0.2-0.1c0,0,0,0,0,0v0
		C152.5,154.8,152.6,154.7,152.7,154.7L152.7,154.7z M151.7,153.1c0-0.1,0-0.1,0.1-0.2s0.1,0,0.1,0.1c0,0.1-0.1,0.2-0.1,0.2
		C151.7,153.3,151.7,153.2,151.7,153.1z M152.1,154.4c-0.2,0-0.3-0.1-0.3-0.2c0-0.1,0.1-0.2,0.3-0.2c0.1,0,0.3,0.1,0.3,0.2
		S152.2,154.4,152.1,154.4L152.1,154.4z M152.9,156.4c-0.1,0.1-0.2,0.2-0.4,0.2c-0.1,0-0.2,0-0.2-0.1s0.1-0.2,0.2-0.2c0,0,0,0,0,0
		c0.1,0,0.2-0.1,0.4,0C153,156.3,153,156.4,152.9,156.4L152.9,156.4z M153.4,156.8c-0.1,0-0.2,0-0.2-0.2c0-0.1,0.2-0.3,0.4-0.3
		c0.1,0,0.2,0.1,0.2,0.2c0,0,0,0,0,0c0,0,0,0,0,0C153.7,156.7,153.6,156.8,153.4,156.8L153.4,156.8z"/>
</g>
</svg>
