<?xml version="1.0" encoding="utf-8"?>
<!-- Generator: Adobe Illustrator 25.2.0, SVG Export Plug-In . SVG Version: 6.00 Build 0)  -->
<svg version="1.1" id="Layer_2" xmlns="http://www.w3.org/2000/svg" xmlns:xlink="http://www.w3.org/1999/xlink" x="0px" y="0px"
	 viewBox="0 0 500 500" style="enable-background:new 0 0 500 500;" xml:space="preserve">
<style type="text/css">
	.st0{fill:#363842;}
	.st1{fill:#33BACC;}
</style>
<g>
	<circle class="st0" cx="250" cy="250" r="247.1"/>
</g>
<g>
	<path class="st1" d="M62.9,193.7c4-0.7,12.8-1.4,21.1-1.4c9.4,0,15.1,0.7,20.3,3.3c5.2,2.4,9,7.2,9,13.7c0,5.6-3.1,11.1-10.8,14
		v0.2c8.2,2.2,13,8.3,13,16.2c0,6.3-3,11.2-7.5,14.5c-5,3.8-13.3,6-27.6,6c-8.1,0-14-0.5-17.5-1.1V193.7z M80.5,218.4h3.6
		c7.5,0,11.2-2.7,11.2-7c0-3.9-3-6.4-8.9-6.4c-3,0-4.7,0.2-5.8,0.4V218.4z M80.5,246.8c1.3,0.2,2.8,0.2,5.1,0.2c5.9,0,11-2.4,11-8.2
		c0-5.6-5.2-7.8-11.9-7.8h-4.3V246.8z"/>
	<path class="st1" d="M152.8,259.4l-0.9-4.3h-0.3c-3.4,3.9-8.2,5.4-13.5,5.4c-9.9,0-16.1-7.2-16.1-15.3c0-13,11.7-18.9,28.2-18.9
		v-0.4c0-2-1.5-4.2-8-4.2c-5.1,0-10.6,1.8-13.7,3.6l-3.1-11.3c3.1-1.7,10.1-4.4,20.1-4.4c16.8,0,22.5,9.3,22.5,21.4v16.4
		c0,4.8,0.3,9.4,0.8,11.8H152.8z M150.8,237.2c-7.3,0-11.4,2-11.4,6.3c0,3.1,2,4.7,5,4.7c2.5,0,5.3-1.8,6.1-4.5
		c0.2-0.7,0.2-1.6,0.2-2.5V237.2z"/>
	<path class="st1" d="M179,227.3c0-6.5-0.2-12.1-0.4-16.6H194l0.8,6.2h0.3c1.8-2.5,6.4-7.3,14.6-7.3c11.3,0,17.5,7.7,17.5,21v28.7
		h-17.8v-26.5c0-5.6-1.9-8.9-6.2-8.9c-3.5,0-5,2.4-5.9,4.3c-0.4,0.9-0.5,2.3-0.5,3.6v27.5H179V227.3z"/>
	<path class="st1" d="M287.5,189.2V244c0,6,0.2,12.2,0.4,15.4h-15.8l-0.7-6.6h-0.2c-3.2,5.5-9.1,7.7-14.7,7.7
		c-11.3,0-20.7-9.8-20.7-25.1c-0.1-16.4,10.3-25.7,21.7-25.7c5.4,0,9.8,1.6,12,4.7h0.2v-25.2H287.5z M269.7,231.7
		c0-0.7,0-1.6-0.1-2.3c-0.6-3.4-3.3-6.2-7-6.2c-6,0-8.6,5.3-8.6,11.7c0,7.5,3.7,11.3,8.6,11.3c3.6,0,6.4-2.5,7-5.8
		c0.2-1,0.3-2.1,0.3-3.3V231.7z"/>
	<path class="st1" d="M312.1,207.7h-17v-15h52.1v15h-17.3v51.6h-17.8V207.7z"/>
	<path class="st1" d="M360.9,241.3c0.6,3.9,6.2,6,12.5,6c4.6,0,8.9-0.5,13.3-1.9l2.2,11.9c-5.9,2.3-12.2,3.1-18.2,3.1
		c-17.1,0-26.8-9.4-26.8-24.8c0-11.3,7.3-25.9,25.2-25.9c15.7,0,22.4,11.5,22.4,24.9c0,3-0.3,5.6-0.6,6.8H360.9z M375.2,229.2
		c0-2.8-1.3-8-6.9-8c-5.3,0-7.3,4.8-7.6,8H375.2z"/>
	<path class="st1" d="M436.9,258.4c-2.9,1.3-8,2-13.4,2c-16.2,0-26.3-9.5-26.3-24.9c0-13.9,9.5-25.8,28.5-25.8
		c3.5,0,7.7,0.5,11.2,1.6l-2.5,13.1c-1.7-0.7-4.1-1.2-7.7-1.2c-6.7,0-11.4,4.5-11.3,11.6c0,7.9,5.5,11.7,11.8,11.7
		c3,0,5.6-0.4,7.8-1.3L436.9,258.4z"/>
</g>
<g>
	<path class="st1" d="M61.4,284.1h11.6c2.1,0,3.9,0.4,5.5,1.2c1.6,0.8,3,1.8,4.2,3.2c1.2,1.4,2,2.9,2.6,4.7c0.6,1.8,0.9,3.7,0.9,5.8
		c0,2.1-0.3,4.1-1,6c-0.6,1.8-1.6,3.4-2.7,4.8c-1.2,1.3-2.6,2.4-4.2,3.2c-1.6,0.8-3.4,1.1-5.4,1.1H61.4V284.1z M66.5,309.6h5.4
		c1.4,0,2.6-0.2,3.8-0.7c1.2-0.5,2.2-1.1,3-2s1.5-2,2-3.3c0.5-1.3,0.7-2.8,0.7-4.6c0-1.8-0.2-3.4-0.7-4.8c-0.5-1.3-1.1-2.5-2-3.3
		c-0.8-0.9-1.8-1.5-3-1.9c-1.2-0.4-2.4-0.6-3.8-0.6h-5.4V309.6z"/>
	<path class="st1" d="M98.7,284.1V314h-5.1v-29.9H98.7z"/>
	<path class="st1" d="M111.5,299c0,1.8,0.2,3.5,0.7,4.9c0.5,1.4,1.1,2.6,1.9,3.6s1.7,1.7,2.8,2.2c1.1,0.5,2.2,0.8,3.4,0.8
		c1,0,2-0.2,2.9-0.7c0.9-0.5,1.8-1.1,2.6-1.9c0.8-0.8,1.4-1.7,1.9-2.8c0.5-1.1,0.8-2.2,1-3.3h-8.8v-4.2h13.8V314h-3.8l-0.6-3.6
		c-0.6,0.6-1.2,1.2-1.9,1.7c-0.7,0.5-1.4,1-2.2,1.4c-0.8,0.4-1.5,0.7-2.4,0.9c-0.8,0.2-1.6,0.3-2.4,0.3c-2.1,0-4.1-0.4-5.8-1.2
		c-1.7-0.8-3.2-1.9-4.4-3.3c-1.2-1.4-2.1-3.1-2.8-5c-0.7-1.9-1-4-1-6.2c0-1.3,0.1-2.6,0.4-3.9s0.7-2.5,1.2-3.7
		c0.5-1.2,1.2-2.2,2-3.2c0.8-1,1.7-1.9,2.7-2.6c1-0.7,2.2-1.3,3.4-1.7c1.2-0.4,2.6-0.6,4.1-0.6c1.9,0,3.5,0.3,5,0.8
		c1.5,0.5,2.7,1.3,3.8,2.2c1.1,0.9,2,2,2.8,3.3c0.8,1.3,1.3,2.7,1.8,4.2h-5.3c-0.8-2.1-1.8-3.7-3.1-4.8s-3-1.6-5-1.6
		c-1.3,0-2.5,0.3-3.5,0.9c-1.1,0.6-2,1.4-2.8,2.5c-0.8,1.1-1.4,2.3-1.8,3.7C111.7,296,111.5,297.5,111.5,299z"/>
	<path class="st1" d="M147.2,284.1V314h-5.1v-29.9H147.2z"/>
	<path class="st1" d="M178.2,284.1v4.3h-9.5V314h-5.1v-25.6h-9.5v-4.3H178.2z"/>
	<path class="st1" d="M200,284.1l10.9,29.9h-5.3l-3.2-8.8h-10.8c-0.5,1.4-1,2.9-1.6,4.4c-0.6,1.5-1.1,2.9-1.6,4.4h-5.2l10.9-29.9
		H200z M197,290.3l-3.8,10.6h7.6L197,290.3z"/>
	<path class="st1" d="M223.1,284.1v25.6h14.4v4.3H218v-29.9H223.1z"/>
	<path class="st1" d="M257.4,304.6c0.1,1.1,0.3,2.1,0.7,2.9c0.4,0.9,1,1.7,1.7,2.3c0.7,0.7,1.5,1.2,2.4,1.5c0.9,0.4,2,0.5,3.1,0.5
		c1,0,2-0.1,2.9-0.3s1.7-0.6,2.4-1.1c0.7-0.5,1.3-1.1,1.7-1.9c0.4-0.8,0.6-1.7,0.6-2.8c0-0.9-0.2-1.6-0.7-2.3
		c-0.5-0.6-1-1.2-1.8-1.6c-0.7-0.5-1.6-0.8-2.5-1.2c-0.9-0.3-1.9-0.6-2.8-0.9c-0.8-0.2-1.6-0.5-2.4-0.8s-1.6-0.6-2.3-0.9
		c-0.8-0.3-1.5-0.7-2.1-1.2c-0.7-0.4-1.2-1-1.7-1.6c-0.5-0.6-0.9-1.3-1.1-2c-0.3-0.8-0.4-1.6-0.4-2.6c0-1.2,0.2-2.3,0.7-3.3
		c0.5-1,1.2-1.7,2-2.4c0.9-0.6,1.9-1.1,3.2-1.5c1.2-0.3,2.6-0.5,4-0.5c1.3,0,2.5,0.1,3.5,0.4c1,0.3,1.9,0.6,2.6,1.1
		c0.7,0.4,1.4,1,1.9,1.6s0.9,1.2,1.3,1.9c0.3,0.7,0.6,1.3,0.7,2c0.2,0.7,0.3,1.4,0.3,2h-3.3c-0.1-1-0.3-1.9-0.7-2.6
		c-0.4-0.8-0.9-1.4-1.5-1.9c-0.6-0.5-1.3-0.9-2.2-1.2s-1.7-0.4-2.6-0.4c-0.8,0-1.7,0.1-2.5,0.3c-0.8,0.2-1.5,0.4-2.2,0.8
		c-0.6,0.4-1.2,0.9-1.5,1.5c-0.4,0.6-0.6,1.4-0.6,2.3c0,0.9,0.2,1.7,0.7,2.3c0.4,0.6,1,1.2,1.8,1.6c0.7,0.5,1.6,0.9,2.5,1.2
		c1,0.3,1.9,0.7,2.9,1c0.8,0.2,1.6,0.5,2.4,0.8c0.8,0.3,1.6,0.6,2.3,0.9c0.7,0.3,1.4,0.7,2.1,1.2s1.2,0.9,1.7,1.5s0.8,1.2,1.1,2
		c0.3,0.8,0.4,1.6,0.4,2.6c0,1.5-0.3,2.7-0.8,3.8c-0.5,1.1-1.3,2-2.2,2.8c-1,0.7-2.1,1.3-3.4,1.7c-1.3,0.4-2.8,0.6-4.3,0.6
		c-1.4,0-2.8-0.2-4.1-0.7c-1.3-0.5-2.5-1.2-3.5-2c-1-0.9-1.9-1.9-2.5-3.2s-1-2.7-1-4.2H257.4z"/>
	<path class="st1" d="M285.7,298.5c0,2.3,0.3,4.3,0.9,6c0.6,1.7,1.4,3.1,2.3,4.2c1,1.1,2.1,1.9,3.3,2.5c1.2,0.5,2.5,0.8,3.7,0.8
		c1.3,0,2.5-0.2,3.5-0.7c1.1-0.5,2-1.1,2.7-1.9c0.8-0.8,1.4-1.7,1.9-2.6c0.5-1,0.9-2,1.1-3.1h3.2c-0.3,1.5-0.8,3-1.5,4.3
		c-0.7,1.4-1.6,2.5-2.6,3.5c-1.1,1-2.3,1.8-3.7,2.4c-1.4,0.6-3,0.9-4.8,0.9c-2,0-3.9-0.4-5.5-1.1c-1.7-0.7-3.1-1.8-4.2-3.2
		c-1.2-1.4-2.1-3.1-2.7-5.1c-0.6-2-0.9-4.3-0.9-6.8c0-2,0.3-3.9,0.9-5.7c0.6-1.8,1.5-3.4,2.6-4.8c1.1-1.4,2.5-2.5,4.2-3.4
		s3.5-1.3,5.7-1.3c1.8,0,3.4,0.2,4.8,0.7c1.4,0.5,2.6,1.1,3.7,2s1.9,1.8,2.6,3c0.7,1.2,1.2,2.4,1.6,3.8h-3.4c-0.8-2.2-1.9-3.9-3.4-5
		s-3.5-1.6-5.8-1.6c-1.5,0-2.9,0.3-4.1,1c-1.2,0.7-2.3,1.6-3.2,2.7c-0.9,1.1-1.6,2.4-2.1,3.9C286,295.2,285.7,296.8,285.7,298.5z"/>
	<path class="st1" d="M320,284.1v13h16.3v-13h3.2V314h-3.2v-14.1H320V314h-3.2v-29.9H320z"/>
	<path class="st1" d="M374.4,299c0,2.3-0.3,4.4-0.9,6.3c-0.6,1.9-1.5,3.6-2.6,5c-1.1,1.4-2.5,2.5-4.2,3.2c-1.7,0.8-3.6,1.2-5.7,1.2
		c-2.1,0-4-0.4-5.7-1.2c-1.7-0.8-3.1-1.9-4.2-3.2s-2-3.1-2.6-5s-0.9-4-0.9-6.3c0-2.3,0.3-4.4,0.9-6.3s1.5-3.6,2.6-5
		c1.1-1.4,2.5-2.5,4.2-3.2s3.6-1.2,5.7-1.2c2.1,0,4,0.4,5.7,1.2c1.7,0.8,3.1,1.9,4.2,3.2c1.1,1.4,2,3,2.6,5
		C374.2,294.6,374.4,296.7,374.4,299z M371.3,299c0-2-0.3-3.8-0.8-5.4c-0.5-1.6-1.3-2.9-2.2-4.1c-0.9-1.1-2-2-3.2-2.5
		c-1.2-0.6-2.6-0.9-4-0.9c-1.4,0-2.8,0.3-4,0.9c-1.2,0.6-2.3,1.4-3.2,2.5c-0.9,1.1-1.6,2.5-2.2,4.1c-0.5,1.6-0.8,3.4-0.8,5.4
		c0,2,0.3,3.8,0.8,5.4c0.5,1.6,1.2,3,2.2,4.1c0.9,1.1,2,2,3.2,2.5c1.2,0.6,2.6,0.9,4,0.9c1.4,0,2.8-0.3,4-0.9
		c1.2-0.6,2.3-1.4,3.2-2.5c0.9-1.1,1.6-2.5,2.2-4.1C371,302.8,371.3,301,371.3,299z"/>
	<path class="st1" d="M407.8,299c0,2.3-0.3,4.4-0.9,6.3c-0.6,1.9-1.5,3.6-2.6,5c-1.1,1.4-2.5,2.5-4.2,3.2c-1.7,0.8-3.6,1.2-5.7,1.2
		c-2.1,0-4-0.4-5.7-1.2c-1.7-0.8-3.1-1.9-4.2-3.2s-2-3.1-2.6-5s-0.9-4-0.9-6.3c0-2.3,0.3-4.4,0.9-6.3s1.5-3.6,2.6-5
		c1.1-1.4,2.5-2.5,4.2-3.2s3.6-1.2,5.7-1.2c2.1,0,4,0.4,5.7,1.2c1.7,0.8,3.1,1.9,4.2,3.2c1.1,1.4,2,3,2.6,5
		C407.5,294.6,407.8,296.7,407.8,299z M404.6,299c0-2-0.3-3.8-0.8-5.4c-0.5-1.6-1.3-2.9-2.2-4.1c-0.9-1.1-2-2-3.2-2.5
		c-1.2-0.6-2.6-0.9-4-0.9c-1.4,0-2.8,0.3-4,0.9c-1.2,0.6-2.3,1.4-3.2,2.5c-0.9,1.1-1.6,2.5-2.2,4.1c-0.5,1.6-0.8,3.4-0.8,5.4
		c0,2,0.3,3.8,0.8,5.4c0.5,1.6,1.2,3,2.2,4.1c0.9,1.1,2,2,3.2,2.5c1.2,0.6,2.6,0.9,4,0.9c1.4,0,2.8-0.3,4-0.9
		c1.2-0.6,2.3-1.4,3.2-2.5c0.9-1.1,1.6-2.5,2.2-4.1C404.3,302.8,404.6,301,404.6,299z"/>
	<path class="st1" d="M419.2,284.1v27h15v2.9H416v-29.9H419.2z"/>
</g>
</svg>
