<?xml version="1.0" encoding="utf-8"?>
<!-- Generator: Adobe Illustrator 25.2.0, SVG Export Plug-In . SVG Version: 6.00 Build 0)  -->
<svg version="1.1" id="Layer_1" xmlns="http://www.w3.org/2000/svg" xmlns:xlink="http://www.w3.org/1999/xlink" x="0px" y="0px"
	 viewBox="0 0 479 479" style="enable-background:new 0 0 479 479;" xml:space="preserve">
<style type="text/css">
	.st0{fill:#E10600;}
	.st1{fill:#FF7373;}
	.st2{fill:#E9F1F2;}
	.st3{fill:#D0D8DA;}
	.st4{fill:#93999A;}
	.st5{fill:#212322;}
</style>
<path class="st0" d="M403.9,124.8C390.1,63.1,337.8,17.6,274.8,12.7c-63-4.9-121.8,31.9-144.9,90.7c-44.7-12.6-92,8.6-112.3,50.3
	s-7.7,92.1,29.8,119.4c37.5,27.3,89.3,23.8,122.7-8.4c50.8,43.7,125,46.3,178.8,6.4c27.4,17.5,62.7,16.6,89.2-2.3
	c26.5-18.9,38.9-51.9,31.4-83.5S436,129.7,403.9,124.8z"/>
<path class="st1" d="M391.3,123.6c-27.2,0-52.5,13.8-67.2,36.7c31.6-20.3,73.1-15.9,99.7,10.7c26.6,26.6,31,68.1,10.7,99.7
	c29.8-19.2,43.4-55.7,33.4-89.7S426.8,123.6,391.3,123.6z"/>
<path class="st1" d="M362.8,129c9.1-3.5,18.8-5.3,28.5-5.3c4.2,0,8.4,0.4,12.5,1.1c-12.2-55.2-55.7-98.1-111-109.7
	C237.5,3.6,180.6,25.6,147.3,71.3c35.1-25.4,79.7-33.7,121.6-22.5S345.2,89.5,362.8,129L362.8,129z"/>
<path class="st1" d="M87.9,131.6c30,0,58.3,14.1,76.4,38c18.1,23.9,23.9,55,15.8,83.8c23.5-30.7,26.4-72.5,7.1-106
	C168,114,130.5,95.2,92.1,100.1s-70.1,32.2-80.4,69.4C29.8,145.7,58,131.7,87.9,131.6z"/>
<path class="st2" d="M351.4,171.6c0-2.9-0.3-5.8-0.8-8.7l16-9.4l-16-27.6l-16,9.3c-4.5-3.8-9.6-6.7-15.2-8.7v-18.8h-31.9v18.8
	c-5.5,2-10.7,4.9-15.2,8.7l-16-9.3l-16,27.6l16,9.4c-1.1,5.8-1.1,11.7,0,17.4l-16,9.4l16,27.6l16-9.3c4.5,3.8,9.6,6.7,15.2,8.7v18.8
	h31.9v-18.8c5.5-2,10.7-4.9,15.2-8.7l16,9.3l16-27.6l-16-9.4C351.1,177.4,351.4,174.5,351.4,171.6z M303.5,187.5
	c-8.8,0-16-7.2-16-16c0-8.8,7.2-16,16-16c8.8,0,16,7.2,16,16C319.5,180.4,312.3,187.5,303.5,187.5z"/>
<path class="st3" d="M335.4,203.5c-35.3,0-63.9-28.6-63.9-63.9v-5l-15.4-8.9l-16,27.6l16,9.4c-1.1,5.8-1.1,11.7,0,17.4l-16,9.4
	l16,27.6l16-9.3c4.6,3.8,9.8,6.8,15.4,8.7v18.8h31.9v-18.8c5.5-2,10.7-4.9,15.2-8.7l16,9.3l8-13.8H335.4z"/>
<path class="st2" d="M260.2,260L220.7,300l-45-45.6l39.9-39.5l-11.9-11.3c-4.5-4.5-10.6-7-17-7c-6.4,0-12.5,2.5-17,7l-45.1,45.2
	c-9.3,9.4-9.3,24.5,0,33.9l67.7,67.7c9.4,9.3,24.5,9.3,33.9,0l45.3-45c4.5-4.5,7-10.6,7-17c0-6.4-2.5-12.5-7-17L260.2,260z"/>
<path class="st4" d="M135.9,293.8l45.2,45.2L62.5,457.6c-12.5,12.5-32.7,12.5-45.2,0c-12.5-12.5-12.5-32.7,0-45.2L135.9,293.8z"/>
<path class="st4" d="M261,288.6c-12,12-28.2,18.7-45.2,18.7c-17,0-33.2-6.7-45.2-18.7l-42.8-43l-3,3.1c-9.3,9.4-9.3,24.5,0,33.9
	l67.7,67.7c9.4,9.3,24.5,9.3,33.9,0l45.2-45.1c7.9-8,9.1-20.5,3-29.9L261,288.6z"/>
<path class="st2" d="M119.1,310.9c12.5,12.5,12.5,32.7,0,45.2l-56.5,56.5c-12.5,12.5-32.7,12.5-45.2,0L119.1,310.9z"/>
<path class="st2" d="M375.4,419.1v-47.9h24l-39.9-47.9l-39.9,47.9h24v47.9"/>
<path class="st3" d="M359.4,371.2v-47.9l-39.9,47.9h24v47.9h31.9v-12.3C365.2,397.7,359.4,384.8,359.4,371.2z"/>
<path class="st2" d="M199.7,131.6c0,8.8-7.2,16-16,16c-8.8,0-16-7.2-16-16s7.2-16,16-16C192.5,115.7,199.7,122.8,199.7,131.6z"/>
<path class="st3" d="M178.4,121c0-1.6,0.3-3.1,0.8-4.6c-7.4,2.1-12.2,9.2-11.4,16.8c0.7,7.6,6.8,13.7,14.4,14.4
	c7.6,0.7,14.7-4.1,16.8-11.4c-1.5,0.5-3.1,0.8-4.6,0.8C185.5,137,178.4,129.8,178.4,121z"/>
<g>
	<path class="st5" d="M327.5,235.4V222c2.8-1.3,5.5-2.8,8-4.5l11.7,6.7c3.8,2.2,8.7,0.8,10.9-3c2.2-3.8,0.9-8.6-2.9-10.9l-16-9.4
		c-2.9-1.7-6.6-1.3-9.2,0.9c-3.7,3.2-8,5.6-12.6,7.3c-3.2,1.1-5.3,4.1-5.3,7.5v10.8h-16.5v-10.8c0-3.4-2.2-6.4-5.3-7.5
		c-4.6-1.6-8.9-4.1-12.6-7.3c-2.6-2.2-6.2-2.6-9.2-0.9l-9.3,5.4l-8-13.9l9.3-5c3-1.7,4.5-5,3.9-8.4c-1-4.8-1-9.7,0-14.5
		c0.9-3.5-0.7-7.3-3.9-9l-9.3-5.3l8-13.9l9.3,5.4c2.9,1.7,6.6,1.3,9.2-0.9c3.7-3.2,8-5.6,12.6-7.3c3.2-1.1,5.3-4.1,5.3-7.5v-10.5h16
		v10.8c0,3.4,2.2,6.4,5.3,7.5c4.6,1.6,8.9,4.1,12.6,7.3c2.6,2.2,6.2,2.6,9.2,0.9l9.3-5.4l8,13.9l-9.3,5c-3,1.7-4.5,5-3.9,8.4
		c1,4.8,1,9.7,0,14.5c-0.9,3.5,0.7,7.3,3.9,9l16,9.3c3.8,2.2,8.6,0.9,10.9-2.9c1.1-1.8,1.4-4,0.8-6.1c-0.5-2.1-1.9-3.8-3.7-4.9
		l-11.2-7c0-1.5,0-3,0-4.5c0-1.5,0-3,0-4.5l11.6-6.7c1.8-1.1,3.2-2.8,3.7-4.9c0.5-2.1,0.2-4.2-0.8-6.1l-16-27.6
		c-2.2-3.8-7-5.1-10.9-3l-11.6,6.7c-2.5-1.7-5.2-3.2-8-4.5v-13.4c0-4.4-3.6-8-8-8h-31.9c-4.4,0-8,3.6-8,8v13.4
		c-2.8,1.3-5.5,2.8-8,4.5l-11.7-6.7c-3.8-2.2-8.7-0.8-10.9,3l-16,27.6c-1.1,1.8-1.4,4-0.8,6.1c0.5,2.1,1.9,3.8,3.7,4.9l11.6,6.7v4.5
		v4.5l-11.6,6.7c-1.8,1.1-3.2,2.8-3.7,4.9c-0.5,2.1-0.2,4.2,0.8,6.1l16,27.6c2.2,3.8,7,5.1,10.9,3l11.7-6.7c2.5,1.7,5.2,3.2,8,4.5
		v13.4c0,4.4,3.6,8,8,8h31.9C323.9,243.4,327.5,239.9,327.5,235.4z"/>
	<path class="st5" d="M279.5,171.6c0,13.2,10.7,24,24,24c13.2,0,24-10.7,24-24c0-13.2-10.7-24-24-24
		C290.3,147.6,279.5,158.3,279.5,171.6z M311.5,171.6c0,4.4-3.6,8-8,8c-4.4,0-8-3.6-8-8s3.6-8,8-8
		C307.9,163.6,311.5,167.2,311.5,171.6z"/>
	<path class="st5" d="M183.7,155.6c13.2,0,24-10.7,24-24s-10.7-24-24-24c-13.2,0-24,10.7-24,24S170.5,155.6,183.7,155.6z
		 M183.7,123.6c4.4,0,8,3.6,8,8s-3.6,8-8,8c-4.4,0-8-3.6-8-8S179.3,123.6,183.7,123.6z"/>
	<path class="st5" d="M265.8,254.4c-1.5-1.5-3.5-2.3-5.6-2.3c-2.1,0-4.2,0.8-5.7,2.3l-33.9,33.9l-33.9-33.9l33.9-33.9
		c1.5-1.5,2.3-3.5,2.3-5.7c0-2.1-0.8-4.1-2.3-5.6l-11.3-11.3c-12.6-12.1-32.5-12.1-45.1,0L119,243.4c-6,6-9.4,14.1-9.4,22.6
		c0,8.5,3.4,16.6,9.4,22.6l5.7,5.6l-113,112.6c-15.6,15.6-15.6,40.9,0,56.5c15.6,15.6,40.9,15.6,56.5,0l96.8-96.9
		c2.7-3.2,2.5-7.9-0.4-10.8c-2.9-2.9-7.7-3.1-10.8-0.4L56.9,452c-9.4,8.8-24.2,8.5-33.3-0.6c-9.1-9.1-9.4-23.8-0.6-33.3l112.8-112.9
		l8.5,8.5c3.1,3.1,8.1,3.1,11.3,0c1.5-1.5,2.4-3.5,2.4-5.7s-0.9-4.2-2.4-5.7l-14.1-14.1L130.3,277c-3-3-4.7-7.1-4.7-11.3
		c0-4.2,1.7-8.3,4.7-11.3l45.4-45.1c3-3,7.1-4.7,11.3-4.7c4.2,0,8.3,1.7,11.3,4.7l5.7,5.6l-33.9,33.9c-3.1,3.1-3.1,8.1,0,11.3
		l45.2,45.2c3.1,3.1,8.1,3.1,11.3,0l33.9-33.9l5.6,5.7c3,3,4.7,7.1,4.7,11.3c0,4.2-1.7,8.3-4.7,11.3l-45.1,45.2
		c-3,3-7.1,4.7-11.3,4.7s-8.3-1.7-11.3-4.7l-20.9-20.9c-3.2-2.7-7.9-2.5-10.8,0.4c-3,2.9-3.1,7.7-0.4,10.8L187,356
		c6,6,14.1,9.4,22.6,9.4c8.5,0,16.6-3.4,22.6-9.4l45.2-45.2c12.4-12.5,12.4-32.6,0-45.1L265.8,254.4z"/>
	<path class="st5" d="M62.6,401.2l-28.3,28.2c-1.5,1.5-2.4,3.5-2.4,5.7s0.9,4.2,2.4,5.7c1.5,1.5,3.5,2.4,5.7,2.4s4.2-0.9,5.7-2.4
		l28.2-28.3c2.7-3.2,2.5-7.9-0.4-10.8C70.5,398.7,65.7,398.5,62.6,401.2z"/>
	<path class="st5" d="M365.5,318.2c-1.5-1.8-3.8-2.9-6.1-2.9s-4.6,1.1-6.1,2.9l-39.9,47.9c-2,2.4-2.4,5.7-1.1,8.5
		c1.3,2.8,4.1,4.6,7.2,4.6h16v24c0,4.4,3.6,8,8,8c4.4,0,8-3.6,8-8v-31.9c0-4.4-3.6-8-8-8h-6.9l22.8-27.5l22.8,27.5h-6.9
		c-4.4,0-8,3.6-8,8v47.9c0,4.4,3.6,8,8,8c4.4,0,8-3.6,8-8v-39.9h16c3.1,0,5.9-1.8,7.2-4.6c1.3-2.8,0.9-6.1-1.1-8.5L365.5,318.2z"/>
	<path class="st5" d="M410.5,117.8C393,51,332.7,4.2,263.6,3.9C203.6,3.7,149.2,39,125,93.9c-7-1.5-14-2.2-21.2-2.2
		C50,91.9,5.3,133.2,0.8,186.8c-4.5,53.6,32.7,101.8,85.8,111c4.4,0.7,8.6-2.2,9.3-6.6s-2.2-8.6-6.6-9.3
		c-32.7-4.7-60.1-27.3-70.8-58.6c-10.7-31.3-2.8-66,20.2-89.6c23.1-23.7,57.5-32.4,89.1-22.5c4,1.2,8.2-0.9,9.7-4.8
		c20.1-52.1,70.2-86.5,126.1-86.4c63.6,0.3,118.6,44.5,132.6,106.6c0.7,3.2,3.3,5.6,6.5,6.1c28.9,4.5,52.2,26,59,54.4
		c6.7,28.5-4.4,58.2-28.2,75.1c-23.8,17-55.6,17.8-80.2,2.1c-2.7-1.9-6.3-1.9-9,0c-10.8,8.1-22.7,14.5-35.4,19.1
		c-4.4,0.7-7.4,4.9-6.6,9.3c0.7,4.4,4.9,7.4,9.3,6.6c0.9,0,1.8-0.2,2.7-0.5c12.4-4.4,24.3-10.4,35.1-17.9
		c12.9,6.9,27.4,10.5,42,10.4c44.7-0.1,82.2-33.8,87.1-78.2C483.4,168.7,454.1,127.7,410.5,117.8z"/>
</g>
<path class="st1" d="M106.4,20.1l6.4,18c0.3,0.8,0.8,1.4,1.5,1.7l16,7.2c2.3,1,2.3,4.6,0,5.6l-16,7.2c-0.7,0.3-1.2,0.9-1.5,1.7
	l-6.4,18c-0.9,2.5-4.1,2.5-5,0l-6.4-18c-0.3-0.8-0.8-1.4-1.5-1.7l-16-7.2c-2.3-1-2.3-4.6,0-5.6l16-7.2c0.7-0.3,1.2-0.9,1.5-1.7
	l6.4-18C102.4,17.5,105.5,17.5,106.4,20.1z"/>
<path class="st1" d="M283.1,376.1l-14.1,6.8c-0.6,0.3-1.1,0.8-1.3,1.5l-5.3,16.1c-0.7,2.3-3.6,2.4-4.5,0.1l-6.2-15.8
	c-0.3-0.7-0.8-1.2-1.4-1.5l-14.5-6c-2-0.8-2.1-4-0.1-5l14.1-6.8c0.6-0.3,1.1-0.8,1.3-1.5l5.3-16.1c0.7-2.3,3.6-2.4,4.5-0.1l6.2,15.8
	c0.3,0.7,0.8,1.2,1.4,1.5l14.5,6C285,371.9,285.1,375.1,283.1,376.1z"/>
<path class="st1" d="M65.4,89.2c-4.4,0.6-8.4-2.5-8.9-6.8s2.5-8.4,6.8-8.9s8.4,2.5,8.9,6.8C72.9,84.7,69.8,88.7,65.4,89.2z"/>
<path class="st1" d="M199.6,405.1c-4.4,0.6-8.4-2.5-8.9-6.8c-0.6-4.4,2.5-8.4,6.8-8.9c4.4-0.6,8.4,2.5,8.9,6.8
	C207.1,400.6,204,404.6,199.6,405.1z"/>
</svg>
