<svg id="Capa_1" enable-background="new 0 0 504.622 504.622" height="512" viewBox="0 0 504.622 504.622" width="512" xmlns="http://www.w3.org/2000/svg"><g><path d="m497.337 171.829-27.94-27.99c-2.927-2.931-7.676-2.936-10.606-.009-2.932 2.926-2.936 7.675-.009 10.607l27.937 27.986c3.887 3.898 3.885 10.239 0 14.13l-17.102 17.091c-3.896 3.896-10.234 3.897-14.131.002l-107.986-107.995c-3.899-4.71-3.898-9.42.003-14.13l17.186-17.187c3.904-3.897 10.25-3.898 14.143.001l56.859 56.97c2.927 2.932 7.676 2.936 10.606.01 2.932-2.926 2.937-7.675.011-10.607l-56.861-56.971c-9.737-9.751-25.598-9.761-35.36-.014l-17.189 17.19c-7.287 8.432-9.134 17.419-5.54 26.961-5.749 5.744-11.721 11.316-17.262 17.259-8.726 8.194-13.366 10.232-23.161 10.235-10.505-.389-22.058 4.922-34.362 15.808-8.336-8.192-22.979-16.36-35.254-16.36-8.966 0-17.336-4.447-23.578-10.69l-15.671-15.672 5.404-5.404c2.929-2.929 2.929-7.677.001-10.606l-41.94-41.95c-2.928-2.929-7.678-2.93-10.607 0l-25.7 25.7c-2.929 2.929-2.929 7.678 0 10.606 2.929 2.929 7.678 2.929 10.606 0l20.396-20.396 31.334 31.342-122.115 122.117-31.342-31.335 78.616-78.616c2.929-2.929 2.929-7.678 0-10.606-2.929-2.929-7.678-2.929-10.606 0l-83.92 83.92c-2.929 3.536-2.929 7.071 0 10.607l41.95 41.94c3.535 2.929 7.071 2.928 10.606 0l5.403-5.403 15.663 15.663c.003.003.005.006.007.008 9.798 10.023 10.188 14.806 10.815 24.18.163 12.892 7.853 26.289 16.635 35.072l15.339 15.338s-26.819 26.834-26.967 27.013c-11.733 14.154-11.561 29.809.46 41.879 6.948 6.977 14.881 10.04 23.096 9.181-.923 17.248 14.542 32.566 31.83 31.325-1.767 24.731 28.197 41.528 48.479 25.445 6.11 22.148 34.077 29.807 50.313 13.57l10.601-10.601 10.726 10.726c19.029 19.027 52.654 3.408 51.08-23.131 17.773 1.051 32.856-14.024 31.802-31.802 17.595 1.041 32.862-14.022 31.786-31.818 26.762 1.619 42.364-31.845 23.148-51.063l-10.726-10.726 13.603-13.604c8.981-8.98 15.361-21.825 17.499-35.213 1.871-11.446 3.562-17.647 10.953-25.039l16.979-16.987c9.535 3.586 18.517 1.742 26.946-5.531l17.106-17.096c9.719-9.738 9.725-25.585.008-35.33zm-325.873-52.765 10.307 10.308-100.64 100.759-10.367-10.367zm63.754 339.372c-7.085 5.961-14.08 6.032-20.986.216-6.282-6.805-6.25-13.908.082-21.703l13.106-13.106c1.312 4.862 3.864 9.457 7.673 13.266l10.726 10.726zm63.726-.121c-6.146 4.672-14.889 6.542-21.185.247l-32.059-32.059c-13.189-13.19 7.39-35 21.195-21.196l32.059 32.059c5.773 5.772 5.773 15.165-.01 20.949zm10.617-31.556-32.059-32.059c-13.192-13.191 7.393-34.999 21.194-21.195l32.059 32.059c12.565 12.788-7.102 34.788-21.194 21.195zm53.003-32.063c-6.295 5.42-14.764 6.699-21.201.261l-32.059-32.059c-13.362-13.36 7.841-34.548 21.194-21.195l32.06 32.059c5.205 5.368 5.256 15.684.006 20.934zm31.796-31.797c-6.305 5.423-14.757 6.694-21.194.256l-32.06-32.059c-.002-.002-.004-.004-.006-.006-5.767-5.774-5.765-15.162 0-20.927 6.144-4.683 14.899-6.565 21.201-.262l32.059 32.059c5.773 5.773 5.773 15.166 0 20.939zm31.328-126.733c-10.761 10.761-13.146 20.981-15.152 33.25-1.631 10.211-6.602 20.304-13.298 27l-13.604 13.604-10.725-10.725c-18.738-18.737-52.646-3.017-51.064 23.148-17.437-1.055-32.847 14.416-31.819 31.785-17.782-1.051-32.862 14.036-31.801 31.818-14.285-.855-27.623 8.9-31.012 22.955-2.659-.977-5.759-.406-7.893 1.729l-31.802 31.807c-6.953 5.772-13.938 5.85-20.954.234-6.153-7.596-6.127-14.129.058-21.733l31.503-31.503c2.929-2.929 2.929-7.678 0-10.606-2.929-2.929-7.678-2.929-10.606 0l-31.486 31.486c-7.519 6.14-13.989 6.242-21.478.286-5.947-7.489-5.848-13.96.281-21.48l31.55-31.55c2.929-2.929 2.929-7.678 0-10.606-2.929-2.929-7.678-2.929-10.606 0l-31.583 31.583c-10.624 8.668-17.049 4.721-21.461.29-2.352-2.361-9.472-9.512.249-21.463l56.181-56.181c2.929-2.929 2.929-7.678 0-10.606-2.929-2.929-7.678-2.929-10.606 0l-19.337 19.337-15.338-15.338c-21.313-22.667-2.813-32.917-22.373-53.612l101.271-101.38c12.601 9.669 24.627 10.242 28.565 10.125 7.836.01 19.015 6.348 24.91 12.244l63.77 63.77c8.381 10.119 8.38 20.238-.003 30.356-8.213 8.219-22.11 8.214-30.341-.002l-58.912-58.913c-2.929-2.929-7.678-2.929-10.606 0-2.929 2.929-2.929 7.678 0 10.606l10.599 10.599-43.587 43.587c-2.929 2.929-2.929 7.678 0 10.606 2.929 2.929 7.678 2.929 10.606 0l43.586-43.587 37.712 37.712c14.23 14.206 37.357 14.202 51.551-.005 14.068-14.065 14.067-37.501.001-51.567l-53.418-53.418c8.874-7.685 16.975-11.72 23.242-11.444.148.005.298.006.445.007 13.876 0 22.112-3.57 33.819-14.639 5.42-5.112 10.543-10.563 15.818-15.826l100.696 100.705z"/><path d="m218.044 69.788 28.992 28.941c3.533 2.923 7.065 2.923 10.598 0l28.952-28.902c3.778-3.675 7.497-10.624 7.325-17.929 0 0 0 0 0-.001-.331-14.021-11.392-25.005-25.181-25.005-6.174 0-11.936 2.214-16.396 6.042-4.461-3.829-10.222-6.042-16.396-6.042-13.192 0-24.007 10.562-25.157 24.569-.586 7.148 3.271 14.054 7.076 18.134.062.066.124.13.187.193zm17.896-27.896c4.171 0 7.877 2.501 9.442 6.372 4.636 6.251 9.271 6.251 13.906 0 1.564-3.871 5.271-6.371 9.442-6.371 8.748 0 13.516 11.061 7.298 17.28l-23.693 23.652-23.585-23.545c-5.321-5.835-1.766-17.388 7.19-17.388z"/></g></svg>