<svg id="Layer_5" enable-background="new 0 0 64 64" height="512" viewBox="0 0 64 64" width="512" xmlns="http://www.w3.org/2000/svg"><g><path d="m63 41.929v-5h-1c-.728 0-1.43.112-2.091.32.095-1.34-.193-2.69-.866-3.902l-2.67-4.808-.887.532c-2.908 1.745-4.102 5.219-3.027 8.312-.766-.289-1.592-.454-2.458-.454h-1v5c0 .218.036.433.057.651l-.308.616c-.511-3.061-1.83-5.85-3.748-8.127v-9.069c0-1.457-.626-2.805-1.697-3.746l7.082-21.254h-14.108l-4.279 12.838-4.279-12.838h-14.108l7.085 21.255c-1.072.941-1.698 2.288-1.698 3.745v9.068c-1.919 2.278-3.237 5.066-3.748 8.127l-.308-.616c.02-.217.056-.433.056-.65v-5h-1c-.866 0-1.692.165-2.458.454 1.075-3.093-.119-6.567-3.027-8.312l-.887-.532-2.67 4.808c-.673 1.212-.961 2.562-.866 3.902-.662-.208-1.364-.32-2.092-.32h-1v5c0 1.93.785 3.68 2.053 4.948-.123.034-.247.063-.37.104l-.949.315 1.316 3.949c.619 1.855 1.923 3.359 3.673 4.234.2.1.405.182.61.263-.736.375-1.427.865-2.042 1.48l-.707.707 2.707 2.707c1.566 1.566 3.625 2.353 5.692 2.353 2.07 0 4.148-.789 5.744-2.374.667-.672 1.188-1.457 1.58-2.305 3.052 2.898 7.163 4.69 11.693 4.69s8.642-1.792 11.692-4.691c.396.852.927 1.648 1.621 2.348 1.57 1.559 3.628 2.338 5.687 2.338 2.067 0 4.136-.787 5.707-2.358l2.707-2.707-.707-.707c-.615-.615-1.306-1.105-2.042-1.48.205-.081.41-.163.61-.263 1.75-.875 3.055-2.379 3.673-4.234l1.316-3.949-.949-.315c-.122-.041-.246-.069-.37-.104 1.27-1.269 2.055-3.019 2.055-4.949zm-2 0c0 2.415-1.721 4.435-4 4.899v-2.899c0-2.415 1.721-4.435 4-4.899zm-5.321-10.519 1.615 2.907c.714 1.286.822 2.789.321 4.163-.585.471-1.09 1.035-1.498 1.668-.073-.151-.134-.306-.215-.453l-1.197-2.154c-1.151-2.073-.7-4.587.974-6.131zm-4.679 7.619c2.279.465 4 2.484 4 4.899v3.869c-.12.078-.235.16-.35.245-.268-2.284-1.549-4.406-3.612-5.674-.013-.147-.038-.292-.038-.439zm1.051 12.583-1.18 3.54c-.04.011-.082.018-.122.03.209-.723.321-1.479.321-2.253 0-1.854-.625-3.612-1.769-5.037.006-.868.201-1.732.593-2.515l.513-1.027c2.01 1.495 2.802 4.162 1.931 6.538-.106.234-.204.475-.287.724zm-2.98 1.317c0 1.622-.631 3.146-1.79 4.306l-1.2 1.243c-.392-.543-.683-1.149-.877-1.791 1.51-1.862 2.621-4.053 3.238-6.442.408.825.629 1.737.629 2.684zm-26.071-26.846v5.522c-.702.44-1.372.923-2 1.458v-7.063c0-.59.185-1.141.493-1.617.371.683.888 1.262 1.507 1.7zm2 .833c.288.051.582.084.883.084h8.108 2.396 1.73c.301 0 .594-.033.883-.084v3.61c-2.138-.971-4.503-1.526-7-1.526s-4.862.555-7 1.526zm16-.833c.62-.438 1.137-1.016 1.507-1.7.308.476.493 1.027.493 1.617v7.062c-.628-.535-1.298-1.017-2-1.458zm-3.279-23.083h3.892l-.561 1.684 1.897.633.772-2.317h3.892l-6.65 19.948c-.409 1.228-1.553 2.052-2.846 2.052h-1.73l5.895-17.684-1.897-.633-5.385 16.155-1.946-5.838zm-17.442 0 .772 2.316 1.897-.633-.56-1.683h3.892l7.333 22h-3.892l-6.106-18.316-1.897.633 5.894 17.683h-1.73c-1.293 0-2.437-.824-2.846-2.052l-6.649-19.948zm-7.15 52.152-1.18-3.54c-.083-.249-.18-.49-.288-.726-.871-2.375-.078-5.043 1.931-6.538l.513 1.027c.392.783.587 1.647.593 2.515-1.144 1.426-1.769 3.183-1.769 5.037 0 .774.112 1.53.321 2.253-.04-.01-.081-.017-.121-.028zm-.129-13.223c0 .147-.025.293-.038.439-2.063 1.268-3.344 3.391-3.612 5.674-.115-.084-.23-.166-.35-.244v-3.869c0-2.415 1.721-4.435 4-4.899zm-6.294-7.612 1.615-2.907c1.674 1.544 2.125 4.058.974 6.131l-1.197 2.154c-.081.146-.142.302-.215.453-.408-.633-.913-1.197-1.498-1.668-.502-1.374-.393-2.877.321-4.163zm-3.706 7.612v-2.899c2.279.465 4 2.484 4 4.899v2.899c-2.279-.465-4-2.484-4-4.899zm1.949 8.683-.654-1.962c2.255-.299 4.479.895 5.482 2.964.083.223.18.442.285.66l.644 1.932c-2.477.336-4.936-1.132-5.757-3.594zm3.758 8.61-1.234-1.234c2.371-1.693 5.694-1.478 7.82.648l1.197 1.239c-2.368 1.67-5.668 1.463-7.783-.653zm9.21-.747-1.21-1.253c-1.146-1.146-1.778-2.671-1.778-4.293 0-.947.221-1.859.629-2.684.617 2.389 1.728 4.579 3.238 6.442-.193.636-.482 1.239-.879 1.788zm14.083 2.525c-8.271 0-15-6.729-15-15s6.729-15 15-15 15 6.729 15 15-6.729 15-15 15zm23.293-1.778c-2.107 2.108-5.392 2.324-7.781.652l1.195-1.237c2.126-2.126 5.45-2.342 7.82-.648zm3.758-8.61c-.82 2.462-3.285 3.927-5.756 3.595l.644-1.932c.105-.218.202-.438.285-.66 1.003-2.071 3.232-3.267 5.482-2.965z"/><path d="m32 39c-3.86 0-7 3.141-7 7s3.14 7 7 7 7-3.141 7-7-3.14-7-7-7zm0 12c-2.757 0-5-2.243-5-5s2.243-5 5-5 5 2.243 5 5-2.243 5-5 5z"/><path d="m32 33c-7.168 0-13 5.832-13 13s5.832 13 13 13 13-5.832 13-13-5.832-13-13-13zm0 24c-6.065 0-11-4.935-11-11s4.935-11 11-11 11 4.935 11 11-4.935 11-11 11z"/></g></svg>