<svg id="Capa_1" enable-background="new 0 0 511.025 511.025" height="512" viewBox="0 0 511.025 511.025" width="512" xmlns="http://www.w3.org/2000/svg"><g><path d="m377.448 228.524c-14.48-14.48-38.041-14.48-52.521 0-2.929 2.929-2.929 7.678 0 10.606 2.93 2.929 7.678 2.929 10.607 0 8.631-8.631 22.676-8.631 31.307 0l1.905 1.905c1.465 1.464 3.385 2.197 5.304 2.197s3.839-.732 5.304-2.197c2.929-2.929 2.929-7.678 0-10.606z"/><path d="m499.581 151.327-.995-.996c-6.088-6.088-13.851-9.505-21.819-10.253 6.247-13.214 3.92-29.506-6.993-40.419l-.995-.996c-5.427-5.426-12.184-8.721-19.23-9.905l1.585-1.585c14.154-14.156 14.154-37.188 0-51.343-6.857-6.857-15.975-10.634-25.672-10.634-7.362 0-14.386 2.181-20.345 6.23-1.092-7.547-4.566-14.514-10.057-20.005l-.993-.993c-6.724-6.725-15.665-10.428-25.174-10.428s-18.45 3.703-25.175 10.428l-29.02 29.021c-8.002-5.811-17.595-8.955-27.675-8.955-12.617 0-24.479 4.914-33.401 13.835l-22.576 22.576c-2.929 2.929-2.929 7.678 0 10.606 2.93 2.929 7.678 2.929 10.607 0l22.576-22.576c6.088-6.089 14.184-9.442 22.794-9.442 8.611 0 16.706 3.354 22.795 9.442l40.736 40.737c.002.002.003.003.005.005l25.485 25.485c3.475 3.475 3.475 9.128 0 12.603l-2.843 2.844c-6.376 6.375-14.852 9.886-23.867 9.886s-17.491-3.511-23.865-9.886l-11.278-11.278c-.001-.001-.002-.002-.003-.003 0-.001-.001-.001-.002-.002l-22.151-22.15c-2.93-2.929-7.678-2.929-10.607 0s-2.929 7.678 0 10.606l22.156 22.155c17.089 17.094 17.089 44.903-.003 61.995l-13.237 13.237c-12.185-12.827-24.181-23.935-34.989-33.19-29.337-25.121-54.627-40.958-64.758-46.941 2.388-4.015 5.29-7.761 8.68-11.151l19.776-19.777c2.929-2.929 2.929-7.678 0-10.606s-7.677-2.93-10.607 0l-19.776 19.777c-13.511 13.511-20.952 31.475-20.952 50.583 0 16.585 5.614 32.302 15.928 44.999l-180.431 180.431c-2.929 2.929-2.929 7.678 0 10.606 1.465 1.464 3.385 2.197 5.304 2.197s3.839-.732 5.304-2.197l22.632-22.632 102.274 102.274-22.68 22.68c-2.929 2.929-2.929 7.678 0 10.606 1.465 1.464 3.385 2.197 5.304 2.197s3.839-.732 5.304-2.197l125.941-125.941c16.333 22.303 38.108 39.747 63.636 50.913 1.025 16.653 6.194 33.148 15.596 47.86l4.644 7.267c2.36 3.693 6.367 5.712 10.456 5.712 2.281 0 4.588-.629 6.648-1.945l33.9-21.663c2.788-1.781 4.715-4.542 5.427-7.773.711-3.231.122-6.545-1.66-9.333l-4.548-7.116c.444-.022.892-.032 1.334-.058l30.504-1.137c2.848-.105 5.483-1.314 7.422-3.403 1.939-2.088 2.948-4.807 2.842-7.654l-1.625-43.637c-.221-5.877-5.188-10.484-11.058-10.261l-12.902.481c1.525-3.575 2.882-7.232 4.021-10.985 1.203-3.963-1.034-8.152-4.998-9.355-3.967-1.203-8.151 1.035-9.355 4.998-2.084 6.867-4.933 13.402-8.501 19.544-.05.086-.099.173-.146.261-2.177 3.721-4.621 7.296-7.323 10.71-10.24 12.937-13.305 29.787-8.938 45.11.013.049.027.097.041.146 1.319 4.575 3.293 9.013 5.948 13.167l3.235 5.063-29.493 18.847-3.235-5.062c-8.779-13.738-13.209-29.304-13.41-44.869 0-.047 0-.095-.001-.142-.215-19.137 5.969-38.265 18.411-53.982 10.44-13.187 14.484-29.983 11.424-46.21 11.243-3.456 21.6-9.62 29.967-17.987l1.105-1.105c2.95 8.691 4.601 17.722 4.87 26.945.119 4.066 3.452 7.281 7.493 7.281.074 0 .148-.001.223-.003 4.141-.121 7.399-3.575 7.278-7.716-.385-13.16-3.152-25.992-8.217-38.154l57.934-57.934 38.034-38.034c6.724-6.724 10.427-15.665 10.427-25.174-.001-9.51-3.704-18.451-10.427-25.173zm-110.908 254.296c2.337-2.953 4.49-6.02 6.491-9.173l17.18-.64 1.303 34.975-26.254.979c-.054.002-.106.004-.16.007-1.96.115-3.934.186-5.906.215-1.149-9.219 1.323-18.754 7.346-26.363zm54.932-302.378c5.275 0 10.552 2.008 14.566 6.023l.995.996c8.033 8.033 8.033 21.103 0 29.136l-31.37 31.37c-3.891 3.891-9.064 6.034-14.567 6.034s-10.677-2.143-14.566-6.033l-.996-.996c-3.891-3.891-6.033-9.065-6.033-14.568s2.143-10.677 6.034-14.568l4.226-4.226c.002-.002.003-.003.005-.005l27.141-27.141c4.016-4.015 9.29-6.022 14.565-6.022zm-89.28-82.211c8.031-8.031 21.102-8.033 29.137.001l.993.993c8.033 8.032 8.033 21.101.001 29.134l-28.599 28.599-16.881-16.881-13.249-13.249zm12.14 69.335 28.598-28.598c.001-.001.002-.002.003-.003l15.332-15.332c4.023-4.024 9.374-6.24 15.064-6.24s11.041 2.216 15.064 6.24c8.308 8.307 8.307 21.823 0 30.13l-22.092 22.092c-.001.001-.003.003-.004.004l-25.067 25.067c-.775-4.969-3.088-9.552-6.711-13.175zm-181.772 54.643c20.258 12.253 87.733 56.365 134.981 126.131-54.981-33.542-95.663-46.041-107.143-49.151l-12.088-20.637c-.323-.552-.716-1.061-1.169-1.513-10.678-10.678-16.559-24.875-16.559-39.976.001-5.09.684-10.071 1.978-14.854zm63.708 220.858c-.013.013-.025.025-.038.038l-24.38 24.38-11.165-29.968c-1.447-3.882-5.769-5.855-9.646-4.41-3.882 1.446-5.856 5.765-4.41 9.647l11.264 30.234-98.169-69.64-9.752-18.534 54.694-54.694 30.764 82.575c1.125 3.019 3.986 4.884 7.029 4.884.87 0 1.755-.152 2.617-.474 3.882-1.446 5.856-5.765 4.41-9.646l-12.656-33.971 71.962 57.054zm-75.777 75.777-45.328-86.15 76.916 54.563zm88.209-107.515-81.991-65.006-10.381-27.864 23.948-23.947zm38.388-34.344-.506-.506c-2.93-2.929-7.678-2.929-10.607 0s-2.929 7.678 0 10.606l.507.506c2.58 2.58 5.32 4.938 8.194 7.068l-11.916 11.916c-.025.025-.05.049-.074.074l-5.892 5.892-55.064-94.007c22.351 7.841 63.741 25.156 113.464 59.061 2.755 5.184 5.373 10.482 7.838 15.892-17.086 1.638-33.764-4.323-45.944-16.502zm-252.16 62.874 43.937-43.937 70.52 134.029-12.182 12.182zm216.269 9.493 25.224-25.224c9.373 14.911 22.492 27.443 37.884 36.179-5.367 10.861-8.667 22.499-9.868 34.332-21.346-10.458-39.531-25.917-53.24-45.287zm74.378-6.875c-1.271 1.606-2.47 3.252-3.63 4.916-14.352-8.086-26.425-19.995-34.6-34.189l10.721-10.721c9.178 4.118 19.16 6.294 29.396 6.294 2.178 0 4.37-.099 6.566-.296 2.212 11.943-.77 24.292-8.453 33.996zm22.354-52.456c-15.613-35.192-37.445-65.649-59.569-90.591l13.694-13.694c13.793-13.794 19.281-32.787 16.488-50.728 5.837 2.417 12.151 3.684 18.659 3.684 9.906 0 19.356-2.941 27.367-8.399-.041.701-.068 1.404-.068 2.112 0 9.51 3.703 18.45 10.426 25.173l.995.996c5.364 5.364 12.14 8.798 19.489 9.971-5.03 6.284-7.767 14.025-7.767 22.191 0 9.509 3.703 18.45 10.427 25.174l.994.994c5.427 5.427 12.184 8.721 19.23 9.905l-50.175 50.175c-5.738 5.739-12.657 10.171-20.19 13.037zm128.911-121.757-37.537 37.537-.497.497c-8.031 8.032-21.104 8.032-29.135 0l-.994-.994c-3.892-3.891-6.034-9.065-6.034-14.568s2.143-10.677 6.034-14.568l38.033-38.034c4.017-4.017 9.292-6.025 14.568-6.025 5.275 0 10.551 2.008 14.566 6.024l.996.996c3.891 3.891 6.033 9.064 6.033 14.568.001 5.502-2.142 10.676-6.033 14.567z"/></g></svg>