<?xml version="1.0" encoding="utf-8"?>
<!-- Generator: Adobe Illustrator 25.2.0, SVG Export Plug-In . SVG Version: 6.00 Build 0)  -->
<svg version="1.1" id="Layer_1" xmlns="http://www.w3.org/2000/svg" xmlns:xlink="http://www.w3.org/1999/xlink" x="0px" y="0px"
	 viewBox="0 0 512 512" style="enable-background:new 0 0 512 512;" xml:space="preserve">
<style type="text/css">
	.st0{fill:#FF7373;}
	.st1{fill:#E10600;}
	.st2{fill:#B8BEBF;}
	.st3{fill:#93999A;}
	.st4{fill:#F9DBAF;}
	.st5{fill:#EDB88E;}
	.st6{fill:#A1D51C;}
	.st7{fill:#F8664F;}
	.st8{fill:#FCBC04;}
	.st9{fill:#F9E109;}
	.st10{fill:#F89C8D;}
	.st11{fill:#C4F236;}
	.st12{fill:#E9F1F2;}
	.st13{fill:#D0D8DA;}
	.st14{fill:#212322;}
</style>
<g id="Fill_Outline">
	<path class="st0" d="M40,56h432c8.8,0,16,7.2,16,16v304c0,8.8-7.2,16-16,16H40c-8.8,0-16-7.2-16-16V72C24,63.2,31.2,56,40,56z"/>
	<path class="st1" d="M104,184V56H40c-8.8,0-16,7.2-16,16v304c0,8.8,7.2,16,16,16h432c8.8,0,16-7.2,16-16v-48H248
		C168.5,328,104,263.5,104,184z"/>
	<path class="st2" d="M312,392H200l-32,64h176L312,392z"/>
	<path class="st3" d="M112,456h288c8.8,0,16,7.2,16,16v16l0,0H96l0,0v-16C96,463.2,103.2,456,112,456z"/>
	<path class="st2" d="M144,456h256c8.8,0,16,7.2,16,16l0,0H160C151.2,472,144,464.8,144,456L144,456z"/>
	<path class="st3" d="M312,392H200l-32,64L312,392z"/>
	<path class="st4" d="M147.8,78.6h291.8v200.6H147.8V78.6z"/>
	<path class="st5" d="M202.5,188V78.6h-54.7v200.6h82.1C211.9,252.2,202.3,220.5,202.5,188z"/>
	<path class="st6" d="M147.3,293.2h64v64h-64V293.2z"/>
	<path class="st7" d="M266.4,294.2h64v64h-64V294.2z"/>
	<path class="st8" d="M375.5,292.5h64v64h-64V292.5z"/>
	<path class="st9" d="M391.5,292.5h48l0,0v48l0,0h-24c-13.3,0-24-10.7-24-24V292.5L391.5,292.5z"/>
	<path class="st10" d="M284.1,294.2h46.3l0,0v46.3l0,0h-23.2c-12.8,0-23.2-10.4-23.2-23.2V294.2L284.1,294.2z"/>
	<path class="st11" d="M163.3,293.2h48l0,0v48l0,0h-24c-13.3,0-24-10.7-24-24V293.2L163.3,293.2z"/>
	<circle class="st12" cx="247.9" cy="167.9" r="36.5"/>
	<path class="st12" d="M220.5,204.4h54.7c15.1,0,27.4,12.2,27.4,27.4v45.6l0,0H193.2l0,0v-45.6C193.2,216.6,205.4,204.4,220.5,204.4
		z"/>
	<path class="st13" d="M266.1,186.1c-20.1,0-36.5-16.3-36.5-36.5c0-5.2,1.1-10.3,3.3-15c-18.4,8.2-26.7,29.7-18.5,48.2
		c8.2,18.4,29.7,26.7,48.2,18.5c8.2-3.7,14.8-10.3,18.5-18.5C276.4,185,271.3,186.1,266.1,186.1L266.1,186.1z"/>
	<path class="st13" d="M220.5,204.4c-15.1,0-27.4,12.2-27.4,27.4v45.6h109.4v-18.2h-27.4C245,259.1,220.5,234.6,220.5,204.4z"/>
	<path class="st13" d="M193.2,231.7v45.6h45.6c-14.4-21.5-23.4-46-26.4-71.7C200.9,209.2,193.2,219.8,193.2,231.7z"/>
	<g>
		<path class="st14" d="M436.4,152c4.9,0,8.8-4,8.8-8.8V81.4c0-4.9-4-8.8-8.8-8.8H153.8c-4.9,0-8.8,4-8.8,8.8v194.3
			c0,4.9,4,8.8,8.8,8.8h282.6c4.9,0,8.8-4,8.8-8.8v-97.1c0-4.9-4-8.8-8.8-8.8s-8.8,4-8.8,8.8v88.3H303.9v-35.3
			c0-16.4-11.4-30.7-27.5-34.4c15.3-19,12.4-46.8-6.6-62.1s-46.8-12.4-62.1,6.6c-13.1,16.2-13.1,39.3,0,55.5
			c-16,3.7-27.4,17.9-27.5,34.4v35.3h-17.7V90.2h264.9v53C427.5,148.1,431.5,152,436.4,152z M242.1,143.2
			c14.6,0,26.5,11.9,26.5,26.5c0,14.6-11.9,26.5-26.5,26.5c-14.6,0-26.5-11.9-26.5-26.5C215.6,155,227.4,143.2,242.1,143.2z
			 M197.9,231.5c0-9.8,7.9-17.7,17.7-17.7h53c9.8,0,17.7,7.9,17.7,17.7v35.3h-88.3V231.5z"/>
		<path class="st14" d="M148.7,372.9h64c4.4,0,8-3.6,8-8v-64c0-4.4-3.6-8-8-8h-64c-4.4,0-8,3.6-8,8v64
			C140.7,369.4,144.3,372.9,148.7,372.9z M156.7,308.9h48v48h-48V308.9z"/>
		<path class="st14" d="M63.5,115.1h16c4.4,0,8-3.6,8-8s-3.6-8-8-8h-16c-4.4,0-8,3.6-8,8S59.1,115.1,63.5,115.1z"/>
		<path class="st14" d="M63.5,147.1h16c4.4,0,8-3.6,8-8s-3.6-8-8-8h-16c-4.4,0-8,3.6-8,8S59.1,147.1,63.5,147.1z"/>
		<path class="st14" d="M258.2,364.6c0,4.4,3.6,8,8,8h64c4.4,0,8-3.6,8-8s-3.6-8-8-8h-56v-48h48v24c0,4.4,3.6,8,8,8s8-3.6,8-8v-32
			c0-4.4-3.6-8-8-8h-64c-4.4,0-8,3.6-8,8V364.6z"/>
		<path class="st14" d="M63.5,211.1h16c4.4,0,8-3.6,8-8s-3.6-8-8-8h-16c-4.4,0-8,3.6-8,8S59.1,211.1,63.5,211.1z"/>
		<path class="st14" d="M63.5,243.1h16c4.4,0,8-3.6,8-8s-3.6-8-8-8h-16c-4.4,0-8,3.6-8,8S59.1,243.1,63.5,243.1z"/>
		<path class="st14" d="M367.1,364.9c0,4.4,3.6,8,8,8h64c4.4,0,8-3.6,8-8v-64c0-4.4-3.6-8-8-8h-64c-4.4,0-8,3.6-8,8V364.9z
			 M383.1,308.9h48v48h-48V308.9z"/>
		<path class="st14" d="M63.5,307.1h16c4.4,0,8-3.6,8-8s-3.6-8-8-8h-16c-4.4,0-8,3.6-8,8S59.1,307.1,63.5,307.1z"/>
		<path class="st14" d="M63.5,339.1h16c4.4,0,8-3.6,8-8s-3.6-8-8-8h-16c-4.4,0-8,3.6-8,8S59.1,339.1,63.5,339.1z"/>
		<path class="st14" d="M488.9,323.1c-4.4,0-8,3.6-8,8v48c0,4.4-3.6,8-8,8h-432c-4.4,0-8-3.6-8-8v-208c0-4.4-3.6-8-8-8s-8,3.6-8,8
			v208c0,13.3,10.7,24,24,24h147l-24,48h-51c-4.4,0-8,3.6-8,8s3.6,8,8,8h288c4.4,0,8,3.6,8,8v8h-312c-4.4,0-8,3.6-8,8s3.6,8,8,8h320
			c4.4,0,8-3.6,8-8v-16c0-13.3-10.7-24-24-24h-51l-24-48h147c13.3,0,24-10.7,24-24v-48C496.9,326.6,493.4,323.1,488.9,323.1z
			 M332,451.1H181.9l24-48H308L332,451.1z"/>
		<path class="st14" d="M472.9,51.1h-432c-13.3,0-24,10.7-24,24v64c0,4.4,3.6,8,8,8s8-3.6,8-8v-64c0-4.4,3.6-8,8-8h432
			c4.4,0,8,3.6,8,8v224c0,4.4,3.6,8,8,8s8-3.6,8-8v-224C496.9,61.8,486.2,51.1,472.9,51.1z"/>
	</g>
</g>
</svg>
