<?xml version="1.0" encoding="utf-8"?>
<!-- Generator: Adobe Illustrator 25.2.0, SVG Export Plug-In . SVG Version: 6.00 Build 0)  -->
<svg version="1.1" id="Fill_Outline" xmlns="http://www.w3.org/2000/svg" xmlns:xlink="http://www.w3.org/1999/xlink" x="0px"
	 y="0px" viewBox="0 0 512 512" style="enable-background:new 0 0 512 512;" xml:space="preserve">
<style type="text/css">
	.st0{fill:#FF7373;}
	.st1{fill:#E10600;}
	.st2{fill:#93999A;}
	.st3{fill:#656B76;}
	.st4{fill:#B8BEBF;}
	.st5{fill:#E9F1F2;}
	.st6{fill:#D0D8DA;}
	.st7{fill:#F9DBAF;}
	.st8{fill:#EDB88E;}
	.st9{fill:#DA9367;}
	.st10{fill:#EF5350;}
	.st11{fill:#212322;}
	.st12{fill:#323232;}
</style>
<g id="Color">
	<path class="st0" d="M168,80H56c-17.7,0-32,14.3-32,32v80c0,17.7,14.3,32,32,32h48l56,56v-56h8c17.7,0,32-14.3,32-32v-80
		C200,94.3,185.7,80,168,80z"/>
	<path class="st1" d="M200,192c0,17.7-14.3,32-32,32h-8v56l-56-56H56c-17.7,0-32-14.3-32-32v-80c0-17.7,14.3-32,32-32h40v24
		c0,48.6,39.3,88,87.9,88c0,0,0.1,0,0.1,0H200z"/>
	<path class="st2" d="M327,166.1c-4.8-25.8-29.6-42.8-55.4-38c-25.8,4.8-42.8,29.6-38,55.4c0.1,0.7,0.3,1.5,0.5,2.2l4,19.3
		c1.3,6.2,0.1,12.6-3.2,17.9l-11.8,18.9c-4.4,7.1-4.9,16-1.3,23.5l4.6,9.6c3.5,7.3,3.2,15.9-0.9,22.9c-6.8,11.7-2.8,26.7,8.9,33.5
		c2.4,1.4,5.1,2.4,7.9,2.9L296,344V221.2C318.7,213.2,331.9,189.7,327,166.1L327,166.1z"/>
	<path class="st3" d="M242.3,334.2L296,344V221.2c25-8.8,38.1-36.3,29.3-61.2c-5.5-15.6-18.7-27.3-34.9-30.9
		c-0.8-0.2-1.6-0.2-2.4-0.4c-16.5,2.8-30.3,14-36.5,29.5c-3.1,8.4-3.7,17.4-1.7,26.1c1.3,6.1,3,14.4,4.3,20.8
		c1.3,6.1,0.1,12.5-3.2,17.9l-11.8,18.9c-4.4,7.1-4.9,16-1.3,23.5l4.6,9.6l0.1,0.2c3.1,7.8-0.6,16.6-8.4,19.7
		c-1.9,0.8-3.9,1.1-5.9,1.1h-1.9c-0.2,0.6-0.5,1.2-0.8,1.8c-6.8,11.7-2.8,26.7,8.9,33.5C236.8,332.7,239.5,333.7,242.3,334.2
		L242.3,334.2z"/>
	<path class="st4" d="M373,125.1c-20-13-45.7-13.5-66.2-1.4C296,129.2,288.9,140,288,152c0,22.1,28.7,40,64,40v192l70.7-20.2
		c20-5.7,31.6-26.6,25.9-46.6c-0.4-1.6-1-3.1-1.7-4.6c-4.4-10.2-4.1-21.7,0.8-31.7l1.6-3.3c8.4-17,2.9-37.5-12.9-48l-3.7-2.5
		c-10.5-7-16.8-18.8-16.8-31.4v-8c0-22.3-11.5-43-30.4-54.8L373,125.1z"/>
	<path class="st2" d="M446.7,312c-9,0.1-16.4-7.2-16.5-16.2c0-2.3,0.4-4.5,1.3-6.6l0.1-0.2l1.6-3.3c8.4-17,2.9-37.5-12.9-48
		l-3.6-2.5c-10.5-7-16.8-18.8-16.8-31.4v-8c0-22.3-11.5-43-30.4-54.8l-12.6-7.9c-15.9-10.1-35.5-12.7-53.5-7.1
		c-9.1,5.7-14.8,15.4-15.5,26c0,22.1,28.7,40,64,40v192l70.7-20.2c20-5.7,31.6-26.6,25.9-46.6c-0.5-1.6-1-3.1-1.7-4.6
		C446.8,312.4,446.8,312.2,446.7,312L446.7,312z"/>
	<path class="st0" d="M259.8,333l33.9,33.9l-96.2,96.2l-33.9-33.9L259.8,333z"/>
	<path class="st1" d="M392,488H272v-43.4c0-13.4-4.2-26.4-12-37.2c-7.8-10.8-12-23.9-12-37.2c0-36.5,29.6-66.1,66.1-66.1h0H368
		c35.3,0,64,28.7,64,64v80C432,470.1,414.1,488,392,488z"/>
	<path class="st0" d="M384,424c-48.6,0-88-39.4-88-88v-29.4c-28.4,8.1-48,34-48,63.5c0,13.4,4.2,26.4,12,37.2
		c7.8,10.8,12,23.9,12,37.2V488h120c22.1,0,40-17.9,40-40v-24L384,424z"/>
	<path class="st1" d="M384,368L384,368v64l0,0h-16l0,0v-48C368,375.2,375.2,368,384,368z"/>
	<path class="st4" d="M160,456h120l0,0c0,17.7-14.3,32-32,32h-88l0,0V456L160,456z"/>
	<path class="st5" d="M167.7,328H56c-17.7,0-32,14.3-32,32c0,1.1,0.1,2.1,0.2,3.2l9.6,96c1.6,16.4,15.4,28.8,31.8,28.8H195
		c8.8,0,16-7.2,16-16c0-0.5,0-1.1-0.1-1.6l-11.4-113.6C197.9,340.4,184.1,328,167.7,328z"/>
	<path class="st6" d="M210.9,470.4c0.9,8.8-5.5,16.6-14.3,17.5c-0.5,0.1-1.1,0.1-1.6,0.1H65.6c-16.4,0-30.2-12.4-31.8-28.8l-9.6-96
		c-1.8-17.6,11-33.2,28.5-35c1.1-0.1,2.2-0.2,3.3-0.2h2c12.8,65,69.8,111.9,136.1,112h13.8L210.9,470.4z"/>
	<circle class="st7" cx="112" cy="408" r="16"/>
	<path class="st8" d="M112,424c3.9,0,7.6-1.4,10.5-4c-7.6-4.6-14.8-9.9-21.3-15.8c-1.2-1.1-2.2-2.2-3.4-3.3
		c-1.1,2.2-1.7,4.7-1.8,7.1C96,416.8,103.2,424,112,424z"/>
	<path class="st1" d="M384,376v64l-88,8v40h96c22.1,0,40-17.9,40-40v-72H384z"/>
	<path class="st7" d="M272,448h24l0,0v40l0,0h-48l0,0v-16C248,458.7,258.7,448,272,448z"/>
	<path class="st8" d="M296,256h64l0,0v40c0,22.1-17.9,40-40,40c-13.3,0-24-10.7-24-24V256L296,256z"/>
	<path class="st9" d="M312.8,312c19.4-0.3,37.2-10.6,47.2-27.2V256h-64v56c0,13.3,10.7,24,24,24c8.9,0,17.5-3,24.5-8.6
		C332.5,325.8,321.4,320.4,312.8,312L312.8,312z"/>
	<path class="st7" d="M320,296c-30.9,0-56-25.1-56-56v-19.9c0-22.9,9.8-44.8,26.9-60.1c16,17.6,38.8,27.3,62.5,26.7
		c6.3-0.2,12.3,2.4,16.6,6.9c3.8,4.1,6,9.5,6,15.1V240C376,270.9,350.9,296,320,296L320,296z"/>
	<path class="st8" d="M370,193.6c-4.3-4.6-10.3-7.1-16.6-6.9c-23.7,0.6-46.6-9.1-62.5-26.7c-17.1,15.3-26.9,37.1-26.9,60.1V240
		c0.1,30.9,25.2,56,56.1,55.9c24,0,45.3-15.4,53-38.1c-23,20.5-58.3,18.5-78.9-4.5C285,243.1,280,229.8,280,216v-19.9
		c0-2.9,0.2-5.8,0.5-8.7c3.1-4.1,6.6-7.9,10.4-11.4c16,17.6,38.8,27.3,62.5,26.7c3.2-0.1,6.5,0.6,9.4,1.9
		c-7.1,5.7-11.1,14.3-10.9,23.4c-0.8,13.4,8.5,25.3,21.7,27.7c1.5-5.1,2.3-10.4,2.3-15.7v-31.3C376,203.1,373.9,197.7,370,193.6
		L370,193.6z"/>
	<ellipse class="st10" cx="384" cy="220" rx="24" ry="28"/>
	<circle class="st7" cx="72" cy="128" r="16"/>
	<path class="st7" d="M72,144c8.8,0,16,7.2,16,16v16l0,0H56l0,0v-16C56,151.2,63.2,144,72,144z"/>
	<path class="st1" d="M406,231.1c-3.1,9.7-11.9,16.4-22,16.9c-14.3-1.2-25-13.7-24-28c-0.6-12,6.7-22.9,18-27c-1.3,3.5-2,7.3-2,11
		c-1,14.3,9.7,26.8,24,28C402,232,404.1,231.7,406,231.1L406,231.1z"/>
	<g>
		<path class="st8" d="M296,448v40h-48v-16h16c13.3,0,24-10.7,24-24H296z"/>
		<path class="st8" d="M80,136c-8.8,0-16-7.1-16-15.9c0-2.3,0.5-4.6,1.4-6.7c-8.1,3.6-11.7,13-8.1,21.1c3.6,8.1,13,11.7,21.1,8.1
			c3.6-1.6,6.5-4.5,8.1-8.1C84.5,135.5,82.3,136,80,136z"/>
		<path class="st8" d="M80,160c-8,0-14.8-6-15.8-13.9c-5.1,2.8-8.2,8.1-8.2,13.9v16h32v-16c0-0.7-0.1-1.4-0.2-2.1
			C85.4,159.3,82.7,160,80,160z"/>
	</g>
</g>
<g id="Outline_copy">
	<path class="st11" d="M455,284.5l1.6-3.2c10.1-20.6,3.5-45.4-15.6-58.2l-3.7-2.5c-8.3-5.5-13.3-14.8-13.3-24.8v-8
		c0-7.6-1.2-15.2-3.6-22.4c-1.4-4.2-5.9-6.5-10.1-5.1s-6.5,5.9-5.1,10.1c1.9,5.6,2.8,11.5,2.8,17.4v8c0,0.2,0,0.4,0,0.7
		c-5.6-7.7-14.5-12.3-24-12.5c-0.2,0-0.4,0.1-0.6,0.1c-2.4-24.9-16.2-47.2-37.3-60.5c8,1.2,15.7,4,22.6,8.3l12.7,8
		c3.2,2,6.1,4.2,8.8,6.8c3.2,3,8.3,2.9,11.3-0.3c3-3.2,2.9-8.3-0.3-11.3l0,0c-3.5-3.3-7.3-6.3-11.4-8.8l-12.6-7.9
		c-22.6-14.6-51.6-15.2-74.8-1.4c-2.5,1.6-4.8,3.3-7.1,5.2c-1.1-0.3-2.2-0.7-3.4-0.9c-29.6-6.8-59.1,11.6-65.9,41.2
		c-1.9,8.2-1.9,16.7,0.1,24.9l4,19.3c0.9,4.1,0.1,8.5-2.1,12l-11.8,18.9c-5.9,9.4-6.5,21.2-1.7,31.2l4.6,9.6
		c2.4,4.9,2.1,10.7-0.6,15.4c-6.7,11.5-5.7,26,2.6,36.4c2.8,3.4,7.8,4,11.2,1.2c3.4-2.7,4-7.7,1.3-11.1c-4.2-5.3-4.7-12.7-1.3-18.5
		c5.4-9.3,5.9-20.7,1.2-30.4l-4.6-9.6c-2.4-5.1-2.1-11.1,0.9-15.8l11.7-18.9c4.4-7.1,5.9-15.6,4.2-23.7l-4-19.3
		c-5.2-20.8,7.5-41.8,28.3-47c4.5-1.1,9.2-1.4,13.8-0.9c-2.5,4.9-3.9,10.3-3.9,15.7c0,2.3,0.3,4.6,0.8,6.8
		c-15.9,16.5-24.8,38.4-24.8,61.3V240c0,22.8,12.2,43.9,32,55.3v5.5c-14.4,5.5-26.8,15.3-35.3,28.1l-43.5,43.5l-1.6-16.4
		c-2-20.5-19.3-36.1-39.8-36H56c-22.1,0-40,17.9-40,40c0,1.3,0.1,2.7,0.2,4l2.8,28.4c0.4,4.4,4.4,7.6,8.8,7.2s7.6-4.4,7.2-8.8
		l-2.8-28.4c-1.3-13.2,8.3-25,21.5-26.3c0.8-0.1,1.6-0.1,2.4-0.1h111.7c12.3,0,22.7,9.3,23.9,21.6l11.4,113.6
		c0.4,4.4-2.8,8.3-7.2,8.8c-0.3,0-0.5,0-0.8,0H65.6c-12.3,0-22.7-9.3-23.9-21.6l-3.6-35.7c-0.4-4.4-4.4-7.6-8.8-7.2
		s-7.6,4.4-7.2,8.8l3.6,35.7c2,20.5,19.2,36.1,39.8,36H392c26.5,0,48-21.5,48-48v-48c0-4.4-3.6-8-8-8s-8,3.6-8,8v48
		c0,17.7-14.3,32-32,32h-88v-24.7l80.7-7.3c4.1-0.4,7.3-3.8,7.3-8v-64c0-4.4-3.6-8-8-8s-8,3.6-8,8v56.7l-80.4,7.3h-16
		c-0.8-13.4-5.3-26.4-13.2-37.4c-6.8-9.5-10.5-20.9-10.5-32.6c0.1-22.1,12.7-42.3,32.6-52.1c2.9,15.1,16,26,31.4,26
		c20.3,0,38.4-12.8,45.2-32h2.8c30.9,0,56,25.1,56,56c0,4.4,3.6,8,8,8s8-3.6,8-8c0-1.4-0.1-2.8-0.2-4.2
		c16.8-12.7,22.8-35.2,14.5-54.5C450.8,301.4,451,292.2,455,284.5L455,284.5z M224.1,448l31.9-31.9c4.6,7.6,7.2,16.3,7.8,25.1
		c-4.7,1.3-9,3.6-12.7,6.8L224.1,448z M240.3,363.9c-0.2,2-0.3,4.1-0.3,6.2c0,11.1,2.6,22,7.5,31.9l-32.2,32.2l-4.1-41.1
		L240.3,363.9z M218.3,464h22.9c-0.7,2.6-1.1,5.3-1.1,8v8h-22.5c1.2-3.3,1.6-6.9,1.3-10.4L218.3,464z M288,480h-32v-8
		c0-8.8,7.2-16,16-16h16V480z M400,220c0.9,9.9-6.1,18.7-16,20c-9.9-1.3-16.9-10.1-16-20c-0.9-9.9,6.1-18.7,16-20
		C393.9,201.3,400.9,210.1,400,220z M311,130.5c1.9-1.2,3.9-2.2,5.9-3.1l11.8,5.1c20.5,8.7,35,27.4,38.5,49.4
		c-4.3-2.2-9.1-3.3-13.9-3.2c-21.4,0.7-42-8.1-56.4-24.1c-0.2-0.2-0.4-0.3-0.6-0.5c-0.1-0.7-0.2-1.4-0.2-2.2
		C297,142.7,302.6,134.6,311,130.5L311,130.5z M272,240v-19.9c0-18.1,6.7-35.5,18.9-48.8c17.2,15.6,39.6,23.9,62.8,23.4
		c2.3-0.1,4.5,0.4,6.5,1.5c-5.4,6.8-8.2,15.2-8.2,23.8c0,6.7,1.7,13.2,5,19.1l-6.2,4.4c-11.3,8.2-24.9,12.5-38.8,12.5
		c-4.4,0-8,3.6-8,8s3.6,8,8,8c17.3,0,34.1-5.4,48.2-15.5l6.2-4.4c-6.6,25.6-32.7,41-58.4,34.4C286.8,281,272,261.9,272,240z
		 M320,328c-8.8,0-16-7.2-16-16v-10.1c16.2,4.3,33.5,2,48-6.5v0.6C352,313.7,337.7,328,320,328z M442.2,274.2l-1.6,3.2
		c-6,12-6.4,26-1,38.3c4.2,9.7,2.9,20.9-3.4,29.4c-9.8-29.3-37.3-49.1-68.2-49.1v-13.7c6.7-7.6,11.5-16.7,14-26.5
		c0.7,0,1.3,0.2,2,0.2c18.2-1.1,32.3-16.4,31.9-34.6c3.3,4.9,7.5,9.2,12.5,12.5l3.7,2.5C444.4,244.6,448.8,260.8,442.2,274.2
		L442.2,274.2z"/>
	<path class="st12" d="M136,408c0-13.3-10.7-24-24-24s-24,10.7-24,24s10.7,24,24,24S136,421.3,136,408z M104,408c0-4.4,3.6-8,8-8
		s8,3.6,8,8s-3.6,8-8,8S104,412.4,104,408z"/>
	<path class="st11" d="M56,232h44.7l53.7,53.7c1.5,1.5,3.5,2.3,5.7,2.3c1.1,0,2.1-0.2,3.1-0.6c3-1.2,4.9-4.2,4.9-7.4v-48
		c22.1,0,40-17.9,40-40v-80c0-22.1-17.9-40-40-40c-4.4,0-8,3.6-8,8s3.6,8,8,8c13.3,0,24,10.7,24,24v80c0,13.3-10.7,24-24,24h-8
		c-4.4,0-8,3.6-8,8v36.7l-42.3-42.3c-1.5-1.5-3.5-2.3-5.7-2.3H56c-13.3,0-24-10.7-24-24v-80c0-13.3,10.7-24,24-24h80
		c4.4,0,8-3.6,8-8s-3.6-8-8-8H56c-22.1,0-40,17.9-40,40v80C16,214.1,33.9,232,56,232z"/>
	<path class="st11" d="M72,104c-13.2-0.1-23.9,10.6-24,23.8c0,6,2.2,11.8,6.2,16.2c-4,4.4-6.2,10.1-6.2,16v16c0,4.4,3.6,8,8,8h32
		c4.4,0,8-3.6,8-8v-16c0-5.9-2.2-11.6-6.2-16c8.9-9.8,8.2-24.9-1.6-33.8C83.8,106.2,78,104,72,104z M72,120c4.4,0,8,3.6,8,8
		c0,4.4-3.6,8-8,8s-8-3.6-8-8C64,123.6,67.6,120,72,120z M80,168H64v-8c0-4.4,3.6-8,8-8s8,3.6,8,8V168z"/>
	<path class="st11" d="M168,104h-24c-4.4,0-8,3.6-8,8s3.6,8,8,8h24c4.4,0,8-3.6,8-8S172.4,104,168,104z"/>
	<path class="st11" d="M168,136h-48c-4.4,0-8,3.6-8,8s3.6,8,8,8h48c4.4,0,8-3.6,8-8S172.4,136,168,136z"/>
	<path class="st11" d="M168,168h-48c-4.4,0-8,3.6-8,8s3.6,8,8,8h48c4.4,0,8-3.6,8-8S172.4,168,168,168z"/>
	<circle class="st12" cx="288" cy="216" r="8"/>
	<circle class="st12" cx="328" cy="216" r="8"/>
	<path class="st12" d="M352.2,382.1l-0.2,1c-3.7,14.7-16.9,25-32,25c-4.4,0-8,3.6-8,8s3.6,8,8,8c22.5,0,42.1-15.3,47.5-37.1l0.2-1
		c1.2-4.3-1.3-8.7-5.6-9.8c-4.3-1.2-8.7,1.3-9.8,5.6C352.3,381.8,352.3,381.9,352.2,382.1z"/>
</g>
<path class="st0" d="M246.3,34.9l6.4,18c0.3,0.8,0.8,1.4,1.5,1.7l16,7.2c2.3,1,2.3,4.6,0,5.6l-16,7.2c-0.7,0.3-1.2,0.9-1.5,1.7
	l-6.4,18c-0.9,2.5-4.1,2.5-5,0l-6.4-18c-0.3-0.8-0.8-1.4-1.5-1.7l-16-7.2c-2.3-1-2.3-4.6,0-5.6l16-7.2c0.7-0.3,1.2-0.9,1.5-1.7
	l6.4-18C242.2,32.3,245.4,32.3,246.3,34.9z"/>
<path class="st0" d="M460.9,121.5l6.4,18c0.3,0.8,0.8,1.4,1.5,1.7l16,7.2c2.3,1,2.3,4.6,0,5.6l-16,7.2c-0.7,0.3-1.2,0.9-1.5,1.7
	l-6.4,18c-0.9,2.5-4.1,2.5-5,0l-6.4-18c-0.3-0.8-0.8-1.4-1.5-1.7l-16-7.2c-2.3-1-2.3-4.6,0-5.6l16-7.2c0.7-0.3,1.2-0.9,1.5-1.7
	l6.4-18C456.8,118.9,460,118.9,460.9,121.5z"/>
<path class="st0" d="M489.9,205.2c0,4.4-3.6,8-8,8s-8-3.6-8-8c0-4.4,3.6-8,8-8C486.3,197.3,489.9,200.8,489.9,205.2z"/>
<ellipse transform="matrix(0.23 -0.9732 0.9732 0.23 -212.3553 291.7132)" class="st0" cx="78.2" cy="280.1" rx="18.8" ry="18.8"/>
</svg>
