<?xml version="1.0" standalone="no"?>
<!DOCTYPE svg PUBLIC "-//W3C//DTD SVG 20010904//EN"
 "http://www.w3.org/TR/2001/REC-SVG-20010904/DTD/svg10.dtd">
<svg version="1.0" xmlns="http://www.w3.org/2000/svg"
 width="700.000000pt" height="700.000000pt" viewBox="0 0 700.000000 700.000000"
 preserveAspectRatio="xMidYMid meet">
<metadata>
Created by potrace 1.14, written by Peter Selinger 2001-2017
</metadata>
<g transform="translate(0.000000,700.000000) scale(0.100000,-0.100000)"
fill="#000000" stroke="none">
<path d="M3340 6538 c-81 -148 -222 -305 -430 -482 -123 -105 -234 -202 -258
-226 -13 -12 -12 -15 10 -21 13 -3 51 -9 83 -13 64 -7 80 -17 90 -57 8 -34
-29 -75 -105 -117 -150 -81 -379 -213 -415 -239 -18 -13 -24 -27 -25 -54 0
-42 10 -49 80 -56 88 -8 129 -44 124 -106 -6 -65 -49 -98 -133 -104 -105 -8
-174 -57 -261 -188 -82 -125 -102 -141 -321 -251 -74 -37 -159 -84 -189 -104
-30 -20 -85 -53 -123 -74 -64 -35 -98 -70 -104 -105 -5 -31 27 -97 56 -114 42
-24 70 -21 177 19 116 43 125 45 191 45 61 1 110 -24 144 -73 17 -23 23 -49
26 -105 4 -68 2 -78 -27 -128 -36 -63 -112 -159 -154 -195 -45 -38 -76 -55
-147 -80 -201 -70 -359 -174 -559 -370 -47 -45 -104 -98 -128 -118 -50 -41
-59 -69 -38 -114 27 -53 62 -73 131 -72 74 0 121 22 306 143 100 66 151 81
202 60 73 -31 110 -86 109 -165 -1 -99 -48 -155 -192 -228 -82 -42 -424 -267
-480 -317 -19 -17 -85 -79 -146 -138 -124 -121 -204 -180 -282 -207 -57 -20
-92 -46 -92 -69 0 -21 80 -84 116 -91 17 -3 40 -1 50 4 11 5 68 20 128 32 191
38 302 82 656 260 205 103 274 129 327 124 71 -6 133 -75 133 -148 0 -29 -8
-45 -38 -76 -53 -57 -185 -132 -325 -186 -67 -25 -174 -67 -237 -92 -63 -25
-127 -47 -141 -48 -15 -2 -45 -12 -66 -23 -21 -11 -66 -22 -100 -25 -71 -6
-116 -26 -139 -62 -10 -14 -23 -23 -30 -20 -38 15 -59 -77 -24 -109 46 -42
224 -62 305 -34 17 5 68 12 115 16 103 7 210 33 279 67 28 14 60 26 71 26 27
0 70 22 94 49 10 11 23 18 28 15 18 -12 78 7 125 40 26 18 65 35 87 39 21 3
88 29 148 58 213 101 340 122 441 76 84 -38 197 -158 197 -208 0 -14 7 -35 16
-48 11 -16 14 -34 10 -59 -3 -20 -8 -62 -11 -92 -9 -82 -120 -301 -221 -435
-169 -225 -392 -389 -629 -460 -94 -28 -245 -117 -265 -156 -13 -23 -1 -50 32
-73 34 -24 45 -20 96 35 51 55 146 114 203 124 21 4 66 8 100 9 35 2 73 8 85
14 11 6 43 14 70 17 179 23 261 60 420 187 169 136 216 166 266 173 25 4 68 9
94 13 39 6 56 3 97 -17 59 -30 145 -36 213 -15 107 32 154 15 194 -70 30 -66
78 -120 150 -169 85 -59 135 -100 175 -144 32 -35 48 -44 74 -45 41 -1 51 13
51 80 0 100 45 139 147 129 172 -17 304 -56 425 -123 32 -18 107 -100 128
-140 19 -37 25 -43 79 -82 51 -37 78 -40 113 -12 33 25 40 62 18 98 -16 26
-111 112 -124 112 -23 0 -161 112 -261 214 -138 139 -159 163 -213 243 -49 74
-65 115 -97 255 -22 92 -26 138 -27 253 0 77 5 167 11 200 6 33 12 71 15 85
18 102 55 171 115 210 42 28 50 30 114 25 38 -2 75 -9 81 -14 22 -18 164 -92
239 -125 80 -35 130 -39 447 -41 276 -2 484 -10 500 -20 3 -2 25 -6 49 -10 59
-9 174 -51 241 -88 30 -17 97 -62 149 -101 52 -38 124 -85 160 -104 36 -19 77
-42 91 -51 59 -41 114 -57 172 -52 25 2 78 78 78 112 0 15 -10 43 -23 62 -24
36 -136 147 -147 147 -4 0 -36 23 -71 51 -78 62 -200 143 -294 194 -446 244
-541 305 -587 377 -39 60 -15 108 86 178 38 26 62 34 107 37 54 4 66 1 186
-57 204 -99 284 -131 340 -137 48 -5 54 -3 82 25 39 38 42 87 9 123 -13 14
-86 67 -163 118 -184 124 -240 169 -300 238 -144 167 -244 240 -363 263 -31 6
-80 17 -108 26 -28 8 -66 14 -85 13 -84 -6 -97 63 -25 130 l26 25 338 3 c200
2 348 8 363 14 28 11 46 38 53 79 9 58 -29 78 -264 139 -107 27 -276 71 -375
96 -199 51 -230 68 -214 113 6 15 22 41 37 59 23 27 35 32 87 37 32 3 64 1 70
-3 17 -15 99 -39 146 -45 24 -2 71 -8 104 -11 33 -4 77 -11 99 -15 44 -10 80
1 90 25 11 29 7 66 -11 96 -18 30 -28 35 -253 142 -67 32 -199 111 -240 144
-8 6 -59 46 -112 87 -102 79 -141 111 -167 137 -32 32 -278 226 -336 265 -33
23 -92 59 -131 82 -97 56 -112 101 -54 157 39 38 100 44 171 17 30 -11 92 -34
138 -51 87 -33 176 -54 270 -65 62 -7 101 10 101 47 0 18 -19 32 -105 75 -135
69 -268 161 -367 254 -28 27 -28 28 -13 58 8 16 27 33 40 36 23 6 42 4 131
-12 49 -9 88 49 68 101 -9 21 -392 276 -499 332 -93 48 -206 83 -360 111 -214
40 -388 164 -492 352 -67 120 -84 151 -113 208 -17 34 -32 62 -34 62 -1 0 -13
-19 -26 -42z m-617 -1139 c31 -17 37 -28 37 -72 0 -45 -36 -87 -74 -87 -67 0
-105 101 -56 150 22 22 60 26 93 9z m1036 -106 c30 -25 38 -85 17 -118 -49
-74 -153 -29 -148 64 3 44 32 71 77 71 18 0 42 -8 54 -17z m-309 -33 c34 -34
25 -116 -17 -158 -13 -13 -113 -45 -113 -36 0 2 -21 -5 -47 -15 -53 -20 -85
-19 -121 5 -21 14 -24 22 -19 57 10 74 56 113 169 147 84 25 123 25 148 0z
m670 0 c20 -20 24 -40 20 -90 -5 -63 -68 -109 -125 -90 -81 27 -96 147 -23
184 46 22 103 21 128 -4z m-1170 -200 c11 -11 20 -26 21 -32 0 -7 2 -22 4 -32
6 -32 -43 -114 -87 -146 -70 -51 -147 -83 -185 -77 -69 12 -82 54 -36 122 35
52 63 77 153 135 84 55 101 59 130 30z m886 -415 c29 -44 3 -168 -37 -180 -59
-19 -98 -9 -118 29 -32 60 -17 123 38 155 51 29 96 28 117 -4z m-380 10 c33
-7 49 -57 35 -104 -19 -66 -105 -92 -156 -48 -21 17 -27 32 -28 64 0 23 5 48
12 57 20 24 95 41 137 31z m869 -105 c73 -45 91 -172 31 -221 -71 -59 -256
-39 -307 32 -40 56 -28 146 24 178 64 41 195 46 252 11z m-1668 -25 c30 -20
45 -57 38 -97 -15 -82 -83 -129 -180 -122 -110 7 -130 170 -27 223 42 22 133
19 169 -4z m-482 -65 c118 -56 196 -178 159 -251 -18 -36 -83 -63 -134 -56
-79 10 -176 118 -184 203 -6 64 27 103 99 117 24 4 23 5 60 -13z m2567 -391
c40 -21 61 -119 37 -172 -33 -73 -177 -73 -225 0 -23 36 -22 97 1 123 32 35
57 44 158 59 5 0 17 -4 29 -10z m-1488 -212 c22 -16 32 -87 17 -115 -7 -13
-26 -24 -47 -28 -47 -9 -74 16 -76 71 -2 62 61 105 106 72z m-431 -70 c45 -19
75 -76 59 -112 -32 -69 -140 -35 -144 46 -2 45 2 56 25 67 12 6 23 11 25 11 1
1 17 -5 35 -12z m763 -89 c14 -24 35 -56 46 -72 12 -16 23 -47 25 -70 7 -58
-18 -86 -81 -93 -92 -11 -141 39 -145 146 -3 92 24 129 96 130 28 1 37 -5 59
-41z m246 -112 c30 -35 1 -116 -41 -116 -29 0 -59 28 -63 60 -3 16 -1 30 4 30
4 0 8 5 8 12 0 6 8 20 17 30 20 22 50 16 75 -16z m-1578 -148 c33 -13 66 -78
60 -117 -6 -38 -58 -77 -148 -112 -187 -72 -290 -81 -361 -31 -66 46 -103 134
-83 194 15 43 71 56 328 74 52 3 97 8 99 10 6 6 76 -6 105 -18z m2543 -400
c37 -36 49 -77 32 -110 -20 -39 -77 -88 -127 -110 -52 -23 -172 -32 -226 -17
-74 21 -99 101 -50 159 33 39 88 67 184 96 95 28 144 23 187 -18z m530 -113
c28 -19 53 -71 53 -113 0 -111 -163 -206 -296 -173 -53 14 -72 29 -84 70 -12
42 1 85 38 130 80 96 213 136 289 86z m-2737 -164 c63 -32 102 -114 104 -219
1 -47 -3 -57 -26 -77 -23 -20 -33 -22 -63 -15 -41 9 -82 43 -96 78 -10 26 -31
141 -34 192 -5 67 36 82 115 41z m810 -50 c43 -22 71 -67 75 -121 6 -79 -78
-125 -155 -85 -16 8 -34 25 -40 36 -16 29 -10 150 8 172 20 22 68 22 112 -2z
m-417 -66 c44 -21 69 -59 75 -111 8 -72 -36 -97 -93 -52 -46 36 -83 146 -58
171 11 11 43 8 76 -8z"/>
</g>
</svg>
